M48
; DRILL file {KiCad 9.0.6} date 2026-02-17T15:45:54-0500
; FORMAT={-:-/ absolute / inch / decimal}
; #@! TF.CreationDate,2026-02-17T15:45:54-05:00
; #@! TF.GenerationSoftware,Kicad,Pcbnew,9.0.6
; #@! TF.FileFunction,Plated,1,2,PTH
FMAT,2
INCH
; #@! TA.AperFunction,Plated,PTH,ViaDrill
T1C0.0118
; #@! TA.AperFunction,Plated,PTH,ViaDrill
T2C0.0157
; #@! TA.AperFunction,Plated,PTH,ComponentDrill
T3C0.0236
; #@! TA.AperFunction,Plated,PTH,ComponentDrill
T4C0.0256
; #@! TA.AperFunction,Plated,PTH,ComponentDrill
T5C0.0295
; #@! TA.AperFunction,Plated,PTH,ComponentDrill
T6C0.0394
; #@! TA.AperFunction,Plated,PTH,ComponentDrill
T7C0.1181
; #@! TA.AperFunction,Plated,PTH,ComponentDrill
T8C0.1200
%
G90
G05
T1
X0.9528Y-4.9528
X0.9567Y-4.8622
X0.9606Y-2.1523
X0.9606Y-5.9134
X0.9646Y-5.6024
X0.9657Y-1.4565
X0.9657Y-1.5565
X0.9657Y-1.6565
X0.9657Y-1.7565
X0.9764Y-2.3622
X0.9764Y-3.3701
X0.9764Y-4.6732
X0.9764Y-5.9646
X0.9843Y-3.5787
X1.0118Y-5.8898
X1.0433Y-2.1417
X1.0512Y-3.4331
X1.0512Y-6.1142
X1.0657Y-1.3565
X1.0657Y-1.4565
X1.0657Y-1.5565
X1.0657Y-1.7565
X1.0657Y-3.0565
X1.0657Y-3.1565
X1.0657Y-3.2565
X1.0657Y-3.6565
X1.0657Y-3.7565
X1.0657Y-3.8565
X1.0657Y-3.9565
X1.0657Y-4.0565
X1.0657Y-4.1565
X1.0657Y-4.2565
X1.0657Y-4.3565
X1.0657Y-4.4565
X1.0657Y-4.5565
X1.0657Y-4.8565
X1.0657Y-4.9565
X1.0657Y-5.0565
X1.0709Y-5.3858
X1.0709Y-5.7126
X1.0709Y-6.0433
X1.0748Y-5.8858
X1.1102Y-3.5827
X1.1142Y-5.1614
X1.1657Y-1.3565
X1.1657Y-2.5565
X1.1657Y-2.6565
X1.1657Y-3.0565
X1.1657Y-3.1565
X1.1657Y-3.2565
X1.1657Y-3.3565
X1.1657Y-3.6565
X1.1657Y-3.7565
X1.1657Y-3.8565
X1.1657Y-4.0565
X1.1657Y-4.1565
X1.1657Y-4.2565
X1.1657Y-4.3565
X1.1657Y-4.4565
X1.1657Y-4.5565
X1.1657Y-4.6565
X1.1657Y-4.8565
X1.1657Y-4.9565
X1.1657Y-5.0565
X1.1657Y-5.9565
X1.1732Y-5.685
X1.1772Y-5.2598
X1.1811Y-2.2992
X1.1969Y-2.1654
X1.2362Y-2.0236
X1.2657Y-2.1565
X1.2657Y-3.2565
X1.2657Y-3.4565
X1.2657Y-3.7565
X1.2657Y-3.8565
X1.2657Y-3.9565
X1.2657Y-4.0565
X1.2657Y-4.1565
X1.2657Y-4.4565
X1.2657Y-4.7565
X1.2657Y-4.8565
X1.2657Y-4.9565
X1.2657Y-5.0565
X1.2795Y-1.8504
X1.3657Y-2.0565
X1.3657Y-2.1565
X1.3657Y-2.8565
X1.3657Y-3.0565
X1.3657Y-3.2565
X1.3657Y-3.4565
X1.3657Y-4.6565
X1.3657Y-4.7565
X1.3657Y-4.8565
X1.3657Y-4.9565
X1.3657Y-5.0565
X1.4252Y-1.378
X1.4528Y-1.4921
X1.4606Y-3.8071
X1.4646Y-2.4331
X1.4657Y-1.5565
X1.4657Y-2.0565
X1.4657Y-2.1565
X1.4657Y-2.8565
X1.4657Y-3.6565
X1.4657Y-4.5565
X1.4657Y-4.6565
X1.4657Y-4.7565
X1.4657Y-4.8565
X1.4657Y-4.9565
X1.4657Y-5.8565
X1.4724Y-2.3268
X1.5197Y-2.2953
X1.5394Y-5.2677
X1.5394Y-5.3425
X1.5394Y-5.4331
X1.563Y-1.8661
X1.563Y-2.6417
X1.563Y-5.2992
X1.5657Y-3.6565
X1.5657Y-4.2565
X1.5657Y-4.3565
X1.5657Y-4.7565
X1.5657Y-4.9565
X1.5657Y-5.1565
X1.5657Y-5.8565
X1.5748Y-2.8976
X1.6211Y-1.4104
X1.6378Y-3.185
X1.6457Y-3.0827
X1.6657Y-1.9565
X1.6657Y-2.1565
X1.6657Y-2.4565
X1.6657Y-2.5565
X1.6657Y-2.6565
X1.6657Y-2.7565
X1.6657Y-3.2565
X1.6657Y-3.6565
X1.6657Y-4.3565
X1.6657Y-4.5565
X1.6732Y-5.6181
X1.6811Y-5.7894
X1.6811Y-5.8425
X1.7008Y-1.5089
X1.7126Y-3.8307
X1.7323Y-3.9331
X1.7402Y-5.5039
X1.748Y-3.3898
X1.7559Y-2.0276
X1.7559Y-3.5551
X1.7657Y-1.3565
X1.7657Y-2.0565
X1.7657Y-2.1565
X1.7657Y-2.4565
X1.7657Y-2.5565
X1.7657Y-2.6565
X1.7657Y-4.3565
X1.7657Y-5.0565
X1.7657Y-5.6565
X1.7657Y-5.8565
X1.7756Y-5.2657
X1.8125Y-1.5116
X1.8445Y-4.0571
X1.8657Y-1.3565
X1.8657Y-1.8565
X1.8657Y-2.1565
X1.8657Y-3.0565
X1.8657Y-3.2565
X1.8657Y-3.3565
X1.8657Y-3.4565
X1.8657Y-3.5565
X1.8657Y-3.6565
X1.8657Y-3.9565
X1.8657Y-4.7565
X1.8657Y-4.8565
X1.8657Y-5.4565
X1.8657Y-5.5565
X1.8657Y-5.6565
X1.8661Y-4.315
X1.8858Y-1.4331
X1.9144Y-1.4104
X1.9213Y-4.5787
X1.9213Y-4.685
X1.9657Y-1.7565
X1.9657Y-3.0565
X1.9657Y-3.2565
X1.9657Y-3.3565
X1.9657Y-3.4565
X1.9657Y-3.5565
X1.9657Y-3.6565
X1.9657Y-3.9565
X1.9657Y-4.0565
X1.9657Y-4.1565
X1.9657Y-4.2565
X1.9657Y-4.7565
X1.9657Y-5.4565
X1.9657Y-5.5565
X1.9657Y-5.6565
X1.9685Y-2.0748
X1.9803Y-5.3425
X2.0276Y-5.9685
X2.0354Y-4.8386
X2.0354Y-5.0512
X2.0433Y-6.0276
X2.0551Y-1.3976
X2.0657Y-2.7565
X2.0657Y-2.8565
X2.0657Y-3.0565
X2.0657Y-3.2565
X2.0657Y-3.3565
X2.0657Y-3.4565
X2.0657Y-3.6565
X2.0657Y-3.9565
X2.0657Y-4.0565
X2.0657Y-4.1565
X2.0657Y-4.2565
X2.0657Y-4.3565
X2.0657Y-5.4565
X2.0657Y-5.5565
X2.0827Y-1.374
X2.0906Y-4.5236
X2.1181Y-5.2657
X2.126Y-1.4055
X2.1657Y-2.0565
X2.1657Y-2.5565
X2.1657Y-2.8565
X2.1657Y-3.0565
X2.1657Y-3.2565
X2.1657Y-3.4565
X2.1657Y-3.6565
X2.1657Y-3.9565
X2.1657Y-4.0565
X2.1657Y-4.1565
X2.1657Y-4.2565
X2.1657Y-4.7565
X2.1657Y-4.8565
X2.1657Y-4.9565
X2.1657Y-5.5565
X2.2047Y-2.3228
X2.2205Y-5.305
X2.2244Y-2.4213
X2.2657Y-1.9565
X2.2657Y-2.0565
X2.2657Y-3.9565
X2.2657Y-4.0565
X2.2657Y-4.1565
X2.2657Y-4.2565
X2.2657Y-4.7565
X2.2657Y-4.8565
X2.2657Y-4.9565
X2.2756Y-3.8228
X2.3228Y-1.3386
X2.3228Y-2.8268
X2.3346Y-5.248
X2.3386Y-2.6142
X2.3657Y-1.9565
X2.3657Y-2.0565
X2.3657Y-2.4565
X2.3657Y-3.9565
X2.3657Y-4.5565
X2.3657Y-4.6565
X2.3657Y-4.7565
X2.3657Y-4.8565
X2.3657Y-4.9565
X2.3657Y-5.8565
X2.3898Y-1.3976
X2.3898Y-1.4961
X2.4016Y-5.2835
X2.4173Y-6.0315
X2.437Y-2.311
X2.4606Y-6.1142
X2.4646Y-5.2992
X2.4657Y-1.5565
X2.4657Y-2.6565
X2.4657Y-4.0565
X2.4657Y-4.1565
X2.4657Y-4.5565
X2.4657Y-4.6565
X2.4657Y-4.7565
X2.4657Y-4.8565
X2.4657Y-4.9565
X2.4657Y-5.5565
X2.4657Y-5.8565
X2.4843Y-5.3543
X2.4843Y-5.4331
X2.4882Y-1.8622
X2.5039Y-5.9646
X2.5079Y-5.1575
X2.5551Y-5.248
X2.5657Y-1.5565
X2.5657Y-1.6565
X2.5657Y-1.9565
X2.5657Y-2.4565
X2.5657Y-3.2565
X2.5657Y-4.5565
X2.5657Y-4.6565
X2.5657Y-4.7565
X2.5657Y-4.8565
X2.5657Y-4.9565
X2.5657Y-5.4565
X2.5657Y-5.5565
X2.5657Y-5.8565
X2.5669Y-3.1024
X2.5787Y-3.185
X2.6299Y-5.6457
X2.6496Y-5.2589
X2.6657Y-1.5565
X2.6657Y-1.6565
X2.6657Y-1.7565
X2.6657Y-2.0565
X2.6657Y-2.5565
X2.6657Y-2.6565
X2.6657Y-3.0565
X2.6657Y-3.6565
X2.6657Y-4.3565
X2.6657Y-4.6565
X2.6657Y-4.7565
X2.6657Y-4.8565
X2.6657Y-4.9565
X2.6657Y-5.4565
X2.6657Y-5.8565
X2.6811Y-4.5236
X2.685Y-3.3386
X2.7008Y-3.563
X2.7657Y-1.4565
X2.7657Y-1.5565
X2.7657Y-1.7565
X2.7657Y-2.0565
X2.7657Y-3.0565
X2.7657Y-3.2565
X2.7657Y-3.3565
X2.7657Y-4.3565
X2.7657Y-4.5565
X2.7657Y-4.6565
X2.7657Y-4.7565
X2.7657Y-4.9565
X2.7657Y-5.6565
X2.7835Y-3.8307
X2.7913Y-6.0354
X2.7913Y-6.1181
X2.8307Y-3.9094
X2.8657Y-1.7565
X2.8657Y-2.0565
X2.8657Y-2.8565
X2.8657Y-3.0565
X2.8657Y-3.2565
X2.8657Y-3.3565
X2.8657Y-3.4565
X2.8657Y-3.6565
X2.8657Y-4.5565
X2.8657Y-4.7565
X2.8657Y-4.9565
X2.8657Y-5.5565
X2.8657Y-5.6565
X2.8657Y-5.9565
X2.8661Y-6.0472
X2.8701Y-4.0748
X2.8976Y-4.3425
X2.9134Y-2.2835
X2.9409Y-3.7992
X2.9449Y-2.248
X2.9449Y-2.3425
X2.9449Y-6.0866
X2.9528Y-2.4213
X2.9657Y-1.9565
X2.9657Y-2.0565
X2.9657Y-2.4565
X2.9657Y-2.8565
X2.9657Y-3.0565
X2.9657Y-3.2565
X2.9657Y-3.4565
X2.9657Y-3.6565
X2.9657Y-3.9565
X2.9657Y-4.0565
X2.9657Y-5.4565
X2.9657Y-5.5565
X2.9657Y-5.6565
X2.9657Y-5.9565
X3.0079Y-5.3465
X3.0157Y-2.3858
X3.0551Y-5.9803
X3.0657Y-1.9565
X3.0657Y-2.0565
X3.0657Y-2.1565
X3.0657Y-2.4565
X3.0657Y-2.5565
X3.0657Y-3.0565
X3.0657Y-3.4565
X3.0657Y-3.9565
X3.0657Y-4.0565
X3.0657Y-4.1565
X3.0657Y-5.4565
X3.0657Y-6.0565
X3.0709Y-5.2598
X3.0748Y-2.7913
X3.0827Y-2.6378
X3.1063Y-2.248
X3.122Y-1.3898
X3.1299Y-4.6063
X3.1339Y-1.4961
X3.1339Y-4.689
X3.1575Y-2.2874
X3.1575Y-2.8307
X3.1657Y-1.5565
X3.1657Y-1.9565
X3.1657Y-2.0565
X3.1657Y-3.5565
X3.1657Y-3.6565
X3.1657Y-3.9565
X3.1657Y-4.7565
X3.1657Y-6.0565
X3.185Y-2.3622
X3.189Y-5.0906
X3.2087Y-2.9646
X3.2283Y-1.8622
X3.2283Y-2.8189
X3.2598Y-4.8504
X3.2657Y-1.5565
X3.2657Y-1.6565
X3.2657Y-1.9565
X3.2657Y-2.0565
X3.2657Y-2.1565
X3.2657Y-2.4565
X3.2657Y-2.5565
X3.2657Y-2.6565
X3.2657Y-3.2565
X3.2657Y-3.6565
X3.2657Y-4.5565
X3.2657Y-6.0565
X3.2717Y-2.9961
X3.3386Y-3.189
X3.3386Y-5.2795
X3.3465Y-3.1102
X3.3657Y-3.2565
X3.3657Y-3.6565
X3.3657Y-4.2565
X3.3657Y-4.3565
X3.3657Y-4.5565
X3.3657Y-4.8565
X3.3657Y-4.9565
X3.3657Y-5.5565
X3.4094Y-5.4331
X3.4134Y-2.9911
X3.4134Y-5.3386
X3.437Y-2.3071
X3.4449Y-3.374
X3.4488Y-3.5748
X3.4528Y-5.8701
X3.4567Y-5.1811
X3.4567Y-5.2953
X3.4646Y-2.9646
X3.4657Y-1.4565
X3.4657Y-1.5565
X3.4657Y-1.7565
X3.4657Y-2.0565
X3.4657Y-2.1565
X3.4657Y-4.0565
X3.4657Y-4.3565
X3.4657Y-4.5565
X3.4657Y-4.7565
X3.5276Y-3.8268
X3.5354Y-5.5984
X3.5472Y-3.9213
X3.5472Y-5.2717
X3.5657Y-1.7565
X3.5657Y-2.0565
X3.5657Y-2.1565
X3.5657Y-4.3565
X3.5657Y-4.5565
X3.5657Y-4.7565
X3.5657Y-4.9565
X3.5657Y-5.3565
X3.5657Y-5.9565
X3.5669Y-3.0591
X3.5906Y-5.2953
X3.6378Y-4.0591
X3.6417Y-4.3031
X3.6657Y-2.0565
X3.6657Y-2.1565
X3.6657Y-2.5565
X3.6657Y-2.8565
X3.6657Y-3.2565
X3.6657Y-3.4565
X3.6657Y-3.6565
X3.6657Y-3.9565
X3.6693Y-5.8583
X3.7205Y-2.4331
X3.7244Y-2.3268
X3.7638Y-5.4685
X3.7657Y-1.8565
X3.7657Y-1.9565
X3.7657Y-2.0565
X3.7657Y-2.1565
X3.7657Y-2.8565
X3.7657Y-3.2565
X3.7657Y-3.4565
X3.7657Y-3.9565
X3.7657Y-4.0565
X3.7657Y-4.1565
X3.7657Y-4.2565
X3.7657Y-5.0565
X3.7657Y-5.3565
X3.7657Y-5.9565
X3.7717Y-2.3425
X3.7717Y-2.4606
X3.815Y-2.6142
X3.8189Y-3.8071
X3.8228Y-3.0787
X3.8268Y-2.8071
X3.8268Y-5.6063
X3.8268Y-5.815
X3.8465Y-5.5433
X3.8657Y-2.0565
X3.8657Y-2.1565
X3.8657Y-2.4565
X3.8657Y-2.5565
X3.8657Y-3.9565
X3.8657Y-4.7565
X3.8657Y-5.9565
X3.8661Y-1.3937
X3.8663Y-5.6891
X3.8819Y-1.4843
X3.8819Y-4.5984
X3.8858Y-4.689
X3.8858Y-5.5709
X3.9055Y-5.248
X3.9094Y-5.6496
X3.9213Y-5.4646
X3.9252Y-3.7677
X3.9404Y-5.247
X3.9409Y-1.9055
X3.9488Y-5.4213
X3.9528Y-5.2717
X3.9657Y-1.5565
X3.9657Y-2.0565
X3.9657Y-2.1565
X3.9657Y-2.4565
X3.9657Y-2.5565
X3.9657Y-2.6565
X3.9657Y-3.5565
X3.9657Y-3.6565
X3.9657Y-4.0565
X3.9657Y-4.1565
X3.9657Y-5.9565
X4.0Y-2.9409
X4.0Y-4.8543
X4.0Y-5.0512
X4.0236Y-5.4606
X4.0551Y-5.1575
X4.0657Y-1.5565
X4.0657Y-1.6565
X4.0657Y-1.9565
X4.0657Y-2.1565
X4.0657Y-2.4565
X4.0657Y-3.2565
X4.0657Y-3.6565
X4.0669Y-5.811
X4.0748Y-3.0984
X4.0748Y-3.189
X4.0787Y-5.5472
X4.0906Y-5.685
X4.1102Y-3.7677
X4.126Y-5.4528
X4.1457Y-2.9409
X4.1457Y-5.7756
X4.1657Y-1.5565
X4.1657Y-1.6565
X4.1657Y-1.7565
X4.1657Y-2.0565
X4.1657Y-2.1565
X4.1657Y-2.5565
X4.1657Y-2.6565
X4.1657Y-4.3565
X4.1657Y-4.7565
X4.1657Y-4.8565
X4.1657Y-4.9565
X4.1732Y-6.1142
X4.1772Y-5.5709
X4.1811Y-5.8898
X4.189Y-5.7402
X4.1969Y-3.3701
X4.1969Y-3.6693
X4.2087Y-5.1811
X4.2126Y-5.5039
X4.2205Y-3.5354
X4.2205Y-5.7677
X4.2323Y-5.8268
X4.2362Y-5.7441
X4.2441Y-6.1339
X4.252Y-3.1496
X4.252Y-3.6693
X4.252Y-3.8386
X4.252Y-5.4134
X4.2559Y-3.5827
X4.2559Y-5.7126
X4.2598Y-5.6417
X4.2598Y-5.7992
X4.2638Y-5.8701
X4.2657Y-1.4565
X4.2657Y-1.5565
X4.2657Y-1.7565
X4.2657Y-2.0565
X4.2657Y-2.1565
X4.2657Y-4.3565
X4.2657Y-4.5565
X4.2657Y-4.7565
X4.2657Y-4.9565
X4.2677Y-5.6024
X4.2717Y-3.9291
X4.2835Y-3.7165
X4.3071Y-4.7126
X4.311Y-5.9685
X4.3268Y-4.5433
X4.3465Y-3.5709
X4.3657Y-1.7565
X4.3657Y-2.0565
X4.3657Y-2.1565
X4.3657Y-2.8565
X4.3657Y-3.0565
X4.3657Y-3.1565
X4.3657Y-3.2565
X4.3657Y-3.3565
X4.3657Y-3.4565
X4.3657Y-4.7565
X4.3819Y-4.5787
X4.3819Y-6.0197
X4.3858Y-4.1378
X4.3858Y-5.9291
X4.4094Y-4.2953
X4.4213Y-3.7165
X4.437Y-5.8071
X4.4449Y-3.8898
X4.4449Y-4.0709
X4.4483Y-3.8509
X4.4488Y-4.3307
X4.4567Y-2.4331
X4.4606Y-2.3465
X4.4606Y-5.5551
X4.4657Y-1.9565
X4.4657Y-2.0565
X4.4657Y-2.1565
X4.4657Y-2.8565
X4.4657Y-3.4565
X4.4724Y-4.4685
X4.4803Y-3.2087
X4.4843Y-3.7874
X4.4921Y-5.2795
X4.4961Y-3.0187
X4.4961Y-5.122
X4.5039Y-5.6024
X4.5157Y-4.3268
X4.5157Y-4.5118
X4.5236Y-5.1811
X4.5276Y-5.9291
X4.5276Y-6.0394
X4.5315Y-4.1142
X4.5394Y-5.0591
X4.5472Y-3.9291
X4.5475Y-5.8898
X4.551Y-5.4818
X4.5657Y-1.9565
X4.5657Y-2.0565
X4.5657Y-2.1565
X4.5657Y-2.3565
X4.5657Y-2.4565
X4.5657Y-2.5565
X4.5657Y-3.8565
X4.5657Y-4.0565
X4.5709Y-2.8543
X4.5709Y-4.5315
X4.5748Y-6.0394
X4.5787Y-5.437
X4.5827Y-5.3425
X4.5827Y-5.8031
X4.5906Y-2.6181
X4.5906Y-5.8307
X4.5925Y-2.9941
X4.5945Y-5.8701
X4.6299Y-3.7677
X4.6339Y-4.6102
X4.6339Y-4.6929
X4.6378Y-1.3937
X4.6496Y-1.4724
X4.6535Y-5.3898
X4.6614Y-4.4646
X4.6657Y-1.5565
X4.6657Y-1.9565
X4.6657Y-2.0565
X4.6657Y-2.1565
X4.6657Y-2.3565
X4.6657Y-2.4565
X4.6657Y-2.6565
X4.6657Y-2.7565
X4.6657Y-3.6565
X4.6657Y-3.8565
X4.6693Y-5.1024
X4.6969Y-5.6969
X4.7012Y-5.6311
X4.7047Y-6.0354
X4.7087Y-4.5591
X4.7087Y-5.0669
X4.7126Y-1.378
X4.7165Y-4.7992
X4.7283Y-1.8819
X4.7283Y-5.2844
X4.7362Y-5.4134
X4.7362Y-5.5157
X4.7402Y-5.0394
X4.748Y-4.5827
X4.748Y-5.563
X4.7559Y-4.8858
X4.7598Y-5.2778
X4.7598Y-5.3858
X4.7657Y-1.5565
X4.7657Y-1.6565
X4.7657Y-1.9565
X4.7657Y-2.0565
X4.7657Y-2.1565
X4.7657Y-2.3565
X4.7657Y-2.4565
X4.7657Y-2.5565
X4.7657Y-2.6565
X4.7657Y-3.2565
X4.7657Y-3.6565
X4.7717Y-5.1732
X4.7992Y-4.563
X4.8031Y-5.5866
X4.8071Y-5.2717
X4.811Y-5.1693
X4.8189Y-4.7677
X4.8189Y-4.8031
X4.8189Y-5.0709
X4.8228Y-4.8701
X4.8228Y-5.1102
X4.8228Y-5.8307
X4.8258Y-5.0315
X4.8386Y-4.5827
X4.8657Y-1.5565
X4.8657Y-1.6565
X4.8657Y-1.7565
X4.8657Y-1.8565
X4.8657Y-1.9565
X4.8657Y-2.0565
X4.8657Y-2.1565
X4.8657Y-2.3565
X4.8657Y-3.2565
X4.8657Y-3.6565
X4.8657Y-4.6565
X4.8657Y-5.5565
X4.8657Y-5.7565
X4.874Y-3.0945
X4.878Y-5.1732
X4.8858Y-4.9843
X4.8858Y-5.063
X4.8898Y-4.9252
X4.8898Y-5.8268
X4.8898Y-5.9055
X4.8937Y-5.1988
X4.8942Y-5.1019
X4.9016Y-4.4921
X4.9016Y-4.8071
X4.9134Y-3.1614
X4.9291Y-4.5354
X4.9291Y-4.815
X4.937Y-3.378
X4.9449Y-3.5551
X4.9488Y-6.0197
X4.9528Y-4.3071
X4.9528Y-4.4961
X4.9528Y-4.8008
X4.9657Y-1.5565
X4.9657Y-1.6565
X4.9657Y-1.7565
X4.9657Y-1.8565
X4.9657Y-1.9565
X4.9657Y-2.0565
X4.9657Y-2.1565
X4.9657Y-4.0565
X4.9685Y-4.937
X4.9803Y-5.8976
X4.9843Y-4.5157
X4.9921Y-4.7244
X5.0Y-4.5512
X5.0276Y-5.7835
X5.0276Y-5.8268
X5.0354Y-5.8976
X5.0433Y-3.9409
X5.0453Y-5.1713
X5.0512Y-3.8268
X5.0551Y-5.5354
X5.0591Y-5.3701
X5.0591Y-5.4134
X5.0657Y-1.5565
X5.0657Y-1.6565
X5.0657Y-1.7565
X5.0657Y-1.9565
X5.0657Y-2.1565
X5.0657Y-2.7565
X5.0657Y-2.8565
X5.0657Y-3.0565
X5.0657Y-3.4565
X5.0657Y-4.3565
X5.0657Y-4.5565
X5.0866Y-6.0039
X5.0906Y-3.9449
X5.1063Y-5.5748
X5.1299Y-5.6535
X5.1299Y-5.7008
X5.1299Y-5.7874
X5.1299Y-5.8858
X5.1339Y-5.3277
X5.1378Y-4.122
X5.1378Y-4.3346
X5.1496Y-5.2795
X5.1657Y-1.5565
X5.1657Y-1.7565
X5.1657Y-2.8565
X5.1657Y-3.0565
X5.1657Y-3.2565
X5.1657Y-3.4565
X5.1657Y-3.6565
X5.1693Y-5.2205
X5.189Y-3.8465
X5.189Y-3.9409
X5.2008Y-2.1102
X5.2047Y-5.4882
X5.2205Y-5.0354
X5.2283Y-6.0413
X5.2323Y-5.3307
X5.2362Y-5.8937
X5.2362Y-5.9843
X5.2441Y-2.4449
X5.248Y-2.3386
X5.2657Y-1.7565
X5.2657Y-2.0565
X5.2657Y-2.1565
X5.2657Y-2.8565
X5.2657Y-3.0565
X5.2657Y-3.2565
X5.2657Y-3.4565
X5.2657Y-3.9565
X5.2657Y-4.0565
X5.2657Y-4.1565
X5.2657Y-4.2565
X5.2756Y-5.937
X5.2795Y-5.5276
X5.2913Y-5.9803
X5.2953Y-5.6969
X5.2953Y-5.7913
X5.2972Y-5.9193
X5.3071Y-5.7559
X5.315Y-5.6535
X5.3228Y-5.1575
X5.3268Y-2.8307
X5.3307Y-2.6339
X5.3425Y-5.0866
X5.3622Y-5.9409
X5.3657Y-2.0565
X5.3657Y-3.9565
X5.3657Y-5.5565
X5.3661Y-4.5984
X5.3701Y-5.4134
X5.378Y-5.4724
X5.3819Y-4.685
X5.3976Y-5.3061
X5.4016Y-5.1575
X5.4488Y-5.4843
X5.4606Y-5.0551
X5.4606Y-5.6811
X5.4606Y-5.7559
X5.4657Y-1.8565
X5.4657Y-1.9565
X5.4657Y-2.1565
X5.4657Y-2.4565
X5.4657Y-2.5565
X5.4657Y-2.6565
X5.4657Y-3.5565
X5.4657Y-3.6565
X5.4657Y-4.0565
X5.4657Y-4.1565
X5.4657Y-4.5565
X5.4724Y-5.189
X5.4724Y-5.5827
X5.4729Y-5.5157
X5.5079Y-4.811
X5.5079Y-5.3819
X5.5197Y-5.1457
X5.5394Y-5.5472
X5.5394Y-5.8346
X5.5433Y-4.5394
X5.5472Y-4.6693
X5.5512Y-3.0906
X5.5657Y-2.0565
X5.5657Y-2.1565
X5.5657Y-2.4565
X5.5657Y-3.2565
X5.5657Y-3.6565
X5.5657Y-4.7565
X5.5709Y-5.4646
X5.5748Y-1.4843
X5.5787Y-1.4055
X5.5866Y-3.1732
X5.5866Y-5.5394
X5.5945Y-5.4941
X5.5984Y-5.7717
X5.6024Y-5.3465
X5.6339Y-5.7559
X5.6339Y-5.8583
X5.6417Y-1.878
X5.6535Y-5.6339
X5.6654Y-2.311
X5.6657Y-1.5565
X5.6657Y-1.9565
X5.6657Y-2.0565
X5.6657Y-2.1565
X5.6657Y-2.5565
X5.6657Y-2.6565
X5.6657Y-3.0565
X5.6657Y-3.6565
X5.6657Y-4.3565
X5.6657Y-4.5565
X5.6657Y-4.7565
X5.6657Y-4.8565
X5.6657Y-4.9565
X5.6929Y-3.378
X5.6969Y-3.5709
X5.7362Y-5.8189
X5.7657Y-1.5565
X5.7657Y-1.6565
X5.7657Y-1.9565
X5.7657Y-2.1565
X5.7657Y-3.0565
X5.7657Y-3.2565
X5.7657Y-3.3565
X5.7657Y-4.3565
X5.7657Y-4.5565
X5.7657Y-4.7565
X5.7717Y-3.9331
X5.7756Y-3.8228
X5.811Y-5.2717
X5.8307Y-3.9409
X5.8386Y-5.4567
X5.8657Y-1.5565
X5.8657Y-1.6565
X5.8657Y-1.7565
X5.8657Y-2.0565
X5.8657Y-2.1565
X5.8657Y-2.8565
X5.8657Y-3.0565
X5.8657Y-3.2565
X5.8657Y-3.3565
X5.8657Y-3.4565
X5.8657Y-3.6565
X5.8657Y-4.5565
X5.8657Y-4.7565
X5.8858Y-4.126
X5.8898Y-5.4488
X5.8937Y-4.3189
X5.8937Y-5.3701
X5.937Y-3.8307
X5.937Y-5.6732
X5.9567Y-2.4409
X5.9646Y-2.3346
X5.9657Y-1.5565
X5.9657Y-1.7565
X5.9657Y-2.0565
X5.9657Y-2.1565
X5.9657Y-2.8565
X5.9657Y-3.0565
X5.9657Y-3.2565
X5.9657Y-3.4565
X5.9657Y-3.6565
X5.9657Y-3.9565
X5.9657Y-4.0565
X5.9657Y-5.1565
X5.9764Y-6.0315
X6.0472Y-1.374
X6.0657Y-2.0565
X6.0657Y-2.1565
X6.0657Y-2.4565
X6.0657Y-3.0565
X6.0657Y-3.4565
X6.0657Y-3.9565
X6.0657Y-4.0565
X6.0657Y-4.1565
X6.0657Y-5.1565
X6.0657Y-5.8565
X6.0709Y-2.8307
X6.0748Y-2.5866
X6.1181Y-4.5827
X6.1339Y-4.685
X6.1657Y-1.8565
X6.1657Y-1.9565
X6.1657Y-2.0565
X6.1657Y-2.1565
X6.1657Y-2.6565
X6.1657Y-2.7565
X6.1657Y-3.5565
X6.1657Y-3.6565
X6.1657Y-3.9565
X6.1657Y-4.7565
X6.1657Y-5.1565
X6.1657Y-5.8565
X6.2165Y-6.0394
X6.2205Y-5.3386
X6.2244Y-5.8071
X6.2283Y-5.437
X6.2402Y-6.0079
X6.252Y-6.0669
X6.2638Y-4.8701
X6.2657Y-1.9565
X6.2657Y-2.0565
X6.2657Y-2.1565
X6.2657Y-2.5565
X6.2657Y-2.6565
X6.2657Y-3.2565
X6.2657Y-3.6565
X6.2657Y-4.5565
X6.2657Y-5.1565
X6.2717Y-5.0591
X6.2953Y-5.5157
X6.2992Y-5.3031
X6.3268Y-1.5039
X6.3307Y-1.3976
X6.3425Y-3.185
X6.3465Y-3.0906
X6.3543Y-5.6102
X6.3657Y-3.2565
X6.3657Y-3.6565
X6.3657Y-4.2565
X6.3657Y-4.3565
X6.3657Y-4.5565
X6.3657Y-4.7565
X6.3657Y-4.8565
X6.3657Y-4.9565
X6.3976Y-1.9016
X6.4213Y-5.8858
X6.4291Y-2.311
X6.437Y-3.3268
X6.4646Y-3.6102
X6.4657Y-1.5565
X6.4657Y-1.6565
X6.4657Y-1.9565
X6.4657Y-2.0565
X6.4657Y-2.1565
X6.4657Y-4.0565
X6.4657Y-4.3565
X6.4657Y-4.5565
X6.4657Y-4.7565
X6.4657Y-4.9565
X6.4657Y-5.1565
X6.4657Y-5.5565
X6.5157Y-3.8307
X6.5157Y-3.9331
X6.563Y-3.9331
X6.563Y-5.5866
X6.5657Y-1.5565
X6.5657Y-1.6565
X6.5657Y-1.7565
X6.5657Y-1.9565
X6.5657Y-2.1565
X6.5657Y-2.7565
X6.5657Y-2.8565
X6.5657Y-3.0565
X6.5657Y-3.2565
X6.5657Y-3.3565
X6.5657Y-3.4565
X6.5657Y-4.3565
X6.5657Y-4.5565
X6.5657Y-4.7565
X6.5657Y-4.9565
X6.5906Y-6.0748
X6.6025Y-5.5749
X6.6102Y-5.4016
X6.6339Y-4.1378
X6.6575Y-4.315
X6.6657Y-1.5565
X6.6657Y-1.7565
X6.6657Y-2.0565
X6.6657Y-2.1565
X6.6657Y-2.5565
X6.6657Y-2.8565
X6.6657Y-3.0565
X6.6657Y-3.2565
X6.6657Y-3.4565
X6.6657Y-3.6565
X6.6657Y-5.8565
X6.6693Y-3.8386
X6.7047Y-2.3307
X6.7087Y-2.4291
X6.752Y-6.0118
X6.7657Y-1.7565
X6.7657Y-2.0565
X6.7657Y-2.1565
X6.7657Y-2.4565
X6.7657Y-2.8565
X6.7657Y-3.0565
X6.7657Y-3.2565
X6.7657Y-3.4565
X6.7657Y-3.9565
X6.7657Y-4.0565
X6.7657Y-4.1565
X6.7657Y-4.2565
X6.7657Y-5.0565
X6.7657Y-5.1565
X6.7657Y-5.6565
X6.7657Y-5.8565
X6.7677Y-2.315
X6.8031Y-1.374
X6.815Y-6.0354
X6.8189Y-5.3425
X6.8268Y-2.5866
X6.8268Y-2.8386
X6.8657Y-2.0565
X6.8657Y-2.4565
X6.8657Y-3.9565
X6.8657Y-4.7565
X6.8657Y-5.1565
X6.8657Y-5.6565
X6.8819Y-4.6732
X6.8858Y-4.5984
X6.9657Y-1.8565
X6.9657Y-1.9565
X6.9657Y-2.4565
X6.9657Y-2.5565
X6.9657Y-2.6565
X6.9657Y-3.5565
X6.9657Y-3.6565
X6.9657Y-4.0565
X6.9657Y-4.1565
X6.9657Y-4.7565
X6.9657Y-5.6565
X6.9724Y-5.3898
X6.9921Y-5.063
X7.0104Y-4.8228
X7.0657Y-2.1565
X7.0657Y-2.4565
X7.0657Y-3.2565
X7.0657Y-3.6565
X7.0657Y-4.5565
X7.0657Y-4.7565
X7.0657Y-4.8565
X7.0657Y-5.1565
X7.0657Y-5.6565
X7.0657Y-5.8565
X7.0669Y-1.3976
X7.0787Y-1.4882
X7.0984Y-3.185
X7.1024Y-3.0945
X7.1614Y-1.8976
X7.1614Y-5.9764
X7.1657Y-1.5565
X7.1657Y-2.0565
X7.1657Y-2.1565
X7.1657Y-2.5565
X7.1657Y-2.6565
X7.1657Y-3.6565
X7.1657Y-4.3565
X7.1657Y-4.5565
X7.1657Y-4.7565
X7.1657Y-4.8565
X7.1657Y-4.9565
X7.1657Y-5.1565
X7.1657Y-5.6565
X7.1657Y-5.8565
X7.185Y-6.122
X7.1969Y-3.3031
X7.2165Y-5.9921
X7.2205Y-3.5787
X7.2638Y-3.937
X7.2657Y-1.5565
X7.2657Y-1.6565
X7.2657Y-1.9565
X7.2657Y-2.1565
X7.2657Y-3.0565
X7.2657Y-3.2565
X7.2657Y-3.3565
X7.2657Y-4.3565
X7.2657Y-4.5565
X7.2657Y-4.7565
X7.2657Y-4.9565
X7.2657Y-5.1565
X7.2657Y-5.6565
X7.2657Y-5.8565
X7.2677Y-3.8307
X7.3657Y-1.5565
X7.3657Y-1.6565
X7.3657Y-1.7565
X7.3657Y-2.0565
X7.3657Y-2.1565
X7.3657Y-2.8565
X7.3657Y-3.0565
X7.3657Y-3.2565
X7.3657Y-3.3565
X7.3657Y-3.4565
X7.3657Y-4.5565
X7.3657Y-4.7565
X7.3657Y-4.9565
X7.3657Y-5.3565
X7.3657Y-5.6565
X7.3819Y-5.9173
X7.3858Y-4.126
X7.3976Y-4.3346
X7.4528Y-2.4291
X7.4567Y-2.3346
X7.4606Y-5.7953
X7.4657Y-1.5565
X7.4657Y-1.7565
X7.4657Y-2.0565
X7.4657Y-2.1565
X7.4657Y-2.8565
X7.4657Y-3.0565
X7.4657Y-3.2565
X7.4657Y-3.4565
X7.4657Y-3.6565
X7.4657Y-3.9565
X7.4657Y-4.0565
X7.4657Y-5.1565
X7.4657Y-5.3565
X7.4657Y-5.9565
X7.4803Y-5.5906
X7.4803Y-5.6181
X7.5472Y-1.374
X7.5657Y-2.0565
X7.5657Y-2.1565
X7.5657Y-2.4565
X7.5657Y-3.0565
X7.5657Y-3.4565
X7.5657Y-3.9565
X7.5657Y-4.0565
X7.5657Y-4.1565
X7.5657Y-5.8565
X7.5657Y-5.9565
X7.5669Y-5.5906
X7.5669Y-5.6181
X7.5748Y-5.7953
X7.5827Y-2.8465
X7.5866Y-2.5787
X7.6299Y-4.6063
X7.6496Y-4.6811
X7.6535Y-3.815
X7.6657Y-1.8565
X7.6657Y-1.9565
X7.6657Y-2.0565
X7.6657Y-2.1565
X7.6657Y-2.6565
X7.6657Y-2.7565
X7.6657Y-3.5565
X7.6657Y-3.6565
X7.6657Y-3.9565
X7.6657Y-4.7565
X7.6657Y-5.8565
X7.6657Y-5.9565
X7.7205Y-5.0709
X7.7559Y-4.8898
X7.7657Y-1.9565
X7.7657Y-2.0565
X7.7657Y-2.1565
X7.7657Y-2.5565
X7.7657Y-2.6565
X7.7657Y-3.2565
X7.7657Y-3.6565
X7.7657Y-4.5565
X7.7657Y-5.1565
X7.7657Y-5.8565
X7.8228Y-1.3937
X7.8268Y-1.4803
X7.8386Y-3.0906
X7.8386Y-3.185
X7.8657Y-1.5565
X7.8657Y-1.9565
X7.8657Y-2.0565
X7.8657Y-2.1565
X7.8657Y-3.2565
X7.8657Y-3.6565
X7.8657Y-4.2565
X7.8657Y-4.3565
X7.8657Y-4.5565
X7.8657Y-4.7565
X7.8657Y-4.8565
X7.8657Y-4.9565
X7.8657Y-5.1565
X7.8657Y-5.6565
X7.8657Y-5.9565
X7.874Y-5.2717
X7.878Y-5.437
X7.8858Y-5.3386
X7.9252Y-1.9213
X7.937Y-2.311
X7.9528Y-3.3622
X7.9567Y-3.5866
X7.9646Y-1.3858
X7.9657Y-1.5565
X7.9657Y-1.6565
X7.9657Y-2.0565
X7.9657Y-2.1565
X7.9657Y-4.0565
X7.9657Y-4.3565
X7.9657Y-4.5565
X7.9657Y-4.7565
X7.9657Y-4.9565
X7.9657Y-5.1565
X7.9657Y-5.6565
X8.0157Y-3.8228
X8.0157Y-3.9331
X8.0657Y-1.5565
X8.0657Y-1.6565
X8.0657Y-1.7565
X8.0657Y-1.8565
X8.0657Y-1.9565
X8.0657Y-2.0565
X8.0657Y-2.1565
X8.0657Y-2.7565
X8.0657Y-2.8565
X8.0657Y-3.0565
X8.0657Y-3.2565
X8.0657Y-3.3565
X8.0657Y-3.4565
X8.0657Y-4.3565
X8.0657Y-4.5565
X8.0657Y-4.7565
X8.0657Y-4.9565
X8.0657Y-5.6565
X8.126Y-6.1063
X8.1339Y-4.122
X8.1575Y-6.0315
X8.1614Y-4.3307
X8.1657Y-1.5565
X8.1657Y-1.6565
X8.1657Y-1.7565
X8.1657Y-1.8565
X8.1657Y-1.9565
X8.1657Y-2.0565
X8.1657Y-2.1565
X8.1657Y-2.5565
X8.1657Y-2.8565
X8.1657Y-3.0565
X8.1657Y-3.2565
X8.1657Y-3.4565
X8.1657Y-3.6565
X8.1657Y-5.3565
X8.1657Y-5.5565
X8.1657Y-5.6565
X8.1657Y-5.9565
X8.1969Y-4.4173
X8.2008Y-2.4291
X8.2047Y-2.3268
X8.2047Y-5.2717
X8.2441Y-3.8268
X8.2657Y-1.5565
X8.2657Y-1.6565
X8.2657Y-1.7565
X8.2657Y-1.9565
X8.2657Y-2.1565
X8.2657Y-2.4565
X8.2657Y-2.8565
X8.2657Y-3.0565
X8.2657Y-3.2565
X8.2657Y-3.4565
X8.2657Y-3.9565
X8.2657Y-4.0565
X8.2657Y-4.1565
X8.2657Y-4.2565
X8.2657Y-5.0565
X8.2657Y-5.1565
X8.2657Y-5.5565
X8.2657Y-5.6565
X8.2657Y-5.8565
X8.3268Y-2.6142
X8.3268Y-2.8543
X8.3657Y-1.5565
X8.3657Y-1.7565
X8.3657Y-2.0565
X8.3657Y-2.1565
X8.3657Y-2.4565
X8.3657Y-2.5565
X8.3657Y-3.9565
X8.3657Y-4.7565
X8.3657Y-5.1565
X8.3657Y-5.3565
X8.3657Y-5.5565
X8.3657Y-5.6565
X8.3858Y-4.6024
X8.4055Y-4.685
X8.4657Y-1.6565
X8.4657Y-1.7565
X8.4657Y-2.0565
X8.4657Y-2.1565
X8.4657Y-2.4565
X8.4657Y-2.5565
X8.4657Y-2.6565
X8.4657Y-3.5565
X8.4657Y-3.6565
X8.4657Y-4.0565
X8.4657Y-4.1565
X8.4657Y-4.5565
X8.4657Y-5.0565
X8.4657Y-5.3565
X8.4657Y-5.5565
X8.4657Y-5.6565
X8.5Y-4.8819
X8.5Y-5.1339
X8.5657Y-2.0565
X8.5657Y-2.4565
X8.5657Y-3.2565
X8.5657Y-3.6565
X8.5657Y-4.5565
X8.5657Y-4.7565
X8.5657Y-4.8565
X8.5657Y-5.1565
X8.5657Y-5.3565
X8.5827Y-3.0827
X8.5906Y-3.1693
X8.6417Y-2.3071
X8.6657Y-1.8565
X8.6657Y-1.9565
X8.6657Y-2.1565
X8.6657Y-2.5565
X8.6657Y-2.6565
X8.6657Y-4.3565
X8.6657Y-4.5565
X8.6657Y-4.7565
X8.6657Y-4.8565
X8.6657Y-4.9565
X8.6657Y-5.1565
X8.6657Y-5.5565
X8.6657Y-5.6565
X8.6969Y-3.3465
X8.7165Y-3.6102
X8.748Y-1.4016
X8.7598Y-1.4882
X8.7638Y-3.8425
X8.7638Y-3.9331
X8.7657Y-1.5565
X8.7657Y-2.0565
X8.7657Y-2.1565
X8.7657Y-3.0565
X8.7657Y-3.2565
X8.7657Y-3.3565
X8.7657Y-4.3565
X8.7657Y-4.5565
X8.7657Y-4.7565
X8.7657Y-4.9565
X8.7657Y-5.1565
X8.7795Y-5.9016
X8.8189Y-3.8071
X8.8228Y-1.9016
X8.8465Y-1.3819
X8.8657Y-1.5565
X8.8657Y-1.6565
X8.8657Y-2.0565
X8.8657Y-2.1565
X8.8657Y-2.8565
X8.8657Y-3.0565
X8.8657Y-3.2565
X8.8657Y-3.3565
X8.8657Y-3.4565
X8.8657Y-3.6565
X8.8657Y-4.5565
X8.8657Y-4.7565
X8.8657Y-4.9565
X8.8858Y-4.1181
X8.9055Y-4.3583
X8.9173Y-5.9252
X8.9528Y-5.4449
X8.9646Y-5.3465
X8.9657Y-1.5565
X8.9657Y-1.6565
X8.9657Y-1.9565
X8.9657Y-2.1565
X8.9657Y-2.8565
X8.9657Y-3.0565
X8.9657Y-3.2565
X8.9657Y-3.4565
X8.9657Y-3.6565
X8.9657Y-3.9565
X8.9657Y-4.0565
X8.9657Y-5.1565
X8.9685Y-2.3386
X8.9685Y-2.4291
X9.0315Y-5.8031
X9.0657Y-1.5565
X9.0657Y-1.6565
X9.0657Y-1.7565
X9.0657Y-2.0565
X9.0657Y-2.1565
X9.0657Y-2.3565
X9.0657Y-2.4565
X9.0657Y-3.0565
X9.0657Y-3.4565
X9.0657Y-3.9565
X9.0657Y-4.0565
X9.0657Y-4.1565
X9.0657Y-5.1565
X9.0657Y-5.4565
X9.0657Y-5.5565
X9.0866Y-5.6299
X9.0945Y-2.8425
X9.1024Y-2.5827
X9.1024Y-4.5866
X9.1457Y-4.6811
X9.1657Y-1.5565
X9.1657Y-1.7565
X9.1657Y-2.0565
X9.1657Y-2.1565
X9.1657Y-2.3565
X9.1657Y-2.6565
X9.1657Y-2.7565
X9.1657Y-3.5565
X9.1657Y-3.6565
X9.1657Y-3.9565
X9.1657Y-4.7565
X9.1657Y-5.1565
X9.1657Y-5.4565
X9.1657Y-5.6565
X9.2047Y-5.9252
X9.2047Y-5.9606
X9.2087Y-5.8976
X9.2244Y-5.0827
X9.2638Y-4.8583
X9.2657Y-2.0565
X9.2657Y-2.1565
X9.2657Y-2.5565
X9.2657Y-2.6565
X9.2657Y-3.2565
X9.2657Y-3.6565
X9.2657Y-4.5565
X9.2657Y-5.1565
X9.2657Y-5.4565
X9.2657Y-5.5565
X9.2657Y-5.6565
X9.3307Y-3.1772
X9.3386Y-3.0787
X9.3504Y-5.315
X9.3657Y-1.8565
X9.3657Y-1.9565
X9.3657Y-2.0565
X9.3657Y-2.1565
X9.3657Y-3.2565
X9.3657Y-3.6565
X9.3657Y-4.2565
X9.3657Y-4.3565
X9.3657Y-4.5565
X9.3657Y-4.7565
X9.3657Y-4.8565
X9.3657Y-4.9565
X9.3657Y-5.1565
X9.4213Y-3.3622
X9.4657Y-1.6565
X9.4657Y-1.9565
X9.4657Y-2.0565
X9.4657Y-3.0565
X9.4657Y-3.2565
X9.4657Y-3.6565
X9.4657Y-4.0565
X9.4657Y-4.3565
X9.4657Y-4.5565
X9.4657Y-4.7565
X9.4657Y-4.9565
X9.4657Y-5.1565
X9.4724Y-3.5748
X9.4882Y-1.3898
X9.5Y-1.4921
X9.5197Y-3.9409
X9.5236Y-3.8543
X9.5657Y-1.5565
X9.5657Y-2.7565
X9.5657Y-2.8565
X9.5657Y-3.0565
X9.5657Y-3.2565
X9.5657Y-3.3565
X9.5657Y-3.4565
X9.5657Y-4.3565
X9.5657Y-4.5565
X9.5657Y-4.7565
X9.5657Y-4.9565
X9.5657Y-5.7565
X9.5657Y-5.8565
X9.5669Y-3.8071
X9.5709Y-1.378
X9.5827Y-1.9134
X9.626Y-4.1024
X9.6535Y-4.3228
X9.6657Y-1.5565
X9.6657Y-1.6565
X9.6657Y-1.9565
X9.6657Y-2.0565
X9.6657Y-2.1565
X9.6657Y-2.5565
X9.6657Y-2.8565
X9.6657Y-3.0565
X9.6657Y-3.2565
X9.6657Y-3.4565
X9.6657Y-3.6565
X9.6657Y-3.9565
X9.6657Y-5.5565
X9.6811Y-5.3307
X9.6969Y-5.4291
X9.7205Y-2.3386
X9.7205Y-2.4213
X9.7323Y-6.1063
X9.7362Y-5.9646
X9.7598Y-5.8937
X9.7657Y-1.5565
X9.7657Y-1.6565
X9.7657Y-1.7565
X9.7657Y-1.9565
X9.7657Y-2.1565
X9.7657Y-2.8565
X9.7657Y-3.0565
X9.7657Y-3.2565
X9.7657Y-3.4565
X9.7657Y-3.9565
X9.7657Y-4.0565
X9.7657Y-4.1565
X9.7657Y-4.2565
X9.7657Y-5.0565
X9.7657Y-5.1565
X9.7657Y-5.4565
X9.7913Y-2.3031
X9.811Y-5.9528
X9.8228Y-2.6299
X9.8268Y-2.8268
X9.8346Y-5.626
X9.8386Y-5.8937
X9.8657Y-1.5565
X9.8657Y-1.7565
X9.8657Y-2.0565
X9.8657Y-2.1565
X9.8657Y-2.4565
X9.8657Y-2.5565
X9.8657Y-3.9565
X9.8657Y-4.7565
X9.8657Y-5.1565
X9.8657Y-5.4565
X9.8819Y-4.5984
X9.8976Y-4.6811
X9.9657Y-1.6565
X9.9657Y-1.7565
X9.9657Y-2.0565
X9.9657Y-2.1565
X9.9657Y-2.4565
X9.9657Y-2.5565
X9.9657Y-2.6565
X9.9657Y-3.5565
X9.9657Y-3.6565
X9.9657Y-4.0565
X9.9657Y-4.1565
X9.9657Y-5.6565
X9.9764Y-5.0709
X10.0Y-4.8268
X10.0315Y-5.3189
X10.0315Y-6.0236
X10.0472Y-6.1142
X10.0657Y-2.0565
X10.0657Y-2.4565
X10.0657Y-3.2565
X10.0657Y-3.6565
X10.0657Y-4.7565
X10.0657Y-4.8565
X10.0657Y-5.1565
X10.0657Y-5.4565
X10.0866Y-3.1772
X10.0866Y-6.0591
X10.0945Y-3.0906
X10.1657Y-1.8565
X10.1657Y-1.9565
X10.1657Y-2.1565
X10.1657Y-2.5565
X10.1657Y-2.6565
X10.1657Y-3.6565
X10.1657Y-4.3565
X10.1657Y-4.7565
X10.1657Y-4.8565
X10.1657Y-4.9565
X10.1657Y-5.1565
X10.1657Y-5.5565
X10.1657Y-5.6565
X10.189Y-3.3701
X10.2008Y-3.5551
X10.2638Y-1.4882
X10.2638Y-3.8228
X10.2657Y-1.5565
X10.2657Y-2.0565
X10.2657Y-2.1565
X10.2657Y-3.0565
X10.2657Y-3.2565
X10.2657Y-3.3565
X10.2657Y-4.3565
X10.2657Y-4.5565
X10.2657Y-4.7565
X10.2657Y-4.8565
X10.2657Y-4.9565
X10.2657Y-5.1565
X10.2677Y-1.4134
X10.2795Y-3.9291
X10.2795Y-5.9291
X10.3228Y-6.0315
X10.3268Y-1.878
X10.3504Y-1.378
X10.3657Y-1.5565
X10.3657Y-1.6565
X10.3657Y-1.9565
X10.3657Y-2.0565
X10.3657Y-2.1565
X10.3657Y-2.8565
X10.3657Y-3.0565
X10.3657Y-3.2565
X10.3657Y-3.3565
X10.3657Y-3.4565
X10.3657Y-4.7565
X10.3657Y-4.8565
X10.3657Y-4.9565
X10.3657Y-5.1565
X10.3661Y-5.252
X10.3898Y-4.1063
X10.3898Y-4.311
X10.4055Y-4.5197
X10.4331Y-4.6142
X10.4449Y-5.3425
X10.4449Y-5.4291
X10.4528Y-2.437
X10.4606Y-2.3307
X10.4657Y-1.5565
X10.4657Y-1.6565
X10.4657Y-1.9565
X10.4657Y-2.1565
X10.4657Y-2.8565
X10.4657Y-3.0565
X10.4657Y-3.2565
X10.4657Y-3.4565
X10.4657Y-3.6565
X10.4657Y-4.0565
X10.4657Y-4.7565
X10.4657Y-4.8565
X10.4657Y-4.9565
X10.4657Y-5.1565
X10.4724Y-4.5394
X10.5197Y-5.3504
X10.5657Y-1.5565
X10.5657Y-1.6565
X10.5657Y-1.7565
X10.5657Y-2.0565
X10.5657Y-2.1565
X10.5657Y-3.0565
X10.5657Y-3.4565
X10.5657Y-3.8565
X10.5657Y-4.0565
X10.5657Y-4.1565
X10.5657Y-4.2565
X10.5657Y-4.9565
X10.5657Y-5.1565
X10.5657Y-5.2565
X10.5748Y-2.6024
X10.5787Y-2.8071
X10.5866Y-4.4764
X10.5866Y-4.752
X10.5906Y-5.6181
X10.6535Y-5.4291
X10.6654Y-4.5787
X10.6657Y-1.5565
X10.6657Y-1.7565
X10.6657Y-2.0565
X10.6657Y-2.1565
X10.6657Y-2.5565
X10.6657Y-2.6565
X10.6657Y-2.7565
X10.6657Y-3.5565
X10.6657Y-3.6565
X10.6657Y-3.8565
X10.6657Y-4.0565
X10.6657Y-4.1565
X10.6657Y-4.2565
X10.6657Y-4.4565
X10.6657Y-5.2565
X10.6657Y-5.6565
X10.6657Y-5.7565
X10.6657Y-5.9565
X10.6772Y-5.4764
X10.7205Y-6.0787
X10.7657Y-2.0565
X10.7657Y-2.3565
X10.7657Y-2.5565
X10.7657Y-2.6565
X10.7657Y-2.7565
X10.7657Y-3.2565
X10.7657Y-3.6565
X10.7657Y-4.0565
X10.7657Y-4.1565
X10.7657Y-4.2565
X10.7657Y-5.1565
X10.7657Y-5.5565
X10.7657Y-5.6565
X10.7657Y-5.7565
X10.7657Y-5.9565
X10.8228Y-5.4528
X10.8268Y-3.1772
X10.8307Y-3.1024
X10.8657Y-1.8565
X10.8657Y-1.9565
X10.8657Y-2.5565
X10.8657Y-2.6565
X10.8657Y-2.7565
X10.8657Y-3.2565
X10.8657Y-3.6565
X10.8657Y-4.0565
X10.8657Y-4.1565
X10.8657Y-4.2565
X10.8657Y-4.8565
X10.8657Y-5.1565
X10.8657Y-5.2565
X10.8657Y-5.5565
X10.8657Y-5.6565
X10.8657Y-5.7565
X10.8657Y-5.9565
X10.9213Y-5.4764
X10.9488Y-3.3543
X10.9528Y-3.563
X10.9657Y-1.6565
X10.9657Y-2.1565
X10.9657Y-2.5565
X10.9657Y-2.6565
X10.9657Y-2.7565
X10.9657Y-3.6565
X10.9657Y-3.8565
X10.9657Y-4.0565
X10.9657Y-4.1565
X10.9657Y-4.2565
X10.9657Y-4.4565
X10.9657Y-5.1565
X10.9657Y-5.2565
X10.9657Y-5.3565
X10.9657Y-5.5565
X10.9657Y-5.6565
X10.9685Y-6.0827
X10.9724Y-4.689
X10.9764Y-4.6102
X10.9843Y-4.5472
X10.9843Y-5.0512
X10.9843Y-5.4488
X10.9882Y-4.5787
X11.0Y-1.3898
X11.0157Y-1.4803
X11.0657Y-1.5565
X11.0657Y-2.0565
X11.0657Y-2.1565
X11.0657Y-2.3565
X11.0657Y-2.5565
X11.0657Y-2.6565
X11.0657Y-2.7565
X11.0657Y-2.9565
X11.0657Y-3.2565
X11.0657Y-3.3565
X11.0657Y-3.4565
X11.0657Y-3.8565
X11.0657Y-4.0565
X11.0657Y-4.4565
X11.0657Y-4.8565
X11.0657Y-5.0565
X11.0657Y-5.1565
X11.0657Y-5.2565
X11.0657Y-5.3565
X11.0906Y-1.878
X11.0906Y-5.437
X11.0945Y-1.378
X11.1024Y-5.5
X11.1657Y-1.5565
X11.1657Y-1.6565
X11.1657Y-1.9565
X11.1657Y-2.0565
X11.1657Y-2.1565
X11.1657Y-2.3565
X11.1657Y-2.9565
X11.1657Y-3.0565
X11.1657Y-3.2565
X11.1657Y-3.3565
X11.1657Y-3.4565
X11.1657Y-3.6565
X11.1657Y-4.0565
X11.1657Y-4.4565
X11.1657Y-4.8565
X11.1657Y-4.9565
X11.1657Y-5.0565
X11.1657Y-5.1565
X11.1657Y-5.2565
X11.1657Y-5.3565
X11.2244Y-5.4685
X11.2657Y-1.5565
X11.2657Y-1.6565
X11.2657Y-1.7565
X11.2657Y-1.8565
X11.2657Y-1.9565
X11.2657Y-2.0565
X11.2657Y-2.5565
X11.2657Y-2.9565
X11.2657Y-3.0565
X11.2657Y-3.2565
X11.2657Y-3.3565
X11.2657Y-3.4565
X11.2657Y-3.6565
X11.2657Y-4.4565
X11.2657Y-4.8565
X11.2657Y-4.9565
X11.2657Y-5.0565
X11.2657Y-5.1565
X11.2657Y-5.2565
X11.2657Y-5.3565
X11.3657Y-1.5565
X11.3657Y-1.6565
X11.3657Y-1.7565
X11.3657Y-1.9565
X11.3657Y-2.9565
X11.3657Y-3.0565
X11.3657Y-3.2565
X11.3657Y-3.4565
X11.3657Y-3.6565
X11.3657Y-4.2565
X11.3657Y-4.3565
X11.3657Y-4.4565
X11.3657Y-4.8565
X11.3657Y-4.9565
X11.3657Y-5.0565
X11.3657Y-5.1565
X11.3657Y-5.2565
X11.3657Y-5.3565
X11.378Y-5.626
X11.3819Y-5.5118
X11.4657Y-1.5565
X11.4657Y-1.6565
X11.4657Y-1.7565
X11.4657Y-2.0565
X11.4657Y-2.1565
X11.4657Y-2.8565
X11.4657Y-2.9565
X11.4657Y-3.0565
X11.4657Y-3.2565
X11.4657Y-3.3565
X11.4657Y-3.4565
X11.4657Y-4.0565
X11.4657Y-4.3565
X11.4657Y-4.4565
X11.4657Y-4.8565
X11.4657Y-4.9565
X11.4657Y-5.0565
X11.4657Y-5.1565
X11.4657Y-5.2565
X11.4657Y-5.3565
X11.4657Y-5.6565
X11.4882Y-3.8346
X11.4961Y-3.9252
X11.5079Y-5.7992
X11.5657Y-1.5565
X11.5657Y-1.7565
X11.5657Y-2.0565
X11.5657Y-2.1565
X11.5657Y-2.8565
X11.5657Y-2.9565
X11.5657Y-3.6565
X11.5657Y-4.4565
X11.5657Y-4.8565
X11.5657Y-4.9565
X11.5657Y-5.0565
X11.5657Y-5.1565
X11.5657Y-5.6565
X11.5827Y-2.3386
X11.5827Y-2.4331
X11.5984Y-4.1417
X11.6181Y-4.3228
X11.6417Y-3.7874
X11.6657Y-1.6565
X11.6657Y-1.7565
X11.6657Y-2.0565
X11.6657Y-2.1565
X11.6657Y-3.5565
X11.6657Y-3.6565
X11.6657Y-4.0565
X11.6657Y-4.4565
X11.6657Y-4.8565
X11.6657Y-4.9565
X11.6657Y-5.0565
X11.6657Y-5.1565
X11.6657Y-5.3565
X11.6657Y-5.7565
X11.6657Y-5.8565
X11.6772Y-4.7638
X11.6929Y-2.622
X11.7008Y-2.8071
X11.7362Y-5.4961
X11.7559Y-3.0984
X11.7598Y-3.1811
X11.7657Y-1.9565
X11.7657Y-2.0565
X11.7657Y-2.3565
X11.7657Y-2.5565
X11.7657Y-2.8565
X11.7657Y-3.2565
X11.7657Y-3.6565
X11.7657Y-4.0565
X11.7657Y-4.1565
X11.7657Y-4.2565
X11.7657Y-4.9565
X11.7657Y-5.1565
X11.7657Y-5.3565
X11.7657Y-5.6565
X11.8071Y-4.6181
X11.8228Y-4.7244
X11.8657Y-1.9565
X11.8657Y-2.1565
X11.8657Y-2.5565
X11.8657Y-2.6565
X11.8657Y-2.7565
X11.8657Y-3.6565
X11.8657Y-4.0565
X11.8657Y-4.1565
X11.8657Y-4.2565
X11.8657Y-4.9565
X11.8657Y-5.1565
X11.8657Y-5.3565
X11.874Y-3.3661
X11.9055Y-3.5512
X11.9055Y-5.437
X11.9449Y-1.4921
X11.9488Y-1.4094
X11.9567Y-3.1102
X11.9646Y-3.5748
X11.9646Y-3.6496
X11.9646Y-3.7874
X11.9657Y-1.5565
X11.9657Y-2.0565
X11.9657Y-2.1565
X11.9657Y-2.5565
X11.9657Y-2.6565
X11.9657Y-2.7565
X11.9657Y-2.8565
X11.9657Y-4.0565
X11.9657Y-4.1565
X11.9657Y-4.2565
X11.9657Y-4.3565
X11.9921Y-5.437
X12.0315Y-1.9016
X12.0354Y-2.2953
X12.0657Y-1.5565
X12.0657Y-1.6565
X12.0657Y-3.2565
X12.0657Y-3.3565
X12.0657Y-3.4565
X12.0657Y-3.5565
X12.0657Y-4.9565
X12.0657Y-5.3565
X12.0827Y-4.6181
X12.122Y-4.7795
X12.1339Y-5.5157
X12.1378Y-5.622
X12.1417Y-4.878
X12.1457Y-1.3661
X12.1657Y-1.9565
X12.1657Y-2.0565
X12.1657Y-2.3565
X12.1657Y-2.5565
X12.1657Y-2.6565
X12.1657Y-2.7565
X12.1657Y-2.8565
X12.1657Y-3.2565
X12.1657Y-3.3565
X12.1657Y-3.4565
X12.1657Y-3.5565
X12.1657Y-3.6565
X12.1657Y-4.0565
X12.1657Y-4.1565
X12.1657Y-4.2565
X12.1657Y-4.3565
X12.1657Y-5.3565
X12.189Y-5.437
X12.2323Y-5.9961
X12.2402Y-5.2677
X12.248Y-5.6142
X12.2638Y-5.0433
X12.2657Y-1.5565
X12.2657Y-1.6565
X12.2657Y-1.7565
X12.2657Y-1.8565
X12.2657Y-1.9565
X12.2657Y-2.0565
X12.2657Y-2.3565
X12.2657Y-2.5565
X12.2657Y-2.6565
X12.2657Y-2.7565
X12.2657Y-2.8565
X12.2657Y-3.2565
X12.2657Y-3.3565
X12.2657Y-3.4565
X12.2657Y-3.5565
X12.2657Y-3.6565
X12.2756Y-5.7874
X12.3268Y-5.6004
X12.3657Y-1.5565
X12.3657Y-1.6565
X12.3657Y-1.7565
X12.3657Y-1.9565
X12.3657Y-2.3565
X12.3657Y-2.5565
X12.3657Y-2.6565
X12.3657Y-2.7565
X12.3657Y-3.2565
X12.3657Y-3.3565
X12.3657Y-3.4565
X12.3657Y-3.6565
X12.3657Y-3.8565
X12.3657Y-4.0565
X12.3657Y-4.1565
X12.3657Y-4.2565
X12.3657Y-4.6565
X12.3657Y-4.7565
X12.3657Y-4.8565
X12.3657Y-4.9565
X12.3657Y-5.0565
X12.3657Y-5.1565
X12.3657Y-5.2565
X12.3657Y-5.3565
X12.3657Y-5.6565
X12.3657Y-5.7565
X12.3657Y-5.8565
X12.3657Y-5.9565
X12.4657Y-1.5565
X12.4657Y-1.7565
X12.4657Y-2.0565
X12.4657Y-2.3565
X12.4657Y-2.5565
X12.4657Y-2.9565
X12.4657Y-3.2565
X12.4657Y-3.4565
X12.4657Y-3.6565
X12.4657Y-3.8565
X12.4657Y-4.0565
X12.4657Y-4.4565
X12.4657Y-4.6565
X12.4657Y-4.7565
X12.4657Y-4.8565
X12.4657Y-4.9565
X12.4657Y-5.0565
X12.4657Y-5.1565
X12.4657Y-5.2565
X12.4657Y-5.3565
X12.4657Y-5.6565
X12.5157Y-1.3819
X12.5315Y-1.5
X12.5657Y-1.7565
X12.5657Y-2.9565
X12.5657Y-3.2565
X12.5657Y-3.4565
X12.5657Y-4.4565
X12.5657Y-4.6565
X12.5657Y-4.7565
X12.5657Y-4.8565
X12.5657Y-4.9565
X12.5657Y-5.0565
X12.5657Y-5.1565
X12.5657Y-5.2565
X12.5657Y-5.3565
X12.6417Y-3.0669
X12.6657Y-2.1565
X12.6657Y-4.6565
X12.6657Y-4.7565
X12.6657Y-4.8565
X12.6657Y-4.9565
X12.6657Y-5.0565
X12.6657Y-5.1565
X12.6657Y-5.2565
X12.6657Y-5.3565
X12.7657Y-2.0565
X12.7657Y-2.1565
X12.7657Y-2.9565
X12.7657Y-3.6565
X12.7657Y-5.9565
X12.7677Y-5.3937
X12.7795Y-4.2717
X12.8031Y-3.5591
X12.8071Y-3.0709
X12.8657Y-1.9565
X12.8657Y-2.0565
X12.8657Y-3.7565
X12.8657Y-4.3565
X12.8657Y-4.4565
X12.8657Y-4.7565
X12.8657Y-4.8565
X12.8657Y-4.9565
X12.8657Y-5.0565
X12.8657Y-5.1565
X12.8657Y-5.2565
X12.8657Y-5.4565
X12.878Y-1.5157
X12.8819Y-2.3504
X12.8819Y-2.4409
X12.8858Y-3.9331
X12.8898Y-3.8386
X12.8898Y-5.5157
X12.8898Y-5.6181
X12.9016Y-3.189
X12.9291Y-1.3976
X12.9291Y-4.3425
X12.9295Y-3.1211
X12.9332Y-3.9054
X12.9409Y-2.2717
X12.9567Y-2.8504
X12.9567Y-6.0118
X12.9646Y-6.0709
X12.9657Y-1.4565
X12.9657Y-1.5565
X12.9657Y-1.9565
X12.9685Y-2.7953
X12.9764Y-3.1024
X12.9843Y-2.2638
X12.9961Y-5.748
X13.0039Y-2.6299
X13.0079Y-2.815
X13.0118Y-1.8661
X13.0118Y-3.3898
X13.0118Y-4.1339
X13.0157Y-3.563
X13.0157Y-4.315
X13.0394Y-2.8583
X13.0472Y-5.4646
T2
X1.1181Y-5.563
X1.811Y-1.7835
X3.9764Y-5.6181
T4
X5.3406Y-6.0669
X5.3906Y-6.0669
X5.4406Y-6.0669
X5.4906Y-6.0669
X5.5406Y-6.0669
X5.5906Y-6.0669
T5
X6.9252Y-5.8563
X7.0039Y-5.8563
T6
X3.6811Y-6.0945
X3.7811Y-6.0945
X3.8811Y-6.0945
X3.9811Y-6.0945
X4.0811Y-6.0945
T7
X1.1831Y-1.8815
X1.1837Y-2.8191
X1.2772Y-5.8191
X1.3715Y-3.5691
X1.4331Y-1.7815
X1.4337Y-2.7191
X1.4642Y-4.3191
X1.5272Y-5.7191
X1.6215Y-3.4691
X1.6512Y-5.0701
X1.7142Y-4.2191
X1.9012Y-4.9701
X1.9344Y-2.8201
X2.1211Y-1.8811
X2.1844Y-2.7201
X2.2142Y-5.8191
X2.3091Y-3.5689
X2.3711Y-1.7811
X2.4642Y-5.7191
X2.4961Y-4.3189
X2.5591Y-3.4689
X2.6837Y-2.8199
X2.7461Y-4.2189
X2.8711Y-1.8809
X2.8711Y-5.0689
X2.9337Y-2.7199
X3.0591Y-3.5685
X3.1211Y-1.7809
X3.1211Y-4.9689
X3.1522Y-5.8181
X3.2461Y-4.3195
X3.3091Y-3.4685
X3.4022Y-5.7181
X3.434Y-2.8191
X3.4961Y-4.2195
X3.6207Y-5.0691
X3.6217Y-1.8811
X3.684Y-2.7191
X3.8087Y-3.5691
X3.8707Y-4.9691
X3.8717Y-1.7811
X3.997Y-4.3191
X4.0587Y-3.4691
X4.1831Y-2.8191
X4.247Y-4.2191
X4.3707Y-1.8811
X4.3711Y-5.0689
X4.4331Y-2.7191
X4.5585Y-3.5691
X4.6207Y-1.7811
X4.6211Y-4.9689
X4.7461Y-4.3191
X4.8085Y-3.4691
X4.9341Y-2.8199
X4.9961Y-4.2191
X5.1215Y-5.0691
X5.1841Y-2.7199
X5.3077Y-1.8821
X5.3087Y-3.5691
X5.3715Y-4.9691
X5.4965Y-4.3191
X5.5577Y-1.7821
X5.5587Y-3.4691
X5.6825Y-2.8191
X5.7465Y-4.2191
X5.8707Y-5.0691
X5.9325Y-2.7191
X5.9648Y-5.8191
X6.0585Y-1.8821
X6.0585Y-3.5689
X6.1207Y-4.9691
X6.2148Y-5.7191
X6.2457Y-4.3191
X6.3085Y-1.7821
X6.3085Y-3.4689
X6.4335Y-2.8191
X6.4957Y-4.2191
X6.6207Y-5.0691
X6.6835Y-2.7191
X6.8081Y-3.5691
X6.809Y-1.8811
X6.8707Y-4.9691
X6.9961Y-4.3199
X7.0581Y-3.4691
X7.059Y-1.7811
X7.1831Y-2.8191
X7.2461Y-4.2199
X7.3705Y-5.0691
X7.4331Y-2.7191
X7.5591Y-3.5699
X7.5593Y-1.8811
X7.6205Y-4.9691
X7.7461Y-4.3189
X7.8091Y-3.4699
X7.8093Y-1.7811
X7.934Y-2.8191
X7.9961Y-4.2189
X8.1217Y-5.0701
X8.184Y-2.7191
X8.3087Y-3.5691
X8.3717Y-4.9701
X8.4967Y-1.8811
X8.4967Y-4.3191
X8.5587Y-3.4691
X8.6837Y-2.8201
X8.6837Y-5.8191
X8.7467Y-1.7811
X8.7467Y-4.2191
X8.8707Y-5.0691
X8.9337Y-2.7201
X8.9337Y-5.7191
X9.0585Y-3.5681
X9.1207Y-4.9691
X9.2457Y-4.3191
X9.2461Y-1.8819
X9.3085Y-3.4681
X9.4337Y-5.8181
X9.4341Y-2.8199
X9.4957Y-4.2191
X9.4961Y-1.7819
X9.6222Y-5.0691
X9.6837Y-5.7181
X9.6841Y-2.7199
X9.8087Y-3.5691
X9.8722Y-4.9691
X9.9955Y-4.3181
X9.9967Y-1.8821
X10.0587Y-3.4691
X10.1843Y-5.8181
X10.1844Y-2.8201
X10.2455Y-4.2181
X10.2467Y-1.7821
X10.4343Y-5.7181
X10.4344Y-2.7201
X10.5581Y-3.5699
X10.652Y-5.0701
X10.7457Y-1.8821
X10.8081Y-3.4699
X10.902Y-4.9701
X10.9957Y-1.7821
X11.1201Y-6.0061
X11.2142Y-4.3191
X11.3087Y-2.8181
X11.3701Y-5.9061
X11.4642Y-4.2191
X11.4961Y-3.5685
X11.5587Y-2.7181
X11.6837Y-1.8821
X11.7461Y-3.4685
X11.8701Y-5.2565
X11.8707Y-6.0071
X11.9337Y-1.7821
X12.1201Y-5.1565
X12.1207Y-5.9071
X12.6201Y-4.3191
X12.6207Y-1.8821
X12.6207Y-6.0081
X12.6211Y-2.8189
X12.6211Y-3.5709
X12.8701Y-4.2191
X12.8707Y-1.7821
X12.8707Y-5.9081
X12.8711Y-2.7189
X12.8711Y-3.4709
T8
X4.0942Y-5.3448
X8.0317Y-5.3448
T3
G00X1.5819Y-1.3425
M15
G01X1.5819Y-1.3661
M16
G05
G00X1.5819Y-1.4972
M15
G01X1.5819Y-1.5406
M16
G05
G00X1.922Y-1.3425
M15
G01X1.922Y-1.3661
M16
G05
G00X1.922Y-1.4972
M15
G01X1.922Y-1.5406
M16
G05
M30
