M48
; DRILL file {KiCad 9.0.6} date 2026-02-23T12:32:57-0500
; FORMAT={-:-/ absolute / inch / decimal}
; #@! TF.CreationDate,2026-02-23T12:32:57-05:00
; #@! TF.GenerationSoftware,Kicad,Pcbnew,9.0.6
; #@! TF.FileFunction,NonPlated,1,2,NPTH
FMAT,2
INCH
; #@! TA.AperFunction,NonPlated,NPTH,ComponentDrill
T1C0.0256
; #@! TA.AperFunction,NonPlated,NPTH,ComponentDrill
T2C0.0354
; #@! TA.AperFunction,NonPlated,NPTH,ComponentDrill
T3C0.0689
; #@! TA.AperFunction,NonPlated,NPTH,ComponentDrill
T4C0.0866
; #@! TA.AperFunction,NonPlated,NPTH,ComponentDrill
T5C0.1200
; #@! TA.AperFunction,NonPlated,NPTH,ComponentDrill
T6C0.1570
%
G90
G05
T1
X1.6382Y-1.498
X1.8657Y-1.498
T2
X0.9744Y-5.187
X0.9744Y-5.3051
T3
X1.0831Y-1.6815
X1.0837Y-2.6191
X1.1772Y-5.6191
X1.2715Y-3.3691
X1.3642Y-4.1191
X1.4831Y-1.6815
X1.4837Y-2.6191
X1.5512Y-4.8701
X1.5772Y-5.6191
X1.6715Y-3.3691
X1.7642Y-4.1191
X1.8344Y-2.6201
X1.9512Y-4.8701
X2.0211Y-1.6811
X2.1142Y-5.6191
X2.2091Y-3.3689
X2.2344Y-2.6201
X2.3961Y-4.1189
X2.4211Y-1.6811
X2.5142Y-5.6191
X2.5837Y-2.6199
X2.6091Y-3.3689
X2.7711Y-1.6809
X2.7711Y-4.8689
X2.7961Y-4.1189
X2.9591Y-3.3685
X2.9837Y-2.6199
X3.0522Y-5.6181
X3.1461Y-4.1195
X3.1711Y-1.6809
X3.1711Y-4.8689
X3.334Y-2.6191
X3.3591Y-3.3685
X3.4522Y-5.6181
X3.5207Y-4.8691
X3.5217Y-1.6811
X3.5461Y-4.1195
X3.7087Y-3.3691
X3.734Y-2.6191
X3.897Y-4.1191
X3.9207Y-4.8691
X3.9217Y-1.6811
X4.0831Y-2.6191
X4.1087Y-3.3691
X4.2707Y-1.6811
X4.2711Y-4.8689
X4.297Y-4.1191
X4.4585Y-3.3691
X4.4831Y-2.6191
X4.6461Y-4.1191
X4.6707Y-1.6811
X4.6711Y-4.8689
X4.8341Y-2.6199
X4.8585Y-3.3691
X5.0215Y-4.8691
X5.0461Y-4.1191
X5.2077Y-1.6821
X5.2087Y-3.3691
X5.2341Y-2.6199
X5.3965Y-4.1191
X5.4215Y-4.8691
X5.5825Y-2.6191
X5.6077Y-1.6821
X5.6087Y-3.3691
X5.7707Y-4.8691
X5.7965Y-4.1191
X5.8648Y-5.6191
X5.9585Y-1.6821
X5.9585Y-3.3689
X5.9825Y-2.6191
X6.1457Y-4.1191
X6.1707Y-4.8691
X6.2648Y-5.6191
X6.3335Y-2.6191
X6.3585Y-1.6821
X6.3585Y-3.3689
X6.5207Y-4.8691
X6.5457Y-4.1191
X6.7081Y-3.3691
X6.709Y-1.6811
X6.7335Y-2.6191
X6.8961Y-4.1199
X6.9207Y-4.8691
X7.0831Y-2.6191
X7.1081Y-3.3691
X7.109Y-1.6811
X7.2705Y-4.8691
X7.2961Y-4.1199
X7.4591Y-3.3699
X7.4593Y-1.6811
X7.4831Y-2.6191
X7.6461Y-4.1189
X7.6705Y-4.8691
X7.834Y-2.6191
X7.8591Y-3.3699
X7.8593Y-1.6811
X8.0217Y-4.8701
X8.0461Y-4.1189
X8.2087Y-3.3691
X8.234Y-2.6191
X8.3967Y-1.6811
X8.3967Y-4.1191
X8.4217Y-4.8701
X8.5837Y-2.6201
X8.5837Y-5.6191
X8.6087Y-3.3691
X8.7707Y-4.8691
X8.7967Y-1.6811
X8.7967Y-4.1191
X8.9585Y-3.3681
X8.9837Y-2.6201
X8.9837Y-5.6191
X9.1457Y-4.1191
X9.1461Y-1.6819
X9.1707Y-4.8691
X9.3337Y-5.6181
X9.3341Y-2.6199
X9.3585Y-3.3681
X9.5222Y-4.8691
X9.5457Y-4.1191
X9.5461Y-1.6819
X9.7087Y-3.3691
X9.7337Y-5.6181
X9.7341Y-2.6199
X9.8955Y-4.1181
X9.8967Y-1.6821
X9.9222Y-4.8691
X10.0843Y-5.6181
X10.0844Y-2.6201
X10.1087Y-3.3691
X10.2955Y-4.1181
X10.2967Y-1.6821
X10.4581Y-3.3699
X10.4843Y-5.6181
X10.4844Y-2.6201
X10.552Y-4.8701
X10.6457Y-1.6821
X10.8581Y-3.3699
X10.952Y-4.8701
X11.0201Y-5.8061
X11.0457Y-1.6821
X11.1142Y-4.1191
X11.2087Y-2.6181
X11.3961Y-3.3685
X11.4201Y-5.8061
X11.5142Y-4.1191
X11.5837Y-1.6821
X11.6087Y-2.6181
X11.7701Y-5.0565
X11.7707Y-5.8071
X11.7961Y-3.3685
X11.9837Y-1.6821
X12.1701Y-5.0565
X12.1707Y-5.8071
X12.5201Y-4.1191
X12.5207Y-1.6821
X12.5207Y-5.8081
X12.5211Y-2.6189
X12.5211Y-3.3709
X12.9201Y-4.1191
X12.9207Y-1.6821
X12.9207Y-5.8081
X12.9211Y-2.6189
X12.9211Y-3.3709
T4
X3.1575Y-2.1535
X4.0957Y-4.5472
X10.0972Y-4.5472
X11.2992Y-2.1417
T5
X1.2832Y-4.593
X2.2207Y-4.593
X10.8452Y-3.8441
X10.9387Y-2.344
X11.7827Y-3.8441
X11.8762Y-2.344
T6
X1.2831Y-1.6815
X1.2832Y-5.193
X1.2837Y-2.6191
X1.3772Y-5.6191
X1.4715Y-3.3691
X1.5642Y-4.1191
X1.7512Y-4.8701
X2.0344Y-2.6201
X2.2207Y-5.193
X2.2211Y-1.6811
X2.3142Y-5.6191
X2.4091Y-3.3689
X2.5961Y-4.1189
X2.7837Y-2.6199
X2.9711Y-1.6809
X2.9711Y-4.8689
X3.1591Y-3.3685
X3.2522Y-5.6181
X3.3461Y-4.1195
X3.534Y-2.6191
X3.7207Y-4.8691
X3.7217Y-1.6811
X3.9087Y-3.3691
X4.0942Y-5.9448
X4.097Y-4.1191
X4.2831Y-2.6191
X4.4707Y-1.6811
X4.4711Y-4.8689
X4.6585Y-3.3691
X4.8461Y-4.1191
X5.0341Y-2.6199
X5.2215Y-4.8691
X5.4077Y-1.6821
X5.4087Y-3.3691
X5.5965Y-4.1191
X5.7825Y-2.6191
X5.9707Y-4.8691
X6.0648Y-5.6191
X6.1585Y-1.6821
X6.1585Y-3.3689
X6.3457Y-4.1191
X6.5335Y-2.6191
X6.7207Y-4.8691
X6.9081Y-3.3691
X6.909Y-1.6811
X7.0961Y-4.1199
X7.2831Y-2.6191
X7.4705Y-4.8691
X7.6591Y-3.3699
X7.6593Y-1.6811
X7.8461Y-4.1189
X8.0317Y-5.9448
X8.034Y-2.6191
X8.2217Y-4.8701
X8.4087Y-3.3691
X8.5967Y-1.6811
X8.5967Y-4.1191
X8.7837Y-2.6201
X8.7837Y-5.6191
X8.9707Y-4.8691
X9.1585Y-3.3681
X9.3457Y-4.1191
X9.3461Y-1.6819
X9.5337Y-5.6181
X9.5341Y-2.6199
X9.7222Y-4.8691
X9.9087Y-3.3691
X10.0955Y-4.1181
X10.0967Y-1.6821
X10.2843Y-5.6181
X10.2844Y-2.6201
X10.6581Y-3.3699
X10.752Y-4.8701
X10.8452Y-4.4441
X10.8457Y-1.6821
X10.9387Y-2.944
X11.2201Y-5.8061
X11.3142Y-4.1191
X11.4087Y-2.6181
X11.5961Y-3.3685
X11.7827Y-4.4441
X11.7837Y-1.6821
X11.8762Y-2.944
X11.9701Y-5.0565
X11.9707Y-5.8071
X12.7201Y-4.1191
X12.7207Y-1.6821
X12.7207Y-5.8081
X12.7211Y-2.6189
X12.7211Y-3.3709
M30
