%TF.GenerationSoftware,KiCad,Pcbnew,9.0.6*%
%TF.CreationDate,2026-02-23T12:32:57-05:00*%
%TF.ProjectId,Freedom,46726565-646f-46d2-9e6b-696361645f70,rev?*%
%TF.SameCoordinates,Original*%
%TF.FileFunction,Legend,Top*%
%TF.FilePolarity,Positive*%
%FSLAX46Y46*%
G04 Gerber Fmt 4.6, Leading zero omitted, Abs format (unit mm)*
G04 Created by KiCad (PCBNEW 9.0.6) date 2026-02-23 12:32:57*
%MOMM*%
%LPD*%
G01*
G04 APERTURE LIST*
G04 Aperture macros list*
%AMRoundRect*
0 Rectangle with rounded corners*
0 $1 Rounding radius*
0 $2 $3 $4 $5 $6 $7 $8 $9 X,Y pos of 4 corners*
0 Add a 4 corners polygon primitive as box body*
4,1,4,$2,$3,$4,$5,$6,$7,$8,$9,$2,$3,0*
0 Add four circle primitives for the rounded corners*
1,1,$1+$1,$2,$3*
1,1,$1+$1,$4,$5*
1,1,$1+$1,$6,$7*
1,1,$1+$1,$8,$9*
0 Add four rect primitives between the rounded corners*
20,1,$1+$1,$2,$3,$4,$5,0*
20,1,$1+$1,$4,$5,$6,$7,0*
20,1,$1+$1,$6,$7,$8,$9,0*
20,1,$1+$1,$8,$9,$2,$3,0*%
G04 Aperture macros list end*
%ADD10C,0.300000*%
%ADD11C,0.150000*%
%ADD12C,0.010000*%
%ADD13C,0.120000*%
%ADD14C,2.200000*%
%ADD15R,1.000000X1.000000*%
%ADD16C,1.000000*%
%ADD17C,3.987800*%
%ADD18R,1.700000X1.700000*%
%ADD19C,1.700000*%
%ADD20C,3.048000*%
%ADD21C,1.750000*%
%ADD22C,3.300000*%
%ADD23C,0.900000*%
%ADD24RoundRect,0.250000X-0.350000X-0.625000X0.350000X-0.625000X0.350000X0.625000X-0.350000X0.625000X0*%
%ADD25O,1.200000X1.750000*%
%ADD26C,0.650000*%
%ADD27O,1.000000X1.600000*%
%ADD28O,1.000000X2.100000*%
G04 APERTURE END LIST*
D10*
G36*
X317488720Y-120887000D02*
G01*
X316887577Y-120887000D01*
X316713402Y-120343407D01*
X315842371Y-120343407D01*
X315670027Y-120887000D01*
X315072242Y-120887000D01*
X315423864Y-119919798D01*
X315960218Y-119919798D01*
X316587006Y-119919798D01*
X316323987Y-119092883D01*
X316300038Y-118995868D01*
X316283076Y-118872607D01*
X316269338Y-118872607D01*
X316254493Y-118979419D01*
X316226748Y-119086166D01*
X315960218Y-119919798D01*
X315423864Y-119919798D01*
X315963729Y-118434801D01*
X316617842Y-118434801D01*
X317488720Y-120887000D01*
G37*
G36*
X318882584Y-119620906D02*
G01*
X318779340Y-119581819D01*
X318655438Y-119568088D01*
X318544579Y-119583080D01*
X318454632Y-119625871D01*
X318380512Y-119697384D01*
X318327700Y-119788644D01*
X318293768Y-119903897D01*
X318281441Y-120049399D01*
X318281441Y-120887000D01*
X317741817Y-120887000D01*
X317741817Y-119138221D01*
X318281441Y-119138221D01*
X318281441Y-119458789D01*
X318288310Y-119458789D01*
X318352080Y-119322036D01*
X318428976Y-119223131D01*
X318518871Y-119154914D01*
X318624137Y-119113578D01*
X318749319Y-119099142D01*
X318829722Y-119105038D01*
X318882584Y-119119903D01*
X318882584Y-119620906D01*
G37*
G36*
X320444517Y-120820596D02*
G01*
X320317826Y-120875170D01*
X320146014Y-120912161D01*
X319916799Y-120926078D01*
X319718065Y-120909715D01*
X319546078Y-120862965D01*
X319396077Y-120787581D01*
X319264518Y-120682904D01*
X319156298Y-120553674D01*
X319079158Y-120408313D01*
X319031736Y-120243633D01*
X319015238Y-120055200D01*
X319027041Y-119876825D01*
X319060751Y-119720656D01*
X319114673Y-119583358D01*
X319188307Y-119462190D01*
X319282379Y-119355139D01*
X319423014Y-119245782D01*
X319585937Y-119166330D01*
X319775421Y-119116646D01*
X319997094Y-119099142D01*
X320203964Y-119110508D01*
X320347871Y-119139678D01*
X320444517Y-119180811D01*
X320444517Y-119636476D01*
X320326914Y-119567270D01*
X320202041Y-119526232D01*
X320067161Y-119512370D01*
X319917861Y-119528545D01*
X319797305Y-119573946D01*
X319699118Y-119647162D01*
X319625645Y-119744875D01*
X319579826Y-119866619D01*
X319563411Y-120019327D01*
X319579134Y-120167889D01*
X319622985Y-120286353D01*
X319693165Y-120381417D01*
X319787258Y-120452672D01*
X319904041Y-120496998D01*
X320050064Y-120512850D01*
X320180983Y-120499569D01*
X320311715Y-120459043D01*
X320444517Y-120388744D01*
X320444517Y-120820596D01*
G37*
G36*
X316476220Y-121745513D02*
G01*
X316705614Y-121786585D01*
X316897539Y-121850351D01*
X317057680Y-121934514D01*
X317190630Y-122038272D01*
X317299673Y-122162377D01*
X317386572Y-122309077D01*
X317451453Y-122481960D01*
X317492791Y-122685746D01*
X317507496Y-122926065D01*
X317491976Y-123155203D01*
X317447455Y-123357619D01*
X317375865Y-123537352D01*
X317277573Y-123697702D01*
X317151360Y-123841060D01*
X317003636Y-123961341D01*
X316837855Y-124055693D01*
X316651468Y-124124800D01*
X316441117Y-124167936D01*
X316202782Y-124183000D01*
X315335262Y-124183000D01*
X315335262Y-123735577D01*
X315886792Y-123735577D01*
X316160039Y-123735577D01*
X316337311Y-123720797D01*
X316487063Y-123678987D01*
X316614346Y-123612194D01*
X316722866Y-123520033D01*
X316809528Y-123406792D01*
X316872926Y-123273917D01*
X316912830Y-123117610D01*
X316926962Y-122932934D01*
X316913011Y-122759068D01*
X316873591Y-122612163D01*
X316810796Y-122487382D01*
X316724545Y-122381098D01*
X316617797Y-122295988D01*
X316490518Y-122233510D01*
X316338605Y-122193980D01*
X316156681Y-122179903D01*
X315886792Y-122179903D01*
X315886792Y-123735577D01*
X315335262Y-123735577D01*
X315335262Y-121730801D01*
X316202782Y-121730801D01*
X316476220Y-121745513D01*
G37*
G36*
X319526621Y-122434221D02*
G01*
X318816180Y-124322523D01*
X318711762Y-124552607D01*
X318597873Y-124724946D01*
X318475656Y-124849974D01*
X318344495Y-124935535D01*
X318201999Y-124986364D01*
X318044220Y-125003655D01*
X317857543Y-124990220D01*
X317721514Y-124954807D01*
X317721514Y-124524939D01*
X317833860Y-124575335D01*
X317955377Y-124592106D01*
X318053325Y-124579370D01*
X318131717Y-124543319D01*
X318195261Y-124483704D01*
X318245720Y-124395796D01*
X318337922Y-124179031D01*
X317627481Y-122434221D01*
X318225265Y-122434221D01*
X318551482Y-123497593D01*
X318577910Y-123601427D01*
X318599262Y-123731456D01*
X318606131Y-123731456D01*
X318662460Y-123500951D01*
X318992035Y-122434221D01*
X319526621Y-122434221D01*
G37*
G36*
X321433547Y-124183000D02*
G01*
X320895603Y-124183000D01*
X320895603Y-123213813D01*
X320880478Y-123049859D01*
X320841417Y-122939175D01*
X320783922Y-122866854D01*
X320707384Y-122823764D01*
X320605259Y-122808370D01*
X320516888Y-122820453D01*
X320441145Y-122855701D01*
X320374755Y-122915684D01*
X320325398Y-122991711D01*
X320294950Y-123081353D01*
X320284232Y-123188168D01*
X320284232Y-124183000D01*
X319744608Y-124183000D01*
X319744608Y-122434221D01*
X320284232Y-122434221D01*
X320284232Y-122714337D01*
X320291102Y-122714337D01*
X320377545Y-122596944D01*
X320475157Y-122508923D01*
X320585069Y-122446591D01*
X320709767Y-122408413D01*
X320852860Y-122395142D01*
X321009315Y-122410321D01*
X321134566Y-122452527D01*
X321235342Y-122519481D01*
X321315929Y-122612684D01*
X321377597Y-122737194D01*
X321418425Y-122901017D01*
X321433547Y-123114437D01*
X321433547Y-124183000D01*
G37*
G36*
X322755094Y-122408705D02*
G01*
X322907141Y-122446162D01*
X323029714Y-122504171D01*
X323128093Y-122581601D01*
X323205704Y-122679637D01*
X323263788Y-122801644D01*
X323301264Y-122952847D01*
X323314828Y-123139930D01*
X323314828Y-124183000D01*
X322804208Y-124183000D01*
X322804208Y-123928224D01*
X322797338Y-123928224D01*
X322718502Y-124035941D01*
X322628738Y-124116908D01*
X322526932Y-124174419D01*
X322410676Y-124209759D01*
X322276491Y-124222078D01*
X322112619Y-124204690D01*
X321981524Y-124156124D01*
X321875932Y-124078280D01*
X321796260Y-123974230D01*
X321747312Y-123848354D01*
X321729997Y-123694361D01*
X321736799Y-123631163D01*
X322226879Y-123631163D01*
X322243094Y-123714883D01*
X322290840Y-123781067D01*
X322363662Y-123824028D01*
X322464252Y-123839533D01*
X322561032Y-123827519D01*
X322642346Y-123792974D01*
X322711853Y-123735424D01*
X322764388Y-123661032D01*
X322796388Y-123574353D01*
X322807566Y-123471948D01*
X322807566Y-123355016D01*
X322489898Y-123395622D01*
X322365154Y-123426937D01*
X322287121Y-123476573D01*
X322242495Y-123542852D01*
X322226879Y-123631163D01*
X321736799Y-123631163D01*
X321747063Y-123535809D01*
X321794983Y-123407518D01*
X321872298Y-123302740D01*
X321982211Y-123217670D01*
X322132126Y-123151997D01*
X322332819Y-123108942D01*
X322807566Y-123045896D01*
X322794241Y-122940601D01*
X322758135Y-122864783D01*
X322700525Y-122810680D01*
X322616642Y-122775530D01*
X322496767Y-122762269D01*
X322343999Y-122773888D01*
X322195063Y-122808721D01*
X322048351Y-122867512D01*
X321902494Y-122952016D01*
X321902494Y-122542909D01*
X322026668Y-122491031D01*
X322210698Y-122439869D01*
X322402686Y-122405682D01*
X322566834Y-122395142D01*
X322755094Y-122408705D01*
G37*
G36*
X326519752Y-124183000D02*
G01*
X325981807Y-124183000D01*
X325981807Y-123188168D01*
X325967400Y-123035434D01*
X325930081Y-122931887D01*
X325874861Y-122863822D01*
X325800888Y-122823011D01*
X325701691Y-122808370D01*
X325618538Y-122820999D01*
X325547333Y-122858153D01*
X325484773Y-122922554D01*
X325439338Y-123002382D01*
X325411082Y-123096075D01*
X325401120Y-123206944D01*
X325401120Y-124183000D01*
X324861496Y-124183000D01*
X324861496Y-123177940D01*
X324847408Y-123029561D01*
X324810885Y-122928842D01*
X324756759Y-122862519D01*
X324684120Y-122822680D01*
X324586570Y-122808370D01*
X324499640Y-122820725D01*
X324427072Y-122856516D01*
X324365225Y-122917364D01*
X324321134Y-122994231D01*
X324292788Y-123091299D01*
X324282488Y-123213813D01*
X324282488Y-124183000D01*
X323742864Y-124183000D01*
X323742864Y-122434221D01*
X324282488Y-122434221D01*
X324282488Y-122710978D01*
X324289357Y-122710978D01*
X324351977Y-122624188D01*
X324429704Y-122548438D01*
X324524135Y-122483069D01*
X324627843Y-122434287D01*
X324737429Y-122405043D01*
X324854626Y-122395142D01*
X324998698Y-122409251D01*
X325117133Y-122448948D01*
X325215257Y-122512619D01*
X325296482Y-122601846D01*
X325361888Y-122721206D01*
X325451115Y-122601866D01*
X325552508Y-122512013D01*
X325667354Y-122448115D01*
X325798336Y-122408833D01*
X325949292Y-122395142D01*
X326103224Y-122410009D01*
X326226374Y-122451326D01*
X326325374Y-122516820D01*
X326404462Y-122607900D01*
X326464931Y-122729458D01*
X326504939Y-122889268D01*
X326519752Y-123097340D01*
X326519752Y-124183000D01*
G37*
G36*
X327220576Y-122150899D02*
G01*
X327132705Y-122141334D01*
X327059150Y-122114083D01*
X326996789Y-122069536D01*
X326948161Y-122010722D01*
X326919544Y-121944991D01*
X326909777Y-121869867D01*
X326919730Y-121792670D01*
X326948495Y-121727387D01*
X326996789Y-121671114D01*
X327058841Y-121629063D01*
X327132406Y-121603154D01*
X327220576Y-121594025D01*
X327309857Y-121603211D01*
X327383609Y-121629170D01*
X327445127Y-121671114D01*
X327492962Y-121727331D01*
X327521495Y-121792615D01*
X327531375Y-121869867D01*
X327521488Y-121948297D01*
X327492935Y-122014757D01*
X327445127Y-122072131D01*
X327383486Y-122115052D01*
X327309738Y-122141540D01*
X327220576Y-122150899D01*
G37*
G36*
X327486954Y-124183000D02*
G01*
X326947330Y-124183000D01*
X326947330Y-122434221D01*
X327486954Y-122434221D01*
X327486954Y-124183000D01*
G37*
G36*
X329266568Y-124116596D02*
G01*
X329139878Y-124171170D01*
X328968066Y-124208161D01*
X328738851Y-124222078D01*
X328540116Y-124205715D01*
X328368130Y-124158965D01*
X328218129Y-124083581D01*
X328086570Y-123978904D01*
X327978350Y-123849674D01*
X327901210Y-123704313D01*
X327853787Y-123539633D01*
X327837290Y-123351200D01*
X327849093Y-123172825D01*
X327882803Y-123016656D01*
X327936724Y-122879358D01*
X328010359Y-122758190D01*
X328104430Y-122651139D01*
X328245066Y-122541782D01*
X328407989Y-122462330D01*
X328597472Y-122412646D01*
X328819146Y-122395142D01*
X329026015Y-122406508D01*
X329169923Y-122435678D01*
X329266568Y-122476811D01*
X329266568Y-122932476D01*
X329148966Y-122863270D01*
X329024092Y-122822232D01*
X328889213Y-122808370D01*
X328739913Y-122824545D01*
X328619356Y-122869946D01*
X328521170Y-122943162D01*
X328447696Y-123040875D01*
X328401878Y-123162619D01*
X328385462Y-123315327D01*
X328401185Y-123463889D01*
X328445036Y-123582353D01*
X328515216Y-123677417D01*
X328609310Y-123748672D01*
X328726093Y-123792998D01*
X328872116Y-123808850D01*
X329003034Y-123795569D01*
X329133767Y-123755043D01*
X329266568Y-123684744D01*
X329266568Y-124116596D01*
G37*
G36*
X332876172Y-121730801D02*
G01*
X332228929Y-124183000D01*
X331617406Y-124183000D01*
X331211047Y-122609770D01*
X331185402Y-122482512D01*
X331171662Y-122334386D01*
X331164946Y-122334386D01*
X331144942Y-122494312D01*
X331120524Y-122609770D01*
X330703785Y-124183000D01*
X330066769Y-124183000D01*
X329422884Y-121730801D01*
X330025706Y-121730801D01*
X330370699Y-123363870D01*
X330388926Y-123477273D01*
X330403213Y-123644291D01*
X330413441Y-123644291D01*
X330428591Y-123510479D01*
X330462900Y-123357001D01*
X330906964Y-121730801D01*
X331497879Y-121730801D01*
X331899201Y-123377609D01*
X331938585Y-123640933D01*
X331945454Y-123640933D01*
X331957683Y-123505741D01*
X331981327Y-123367381D01*
X332319451Y-121730801D01*
X332876172Y-121730801D01*
G37*
G36*
X334815155Y-124183000D02*
G01*
X334277210Y-124183000D01*
X334277210Y-123191679D01*
X334262745Y-123037265D01*
X334225312Y-122932718D01*
X334170014Y-122864124D01*
X334096082Y-122823077D01*
X333997094Y-122808370D01*
X333906565Y-122820589D01*
X333830361Y-122855954D01*
X333764911Y-122915684D01*
X333716526Y-122991593D01*
X333686610Y-123081238D01*
X333676068Y-123188168D01*
X333676068Y-124183000D01*
X333136443Y-124183000D01*
X333136443Y-121594025D01*
X333676068Y-121594025D01*
X333676068Y-122697240D01*
X333682937Y-122697240D01*
X333770828Y-122585284D01*
X333867097Y-122501739D01*
X333972701Y-122443023D01*
X334089658Y-122407405D01*
X334220882Y-122395142D01*
X334382074Y-122410468D01*
X334510745Y-122452992D01*
X334613870Y-122520215D01*
X334695977Y-122613385D01*
X334758563Y-122737318D01*
X334799879Y-122899803D01*
X334815155Y-123110926D01*
X334815155Y-124183000D01*
G37*
G36*
X335515064Y-122150899D02*
G01*
X335427192Y-122141334D01*
X335353637Y-122114083D01*
X335291276Y-122069536D01*
X335242648Y-122010722D01*
X335214031Y-121944991D01*
X335204264Y-121869867D01*
X335214218Y-121792670D01*
X335242982Y-121727387D01*
X335291276Y-121671114D01*
X335353328Y-121629063D01*
X335426893Y-121603154D01*
X335515064Y-121594025D01*
X335604345Y-121603211D01*
X335678096Y-121629170D01*
X335739614Y-121671114D01*
X335787449Y-121727331D01*
X335815982Y-121792615D01*
X335825863Y-121869867D01*
X335815975Y-121948297D01*
X335787422Y-122014757D01*
X335739614Y-122072131D01*
X335677973Y-122115052D01*
X335604225Y-122141540D01*
X335515064Y-122150899D01*
G37*
G36*
X335781441Y-124183000D02*
G01*
X335241817Y-124183000D01*
X335241817Y-122434221D01*
X335781441Y-122434221D01*
X335781441Y-124183000D01*
G37*
G36*
X337292999Y-124162544D02*
G01*
X337210619Y-124192841D01*
X337093848Y-124213978D01*
X336932741Y-124222078D01*
X336772487Y-124208420D01*
X336646493Y-124170934D01*
X336547565Y-124112745D01*
X336470613Y-124033915D01*
X336413211Y-123931457D01*
X336375931Y-123799729D01*
X336362281Y-123631011D01*
X336362281Y-122832184D01*
X336078807Y-122832184D01*
X336078807Y-122434221D01*
X336362281Y-122434221D01*
X336362281Y-122059308D01*
X336900226Y-121906656D01*
X336900226Y-122434221D01*
X337292999Y-122434221D01*
X337292999Y-122832184D01*
X336900226Y-122832184D01*
X336900226Y-123536672D01*
X336911009Y-123644513D01*
X336939168Y-123718455D01*
X336981424Y-123767837D01*
X337038969Y-123797936D01*
X337117144Y-123808850D01*
X337201862Y-123797857D01*
X337292999Y-123762902D01*
X337292999Y-124162544D01*
G37*
G36*
X338543773Y-122410799D02*
G01*
X338701873Y-122454854D01*
X338834496Y-122524829D01*
X338945912Y-122620914D01*
X339034679Y-122739112D01*
X339099715Y-122877790D01*
X339140686Y-123040893D01*
X339155198Y-123233505D01*
X339155198Y-123459125D01*
X338014431Y-123459125D01*
X338035896Y-123577101D01*
X338078611Y-123668512D01*
X338141598Y-123739161D01*
X338227534Y-123792004D01*
X338342323Y-123826676D01*
X338494368Y-123839533D01*
X338682927Y-123823835D01*
X338850762Y-123778430D01*
X339001630Y-123704284D01*
X339001630Y-124092630D01*
X338834835Y-124161212D01*
X338627704Y-124205858D01*
X338371484Y-124222078D01*
X338160635Y-124205713D01*
X337984679Y-124159766D01*
X337837345Y-124087150D01*
X337713860Y-123988216D01*
X337614720Y-123864764D01*
X337542121Y-123718183D01*
X337496290Y-123543875D01*
X337479997Y-123335782D01*
X337496762Y-123127870D01*
X338011073Y-123127870D01*
X338654958Y-123127870D01*
X338640066Y-122982638D01*
X338601038Y-122882562D01*
X338542109Y-122815263D01*
X338461285Y-122773956D01*
X338350876Y-122758911D01*
X338268962Y-122770439D01*
X338194986Y-122804822D01*
X338126325Y-122864546D01*
X338072119Y-122939473D01*
X338033647Y-123026444D01*
X338011073Y-123127870D01*
X337496762Y-123127870D01*
X337497309Y-123121084D01*
X337546359Y-122938596D01*
X337624724Y-122782570D01*
X337732636Y-122648696D01*
X337866847Y-122537392D01*
X338013265Y-122459023D01*
X338174537Y-122411484D01*
X338354387Y-122395142D01*
X338543773Y-122410799D01*
G37*
G36*
X341649223Y-124183000D02*
G01*
X341096013Y-124183000D01*
X341096013Y-123182520D01*
X340081489Y-123182520D01*
X340081489Y-124183000D01*
X339529958Y-124183000D01*
X339529958Y-121730801D01*
X340081489Y-121730801D01*
X340081489Y-122707773D01*
X341096013Y-122707773D01*
X341096013Y-121730801D01*
X341649223Y-121730801D01*
X341649223Y-124183000D01*
G37*
G36*
X343051674Y-122408705D02*
G01*
X343203721Y-122446162D01*
X343326295Y-122504171D01*
X343424674Y-122581601D01*
X343502285Y-122679637D01*
X343560369Y-122801644D01*
X343597845Y-122952847D01*
X343611409Y-123139930D01*
X343611409Y-124183000D01*
X343100788Y-124183000D01*
X343100788Y-123928224D01*
X343093919Y-123928224D01*
X343015083Y-124035941D01*
X342925319Y-124116908D01*
X342823512Y-124174419D01*
X342707256Y-124209759D01*
X342573071Y-124222078D01*
X342409199Y-124204690D01*
X342278104Y-124156124D01*
X342172513Y-124078280D01*
X342092841Y-123974230D01*
X342043893Y-123848354D01*
X342026578Y-123694361D01*
X342033380Y-123631163D01*
X342523459Y-123631163D01*
X342539674Y-123714883D01*
X342587420Y-123781067D01*
X342660243Y-123824028D01*
X342760833Y-123839533D01*
X342857613Y-123827519D01*
X342938926Y-123792974D01*
X343008434Y-123735424D01*
X343060969Y-123661032D01*
X343092968Y-123574353D01*
X343104147Y-123471948D01*
X343104147Y-123355016D01*
X342786478Y-123395622D01*
X342661734Y-123426937D01*
X342583702Y-123476573D01*
X342539076Y-123542852D01*
X342523459Y-123631163D01*
X342033380Y-123631163D01*
X342043644Y-123535809D01*
X342091564Y-123407518D01*
X342168879Y-123302740D01*
X342278791Y-123217670D01*
X342428706Y-123151997D01*
X342629400Y-123108942D01*
X343104147Y-123045896D01*
X343090822Y-122940601D01*
X343054716Y-122864783D01*
X342997105Y-122810680D01*
X342913223Y-122775530D01*
X342793348Y-122762269D01*
X342640579Y-122773888D01*
X342491643Y-122808721D01*
X342344932Y-122867512D01*
X342199074Y-122952016D01*
X342199074Y-122542909D01*
X342323248Y-122491031D01*
X342507278Y-122439869D01*
X342699266Y-122405682D01*
X342863415Y-122395142D01*
X343051674Y-122408705D01*
G37*
G36*
X345096558Y-124162544D02*
G01*
X345014178Y-124192841D01*
X344897407Y-124213978D01*
X344736300Y-124222078D01*
X344576046Y-124208420D01*
X344450052Y-124170934D01*
X344351124Y-124112745D01*
X344274172Y-124033915D01*
X344216770Y-123931457D01*
X344179490Y-123799729D01*
X344165840Y-123631011D01*
X344165840Y-122832184D01*
X343882365Y-122832184D01*
X343882365Y-122434221D01*
X344165840Y-122434221D01*
X344165840Y-122059308D01*
X344703785Y-121906656D01*
X344703785Y-122434221D01*
X345096558Y-122434221D01*
X345096558Y-122832184D01*
X344703785Y-122832184D01*
X344703785Y-123536672D01*
X344714568Y-123644513D01*
X344742727Y-123718455D01*
X344784983Y-123767837D01*
X344842528Y-123797936D01*
X344920703Y-123808850D01*
X345005421Y-123797857D01*
X345096558Y-123762902D01*
X345096558Y-124162544D01*
G37*
D11*
X286238095Y-51657200D02*
X286380952Y-51704819D01*
X286380952Y-51704819D02*
X286619047Y-51704819D01*
X286619047Y-51704819D02*
X286714285Y-51657200D01*
X286714285Y-51657200D02*
X286761904Y-51609580D01*
X286761904Y-51609580D02*
X286809523Y-51514342D01*
X286809523Y-51514342D02*
X286809523Y-51419104D01*
X286809523Y-51419104D02*
X286761904Y-51323866D01*
X286761904Y-51323866D02*
X286714285Y-51276247D01*
X286714285Y-51276247D02*
X286619047Y-51228628D01*
X286619047Y-51228628D02*
X286428571Y-51181009D01*
X286428571Y-51181009D02*
X286333333Y-51133390D01*
X286333333Y-51133390D02*
X286285714Y-51085771D01*
X286285714Y-51085771D02*
X286238095Y-50990533D01*
X286238095Y-50990533D02*
X286238095Y-50895295D01*
X286238095Y-50895295D02*
X286285714Y-50800057D01*
X286285714Y-50800057D02*
X286333333Y-50752438D01*
X286333333Y-50752438D02*
X286428571Y-50704819D01*
X286428571Y-50704819D02*
X286666666Y-50704819D01*
X286666666Y-50704819D02*
X286809523Y-50752438D01*
X287666666Y-50704819D02*
X287476190Y-50704819D01*
X287476190Y-50704819D02*
X287380952Y-50752438D01*
X287380952Y-50752438D02*
X287333333Y-50800057D01*
X287333333Y-50800057D02*
X287238095Y-50942914D01*
X287238095Y-50942914D02*
X287190476Y-51133390D01*
X287190476Y-51133390D02*
X287190476Y-51514342D01*
X287190476Y-51514342D02*
X287238095Y-51609580D01*
X287238095Y-51609580D02*
X287285714Y-51657200D01*
X287285714Y-51657200D02*
X287380952Y-51704819D01*
X287380952Y-51704819D02*
X287571428Y-51704819D01*
X287571428Y-51704819D02*
X287666666Y-51657200D01*
X287666666Y-51657200D02*
X287714285Y-51609580D01*
X287714285Y-51609580D02*
X287761904Y-51514342D01*
X287761904Y-51514342D02*
X287761904Y-51276247D01*
X287761904Y-51276247D02*
X287714285Y-51181009D01*
X287714285Y-51181009D02*
X287666666Y-51133390D01*
X287666666Y-51133390D02*
X287571428Y-51085771D01*
X287571428Y-51085771D02*
X287380952Y-51085771D01*
X287380952Y-51085771D02*
X287285714Y-51133390D01*
X287285714Y-51133390D02*
X287238095Y-51181009D01*
X287238095Y-51181009D02*
X287190476Y-51276247D01*
X133359819Y-154433333D02*
X134074104Y-154433333D01*
X134074104Y-154433333D02*
X134216961Y-154480952D01*
X134216961Y-154480952D02*
X134312200Y-154576190D01*
X134312200Y-154576190D02*
X134359819Y-154719047D01*
X134359819Y-154719047D02*
X134359819Y-154814285D01*
X133693152Y-153528571D02*
X134359819Y-153528571D01*
X133312200Y-153766666D02*
X134026485Y-154004761D01*
X134026485Y-154004761D02*
X134026485Y-153385714D01*
X103268095Y-112757200D02*
X103410952Y-112804819D01*
X103410952Y-112804819D02*
X103649047Y-112804819D01*
X103649047Y-112804819D02*
X103744285Y-112757200D01*
X103744285Y-112757200D02*
X103791904Y-112709580D01*
X103791904Y-112709580D02*
X103839523Y-112614342D01*
X103839523Y-112614342D02*
X103839523Y-112519104D01*
X103839523Y-112519104D02*
X103791904Y-112423866D01*
X103791904Y-112423866D02*
X103744285Y-112376247D01*
X103744285Y-112376247D02*
X103649047Y-112328628D01*
X103649047Y-112328628D02*
X103458571Y-112281009D01*
X103458571Y-112281009D02*
X103363333Y-112233390D01*
X103363333Y-112233390D02*
X103315714Y-112185771D01*
X103315714Y-112185771D02*
X103268095Y-112090533D01*
X103268095Y-112090533D02*
X103268095Y-111995295D01*
X103268095Y-111995295D02*
X103315714Y-111900057D01*
X103315714Y-111900057D02*
X103363333Y-111852438D01*
X103363333Y-111852438D02*
X103458571Y-111804819D01*
X103458571Y-111804819D02*
X103696666Y-111804819D01*
X103696666Y-111804819D02*
X103839523Y-111852438D01*
X104172857Y-111804819D02*
X104839523Y-111804819D01*
X104839523Y-111804819D02*
X104410952Y-112804819D01*
X334148319Y-37633333D02*
X334862604Y-37633333D01*
X334862604Y-37633333D02*
X335005461Y-37680952D01*
X335005461Y-37680952D02*
X335100700Y-37776190D01*
X335100700Y-37776190D02*
X335148319Y-37919047D01*
X335148319Y-37919047D02*
X335148319Y-38014285D01*
X334148319Y-37252380D02*
X334148319Y-36585714D01*
X334148319Y-36585714D02*
X335148319Y-37014285D01*
X255708095Y-112757200D02*
X255850952Y-112804819D01*
X255850952Y-112804819D02*
X256089047Y-112804819D01*
X256089047Y-112804819D02*
X256184285Y-112757200D01*
X256184285Y-112757200D02*
X256231904Y-112709580D01*
X256231904Y-112709580D02*
X256279523Y-112614342D01*
X256279523Y-112614342D02*
X256279523Y-112519104D01*
X256279523Y-112519104D02*
X256231904Y-112423866D01*
X256231904Y-112423866D02*
X256184285Y-112376247D01*
X256184285Y-112376247D02*
X256089047Y-112328628D01*
X256089047Y-112328628D02*
X255898571Y-112281009D01*
X255898571Y-112281009D02*
X255803333Y-112233390D01*
X255803333Y-112233390D02*
X255755714Y-112185771D01*
X255755714Y-112185771D02*
X255708095Y-112090533D01*
X255708095Y-112090533D02*
X255708095Y-111995295D01*
X255708095Y-111995295D02*
X255755714Y-111900057D01*
X255755714Y-111900057D02*
X255803333Y-111852438D01*
X255803333Y-111852438D02*
X255898571Y-111804819D01*
X255898571Y-111804819D02*
X256136666Y-111804819D01*
X256136666Y-111804819D02*
X256279523Y-111852438D01*
X256850952Y-112233390D02*
X256755714Y-112185771D01*
X256755714Y-112185771D02*
X256708095Y-112138152D01*
X256708095Y-112138152D02*
X256660476Y-112042914D01*
X256660476Y-112042914D02*
X256660476Y-111995295D01*
X256660476Y-111995295D02*
X256708095Y-111900057D01*
X256708095Y-111900057D02*
X256755714Y-111852438D01*
X256755714Y-111852438D02*
X256850952Y-111804819D01*
X256850952Y-111804819D02*
X257041428Y-111804819D01*
X257041428Y-111804819D02*
X257136666Y-111852438D01*
X257136666Y-111852438D02*
X257184285Y-111900057D01*
X257184285Y-111900057D02*
X257231904Y-111995295D01*
X257231904Y-111995295D02*
X257231904Y-112042914D01*
X257231904Y-112042914D02*
X257184285Y-112138152D01*
X257184285Y-112138152D02*
X257136666Y-112185771D01*
X257136666Y-112185771D02*
X257041428Y-112233390D01*
X257041428Y-112233390D02*
X256850952Y-112233390D01*
X256850952Y-112233390D02*
X256755714Y-112281009D01*
X256755714Y-112281009D02*
X256708095Y-112328628D01*
X256708095Y-112328628D02*
X256660476Y-112423866D01*
X256660476Y-112423866D02*
X256660476Y-112614342D01*
X256660476Y-112614342D02*
X256708095Y-112709580D01*
X256708095Y-112709580D02*
X256755714Y-112757200D01*
X256755714Y-112757200D02*
X256850952Y-112804819D01*
X256850952Y-112804819D02*
X257041428Y-112804819D01*
X257041428Y-112804819D02*
X257136666Y-112757200D01*
X257136666Y-112757200D02*
X257184285Y-112709580D01*
X257184285Y-112709580D02*
X257231904Y-112614342D01*
X257231904Y-112614342D02*
X257231904Y-112423866D01*
X257231904Y-112423866D02*
X257184285Y-112328628D01*
X257184285Y-112328628D02*
X257136666Y-112281009D01*
X257136666Y-112281009D02*
X257041428Y-112233390D01*
X79438095Y-51957200D02*
X79580952Y-52004819D01*
X79580952Y-52004819D02*
X79819047Y-52004819D01*
X79819047Y-52004819D02*
X79914285Y-51957200D01*
X79914285Y-51957200D02*
X79961904Y-51909580D01*
X79961904Y-51909580D02*
X80009523Y-51814342D01*
X80009523Y-51814342D02*
X80009523Y-51719104D01*
X80009523Y-51719104D02*
X79961904Y-51623866D01*
X79961904Y-51623866D02*
X79914285Y-51576247D01*
X79914285Y-51576247D02*
X79819047Y-51528628D01*
X79819047Y-51528628D02*
X79628571Y-51481009D01*
X79628571Y-51481009D02*
X79533333Y-51433390D01*
X79533333Y-51433390D02*
X79485714Y-51385771D01*
X79485714Y-51385771D02*
X79438095Y-51290533D01*
X79438095Y-51290533D02*
X79438095Y-51195295D01*
X79438095Y-51195295D02*
X79485714Y-51100057D01*
X79485714Y-51100057D02*
X79533333Y-51052438D01*
X79533333Y-51052438D02*
X79628571Y-51004819D01*
X79628571Y-51004819D02*
X79866666Y-51004819D01*
X79866666Y-51004819D02*
X80009523Y-51052438D01*
X80914285Y-51004819D02*
X80438095Y-51004819D01*
X80438095Y-51004819D02*
X80390476Y-51481009D01*
X80390476Y-51481009D02*
X80438095Y-51433390D01*
X80438095Y-51433390D02*
X80533333Y-51385771D01*
X80533333Y-51385771D02*
X80771428Y-51385771D01*
X80771428Y-51385771D02*
X80866666Y-51433390D01*
X80866666Y-51433390D02*
X80914285Y-51481009D01*
X80914285Y-51481009D02*
X80961904Y-51576247D01*
X80961904Y-51576247D02*
X80961904Y-51814342D01*
X80961904Y-51814342D02*
X80914285Y-51909580D01*
X80914285Y-51909580D02*
X80866666Y-51957200D01*
X80866666Y-51957200D02*
X80771428Y-52004819D01*
X80771428Y-52004819D02*
X80533333Y-52004819D01*
X80533333Y-52004819D02*
X80438095Y-51957200D01*
X80438095Y-51957200D02*
X80390476Y-51909580D01*
D12*
%TO.C,REF\u002A\u002A*%
X347191690Y-134644018D02*
X347226585Y-134659269D01*
X347309877Y-134725235D01*
X347381103Y-134820618D01*
X347425153Y-134922406D01*
X347432322Y-134972587D01*
X347408285Y-135042647D01*
X347355561Y-135079717D01*
X347299031Y-135102164D01*
X347273146Y-135106300D01*
X347260542Y-135076283D01*
X347235654Y-135010961D01*
X347224735Y-134981445D01*
X347163508Y-134879348D01*
X347074861Y-134828423D01*
X346961193Y-134829989D01*
X346952774Y-134831994D01*
X346892088Y-134860767D01*
X346847474Y-134916859D01*
X346817002Y-135007163D01*
X346798744Y-135138571D01*
X346790771Y-135317974D01*
X346790023Y-135413433D01*
X346789652Y-135563913D01*
X346787223Y-135666495D01*
X346780760Y-135731672D01*
X346768288Y-135769938D01*
X346747833Y-135791785D01*
X346717419Y-135807707D01*
X346715661Y-135808509D01*
X346657091Y-135833272D01*
X346628075Y-135842391D01*
X346623616Y-135814822D01*
X346619799Y-135738620D01*
X346616899Y-135623541D01*
X346615191Y-135479341D01*
X346614851Y-135373814D01*
X346616588Y-135169613D01*
X346623382Y-135014697D01*
X346637607Y-134900024D01*
X346661638Y-134816551D01*
X346697848Y-134755236D01*
X346748612Y-134707034D01*
X346798739Y-134673393D01*
X346919275Y-134628619D01*
X347059557Y-134618521D01*
X347191690Y-134644018D01*
G36*
X347191690Y-134644018D02*
G01*
X347226585Y-134659269D01*
X347309877Y-134725235D01*
X347381103Y-134820618D01*
X347425153Y-134922406D01*
X347432322Y-134972587D01*
X347408285Y-135042647D01*
X347355561Y-135079717D01*
X347299031Y-135102164D01*
X347273146Y-135106300D01*
X347260542Y-135076283D01*
X347235654Y-135010961D01*
X347224735Y-134981445D01*
X347163508Y-134879348D01*
X347074861Y-134828423D01*
X346961193Y-134829989D01*
X346952774Y-134831994D01*
X346892088Y-134860767D01*
X346847474Y-134916859D01*
X346817002Y-135007163D01*
X346798744Y-135138571D01*
X346790771Y-135317974D01*
X346790023Y-135413433D01*
X346789652Y-135563913D01*
X346787223Y-135666495D01*
X346780760Y-135731672D01*
X346768288Y-135769938D01*
X346747833Y-135791785D01*
X346717419Y-135807707D01*
X346715661Y-135808509D01*
X346657091Y-135833272D01*
X346628075Y-135842391D01*
X346623616Y-135814822D01*
X346619799Y-135738620D01*
X346616899Y-135623541D01*
X346615191Y-135479341D01*
X346614851Y-135373814D01*
X346616588Y-135169613D01*
X346623382Y-135014697D01*
X346637607Y-134900024D01*
X346661638Y-134816551D01*
X346697848Y-134755236D01*
X346748612Y-134707034D01*
X346798739Y-134673393D01*
X346919275Y-134628619D01*
X347059557Y-134618521D01*
X347191690Y-134644018D01*
G37*
X339273429Y-134581719D02*
X339367123Y-134635914D01*
X339432264Y-134689707D01*
X339479907Y-134746066D01*
X339512728Y-134814987D01*
X339533406Y-134906468D01*
X339544620Y-135030506D01*
X339549049Y-135197098D01*
X339549563Y-135316851D01*
X339549563Y-135757659D01*
X339425483Y-135813283D01*
X339301402Y-135868907D01*
X339286805Y-135386095D01*
X339280773Y-135205779D01*
X339274445Y-135074901D01*
X339266606Y-134984511D01*
X339256037Y-134925664D01*
X339241523Y-134889413D01*
X339221848Y-134866810D01*
X339215535Y-134861917D01*
X339119888Y-134823706D01*
X339023207Y-134838827D01*
X338965655Y-134878943D01*
X338942245Y-134907370D01*
X338926039Y-134944672D01*
X338915741Y-135001223D01*
X338910049Y-135087394D01*
X338907664Y-135213558D01*
X338907264Y-135345042D01*
X338907186Y-135509999D01*
X338904361Y-135626761D01*
X338894907Y-135705510D01*
X338874940Y-135756431D01*
X338840576Y-135789706D01*
X338787932Y-135815520D01*
X338717617Y-135842344D01*
X338640820Y-135871542D01*
X338649962Y-135353346D01*
X338653643Y-135166539D01*
X338657950Y-135028490D01*
X338664123Y-134929568D01*
X338673402Y-134860145D01*
X338687027Y-134810590D01*
X338706239Y-134771273D01*
X338729402Y-134736584D01*
X338841152Y-134625770D01*
X338977513Y-134561689D01*
X339125825Y-134546339D01*
X339273429Y-134581719D01*
G36*
X339273429Y-134581719D02*
G01*
X339367123Y-134635914D01*
X339432264Y-134689707D01*
X339479907Y-134746066D01*
X339512728Y-134814987D01*
X339533406Y-134906468D01*
X339544620Y-135030506D01*
X339549049Y-135197098D01*
X339549563Y-135316851D01*
X339549563Y-135757659D01*
X339425483Y-135813283D01*
X339301402Y-135868907D01*
X339286805Y-135386095D01*
X339280773Y-135205779D01*
X339274445Y-135074901D01*
X339266606Y-134984511D01*
X339256037Y-134925664D01*
X339241523Y-134889413D01*
X339221848Y-134866810D01*
X339215535Y-134861917D01*
X339119888Y-134823706D01*
X339023207Y-134838827D01*
X338965655Y-134878943D01*
X338942245Y-134907370D01*
X338926039Y-134944672D01*
X338915741Y-135001223D01*
X338910049Y-135087394D01*
X338907664Y-135213558D01*
X338907264Y-135345042D01*
X338907186Y-135509999D01*
X338904361Y-135626761D01*
X338894907Y-135705510D01*
X338874940Y-135756431D01*
X338840576Y-135789706D01*
X338787932Y-135815520D01*
X338717617Y-135842344D01*
X338640820Y-135871542D01*
X338649962Y-135353346D01*
X338653643Y-135166539D01*
X338657950Y-135028490D01*
X338664123Y-134929568D01*
X338673402Y-134860145D01*
X338687027Y-134810590D01*
X338706239Y-134771273D01*
X338729402Y-134736584D01*
X338841152Y-134625770D01*
X338977513Y-134561689D01*
X339125825Y-134546339D01*
X339273429Y-134581719D01*
G37*
X342921943Y-134625920D02*
X343054565Y-134674859D01*
X343162010Y-134761419D01*
X343204032Y-134822352D01*
X343249843Y-134934161D01*
X343248891Y-135015006D01*
X343200808Y-135069378D01*
X343183017Y-135078624D01*
X343106204Y-135107450D01*
X343066976Y-135100065D01*
X343053689Y-135051658D01*
X343053012Y-135024920D01*
X343028686Y-134926548D01*
X342965281Y-134857734D01*
X342877154Y-134824498D01*
X342778663Y-134832861D01*
X342698602Y-134876296D01*
X342671561Y-134901072D01*
X342652394Y-134931129D01*
X342639446Y-134976565D01*
X342631064Y-135047476D01*
X342625593Y-135153960D01*
X342621378Y-135306112D01*
X342620287Y-135354287D01*
X342616307Y-135519095D01*
X342611781Y-135635088D01*
X342604995Y-135711833D01*
X342594231Y-135758893D01*
X342577773Y-135785835D01*
X342553906Y-135802223D01*
X342538626Y-135809463D01*
X342473733Y-135834220D01*
X342435534Y-135842391D01*
X342422912Y-135815103D01*
X342415208Y-135732603D01*
X342412380Y-135593941D01*
X342414386Y-135398162D01*
X342415011Y-135367965D01*
X342419421Y-135189349D01*
X342424635Y-135058923D01*
X342432055Y-134966492D01*
X342443082Y-134901858D01*
X342459117Y-134854825D01*
X342481561Y-134815196D01*
X342493302Y-134798215D01*
X342560619Y-134723080D01*
X342635910Y-134664638D01*
X342645128Y-134659536D01*
X342780133Y-134619260D01*
X342921943Y-134625920D01*
G36*
X342921943Y-134625920D02*
G01*
X343054565Y-134674859D01*
X343162010Y-134761419D01*
X343204032Y-134822352D01*
X343249843Y-134934161D01*
X343248891Y-135015006D01*
X343200808Y-135069378D01*
X343183017Y-135078624D01*
X343106204Y-135107450D01*
X343066976Y-135100065D01*
X343053689Y-135051658D01*
X343053012Y-135024920D01*
X343028686Y-134926548D01*
X342965281Y-134857734D01*
X342877154Y-134824498D01*
X342778663Y-134832861D01*
X342698602Y-134876296D01*
X342671561Y-134901072D01*
X342652394Y-134931129D01*
X342639446Y-134976565D01*
X342631064Y-135047476D01*
X342625593Y-135153960D01*
X342621378Y-135306112D01*
X342620287Y-135354287D01*
X342616307Y-135519095D01*
X342611781Y-135635088D01*
X342604995Y-135711833D01*
X342594231Y-135758893D01*
X342577773Y-135785835D01*
X342553906Y-135802223D01*
X342538626Y-135809463D01*
X342473733Y-135834220D01*
X342435534Y-135842391D01*
X342422912Y-135815103D01*
X342415208Y-135732603D01*
X342412380Y-135593941D01*
X342414386Y-135398162D01*
X342415011Y-135367965D01*
X342419421Y-135189349D01*
X342424635Y-135058923D01*
X342432055Y-134966492D01*
X342443082Y-134901858D01*
X342459117Y-134854825D01*
X342481561Y-134815196D01*
X342493302Y-134798215D01*
X342560619Y-134723080D01*
X342635910Y-134664638D01*
X342645128Y-134659536D01*
X342780133Y-134619260D01*
X342921943Y-134625920D01*
G37*
X345436124Y-134643840D02*
X345440579Y-134720653D01*
X345444071Y-134837391D01*
X345446315Y-134984821D01*
X345447035Y-135139455D01*
X345447035Y-135662727D01*
X345354645Y-135755117D01*
X345290978Y-135812047D01*
X345235089Y-135835107D01*
X345158702Y-135833647D01*
X345128380Y-135829934D01*
X345033610Y-135819126D01*
X344955222Y-135812933D01*
X344936115Y-135812361D01*
X344871699Y-135816102D01*
X344779571Y-135825494D01*
X344743850Y-135829934D01*
X344656114Y-135836801D01*
X344597153Y-135821885D01*
X344538690Y-135775835D01*
X344517585Y-135755117D01*
X344425195Y-135662727D01*
X344425195Y-134683947D01*
X344499558Y-134650066D01*
X344563590Y-134624970D01*
X344601052Y-134616184D01*
X344610657Y-134643950D01*
X344619635Y-134721530D01*
X344627386Y-134840348D01*
X344633314Y-134991828D01*
X344636173Y-135119805D01*
X344644161Y-135623425D01*
X344713848Y-135633278D01*
X344777229Y-135626389D01*
X344808286Y-135604083D01*
X344816967Y-135562379D01*
X344824378Y-135473544D01*
X344829931Y-135348834D01*
X344833036Y-135199507D01*
X344833484Y-135122661D01*
X344833931Y-134680287D01*
X344925874Y-134648235D01*
X344990949Y-134626443D01*
X345026347Y-134616281D01*
X345027368Y-134616184D01*
X345030920Y-134643809D01*
X345034823Y-134720411D01*
X345038751Y-134836579D01*
X345042376Y-134982904D01*
X345044908Y-135119805D01*
X345052897Y-135623425D01*
X345228069Y-135623425D01*
X345236107Y-135163965D01*
X345244146Y-134704505D01*
X345329543Y-134660344D01*
X345392593Y-134630019D01*
X345429910Y-134616258D01*
X345430987Y-134616184D01*
X345436124Y-134643840D01*
G36*
X345436124Y-134643840D02*
G01*
X345440579Y-134720653D01*
X345444071Y-134837391D01*
X345446315Y-134984821D01*
X345447035Y-135139455D01*
X345447035Y-135662727D01*
X345354645Y-135755117D01*
X345290978Y-135812047D01*
X345235089Y-135835107D01*
X345158702Y-135833647D01*
X345128380Y-135829934D01*
X345033610Y-135819126D01*
X344955222Y-135812933D01*
X344936115Y-135812361D01*
X344871699Y-135816102D01*
X344779571Y-135825494D01*
X344743850Y-135829934D01*
X344656114Y-135836801D01*
X344597153Y-135821885D01*
X344538690Y-135775835D01*
X344517585Y-135755117D01*
X344425195Y-135662727D01*
X344425195Y-134683947D01*
X344499558Y-134650066D01*
X344563590Y-134624970D01*
X344601052Y-134616184D01*
X344610657Y-134643950D01*
X344619635Y-134721530D01*
X344627386Y-134840348D01*
X344633314Y-134991828D01*
X344636173Y-135119805D01*
X344644161Y-135623425D01*
X344713848Y-135633278D01*
X344777229Y-135626389D01*
X344808286Y-135604083D01*
X344816967Y-135562379D01*
X344824378Y-135473544D01*
X344829931Y-135348834D01*
X344833036Y-135199507D01*
X344833484Y-135122661D01*
X344833931Y-134680287D01*
X344925874Y-134648235D01*
X344990949Y-134626443D01*
X345026347Y-134616281D01*
X345027368Y-134616184D01*
X345030920Y-134643809D01*
X345034823Y-134720411D01*
X345038751Y-134836579D01*
X345042376Y-134982904D01*
X345044908Y-135119805D01*
X345052897Y-135623425D01*
X345228069Y-135623425D01*
X345236107Y-135163965D01*
X345244146Y-134704505D01*
X345329543Y-134660344D01*
X345392593Y-134630019D01*
X345429910Y-134616258D01*
X345430987Y-134616184D01*
X345436124Y-134643840D01*
G37*
X340600598Y-134427857D02*
X340609154Y-134547188D01*
X340618981Y-134617506D01*
X340632599Y-134648179D01*
X340652527Y-134648571D01*
X340658989Y-134644910D01*
X340744940Y-134618398D01*
X340856745Y-134619946D01*
X340970414Y-134647199D01*
X341041510Y-134682455D01*
X341114405Y-134738778D01*
X341167693Y-134802519D01*
X341204275Y-134883510D01*
X341227050Y-134991586D01*
X341238919Y-135136580D01*
X341242782Y-135328326D01*
X341242851Y-135365109D01*
X341242897Y-135778288D01*
X341150954Y-135810339D01*
X341085652Y-135832144D01*
X341049824Y-135842297D01*
X341048770Y-135842391D01*
X341045242Y-135814860D01*
X341042239Y-135738923D01*
X341039990Y-135624565D01*
X341038724Y-135481769D01*
X341038529Y-135394951D01*
X341038123Y-135223773D01*
X341036032Y-135101088D01*
X341030947Y-135017000D01*
X341021560Y-134961614D01*
X341006561Y-134925032D01*
X340984642Y-134897359D01*
X340970957Y-134884032D01*
X340876949Y-134830328D01*
X340774364Y-134826307D01*
X340681290Y-134871725D01*
X340664078Y-134888123D01*
X340638832Y-134918957D01*
X340621320Y-134955531D01*
X340610142Y-135008415D01*
X340603896Y-135088177D01*
X340601182Y-135205385D01*
X340600598Y-135366991D01*
X340600598Y-135778288D01*
X340508655Y-135810339D01*
X340443353Y-135832144D01*
X340407525Y-135842297D01*
X340406471Y-135842391D01*
X340403775Y-135814448D01*
X340401345Y-135735630D01*
X340399278Y-135613453D01*
X340397671Y-135455432D01*
X340396623Y-135269083D01*
X340396231Y-135061920D01*
X340396230Y-135052706D01*
X340396230Y-134263020D01*
X340491115Y-134222997D01*
X340586000Y-134182973D01*
X340600598Y-134427857D01*
G36*
X340600598Y-134427857D02*
G01*
X340609154Y-134547188D01*
X340618981Y-134617506D01*
X340632599Y-134648179D01*
X340652527Y-134648571D01*
X340658989Y-134644910D01*
X340744940Y-134618398D01*
X340856745Y-134619946D01*
X340970414Y-134647199D01*
X341041510Y-134682455D01*
X341114405Y-134738778D01*
X341167693Y-134802519D01*
X341204275Y-134883510D01*
X341227050Y-134991586D01*
X341238919Y-135136580D01*
X341242782Y-135328326D01*
X341242851Y-135365109D01*
X341242897Y-135778288D01*
X341150954Y-135810339D01*
X341085652Y-135832144D01*
X341049824Y-135842297D01*
X341048770Y-135842391D01*
X341045242Y-135814860D01*
X341042239Y-135738923D01*
X341039990Y-135624565D01*
X341038724Y-135481769D01*
X341038529Y-135394951D01*
X341038123Y-135223773D01*
X341036032Y-135101088D01*
X341030947Y-135017000D01*
X341021560Y-134961614D01*
X341006561Y-134925032D01*
X340984642Y-134897359D01*
X340970957Y-134884032D01*
X340876949Y-134830328D01*
X340774364Y-134826307D01*
X340681290Y-134871725D01*
X340664078Y-134888123D01*
X340638832Y-134918957D01*
X340621320Y-134955531D01*
X340610142Y-135008415D01*
X340603896Y-135088177D01*
X340601182Y-135205385D01*
X340600598Y-135366991D01*
X340600598Y-135778288D01*
X340508655Y-135810339D01*
X340443353Y-135832144D01*
X340407525Y-135842297D01*
X340406471Y-135842391D01*
X340403775Y-135814448D01*
X340401345Y-135735630D01*
X340399278Y-135613453D01*
X340397671Y-135455432D01*
X340396623Y-135269083D01*
X340396231Y-135061920D01*
X340396230Y-135052706D01*
X340396230Y-134263020D01*
X340491115Y-134222997D01*
X340586000Y-134182973D01*
X340600598Y-134427857D01*
G37*
X335904221Y-134570015D02*
X336041061Y-134641968D01*
X336142051Y-134757766D01*
X336177925Y-134832213D01*
X336205839Y-134943992D01*
X336220129Y-135085227D01*
X336221484Y-135239371D01*
X336210595Y-135389879D01*
X336188153Y-135520205D01*
X336154850Y-135613803D01*
X336144615Y-135629922D01*
X336023382Y-135750249D01*
X335879387Y-135822317D01*
X335723139Y-135843408D01*
X335565148Y-135810802D01*
X335521180Y-135791253D01*
X335435556Y-135731012D01*
X335360408Y-135651135D01*
X335353306Y-135641004D01*
X335324439Y-135592181D01*
X335305357Y-135539990D01*
X335294084Y-135471285D01*
X335288645Y-135372918D01*
X335287062Y-135231744D01*
X335287035Y-135200092D01*
X335287107Y-135190019D01*
X335578989Y-135190019D01*
X335580687Y-135323256D01*
X335587372Y-135411674D01*
X335601425Y-135468785D01*
X335625229Y-135508102D01*
X335637379Y-135521241D01*
X335707236Y-135571172D01*
X335775059Y-135568895D01*
X335843635Y-135525584D01*
X335884535Y-135479346D01*
X335908758Y-135411857D01*
X335922361Y-135305433D01*
X335923294Y-135293020D01*
X335925616Y-135100147D01*
X335901350Y-134956900D01*
X335850824Y-134864160D01*
X335774368Y-134822807D01*
X335747076Y-134820552D01*
X335675411Y-134831893D01*
X335626390Y-134871184D01*
X335596418Y-134946326D01*
X335581899Y-135065222D01*
X335578989Y-135190019D01*
X335287107Y-135190019D01*
X335288122Y-135049659D01*
X335292688Y-134944549D01*
X335302688Y-134871714D01*
X335320079Y-134818108D01*
X335346816Y-134770681D01*
X335352724Y-134761864D01*
X335452032Y-134643007D01*
X335560242Y-134574008D01*
X335691981Y-134546619D01*
X335736717Y-134545281D01*
X335904221Y-134570015D01*
G36*
X335904221Y-134570015D02*
G01*
X336041061Y-134641968D01*
X336142051Y-134757766D01*
X336177925Y-134832213D01*
X336205839Y-134943992D01*
X336220129Y-135085227D01*
X336221484Y-135239371D01*
X336210595Y-135389879D01*
X336188153Y-135520205D01*
X336154850Y-135613803D01*
X336144615Y-135629922D01*
X336023382Y-135750249D01*
X335879387Y-135822317D01*
X335723139Y-135843408D01*
X335565148Y-135810802D01*
X335521180Y-135791253D01*
X335435556Y-135731012D01*
X335360408Y-135651135D01*
X335353306Y-135641004D01*
X335324439Y-135592181D01*
X335305357Y-135539990D01*
X335294084Y-135471285D01*
X335288645Y-135372918D01*
X335287062Y-135231744D01*
X335287035Y-135200092D01*
X335287107Y-135190019D01*
X335578989Y-135190019D01*
X335580687Y-135323256D01*
X335587372Y-135411674D01*
X335601425Y-135468785D01*
X335625229Y-135508102D01*
X335637379Y-135521241D01*
X335707236Y-135571172D01*
X335775059Y-135568895D01*
X335843635Y-135525584D01*
X335884535Y-135479346D01*
X335908758Y-135411857D01*
X335922361Y-135305433D01*
X335923294Y-135293020D01*
X335925616Y-135100147D01*
X335901350Y-134956900D01*
X335850824Y-134864160D01*
X335774368Y-134822807D01*
X335747076Y-134820552D01*
X335675411Y-134831893D01*
X335626390Y-134871184D01*
X335596418Y-134946326D01*
X335581899Y-135065222D01*
X335578989Y-135190019D01*
X335287107Y-135190019D01*
X335288122Y-135049659D01*
X335292688Y-134944549D01*
X335302688Y-134871714D01*
X335320079Y-134818108D01*
X335346816Y-134770681D01*
X335352724Y-134761864D01*
X335452032Y-134643007D01*
X335560242Y-134574008D01*
X335691981Y-134546619D01*
X335736717Y-134545281D01*
X335904221Y-134570015D01*
G37*
X348199439Y-134660540D02*
X348314950Y-134736034D01*
X348370664Y-134803617D01*
X348414804Y-134926255D01*
X348418309Y-135023298D01*
X348410368Y-135153056D01*
X348111115Y-135284039D01*
X347965611Y-135350958D01*
X347870537Y-135404790D01*
X347821101Y-135451416D01*
X347812511Y-135496720D01*
X347839972Y-135546582D01*
X347870253Y-135579632D01*
X347958363Y-135632633D01*
X348054196Y-135636347D01*
X348142212Y-135595041D01*
X348206869Y-135512983D01*
X348218433Y-135484008D01*
X348273825Y-135393509D01*
X348337553Y-135354940D01*
X348424966Y-135321946D01*
X348424966Y-135447034D01*
X348417238Y-135532156D01*
X348386966Y-135603938D01*
X348323518Y-135686356D01*
X348314088Y-135697066D01*
X348243513Y-135770391D01*
X348182847Y-135809742D01*
X348106950Y-135827845D01*
X348044030Y-135833774D01*
X347931487Y-135835251D01*
X347851370Y-135816535D01*
X347801390Y-135788747D01*
X347722838Y-135727641D01*
X347668463Y-135661554D01*
X347634052Y-135578441D01*
X347615388Y-135466254D01*
X347608256Y-135312946D01*
X347607687Y-135235136D01*
X347609622Y-135141853D01*
X347785899Y-135141853D01*
X347787944Y-135191896D01*
X347793039Y-135200092D01*
X347826666Y-135188958D01*
X347899030Y-135159493D01*
X347995747Y-135117601D01*
X348015973Y-135108597D01*
X348138203Y-135046442D01*
X348205547Y-134991815D01*
X348220348Y-134940649D01*
X348184947Y-134888876D01*
X348155711Y-134866000D01*
X348050216Y-134820250D01*
X347951476Y-134827808D01*
X347868812Y-134883651D01*
X347811548Y-134982753D01*
X347793188Y-135061414D01*
X347785899Y-135141853D01*
X347609622Y-135141853D01*
X347611459Y-135053351D01*
X347625359Y-134918853D01*
X347652894Y-134820916D01*
X347697572Y-134748811D01*
X347762901Y-134691813D01*
X347791383Y-134673393D01*
X347920763Y-134625422D01*
X348062412Y-134622403D01*
X348199439Y-134660540D01*
G36*
X348199439Y-134660540D02*
G01*
X348314950Y-134736034D01*
X348370664Y-134803617D01*
X348414804Y-134926255D01*
X348418309Y-135023298D01*
X348410368Y-135153056D01*
X348111115Y-135284039D01*
X347965611Y-135350958D01*
X347870537Y-135404790D01*
X347821101Y-135451416D01*
X347812511Y-135496720D01*
X347839972Y-135546582D01*
X347870253Y-135579632D01*
X347958363Y-135632633D01*
X348054196Y-135636347D01*
X348142212Y-135595041D01*
X348206869Y-135512983D01*
X348218433Y-135484008D01*
X348273825Y-135393509D01*
X348337553Y-135354940D01*
X348424966Y-135321946D01*
X348424966Y-135447034D01*
X348417238Y-135532156D01*
X348386966Y-135603938D01*
X348323518Y-135686356D01*
X348314088Y-135697066D01*
X348243513Y-135770391D01*
X348182847Y-135809742D01*
X348106950Y-135827845D01*
X348044030Y-135833774D01*
X347931487Y-135835251D01*
X347851370Y-135816535D01*
X347801390Y-135788747D01*
X347722838Y-135727641D01*
X347668463Y-135661554D01*
X347634052Y-135578441D01*
X347615388Y-135466254D01*
X347608256Y-135312946D01*
X347607687Y-135235136D01*
X347609622Y-135141853D01*
X347785899Y-135141853D01*
X347787944Y-135191896D01*
X347793039Y-135200092D01*
X347826666Y-135188958D01*
X347899030Y-135159493D01*
X347995747Y-135117601D01*
X348015973Y-135108597D01*
X348138203Y-135046442D01*
X348205547Y-134991815D01*
X348220348Y-134940649D01*
X348184947Y-134888876D01*
X348155711Y-134866000D01*
X348050216Y-134820250D01*
X347951476Y-134827808D01*
X347868812Y-134883651D01*
X347811548Y-134982753D01*
X347793188Y-135061414D01*
X347785899Y-135141853D01*
X347609622Y-135141853D01*
X347611459Y-135053351D01*
X347625359Y-134918853D01*
X347652894Y-134820916D01*
X347697572Y-134748811D01*
X347762901Y-134691813D01*
X347791383Y-134673393D01*
X347920763Y-134625422D01*
X348062412Y-134622403D01*
X348199439Y-134660540D01*
G37*
X344249914Y-134858455D02*
X344249543Y-135076661D01*
X344248108Y-135244519D01*
X344245002Y-135370070D01*
X344239622Y-135461355D01*
X344231362Y-135526415D01*
X344219616Y-135573291D01*
X344203781Y-135610024D01*
X344191790Y-135630991D01*
X344092490Y-135744694D01*
X343966588Y-135815965D01*
X343827291Y-135841538D01*
X343687805Y-135818150D01*
X343604743Y-135776119D01*
X343517545Y-135703411D01*
X343458117Y-135614612D01*
X343422261Y-135498320D01*
X343405781Y-135343135D01*
X343403447Y-135229287D01*
X343403761Y-135221106D01*
X343607724Y-135221106D01*
X343608970Y-135351657D01*
X343614678Y-135438080D01*
X343627804Y-135494618D01*
X343651306Y-135535514D01*
X343679386Y-135566362D01*
X343773688Y-135625905D01*
X343874940Y-135630992D01*
X343970636Y-135581279D01*
X343978084Y-135574543D01*
X344009874Y-135539502D01*
X344029808Y-135497811D01*
X344040600Y-135435762D01*
X344044965Y-135339644D01*
X344045655Y-135233379D01*
X344044159Y-135099880D01*
X344037964Y-135010822D01*
X344024514Y-134952293D01*
X344001251Y-134910382D01*
X343982175Y-134888123D01*
X343893563Y-134831985D01*
X343791508Y-134825235D01*
X343694095Y-134868114D01*
X343675296Y-134884032D01*
X343643293Y-134919382D01*
X343623318Y-134961502D01*
X343612593Y-135024251D01*
X343608339Y-135121487D01*
X343607724Y-135221106D01*
X343403761Y-135221106D01*
X343410504Y-135045947D01*
X343434472Y-134908195D01*
X343479548Y-134804632D01*
X343549928Y-134723856D01*
X343604743Y-134682455D01*
X343704376Y-134637728D01*
X343819855Y-134616967D01*
X343927199Y-134622525D01*
X343987264Y-134644943D01*
X344010835Y-134651323D01*
X344026477Y-134627535D01*
X344037395Y-134563788D01*
X344045655Y-134466687D01*
X344054699Y-134358541D01*
X344067261Y-134293475D01*
X344090119Y-134256268D01*
X344130051Y-134231699D01*
X344155138Y-134220819D01*
X344250023Y-134181072D01*
X344249914Y-134858455D01*
G36*
X344249914Y-134858455D02*
G01*
X344249543Y-135076661D01*
X344248108Y-135244519D01*
X344245002Y-135370070D01*
X344239622Y-135461355D01*
X344231362Y-135526415D01*
X344219616Y-135573291D01*
X344203781Y-135610024D01*
X344191790Y-135630991D01*
X344092490Y-135744694D01*
X343966588Y-135815965D01*
X343827291Y-135841538D01*
X343687805Y-135818150D01*
X343604743Y-135776119D01*
X343517545Y-135703411D01*
X343458117Y-135614612D01*
X343422261Y-135498320D01*
X343405781Y-135343135D01*
X343403447Y-135229287D01*
X343403761Y-135221106D01*
X343607724Y-135221106D01*
X343608970Y-135351657D01*
X343614678Y-135438080D01*
X343627804Y-135494618D01*
X343651306Y-135535514D01*
X343679386Y-135566362D01*
X343773688Y-135625905D01*
X343874940Y-135630992D01*
X343970636Y-135581279D01*
X343978084Y-135574543D01*
X344009874Y-135539502D01*
X344029808Y-135497811D01*
X344040600Y-135435762D01*
X344044965Y-135339644D01*
X344045655Y-135233379D01*
X344044159Y-135099880D01*
X344037964Y-135010822D01*
X344024514Y-134952293D01*
X344001251Y-134910382D01*
X343982175Y-134888123D01*
X343893563Y-134831985D01*
X343791508Y-134825235D01*
X343694095Y-134868114D01*
X343675296Y-134884032D01*
X343643293Y-134919382D01*
X343623318Y-134961502D01*
X343612593Y-135024251D01*
X343608339Y-135121487D01*
X343607724Y-135221106D01*
X343403761Y-135221106D01*
X343410504Y-135045947D01*
X343434472Y-134908195D01*
X343479548Y-134804632D01*
X343549928Y-134723856D01*
X343604743Y-134682455D01*
X343704376Y-134637728D01*
X343819855Y-134616967D01*
X343927199Y-134622525D01*
X343987264Y-134644943D01*
X344010835Y-134651323D01*
X344026477Y-134627535D01*
X344037395Y-134563788D01*
X344045655Y-134466687D01*
X344054699Y-134358541D01*
X344067261Y-134293475D01*
X344090119Y-134256268D01*
X344130051Y-134231699D01*
X344155138Y-134220819D01*
X344250023Y-134181072D01*
X344249914Y-134858455D01*
G37*
X338171552Y-134588676D02*
X338286658Y-134666111D01*
X338375611Y-134777949D01*
X338428749Y-134920265D01*
X338439497Y-135025015D01*
X338438276Y-135068726D01*
X338428056Y-135102194D01*
X338399961Y-135132179D01*
X338345116Y-135165440D01*
X338254645Y-135208738D01*
X338119672Y-135268833D01*
X338118989Y-135269134D01*
X337994751Y-135326037D01*
X337892873Y-135376565D01*
X337823767Y-135415280D01*
X337797846Y-135436740D01*
X337797839Y-135436913D01*
X337820685Y-135483644D01*
X337874109Y-135535154D01*
X337935442Y-135572261D01*
X337966515Y-135579632D01*
X338051289Y-135554138D01*
X338124293Y-135490291D01*
X338159913Y-135420094D01*
X338194180Y-135368343D01*
X338261303Y-135309409D01*
X338340208Y-135258496D01*
X338409821Y-135230809D01*
X338424377Y-135229287D01*
X338440763Y-135254321D01*
X338441750Y-135318311D01*
X338429708Y-135404593D01*
X338407007Y-135496501D01*
X338376014Y-135577369D01*
X338374448Y-135580509D01*
X338281181Y-135710734D01*
X338160304Y-135799311D01*
X338023027Y-135842786D01*
X337880560Y-135837706D01*
X337744112Y-135780616D01*
X337738045Y-135776602D01*
X337630710Y-135679326D01*
X337560132Y-135552409D01*
X337521074Y-135385526D01*
X337515832Y-135338639D01*
X337506548Y-135117329D01*
X337517678Y-135014124D01*
X337797839Y-135014124D01*
X337801479Y-135078503D01*
X337821389Y-135097291D01*
X337871026Y-135083235D01*
X337949267Y-135050009D01*
X338036726Y-135008359D01*
X338038899Y-135007256D01*
X338113030Y-134968265D01*
X338142781Y-134942244D01*
X338135445Y-134914965D01*
X338104553Y-134879121D01*
X338025960Y-134827251D01*
X337941323Y-134823439D01*
X337865403Y-134861189D01*
X337812965Y-134934001D01*
X337797839Y-135014124D01*
X337517678Y-135014124D01*
X337525644Y-134940261D01*
X337574634Y-134799829D01*
X337642836Y-134701447D01*
X337765935Y-134602030D01*
X337901528Y-134552711D01*
X338039955Y-134549568D01*
X338171552Y-134588676D01*
G36*
X338171552Y-134588676D02*
G01*
X338286658Y-134666111D01*
X338375611Y-134777949D01*
X338428749Y-134920265D01*
X338439497Y-135025015D01*
X338438276Y-135068726D01*
X338428056Y-135102194D01*
X338399961Y-135132179D01*
X338345116Y-135165440D01*
X338254645Y-135208738D01*
X338119672Y-135268833D01*
X338118989Y-135269134D01*
X337994751Y-135326037D01*
X337892873Y-135376565D01*
X337823767Y-135415280D01*
X337797846Y-135436740D01*
X337797839Y-135436913D01*
X337820685Y-135483644D01*
X337874109Y-135535154D01*
X337935442Y-135572261D01*
X337966515Y-135579632D01*
X338051289Y-135554138D01*
X338124293Y-135490291D01*
X338159913Y-135420094D01*
X338194180Y-135368343D01*
X338261303Y-135309409D01*
X338340208Y-135258496D01*
X338409821Y-135230809D01*
X338424377Y-135229287D01*
X338440763Y-135254321D01*
X338441750Y-135318311D01*
X338429708Y-135404593D01*
X338407007Y-135496501D01*
X338376014Y-135577369D01*
X338374448Y-135580509D01*
X338281181Y-135710734D01*
X338160304Y-135799311D01*
X338023027Y-135842786D01*
X337880560Y-135837706D01*
X337744112Y-135780616D01*
X337738045Y-135776602D01*
X337630710Y-135679326D01*
X337560132Y-135552409D01*
X337521074Y-135385526D01*
X337515832Y-135338639D01*
X337506548Y-135117329D01*
X337517678Y-135014124D01*
X337797839Y-135014124D01*
X337801479Y-135078503D01*
X337821389Y-135097291D01*
X337871026Y-135083235D01*
X337949267Y-135050009D01*
X338036726Y-135008359D01*
X338038899Y-135007256D01*
X338113030Y-134968265D01*
X338142781Y-134942244D01*
X338135445Y-134914965D01*
X338104553Y-134879121D01*
X338025960Y-134827251D01*
X337941323Y-134823439D01*
X337865403Y-134861189D01*
X337812965Y-134934001D01*
X337797839Y-135014124D01*
X337517678Y-135014124D01*
X337525644Y-134940261D01*
X337574634Y-134799829D01*
X337642836Y-134701447D01*
X337765935Y-134602030D01*
X337901528Y-134552711D01*
X338039955Y-134549568D01*
X338171552Y-134588676D01*
G37*
X341935944Y-134628360D02*
X342050343Y-134670842D01*
X342051652Y-134671658D01*
X342122403Y-134723730D01*
X342174636Y-134784584D01*
X342211371Y-134863887D01*
X342235634Y-134971309D01*
X342250445Y-135116517D01*
X342258829Y-135309179D01*
X342259564Y-135336628D01*
X342270120Y-135750521D01*
X342181291Y-135796456D01*
X342117018Y-135827498D01*
X342078210Y-135842206D01*
X342076415Y-135842391D01*
X342069700Y-135815250D01*
X342064365Y-135742041D01*
X342061083Y-135635081D01*
X342060368Y-135548469D01*
X342060351Y-135408162D01*
X342053937Y-135320051D01*
X342031580Y-135278025D01*
X341983732Y-135275975D01*
X341900849Y-135307790D01*
X341775713Y-135366272D01*
X341683697Y-135414845D01*
X341636371Y-135456986D01*
X341622458Y-135502916D01*
X341622437Y-135505189D01*
X341645395Y-135584311D01*
X341713370Y-135627055D01*
X341817398Y-135633246D01*
X341892330Y-135632172D01*
X341931839Y-135653753D01*
X341956478Y-135705591D01*
X341970659Y-135771632D01*
X341950223Y-135809104D01*
X341942528Y-135814467D01*
X341870083Y-135836006D01*
X341768633Y-135839055D01*
X341664157Y-135824778D01*
X341590125Y-135798688D01*
X341487772Y-135711785D01*
X341429591Y-135590816D01*
X341418069Y-135496308D01*
X341426862Y-135411062D01*
X341458680Y-135341476D01*
X341521684Y-135279672D01*
X341624031Y-135217772D01*
X341773882Y-135147897D01*
X341783012Y-135143948D01*
X341917997Y-135081588D01*
X342001294Y-135030446D01*
X342036997Y-134984488D01*
X342029203Y-134937683D01*
X341982007Y-134883998D01*
X341967894Y-134871644D01*
X341873359Y-134823741D01*
X341775406Y-134825758D01*
X341690097Y-134872724D01*
X341633496Y-134959669D01*
X341628237Y-134976734D01*
X341577023Y-135059504D01*
X341512037Y-135099372D01*
X341418069Y-135138882D01*
X341418069Y-135036658D01*
X341446653Y-134888072D01*
X341531495Y-134751784D01*
X341575645Y-134706191D01*
X341676005Y-134647674D01*
X341803635Y-134621184D01*
X341935944Y-134628360D01*
G36*
X341935944Y-134628360D02*
G01*
X342050343Y-134670842D01*
X342051652Y-134671658D01*
X342122403Y-134723730D01*
X342174636Y-134784584D01*
X342211371Y-134863887D01*
X342235634Y-134971309D01*
X342250445Y-135116517D01*
X342258829Y-135309179D01*
X342259564Y-135336628D01*
X342270120Y-135750521D01*
X342181291Y-135796456D01*
X342117018Y-135827498D01*
X342078210Y-135842206D01*
X342076415Y-135842391D01*
X342069700Y-135815250D01*
X342064365Y-135742041D01*
X342061083Y-135635081D01*
X342060368Y-135548469D01*
X342060351Y-135408162D01*
X342053937Y-135320051D01*
X342031580Y-135278025D01*
X341983732Y-135275975D01*
X341900849Y-135307790D01*
X341775713Y-135366272D01*
X341683697Y-135414845D01*
X341636371Y-135456986D01*
X341622458Y-135502916D01*
X341622437Y-135505189D01*
X341645395Y-135584311D01*
X341713370Y-135627055D01*
X341817398Y-135633246D01*
X341892330Y-135632172D01*
X341931839Y-135653753D01*
X341956478Y-135705591D01*
X341970659Y-135771632D01*
X341950223Y-135809104D01*
X341942528Y-135814467D01*
X341870083Y-135836006D01*
X341768633Y-135839055D01*
X341664157Y-135824778D01*
X341590125Y-135798688D01*
X341487772Y-135711785D01*
X341429591Y-135590816D01*
X341418069Y-135496308D01*
X341426862Y-135411062D01*
X341458680Y-135341476D01*
X341521684Y-135279672D01*
X341624031Y-135217772D01*
X341773882Y-135147897D01*
X341783012Y-135143948D01*
X341917997Y-135081588D01*
X342001294Y-135030446D01*
X342036997Y-134984488D01*
X342029203Y-134937683D01*
X341982007Y-134883998D01*
X341967894Y-134871644D01*
X341873359Y-134823741D01*
X341775406Y-134825758D01*
X341690097Y-134872724D01*
X341633496Y-134959669D01*
X341628237Y-134976734D01*
X341577023Y-135059504D01*
X341512037Y-135099372D01*
X341418069Y-135138882D01*
X341418069Y-135036658D01*
X341446653Y-134888072D01*
X341531495Y-134751784D01*
X341575645Y-134706191D01*
X341676005Y-134647674D01*
X341803635Y-134621184D01*
X341935944Y-134628360D01*
G37*
X337027900Y-134565903D02*
X337139450Y-134621522D01*
X337237908Y-134723931D01*
X337265023Y-134761864D01*
X337294562Y-134811500D01*
X337313728Y-134865412D01*
X337324693Y-134937364D01*
X337329629Y-135041122D01*
X337330713Y-135178101D01*
X337325818Y-135365815D01*
X337308804Y-135506758D01*
X337276177Y-135611908D01*
X337224442Y-135692243D01*
X337150104Y-135758741D01*
X337144642Y-135762678D01*
X337071380Y-135802953D01*
X336983160Y-135822880D01*
X336870962Y-135827793D01*
X336688567Y-135827793D01*
X336688491Y-136004857D01*
X336686793Y-136103470D01*
X336676450Y-136161314D01*
X336649422Y-136196006D01*
X336597668Y-136225164D01*
X336585239Y-136231121D01*
X336527077Y-136259039D01*
X336482044Y-136276672D01*
X336448559Y-136278194D01*
X336425038Y-136257781D01*
X336409900Y-136209607D01*
X336401563Y-136127846D01*
X336398444Y-136006672D01*
X336398960Y-135840260D01*
X336401529Y-135622785D01*
X336402332Y-135557736D01*
X336405222Y-135333502D01*
X336407812Y-135186821D01*
X336688414Y-135186821D01*
X336689991Y-135311326D01*
X336697000Y-135392787D01*
X336712858Y-135446515D01*
X336740981Y-135487823D01*
X336760075Y-135507971D01*
X336838135Y-135566921D01*
X336907247Y-135571720D01*
X336978560Y-135523038D01*
X336980368Y-135521241D01*
X337009383Y-135483618D01*
X337027033Y-135432484D01*
X337035936Y-135353738D01*
X337038709Y-135233276D01*
X337038759Y-135206588D01*
X337032058Y-135040583D01*
X337010248Y-134925505D01*
X336970765Y-134855254D01*
X336911044Y-134823729D01*
X336876528Y-134820552D01*
X336794611Y-134835460D01*
X336738421Y-134884548D01*
X336704598Y-134974362D01*
X336689780Y-135111445D01*
X336688414Y-135186821D01*
X336407812Y-135186821D01*
X336408287Y-135159952D01*
X336412247Y-135029382D01*
X336417826Y-134934087D01*
X336425746Y-134866364D01*
X336436731Y-134818507D01*
X336451501Y-134782813D01*
X336470782Y-134751578D01*
X336479049Y-134739824D01*
X336588712Y-134628797D01*
X336727365Y-134565847D01*
X336887754Y-134548297D01*
X337027900Y-134565903D01*
G36*
X337027900Y-134565903D02*
G01*
X337139450Y-134621522D01*
X337237908Y-134723931D01*
X337265023Y-134761864D01*
X337294562Y-134811500D01*
X337313728Y-134865412D01*
X337324693Y-134937364D01*
X337329629Y-135041122D01*
X337330713Y-135178101D01*
X337325818Y-135365815D01*
X337308804Y-135506758D01*
X337276177Y-135611908D01*
X337224442Y-135692243D01*
X337150104Y-135758741D01*
X337144642Y-135762678D01*
X337071380Y-135802953D01*
X336983160Y-135822880D01*
X336870962Y-135827793D01*
X336688567Y-135827793D01*
X336688491Y-136004857D01*
X336686793Y-136103470D01*
X336676450Y-136161314D01*
X336649422Y-136196006D01*
X336597668Y-136225164D01*
X336585239Y-136231121D01*
X336527077Y-136259039D01*
X336482044Y-136276672D01*
X336448559Y-136278194D01*
X336425038Y-136257781D01*
X336409900Y-136209607D01*
X336401563Y-136127846D01*
X336398444Y-136006672D01*
X336398960Y-135840260D01*
X336401529Y-135622785D01*
X336402332Y-135557736D01*
X336405222Y-135333502D01*
X336407812Y-135186821D01*
X336688414Y-135186821D01*
X336689991Y-135311326D01*
X336697000Y-135392787D01*
X336712858Y-135446515D01*
X336740981Y-135487823D01*
X336760075Y-135507971D01*
X336838135Y-135566921D01*
X336907247Y-135571720D01*
X336978560Y-135523038D01*
X336980368Y-135521241D01*
X337009383Y-135483618D01*
X337027033Y-135432484D01*
X337035936Y-135353738D01*
X337038709Y-135233276D01*
X337038759Y-135206588D01*
X337032058Y-135040583D01*
X337010248Y-134925505D01*
X336970765Y-134855254D01*
X336911044Y-134823729D01*
X336876528Y-134820552D01*
X336794611Y-134835460D01*
X336738421Y-134884548D01*
X336704598Y-134974362D01*
X336689780Y-135111445D01*
X336688414Y-135186821D01*
X336407812Y-135186821D01*
X336408287Y-135159952D01*
X336412247Y-135029382D01*
X336417826Y-134934087D01*
X336425746Y-134866364D01*
X336436731Y-134818507D01*
X336451501Y-134782813D01*
X336470782Y-134751578D01*
X336479049Y-134739824D01*
X336588712Y-134628797D01*
X336727365Y-134565847D01*
X336887754Y-134548297D01*
X337027900Y-134565903D01*
G37*
X346170406Y-134639156D02*
X346254469Y-134677393D01*
X346320450Y-134723726D01*
X346368794Y-134775532D01*
X346402172Y-134842363D01*
X346423253Y-134933769D01*
X346434707Y-135059301D01*
X346439203Y-135228508D01*
X346439678Y-135339933D01*
X346439678Y-135774627D01*
X346365316Y-135808509D01*
X346306746Y-135833272D01*
X346277730Y-135842391D01*
X346272179Y-135815257D01*
X346267775Y-135742094D01*
X346265078Y-135635263D01*
X346264506Y-135550437D01*
X346262046Y-135427887D01*
X346255412Y-135330668D01*
X346245726Y-135271134D01*
X346238032Y-135258483D01*
X346186311Y-135271402D01*
X346105117Y-135304539D01*
X346011102Y-135349461D01*
X345920917Y-135397735D01*
X345851215Y-135440928D01*
X345818648Y-135470608D01*
X345818519Y-135470929D01*
X345821320Y-135525857D01*
X345846439Y-135578292D01*
X345890541Y-135620881D01*
X345954909Y-135635126D01*
X346009921Y-135633466D01*
X346087835Y-135632245D01*
X346128732Y-135650498D01*
X346153295Y-135698726D01*
X346156392Y-135707820D01*
X346167040Y-135776598D01*
X346138565Y-135818360D01*
X346064344Y-135838263D01*
X345984168Y-135841944D01*
X345839890Y-135814658D01*
X345765203Y-135775690D01*
X345672963Y-135684148D01*
X345624043Y-135571782D01*
X345619654Y-135453051D01*
X345661001Y-135342411D01*
X345723197Y-135273080D01*
X345785294Y-135234265D01*
X345882895Y-135185125D01*
X345996632Y-135135292D01*
X346015590Y-135127677D01*
X346140521Y-135072545D01*
X346212539Y-135023954D01*
X346235700Y-134975647D01*
X346214064Y-134921370D01*
X346176920Y-134878943D01*
X346089127Y-134826702D01*
X345992530Y-134822784D01*
X345903944Y-134863041D01*
X345840186Y-134943326D01*
X345831817Y-134964040D01*
X345783096Y-135040225D01*
X345711965Y-135096785D01*
X345622207Y-135143201D01*
X345622207Y-135011584D01*
X345627490Y-134931168D01*
X345650142Y-134867786D01*
X345700367Y-134800163D01*
X345748582Y-134748076D01*
X345823554Y-134674322D01*
X345881806Y-134634702D01*
X345944372Y-134618810D01*
X346015193Y-134616184D01*
X346170406Y-134639156D01*
G36*
X346170406Y-134639156D02*
G01*
X346254469Y-134677393D01*
X346320450Y-134723726D01*
X346368794Y-134775532D01*
X346402172Y-134842363D01*
X346423253Y-134933769D01*
X346434707Y-135059301D01*
X346439203Y-135228508D01*
X346439678Y-135339933D01*
X346439678Y-135774627D01*
X346365316Y-135808509D01*
X346306746Y-135833272D01*
X346277730Y-135842391D01*
X346272179Y-135815257D01*
X346267775Y-135742094D01*
X346265078Y-135635263D01*
X346264506Y-135550437D01*
X346262046Y-135427887D01*
X346255412Y-135330668D01*
X346245726Y-135271134D01*
X346238032Y-135258483D01*
X346186311Y-135271402D01*
X346105117Y-135304539D01*
X346011102Y-135349461D01*
X345920917Y-135397735D01*
X345851215Y-135440928D01*
X345818648Y-135470608D01*
X345818519Y-135470929D01*
X345821320Y-135525857D01*
X345846439Y-135578292D01*
X345890541Y-135620881D01*
X345954909Y-135635126D01*
X346009921Y-135633466D01*
X346087835Y-135632245D01*
X346128732Y-135650498D01*
X346153295Y-135698726D01*
X346156392Y-135707820D01*
X346167040Y-135776598D01*
X346138565Y-135818360D01*
X346064344Y-135838263D01*
X345984168Y-135841944D01*
X345839890Y-135814658D01*
X345765203Y-135775690D01*
X345672963Y-135684148D01*
X345624043Y-135571782D01*
X345619654Y-135453051D01*
X345661001Y-135342411D01*
X345723197Y-135273080D01*
X345785294Y-135234265D01*
X345882895Y-135185125D01*
X345996632Y-135135292D01*
X346015590Y-135127677D01*
X346140521Y-135072545D01*
X346212539Y-135023954D01*
X346235700Y-134975647D01*
X346214064Y-134921370D01*
X346176920Y-134878943D01*
X346089127Y-134826702D01*
X345992530Y-134822784D01*
X345903944Y-134863041D01*
X345840186Y-134943326D01*
X345831817Y-134964040D01*
X345783096Y-135040225D01*
X345711965Y-135096785D01*
X345622207Y-135143201D01*
X345622207Y-135011584D01*
X345627490Y-134931168D01*
X345650142Y-134867786D01*
X345700367Y-134800163D01*
X345748582Y-134748076D01*
X345823554Y-134674322D01*
X345881806Y-134634702D01*
X345944372Y-134618810D01*
X346015193Y-134616184D01*
X346170406Y-134639156D01*
G37*
X342065014Y-125156998D02*
X342223006Y-125157863D01*
X342337347Y-125160205D01*
X342415407Y-125164762D01*
X342464554Y-125172270D01*
X342492159Y-125183466D01*
X342505592Y-125199088D01*
X342512221Y-125219873D01*
X342512865Y-125222563D01*
X342522935Y-125271113D01*
X342541575Y-125366905D01*
X342566845Y-125499743D01*
X342596807Y-125659431D01*
X342629522Y-125835774D01*
X342630664Y-125841967D01*
X342663433Y-126014782D01*
X342694093Y-126167469D01*
X342720664Y-126290871D01*
X342741167Y-126375831D01*
X342753626Y-126413190D01*
X342754220Y-126413852D01*
X342790919Y-126432095D01*
X342866586Y-126462497D01*
X342964878Y-126498493D01*
X342965425Y-126498685D01*
X343089233Y-126545222D01*
X343235196Y-126604504D01*
X343372781Y-126664109D01*
X343379293Y-126667056D01*
X343603390Y-126768765D01*
X344099619Y-126429897D01*
X344251846Y-126326592D01*
X344389741Y-126234237D01*
X344505315Y-126158084D01*
X344590579Y-126103385D01*
X344637544Y-126075393D01*
X344642004Y-126073317D01*
X344676134Y-126082560D01*
X344739881Y-126127156D01*
X344835731Y-126209209D01*
X344966169Y-126330821D01*
X345099328Y-126460205D01*
X345227694Y-126587702D01*
X345342581Y-126704046D01*
X345437073Y-126802052D01*
X345504253Y-126874536D01*
X345537206Y-126914313D01*
X345538432Y-126916361D01*
X345542074Y-126943656D01*
X345528350Y-126988234D01*
X345493869Y-127056112D01*
X345435239Y-127153311D01*
X345349070Y-127285851D01*
X345234200Y-127456476D01*
X345132254Y-127606655D01*
X345041123Y-127741350D01*
X344966073Y-127852740D01*
X344912369Y-127933005D01*
X344885280Y-127974325D01*
X344883574Y-127977130D01*
X344886882Y-128016721D01*
X344911953Y-128093669D01*
X344953798Y-128193432D01*
X344968712Y-128225291D01*
X345033786Y-128367226D01*
X345103212Y-128528273D01*
X345159609Y-128667621D01*
X345200247Y-128771044D01*
X345232526Y-128849642D01*
X345251178Y-128890720D01*
X345253497Y-128893885D01*
X345287803Y-128899128D01*
X345368669Y-128913494D01*
X345485343Y-128934937D01*
X345627075Y-128961413D01*
X345783110Y-128990877D01*
X345942698Y-129021283D01*
X346095085Y-129050588D01*
X346229521Y-129076745D01*
X346335252Y-129097710D01*
X346401526Y-129111439D01*
X346417782Y-129115320D01*
X346434573Y-129124900D01*
X346447249Y-129146536D01*
X346456378Y-129187531D01*
X346462531Y-129255189D01*
X346466280Y-129356812D01*
X346468192Y-129499703D01*
X346468840Y-129691165D01*
X346468874Y-129769645D01*
X346468874Y-130407906D01*
X346315598Y-130438160D01*
X346230322Y-130454564D01*
X346103070Y-130478509D01*
X345949315Y-130507107D01*
X345784534Y-130537467D01*
X345738989Y-130545806D01*
X345586932Y-130575370D01*
X345454468Y-130604442D01*
X345352714Y-130630329D01*
X345292788Y-130650337D01*
X345282805Y-130656301D01*
X345258293Y-130698534D01*
X345223148Y-130780370D01*
X345184173Y-130885683D01*
X345176442Y-130908368D01*
X345125360Y-131049018D01*
X345061954Y-131207714D01*
X344999904Y-131350225D01*
X344999598Y-131350886D01*
X344896267Y-131574440D01*
X345575961Y-132574232D01*
X345139621Y-133011300D01*
X345007649Y-133141381D01*
X344887279Y-133256048D01*
X344785273Y-133349181D01*
X344708391Y-133414658D01*
X344663393Y-133446357D01*
X344656938Y-133448368D01*
X344619040Y-133432529D01*
X344541708Y-133388496D01*
X344433389Y-133321490D01*
X344302532Y-133236734D01*
X344161052Y-133141816D01*
X344017461Y-133044998D01*
X343889435Y-132960751D01*
X343785105Y-132894258D01*
X343712600Y-132850702D01*
X343680158Y-132835264D01*
X343640576Y-132848328D01*
X343565519Y-132882750D01*
X343470468Y-132931380D01*
X343460392Y-132936785D01*
X343332391Y-133000980D01*
X343244618Y-133032463D01*
X343190028Y-133032798D01*
X343161575Y-133003548D01*
X343161410Y-133003138D01*
X343147188Y-132968498D01*
X343113269Y-132886269D01*
X343062284Y-132762814D01*
X342996862Y-132604498D01*
X342919634Y-132417686D01*
X342833229Y-132208742D01*
X342749551Y-132006446D01*
X342657588Y-131783200D01*
X342573150Y-131576392D01*
X342498769Y-131392362D01*
X342436974Y-131237451D01*
X342390297Y-131117996D01*
X342361268Y-131040339D01*
X342352322Y-131011356D01*
X342374756Y-130978110D01*
X342433439Y-130925123D01*
X342511689Y-130866704D01*
X342734534Y-130681952D01*
X342908718Y-130470182D01*
X343032154Y-130235856D01*
X343102754Y-129983434D01*
X343118431Y-129717377D01*
X343107036Y-129594575D01*
X343044950Y-129339793D01*
X342938023Y-129114801D01*
X342792889Y-128921817D01*
X342616178Y-128763061D01*
X342414522Y-128640750D01*
X342194554Y-128557105D01*
X341962906Y-128514344D01*
X341726209Y-128514687D01*
X341491095Y-128560352D01*
X341264196Y-128653559D01*
X341052144Y-128796527D01*
X340963636Y-128877383D01*
X340793889Y-129085007D01*
X340675699Y-129311895D01*
X340608278Y-129551433D01*
X340590840Y-129797007D01*
X340622598Y-130042003D01*
X340702765Y-130279808D01*
X340830555Y-130503807D01*
X341005180Y-130707387D01*
X341200312Y-130866704D01*
X341281591Y-130927602D01*
X341339009Y-130980015D01*
X341359678Y-131011406D01*
X341348856Y-131045639D01*
X341318077Y-131127419D01*
X341269874Y-131250407D01*
X341206778Y-131408263D01*
X341131322Y-131594649D01*
X341046038Y-131803226D01*
X340962219Y-132006496D01*
X340869745Y-132229933D01*
X340784089Y-132436984D01*
X340707882Y-132621286D01*
X340643753Y-132776475D01*
X340594332Y-132896188D01*
X340562248Y-132974061D01*
X340550359Y-133003138D01*
X340522274Y-133032677D01*
X340467949Y-133032591D01*
X340380395Y-133001326D01*
X340252619Y-132937329D01*
X340251608Y-132936785D01*
X340155402Y-132887121D01*
X340077631Y-132850945D01*
X340033777Y-132835408D01*
X340031842Y-132835264D01*
X339998829Y-132851024D01*
X339925946Y-132894850D01*
X339821322Y-132961557D01*
X339693090Y-133045964D01*
X339550948Y-133141816D01*
X339406233Y-133238867D01*
X339275804Y-133323270D01*
X339168110Y-133389801D01*
X339091598Y-133433238D01*
X339055062Y-133448368D01*
X339021418Y-133428482D01*
X338953776Y-133372903D01*
X338858893Y-133287754D01*
X338743530Y-133179153D01*
X338614445Y-133053221D01*
X338572229Y-133011149D01*
X338135739Y-132573931D01*
X338467977Y-132086340D01*
X338568946Y-131936605D01*
X338657562Y-131802220D01*
X338728854Y-131690969D01*
X338777850Y-131610639D01*
X338799578Y-131569014D01*
X338800215Y-131566053D01*
X338788760Y-131526818D01*
X338757949Y-131447895D01*
X338713116Y-131342509D01*
X338681647Y-131271954D01*
X338622808Y-131136876D01*
X338567396Y-131000409D01*
X338524436Y-130885103D01*
X338512766Y-130849977D01*
X338479611Y-130756174D01*
X338447201Y-130683694D01*
X338429399Y-130656301D01*
X338390114Y-130639536D01*
X338304374Y-130615770D01*
X338183303Y-130587697D01*
X338038027Y-130558009D01*
X337973012Y-130545806D01*
X337807913Y-130515468D01*
X337649552Y-130486093D01*
X337513404Y-130460569D01*
X337414943Y-130441785D01*
X337396402Y-130438160D01*
X337243127Y-130407906D01*
X337243127Y-129769645D01*
X337243471Y-129559770D01*
X337244884Y-129400980D01*
X337247936Y-129285973D01*
X337253197Y-129207446D01*
X337261237Y-129158096D01*
X337272627Y-129130619D01*
X337287937Y-129117713D01*
X337294218Y-129115320D01*
X337332104Y-129106833D01*
X337415805Y-129089900D01*
X337534567Y-129066566D01*
X337677639Y-129038875D01*
X337834268Y-129008873D01*
X337993703Y-128978604D01*
X338145191Y-128950115D01*
X338277981Y-128925449D01*
X338381319Y-128906651D01*
X338444455Y-128895767D01*
X338458503Y-128893885D01*
X338471230Y-128868704D01*
X338499400Y-128801622D01*
X338537748Y-128705333D01*
X338552391Y-128667621D01*
X338611452Y-128521921D01*
X338681000Y-128360951D01*
X338743288Y-128225291D01*
X338789121Y-128121561D01*
X338819613Y-128036326D01*
X338829792Y-127984126D01*
X338828169Y-127977130D01*
X338806657Y-127944102D01*
X338757535Y-127870643D01*
X338686077Y-127764577D01*
X338597555Y-127633726D01*
X338497241Y-127485912D01*
X338477406Y-127456734D01*
X338361012Y-127283863D01*
X338275452Y-127152226D01*
X338217316Y-127055761D01*
X338183192Y-126988408D01*
X338169669Y-126944106D01*
X338173336Y-126916794D01*
X338173430Y-126916620D01*
X338202293Y-126880746D01*
X338266133Y-126811391D01*
X338358031Y-126715745D01*
X338471067Y-126600999D01*
X338598321Y-126474341D01*
X338612672Y-126460205D01*
X338773043Y-126304903D01*
X338896805Y-126190870D01*
X338986445Y-126116002D01*
X339044448Y-126078196D01*
X339069996Y-126073317D01*
X339107282Y-126094603D01*
X339184657Y-126143773D01*
X339294133Y-126215575D01*
X339427720Y-126304755D01*
X339577430Y-126406063D01*
X339612382Y-126429897D01*
X340108610Y-126768765D01*
X340332707Y-126667056D01*
X340468989Y-126607783D01*
X340615276Y-126548170D01*
X340741035Y-126500640D01*
X340746575Y-126498685D01*
X340844943Y-126462677D01*
X340920771Y-126432229D01*
X340957718Y-126413905D01*
X340957780Y-126413852D01*
X340969504Y-126380729D01*
X340989432Y-126299267D01*
X341015587Y-126178625D01*
X341045990Y-126027959D01*
X341078663Y-125856428D01*
X341081336Y-125841967D01*
X341114110Y-125665235D01*
X341144198Y-125504810D01*
X341169661Y-125370888D01*
X341188559Y-125273663D01*
X341198953Y-125223332D01*
X341199135Y-125222563D01*
X341205461Y-125201153D01*
X341217761Y-125184988D01*
X341243406Y-125173331D01*
X341289765Y-125165445D01*
X341364208Y-125160593D01*
X341474105Y-125158039D01*
X341626825Y-125157045D01*
X341829738Y-125156874D01*
X341856000Y-125156874D01*
X342065014Y-125156998D01*
G36*
X342065014Y-125156998D02*
G01*
X342223006Y-125157863D01*
X342337347Y-125160205D01*
X342415407Y-125164762D01*
X342464554Y-125172270D01*
X342492159Y-125183466D01*
X342505592Y-125199088D01*
X342512221Y-125219873D01*
X342512865Y-125222563D01*
X342522935Y-125271113D01*
X342541575Y-125366905D01*
X342566845Y-125499743D01*
X342596807Y-125659431D01*
X342629522Y-125835774D01*
X342630664Y-125841967D01*
X342663433Y-126014782D01*
X342694093Y-126167469D01*
X342720664Y-126290871D01*
X342741167Y-126375831D01*
X342753626Y-126413190D01*
X342754220Y-126413852D01*
X342790919Y-126432095D01*
X342866586Y-126462497D01*
X342964878Y-126498493D01*
X342965425Y-126498685D01*
X343089233Y-126545222D01*
X343235196Y-126604504D01*
X343372781Y-126664109D01*
X343379293Y-126667056D01*
X343603390Y-126768765D01*
X344099619Y-126429897D01*
X344251846Y-126326592D01*
X344389741Y-126234237D01*
X344505315Y-126158084D01*
X344590579Y-126103385D01*
X344637544Y-126075393D01*
X344642004Y-126073317D01*
X344676134Y-126082560D01*
X344739881Y-126127156D01*
X344835731Y-126209209D01*
X344966169Y-126330821D01*
X345099328Y-126460205D01*
X345227694Y-126587702D01*
X345342581Y-126704046D01*
X345437073Y-126802052D01*
X345504253Y-126874536D01*
X345537206Y-126914313D01*
X345538432Y-126916361D01*
X345542074Y-126943656D01*
X345528350Y-126988234D01*
X345493869Y-127056112D01*
X345435239Y-127153311D01*
X345349070Y-127285851D01*
X345234200Y-127456476D01*
X345132254Y-127606655D01*
X345041123Y-127741350D01*
X344966073Y-127852740D01*
X344912369Y-127933005D01*
X344885280Y-127974325D01*
X344883574Y-127977130D01*
X344886882Y-128016721D01*
X344911953Y-128093669D01*
X344953798Y-128193432D01*
X344968712Y-128225291D01*
X345033786Y-128367226D01*
X345103212Y-128528273D01*
X345159609Y-128667621D01*
X345200247Y-128771044D01*
X345232526Y-128849642D01*
X345251178Y-128890720D01*
X345253497Y-128893885D01*
X345287803Y-128899128D01*
X345368669Y-128913494D01*
X345485343Y-128934937D01*
X345627075Y-128961413D01*
X345783110Y-128990877D01*
X345942698Y-129021283D01*
X346095085Y-129050588D01*
X346229521Y-129076745D01*
X346335252Y-129097710D01*
X346401526Y-129111439D01*
X346417782Y-129115320D01*
X346434573Y-129124900D01*
X346447249Y-129146536D01*
X346456378Y-129187531D01*
X346462531Y-129255189D01*
X346466280Y-129356812D01*
X346468192Y-129499703D01*
X346468840Y-129691165D01*
X346468874Y-129769645D01*
X346468874Y-130407906D01*
X346315598Y-130438160D01*
X346230322Y-130454564D01*
X346103070Y-130478509D01*
X345949315Y-130507107D01*
X345784534Y-130537467D01*
X345738989Y-130545806D01*
X345586932Y-130575370D01*
X345454468Y-130604442D01*
X345352714Y-130630329D01*
X345292788Y-130650337D01*
X345282805Y-130656301D01*
X345258293Y-130698534D01*
X345223148Y-130780370D01*
X345184173Y-130885683D01*
X345176442Y-130908368D01*
X345125360Y-131049018D01*
X345061954Y-131207714D01*
X344999904Y-131350225D01*
X344999598Y-131350886D01*
X344896267Y-131574440D01*
X345575961Y-132574232D01*
X345139621Y-133011300D01*
X345007649Y-133141381D01*
X344887279Y-133256048D01*
X344785273Y-133349181D01*
X344708391Y-133414658D01*
X344663393Y-133446357D01*
X344656938Y-133448368D01*
X344619040Y-133432529D01*
X344541708Y-133388496D01*
X344433389Y-133321490D01*
X344302532Y-133236734D01*
X344161052Y-133141816D01*
X344017461Y-133044998D01*
X343889435Y-132960751D01*
X343785105Y-132894258D01*
X343712600Y-132850702D01*
X343680158Y-132835264D01*
X343640576Y-132848328D01*
X343565519Y-132882750D01*
X343470468Y-132931380D01*
X343460392Y-132936785D01*
X343332391Y-133000980D01*
X343244618Y-133032463D01*
X343190028Y-133032798D01*
X343161575Y-133003548D01*
X343161410Y-133003138D01*
X343147188Y-132968498D01*
X343113269Y-132886269D01*
X343062284Y-132762814D01*
X342996862Y-132604498D01*
X342919634Y-132417686D01*
X342833229Y-132208742D01*
X342749551Y-132006446D01*
X342657588Y-131783200D01*
X342573150Y-131576392D01*
X342498769Y-131392362D01*
X342436974Y-131237451D01*
X342390297Y-131117996D01*
X342361268Y-131040339D01*
X342352322Y-131011356D01*
X342374756Y-130978110D01*
X342433439Y-130925123D01*
X342511689Y-130866704D01*
X342734534Y-130681952D01*
X342908718Y-130470182D01*
X343032154Y-130235856D01*
X343102754Y-129983434D01*
X343118431Y-129717377D01*
X343107036Y-129594575D01*
X343044950Y-129339793D01*
X342938023Y-129114801D01*
X342792889Y-128921817D01*
X342616178Y-128763061D01*
X342414522Y-128640750D01*
X342194554Y-128557105D01*
X341962906Y-128514344D01*
X341726209Y-128514687D01*
X341491095Y-128560352D01*
X341264196Y-128653559D01*
X341052144Y-128796527D01*
X340963636Y-128877383D01*
X340793889Y-129085007D01*
X340675699Y-129311895D01*
X340608278Y-129551433D01*
X340590840Y-129797007D01*
X340622598Y-130042003D01*
X340702765Y-130279808D01*
X340830555Y-130503807D01*
X341005180Y-130707387D01*
X341200312Y-130866704D01*
X341281591Y-130927602D01*
X341339009Y-130980015D01*
X341359678Y-131011406D01*
X341348856Y-131045639D01*
X341318077Y-131127419D01*
X341269874Y-131250407D01*
X341206778Y-131408263D01*
X341131322Y-131594649D01*
X341046038Y-131803226D01*
X340962219Y-132006496D01*
X340869745Y-132229933D01*
X340784089Y-132436984D01*
X340707882Y-132621286D01*
X340643753Y-132776475D01*
X340594332Y-132896188D01*
X340562248Y-132974061D01*
X340550359Y-133003138D01*
X340522274Y-133032677D01*
X340467949Y-133032591D01*
X340380395Y-133001326D01*
X340252619Y-132937329D01*
X340251608Y-132936785D01*
X340155402Y-132887121D01*
X340077631Y-132850945D01*
X340033777Y-132835408D01*
X340031842Y-132835264D01*
X339998829Y-132851024D01*
X339925946Y-132894850D01*
X339821322Y-132961557D01*
X339693090Y-133045964D01*
X339550948Y-133141816D01*
X339406233Y-133238867D01*
X339275804Y-133323270D01*
X339168110Y-133389801D01*
X339091598Y-133433238D01*
X339055062Y-133448368D01*
X339021418Y-133428482D01*
X338953776Y-133372903D01*
X338858893Y-133287754D01*
X338743530Y-133179153D01*
X338614445Y-133053221D01*
X338572229Y-133011149D01*
X338135739Y-132573931D01*
X338467977Y-132086340D01*
X338568946Y-131936605D01*
X338657562Y-131802220D01*
X338728854Y-131690969D01*
X338777850Y-131610639D01*
X338799578Y-131569014D01*
X338800215Y-131566053D01*
X338788760Y-131526818D01*
X338757949Y-131447895D01*
X338713116Y-131342509D01*
X338681647Y-131271954D01*
X338622808Y-131136876D01*
X338567396Y-131000409D01*
X338524436Y-130885103D01*
X338512766Y-130849977D01*
X338479611Y-130756174D01*
X338447201Y-130683694D01*
X338429399Y-130656301D01*
X338390114Y-130639536D01*
X338304374Y-130615770D01*
X338183303Y-130587697D01*
X338038027Y-130558009D01*
X337973012Y-130545806D01*
X337807913Y-130515468D01*
X337649552Y-130486093D01*
X337513404Y-130460569D01*
X337414943Y-130441785D01*
X337396402Y-130438160D01*
X337243127Y-130407906D01*
X337243127Y-129769645D01*
X337243471Y-129559770D01*
X337244884Y-129400980D01*
X337247936Y-129285973D01*
X337253197Y-129207446D01*
X337261237Y-129158096D01*
X337272627Y-129130619D01*
X337287937Y-129117713D01*
X337294218Y-129115320D01*
X337332104Y-129106833D01*
X337415805Y-129089900D01*
X337534567Y-129066566D01*
X337677639Y-129038875D01*
X337834268Y-129008873D01*
X337993703Y-128978604D01*
X338145191Y-128950115D01*
X338277981Y-128925449D01*
X338381319Y-128906651D01*
X338444455Y-128895767D01*
X338458503Y-128893885D01*
X338471230Y-128868704D01*
X338499400Y-128801622D01*
X338537748Y-128705333D01*
X338552391Y-128667621D01*
X338611452Y-128521921D01*
X338681000Y-128360951D01*
X338743288Y-128225291D01*
X338789121Y-128121561D01*
X338819613Y-128036326D01*
X338829792Y-127984126D01*
X338828169Y-127977130D01*
X338806657Y-127944102D01*
X338757535Y-127870643D01*
X338686077Y-127764577D01*
X338597555Y-127633726D01*
X338497241Y-127485912D01*
X338477406Y-127456734D01*
X338361012Y-127283863D01*
X338275452Y-127152226D01*
X338217316Y-127055761D01*
X338183192Y-126988408D01*
X338169669Y-126944106D01*
X338173336Y-126916794D01*
X338173430Y-126916620D01*
X338202293Y-126880746D01*
X338266133Y-126811391D01*
X338358031Y-126715745D01*
X338471067Y-126600999D01*
X338598321Y-126474341D01*
X338612672Y-126460205D01*
X338773043Y-126304903D01*
X338896805Y-126190870D01*
X338986445Y-126116002D01*
X339044448Y-126078196D01*
X339069996Y-126073317D01*
X339107282Y-126094603D01*
X339184657Y-126143773D01*
X339294133Y-126215575D01*
X339427720Y-126304755D01*
X339577430Y-126406063D01*
X339612382Y-126429897D01*
X340108610Y-126768765D01*
X340332707Y-126667056D01*
X340468989Y-126607783D01*
X340615276Y-126548170D01*
X340741035Y-126500640D01*
X340746575Y-126498685D01*
X340844943Y-126462677D01*
X340920771Y-126432229D01*
X340957718Y-126413905D01*
X340957780Y-126413852D01*
X340969504Y-126380729D01*
X340989432Y-126299267D01*
X341015587Y-126178625D01*
X341045990Y-126027959D01*
X341078663Y-125856428D01*
X341081336Y-125841967D01*
X341114110Y-125665235D01*
X341144198Y-125504810D01*
X341169661Y-125370888D01*
X341188559Y-125273663D01*
X341198953Y-125223332D01*
X341199135Y-125222563D01*
X341205461Y-125201153D01*
X341217761Y-125184988D01*
X341243406Y-125173331D01*
X341289765Y-125165445D01*
X341364208Y-125160593D01*
X341474105Y-125158039D01*
X341626825Y-125157045D01*
X341829738Y-125156874D01*
X341856000Y-125156874D01*
X342065014Y-125156998D01*
G37*
X330935604Y-134775477D02*
X330967174Y-134795142D01*
X331002656Y-134823873D01*
X331002656Y-135251966D01*
X331002543Y-135377190D01*
X331002059Y-135475847D01*
X331000986Y-135551430D01*
X330999108Y-135607433D01*
X330996206Y-135647347D01*
X330992063Y-135674666D01*
X330986462Y-135692881D01*
X330979185Y-135705486D01*
X330974024Y-135711696D01*
X330932168Y-135738980D01*
X330884505Y-135737867D01*
X330842753Y-135714602D01*
X330807271Y-135685871D01*
X330807271Y-134823873D01*
X330842753Y-134795142D01*
X330876998Y-134774242D01*
X330904963Y-134766410D01*
X330935604Y-134775477D01*
G36*
X330935604Y-134775477D02*
G01*
X330967174Y-134795142D01*
X331002656Y-134823873D01*
X331002656Y-135251966D01*
X331002543Y-135377190D01*
X331002059Y-135475847D01*
X331000986Y-135551430D01*
X330999108Y-135607433D01*
X330996206Y-135647347D01*
X330992063Y-135674666D01*
X330986462Y-135692881D01*
X330979185Y-135705486D01*
X330974024Y-135711696D01*
X330932168Y-135738980D01*
X330884505Y-135737867D01*
X330842753Y-135714602D01*
X330807271Y-135685871D01*
X330807271Y-134823873D01*
X330842753Y-134795142D01*
X330876998Y-134774242D01*
X330904963Y-134766410D01*
X330935604Y-134775477D01*
G37*
X321466383Y-134796470D02*
X321475145Y-134806552D01*
X321482018Y-134819559D01*
X321487231Y-134838975D01*
X321491012Y-134868284D01*
X321493590Y-134910971D01*
X321495193Y-134970519D01*
X321496051Y-135050414D01*
X321496390Y-135154140D01*
X321496443Y-135254872D01*
X321496350Y-135379816D01*
X321495919Y-135478185D01*
X321494923Y-135553465D01*
X321493131Y-135609138D01*
X321490317Y-135648690D01*
X321486250Y-135675605D01*
X321480704Y-135693367D01*
X321473449Y-135705461D01*
X321466383Y-135713274D01*
X321422444Y-135739476D01*
X321375626Y-135737125D01*
X321333737Y-135708548D01*
X321324112Y-135697391D01*
X321316591Y-135684447D01*
X321310912Y-135666136D01*
X321306819Y-135638882D01*
X321304051Y-135599104D01*
X321302350Y-135543226D01*
X321301457Y-135467668D01*
X321301113Y-135368852D01*
X321301058Y-135256978D01*
X321301058Y-134840192D01*
X321337949Y-134803301D01*
X321383421Y-134772264D01*
X321427530Y-134771145D01*
X321466383Y-134796470D01*
G36*
X321466383Y-134796470D02*
G01*
X321475145Y-134806552D01*
X321482018Y-134819559D01*
X321487231Y-134838975D01*
X321491012Y-134868284D01*
X321493590Y-134910971D01*
X321495193Y-134970519D01*
X321496051Y-135050414D01*
X321496390Y-135154140D01*
X321496443Y-135254872D01*
X321496350Y-135379816D01*
X321495919Y-135478185D01*
X321494923Y-135553465D01*
X321493131Y-135609138D01*
X321490317Y-135648690D01*
X321486250Y-135675605D01*
X321480704Y-135693367D01*
X321473449Y-135705461D01*
X321466383Y-135713274D01*
X321422444Y-135739476D01*
X321375626Y-135737125D01*
X321333737Y-135708548D01*
X321324112Y-135697391D01*
X321316591Y-135684447D01*
X321310912Y-135666136D01*
X321306819Y-135638882D01*
X321304051Y-135599104D01*
X321302350Y-135543226D01*
X321301457Y-135467668D01*
X321301113Y-135368852D01*
X321301058Y-135256978D01*
X321301058Y-134840192D01*
X321337949Y-134803301D01*
X321383421Y-134772264D01*
X321427530Y-134771145D01*
X321466383Y-134796470D01*
G37*
X321581682Y-126243933D02*
X321717929Y-126291172D01*
X321844779Y-126365527D01*
X321958067Y-126466987D01*
X322053628Y-126595543D01*
X322096554Y-126676572D01*
X322133705Y-126789908D01*
X322151712Y-126920751D01*
X322149717Y-127055265D01*
X322127577Y-127177158D01*
X322067064Y-127326107D01*
X321979314Y-127455309D01*
X321868788Y-127562223D01*
X321739946Y-127644306D01*
X321597247Y-127699016D01*
X321445151Y-127723810D01*
X321288119Y-127716147D01*
X321210714Y-127699772D01*
X321059859Y-127641089D01*
X320925875Y-127551543D01*
X320811994Y-127433893D01*
X320721448Y-127290902D01*
X320713788Y-127275286D01*
X320687306Y-127216686D01*
X320670678Y-127167334D01*
X320661650Y-127115270D01*
X320657968Y-127048539D01*
X320657357Y-126975929D01*
X320658367Y-126888691D01*
X320662928Y-126825624D01*
X320673334Y-126774636D01*
X320691879Y-126723633D01*
X320714770Y-126673313D01*
X320800154Y-126530470D01*
X320905301Y-126414810D01*
X321026045Y-126326325D01*
X321158221Y-126265005D01*
X321297663Y-126230839D01*
X321440205Y-126223818D01*
X321581682Y-126243933D01*
G36*
X321581682Y-126243933D02*
G01*
X321717929Y-126291172D01*
X321844779Y-126365527D01*
X321958067Y-126466987D01*
X322053628Y-126595543D01*
X322096554Y-126676572D01*
X322133705Y-126789908D01*
X322151712Y-126920751D01*
X322149717Y-127055265D01*
X322127577Y-127177158D01*
X322067064Y-127326107D01*
X321979314Y-127455309D01*
X321868788Y-127562223D01*
X321739946Y-127644306D01*
X321597247Y-127699016D01*
X321445151Y-127723810D01*
X321288119Y-127716147D01*
X321210714Y-127699772D01*
X321059859Y-127641089D01*
X320925875Y-127551543D01*
X320811994Y-127433893D01*
X320721448Y-127290902D01*
X320713788Y-127275286D01*
X320687306Y-127216686D01*
X320670678Y-127167334D01*
X320661650Y-127115270D01*
X320657968Y-127048539D01*
X320657357Y-126975929D01*
X320658367Y-126888691D01*
X320662928Y-126825624D01*
X320673334Y-126774636D01*
X320691879Y-126723633D01*
X320714770Y-126673313D01*
X320800154Y-126530470D01*
X320905301Y-126414810D01*
X321026045Y-126326325D01*
X321158221Y-126265005D01*
X321297663Y-126230839D01*
X321440205Y-126223818D01*
X321581682Y-126243933D01*
G37*
X331966677Y-134766539D02*
X332071465Y-134767043D01*
X332152799Y-134768096D01*
X332213980Y-134769876D01*
X332258311Y-134772557D01*
X332289094Y-134776314D01*
X332309631Y-134781325D01*
X332323225Y-134787763D01*
X332329803Y-134792712D01*
X332363944Y-134836029D01*
X332368074Y-134881003D01*
X332346976Y-134921860D01*
X332333179Y-134938186D01*
X332318332Y-134949318D01*
X332296815Y-134956250D01*
X332263008Y-134959977D01*
X332211292Y-134961494D01*
X332136047Y-134961794D01*
X332121269Y-134961795D01*
X331926975Y-134961795D01*
X331926975Y-135322505D01*
X331926847Y-135436201D01*
X331926266Y-135523685D01*
X331924936Y-135588802D01*
X331922560Y-135635398D01*
X331918844Y-135667319D01*
X331913492Y-135688412D01*
X331906207Y-135702523D01*
X331896916Y-135713274D01*
X331853071Y-135739696D01*
X331807300Y-135737614D01*
X331765790Y-135707469D01*
X331762741Y-135703733D01*
X331752812Y-135689610D01*
X331745248Y-135673086D01*
X331739729Y-135650146D01*
X331735933Y-135616773D01*
X331733542Y-135568955D01*
X331732234Y-135502674D01*
X331731691Y-135413918D01*
X331731591Y-135312963D01*
X331731591Y-134961795D01*
X331546050Y-134961795D01*
X331466427Y-134961256D01*
X331411304Y-134959157D01*
X331375132Y-134954771D01*
X331352362Y-134947376D01*
X331337447Y-134936245D01*
X331335636Y-134934310D01*
X331313858Y-134890057D01*
X331315784Y-134840029D01*
X331340821Y-134796470D01*
X331350504Y-134788020D01*
X331362988Y-134781321D01*
X331381603Y-134776169D01*
X331409677Y-134772361D01*
X331450541Y-134769697D01*
X331507522Y-134767972D01*
X331583952Y-134766984D01*
X331683157Y-134766532D01*
X331808469Y-134766412D01*
X331835133Y-134766410D01*
X331966677Y-134766539D01*
G36*
X331966677Y-134766539D02*
G01*
X332071465Y-134767043D01*
X332152799Y-134768096D01*
X332213980Y-134769876D01*
X332258311Y-134772557D01*
X332289094Y-134776314D01*
X332309631Y-134781325D01*
X332323225Y-134787763D01*
X332329803Y-134792712D01*
X332363944Y-134836029D01*
X332368074Y-134881003D01*
X332346976Y-134921860D01*
X332333179Y-134938186D01*
X332318332Y-134949318D01*
X332296815Y-134956250D01*
X332263008Y-134959977D01*
X332211292Y-134961494D01*
X332136047Y-134961794D01*
X332121269Y-134961795D01*
X331926975Y-134961795D01*
X331926975Y-135322505D01*
X331926847Y-135436201D01*
X331926266Y-135523685D01*
X331924936Y-135588802D01*
X331922560Y-135635398D01*
X331918844Y-135667319D01*
X331913492Y-135688412D01*
X331906207Y-135702523D01*
X331896916Y-135713274D01*
X331853071Y-135739696D01*
X331807300Y-135737614D01*
X331765790Y-135707469D01*
X331762741Y-135703733D01*
X331752812Y-135689610D01*
X331745248Y-135673086D01*
X331739729Y-135650146D01*
X331735933Y-135616773D01*
X331733542Y-135568955D01*
X331732234Y-135502674D01*
X331731691Y-135413918D01*
X331731591Y-135312963D01*
X331731591Y-134961795D01*
X331546050Y-134961795D01*
X331466427Y-134961256D01*
X331411304Y-134959157D01*
X331375132Y-134954771D01*
X331352362Y-134947376D01*
X331337447Y-134936245D01*
X331335636Y-134934310D01*
X331313858Y-134890057D01*
X331315784Y-134840029D01*
X331340821Y-134796470D01*
X331350504Y-134788020D01*
X331362988Y-134781321D01*
X331381603Y-134776169D01*
X331409677Y-134772361D01*
X331450541Y-134769697D01*
X331507522Y-134767972D01*
X331583952Y-134766984D01*
X331683157Y-134766532D01*
X331808469Y-134766412D01*
X331835133Y-134766410D01*
X331966677Y-134766539D01*
G37*
X333651859Y-134773688D02*
X333693635Y-134803301D01*
X333730525Y-134840192D01*
X333730525Y-135252162D01*
X333730429Y-135374486D01*
X333729972Y-135470398D01*
X333728903Y-135543544D01*
X333726971Y-135597570D01*
X333723923Y-135636123D01*
X333719509Y-135662848D01*
X333713476Y-135681394D01*
X333705574Y-135695405D01*
X333699375Y-135703733D01*
X333658461Y-135736449D01*
X333611482Y-135740000D01*
X333568544Y-135719937D01*
X333554356Y-135708092D01*
X333544872Y-135692358D01*
X333539151Y-135667022D01*
X333536253Y-135626370D01*
X333535238Y-135564688D01*
X333535141Y-135517038D01*
X333535141Y-135337535D01*
X332873839Y-135337535D01*
X332873839Y-135500833D01*
X332873155Y-135575505D01*
X332870419Y-135626824D01*
X332864604Y-135661477D01*
X332854684Y-135686155D01*
X332842689Y-135703733D01*
X332801546Y-135736357D01*
X332755017Y-135740220D01*
X332710473Y-135717032D01*
X332698312Y-135704876D01*
X332689723Y-135688761D01*
X332684058Y-135663660D01*
X332680669Y-135624544D01*
X332678908Y-135566386D01*
X332678128Y-135484158D01*
X332678036Y-135465286D01*
X332677392Y-135310357D01*
X332677060Y-135182674D01*
X332677168Y-135079427D01*
X332677845Y-134997803D01*
X332679218Y-134934992D01*
X332681416Y-134888181D01*
X332684566Y-134854559D01*
X332688798Y-134831315D01*
X332694238Y-134815636D01*
X332701015Y-134804711D01*
X332708514Y-134796470D01*
X332750933Y-134770107D01*
X332795172Y-134773688D01*
X332836948Y-134803301D01*
X332853853Y-134822407D01*
X332864629Y-134843511D01*
X332870641Y-134873568D01*
X332873256Y-134919533D01*
X332873839Y-134988360D01*
X332873839Y-135142150D01*
X333535141Y-135142150D01*
X333535141Y-134984339D01*
X333535816Y-134911636D01*
X333538526Y-134862545D01*
X333544301Y-134830636D01*
X333554169Y-134809478D01*
X333565200Y-134796470D01*
X333607619Y-134770107D01*
X333651859Y-134773688D01*
G36*
X333651859Y-134773688D02*
G01*
X333693635Y-134803301D01*
X333730525Y-134840192D01*
X333730525Y-135252162D01*
X333730429Y-135374486D01*
X333729972Y-135470398D01*
X333728903Y-135543544D01*
X333726971Y-135597570D01*
X333723923Y-135636123D01*
X333719509Y-135662848D01*
X333713476Y-135681394D01*
X333705574Y-135695405D01*
X333699375Y-135703733D01*
X333658461Y-135736449D01*
X333611482Y-135740000D01*
X333568544Y-135719937D01*
X333554356Y-135708092D01*
X333544872Y-135692358D01*
X333539151Y-135667022D01*
X333536253Y-135626370D01*
X333535238Y-135564688D01*
X333535141Y-135517038D01*
X333535141Y-135337535D01*
X332873839Y-135337535D01*
X332873839Y-135500833D01*
X332873155Y-135575505D01*
X332870419Y-135626824D01*
X332864604Y-135661477D01*
X332854684Y-135686155D01*
X332842689Y-135703733D01*
X332801546Y-135736357D01*
X332755017Y-135740220D01*
X332710473Y-135717032D01*
X332698312Y-135704876D01*
X332689723Y-135688761D01*
X332684058Y-135663660D01*
X332680669Y-135624544D01*
X332678908Y-135566386D01*
X332678128Y-135484158D01*
X332678036Y-135465286D01*
X332677392Y-135310357D01*
X332677060Y-135182674D01*
X332677168Y-135079427D01*
X332677845Y-134997803D01*
X332679218Y-134934992D01*
X332681416Y-134888181D01*
X332684566Y-134854559D01*
X332688798Y-134831315D01*
X332694238Y-134815636D01*
X332701015Y-134804711D01*
X332708514Y-134796470D01*
X332750933Y-134770107D01*
X332795172Y-134773688D01*
X332836948Y-134803301D01*
X332853853Y-134822407D01*
X332864629Y-134843511D01*
X332870641Y-134873568D01*
X332873256Y-134919533D01*
X332873839Y-134988360D01*
X332873839Y-135142150D01*
X333535141Y-135142150D01*
X333535141Y-134984339D01*
X333535816Y-134911636D01*
X333538526Y-134862545D01*
X333544301Y-134830636D01*
X333554169Y-134809478D01*
X333565200Y-134796470D01*
X333607619Y-134770107D01*
X333651859Y-134773688D01*
G37*
X326714783Y-134766687D02*
X326886501Y-134772493D01*
X327032555Y-134790101D01*
X327155353Y-134820563D01*
X327257303Y-134864935D01*
X327340814Y-134924271D01*
X327408293Y-134999624D01*
X327462149Y-135092050D01*
X327463208Y-135094304D01*
X327495349Y-135177024D01*
X327506801Y-135250284D01*
X327497520Y-135324012D01*
X327467461Y-135408135D01*
X327461761Y-135420937D01*
X327422885Y-135495862D01*
X327379195Y-135553757D01*
X327322806Y-135602972D01*
X327245838Y-135651857D01*
X327241366Y-135654409D01*
X327174363Y-135686595D01*
X327098631Y-135710632D01*
X327009304Y-135727351D01*
X326901515Y-135737579D01*
X326770398Y-135742146D01*
X326724072Y-135742543D01*
X326503476Y-135743334D01*
X326472326Y-135703733D01*
X326463086Y-135690711D01*
X326455878Y-135675504D01*
X326450450Y-135654466D01*
X326446551Y-135623950D01*
X326443929Y-135580311D01*
X326443074Y-135547949D01*
X326442332Y-135519900D01*
X326441510Y-135439072D01*
X326441210Y-135334181D01*
X326441176Y-135252162D01*
X326441176Y-134961795D01*
X326651591Y-134961795D01*
X326651591Y-135547949D01*
X326776582Y-135547949D01*
X326849723Y-135545810D01*
X326924807Y-135540181D01*
X326986430Y-135532243D01*
X326990149Y-135531575D01*
X327099599Y-135502212D01*
X327184494Y-135458097D01*
X327247518Y-135397183D01*
X327291360Y-135317424D01*
X327298983Y-135296284D01*
X327306456Y-135263362D01*
X327303221Y-135230836D01*
X327287479Y-135187564D01*
X327277990Y-135166307D01*
X327246917Y-135109820D01*
X327209479Y-135070191D01*
X327168287Y-135042594D01*
X327085776Y-135006682D01*
X326980179Y-134980668D01*
X326857164Y-134965688D01*
X326768070Y-134962392D01*
X326651591Y-134961795D01*
X326441176Y-134961795D01*
X326441176Y-134840192D01*
X326478067Y-134803301D01*
X326494440Y-134788348D01*
X326512143Y-134778108D01*
X326536865Y-134771701D01*
X326574294Y-134768247D01*
X326630119Y-134766867D01*
X326710028Y-134766681D01*
X326714783Y-134766687D01*
G36*
X326714783Y-134766687D02*
G01*
X326886501Y-134772493D01*
X327032555Y-134790101D01*
X327155353Y-134820563D01*
X327257303Y-134864935D01*
X327340814Y-134924271D01*
X327408293Y-134999624D01*
X327462149Y-135092050D01*
X327463208Y-135094304D01*
X327495349Y-135177024D01*
X327506801Y-135250284D01*
X327497520Y-135324012D01*
X327467461Y-135408135D01*
X327461761Y-135420937D01*
X327422885Y-135495862D01*
X327379195Y-135553757D01*
X327322806Y-135602972D01*
X327245838Y-135651857D01*
X327241366Y-135654409D01*
X327174363Y-135686595D01*
X327098631Y-135710632D01*
X327009304Y-135727351D01*
X326901515Y-135737579D01*
X326770398Y-135742146D01*
X326724072Y-135742543D01*
X326503476Y-135743334D01*
X326472326Y-135703733D01*
X326463086Y-135690711D01*
X326455878Y-135675504D01*
X326450450Y-135654466D01*
X326446551Y-135623950D01*
X326443929Y-135580311D01*
X326443074Y-135547949D01*
X326442332Y-135519900D01*
X326441510Y-135439072D01*
X326441210Y-135334181D01*
X326441176Y-135252162D01*
X326441176Y-134961795D01*
X326651591Y-134961795D01*
X326651591Y-135547949D01*
X326776582Y-135547949D01*
X326849723Y-135545810D01*
X326924807Y-135540181D01*
X326986430Y-135532243D01*
X326990149Y-135531575D01*
X327099599Y-135502212D01*
X327184494Y-135458097D01*
X327247518Y-135397183D01*
X327291360Y-135317424D01*
X327298983Y-135296284D01*
X327306456Y-135263362D01*
X327303221Y-135230836D01*
X327287479Y-135187564D01*
X327277990Y-135166307D01*
X327246917Y-135109820D01*
X327209479Y-135070191D01*
X327168287Y-135042594D01*
X327085776Y-135006682D01*
X326980179Y-134980668D01*
X326857164Y-134965688D01*
X326768070Y-134962392D01*
X326651591Y-134961795D01*
X326441176Y-134961795D01*
X326441176Y-134840192D01*
X326478067Y-134803301D01*
X326494440Y-134788348D01*
X326512143Y-134778108D01*
X326536865Y-134771701D01*
X326574294Y-134768247D01*
X326630119Y-134766867D01*
X326710028Y-134766681D01*
X326714783Y-134766687D01*
G37*
X317209292Y-134766409D02*
X317261857Y-134766944D01*
X317415881Y-134770660D01*
X317544875Y-134781699D01*
X317653237Y-134801246D01*
X317745362Y-134830483D01*
X317825647Y-134870597D01*
X317898488Y-134922769D01*
X317924505Y-134945433D01*
X317967663Y-134998462D01*
X318006579Y-135070421D01*
X318036573Y-135150184D01*
X318052965Y-135226625D01*
X318054668Y-135254872D01*
X318043995Y-135333174D01*
X318015393Y-135418705D01*
X317973989Y-135499663D01*
X317924905Y-135564246D01*
X317916933Y-135572038D01*
X317849400Y-135626808D01*
X317775448Y-135669563D01*
X317690812Y-135701423D01*
X317591229Y-135723508D01*
X317472434Y-135736938D01*
X317330166Y-135742834D01*
X317265000Y-135743334D01*
X317182145Y-135742935D01*
X317123877Y-135741266D01*
X317084730Y-135737622D01*
X317059237Y-135731293D01*
X317041932Y-135721574D01*
X317032656Y-135713274D01*
X317023894Y-135703192D01*
X317017021Y-135690185D01*
X317011808Y-135670769D01*
X317008027Y-135641460D01*
X317005449Y-135598773D01*
X317004081Y-135547949D01*
X317197981Y-135547949D01*
X317321975Y-135547835D01*
X317396585Y-135545696D01*
X317474728Y-135540183D01*
X317539926Y-135532472D01*
X317541910Y-135532155D01*
X317647283Y-135506678D01*
X317729014Y-135467000D01*
X317791184Y-135410538D01*
X317830686Y-135349406D01*
X317855026Y-135281593D01*
X317853139Y-135217919D01*
X317824891Y-135149665D01*
X317769638Y-135079056D01*
X317693073Y-135026735D01*
X317593551Y-134991763D01*
X317527039Y-134979386D01*
X317451539Y-134970694D01*
X317371521Y-134964404D01*
X317303462Y-134961788D01*
X317299431Y-134961776D01*
X317197981Y-134961795D01*
X317197981Y-135547949D01*
X317004081Y-135547949D01*
X317003846Y-135539225D01*
X317002989Y-135459330D01*
X317002649Y-135355605D01*
X317002597Y-135254872D01*
X317002266Y-135120519D01*
X317002338Y-135013192D01*
X317003616Y-134961795D01*
X317004410Y-134929881D01*
X317010085Y-134867579D01*
X317020959Y-134823275D01*
X317038632Y-134793960D01*
X317064703Y-134776625D01*
X317100771Y-134768261D01*
X317148434Y-134765859D01*
X317209292Y-134766409D01*
G36*
X317209292Y-134766409D02*
G01*
X317261857Y-134766944D01*
X317415881Y-134770660D01*
X317544875Y-134781699D01*
X317653237Y-134801246D01*
X317745362Y-134830483D01*
X317825647Y-134870597D01*
X317898488Y-134922769D01*
X317924505Y-134945433D01*
X317967663Y-134998462D01*
X318006579Y-135070421D01*
X318036573Y-135150184D01*
X318052965Y-135226625D01*
X318054668Y-135254872D01*
X318043995Y-135333174D01*
X318015393Y-135418705D01*
X317973989Y-135499663D01*
X317924905Y-135564246D01*
X317916933Y-135572038D01*
X317849400Y-135626808D01*
X317775448Y-135669563D01*
X317690812Y-135701423D01*
X317591229Y-135723508D01*
X317472434Y-135736938D01*
X317330166Y-135742834D01*
X317265000Y-135743334D01*
X317182145Y-135742935D01*
X317123877Y-135741266D01*
X317084730Y-135737622D01*
X317059237Y-135731293D01*
X317041932Y-135721574D01*
X317032656Y-135713274D01*
X317023894Y-135703192D01*
X317017021Y-135690185D01*
X317011808Y-135670769D01*
X317008027Y-135641460D01*
X317005449Y-135598773D01*
X317004081Y-135547949D01*
X317197981Y-135547949D01*
X317321975Y-135547835D01*
X317396585Y-135545696D01*
X317474728Y-135540183D01*
X317539926Y-135532472D01*
X317541910Y-135532155D01*
X317647283Y-135506678D01*
X317729014Y-135467000D01*
X317791184Y-135410538D01*
X317830686Y-135349406D01*
X317855026Y-135281593D01*
X317853139Y-135217919D01*
X317824891Y-135149665D01*
X317769638Y-135079056D01*
X317693073Y-135026735D01*
X317593551Y-134991763D01*
X317527039Y-134979386D01*
X317451539Y-134970694D01*
X317371521Y-134964404D01*
X317303462Y-134961788D01*
X317299431Y-134961776D01*
X317197981Y-134961795D01*
X317197981Y-135547949D01*
X317004081Y-135547949D01*
X317003846Y-135539225D01*
X317002989Y-135459330D01*
X317002649Y-135355605D01*
X317002597Y-135254872D01*
X317002266Y-135120519D01*
X317002338Y-135013192D01*
X317003616Y-134961795D01*
X317004410Y-134929881D01*
X317010085Y-134867579D01*
X317020959Y-134823275D01*
X317038632Y-134793960D01*
X317064703Y-134776625D01*
X317100771Y-134768261D01*
X317148434Y-134765859D01*
X317209292Y-134766409D01*
G37*
X323628126Y-134772244D02*
X323659501Y-134790649D01*
X323700524Y-134820749D01*
X323753322Y-134863960D01*
X323820021Y-134921702D01*
X323902747Y-134995392D01*
X324003626Y-135086448D01*
X324119105Y-135191138D01*
X324359579Y-135409207D01*
X324367094Y-135116508D01*
X324369807Y-135015754D01*
X324372424Y-134940722D01*
X324375526Y-134887084D01*
X324379690Y-134850510D01*
X324385495Y-134826671D01*
X324393522Y-134811238D01*
X324404349Y-134799882D01*
X324410090Y-134795110D01*
X324456063Y-134769877D01*
X324499809Y-134773566D01*
X324534511Y-134795123D01*
X324569993Y-134823835D01*
X324574406Y-135243150D01*
X324575627Y-135366471D01*
X324576249Y-135463348D01*
X324576056Y-135537394D01*
X324574832Y-135592221D01*
X324572362Y-135631443D01*
X324568432Y-135658673D01*
X324562826Y-135677523D01*
X324555328Y-135691605D01*
X324547013Y-135702899D01*
X324529024Y-135723846D01*
X324511125Y-135737731D01*
X324490834Y-135743060D01*
X324465668Y-135738340D01*
X324433146Y-135722077D01*
X324390783Y-135692777D01*
X324336098Y-135648946D01*
X324266609Y-135589091D01*
X324179831Y-135511718D01*
X324081531Y-135422814D01*
X323728336Y-135102435D01*
X323720821Y-135394177D01*
X323718103Y-135494747D01*
X323715479Y-135569604D01*
X323712367Y-135623084D01*
X323708184Y-135659526D01*
X323702349Y-135683268D01*
X323694280Y-135698646D01*
X323683395Y-135710000D01*
X323677825Y-135714626D01*
X323628590Y-135740042D01*
X323582069Y-135736209D01*
X323541557Y-135703733D01*
X323532290Y-135690667D01*
X323525067Y-135675409D01*
X323519634Y-135654296D01*
X323515738Y-135623669D01*
X323513125Y-135579866D01*
X323511539Y-135519227D01*
X323510728Y-135438091D01*
X323510438Y-135332797D01*
X323510407Y-135254872D01*
X323510505Y-135132988D01*
X323510967Y-135037503D01*
X323512049Y-134964755D01*
X323514003Y-134911083D01*
X323517084Y-134872827D01*
X323521546Y-134846327D01*
X323527643Y-134827920D01*
X323535629Y-134813948D01*
X323541557Y-134806011D01*
X323556584Y-134787212D01*
X323570628Y-134773017D01*
X323585816Y-134764846D01*
X323604273Y-134764116D01*
X323628126Y-134772244D01*
G36*
X323628126Y-134772244D02*
G01*
X323659501Y-134790649D01*
X323700524Y-134820749D01*
X323753322Y-134863960D01*
X323820021Y-134921702D01*
X323902747Y-134995392D01*
X324003626Y-135086448D01*
X324119105Y-135191138D01*
X324359579Y-135409207D01*
X324367094Y-135116508D01*
X324369807Y-135015754D01*
X324372424Y-134940722D01*
X324375526Y-134887084D01*
X324379690Y-134850510D01*
X324385495Y-134826671D01*
X324393522Y-134811238D01*
X324404349Y-134799882D01*
X324410090Y-134795110D01*
X324456063Y-134769877D01*
X324499809Y-134773566D01*
X324534511Y-134795123D01*
X324569993Y-134823835D01*
X324574406Y-135243150D01*
X324575627Y-135366471D01*
X324576249Y-135463348D01*
X324576056Y-135537394D01*
X324574832Y-135592221D01*
X324572362Y-135631443D01*
X324568432Y-135658673D01*
X324562826Y-135677523D01*
X324555328Y-135691605D01*
X324547013Y-135702899D01*
X324529024Y-135723846D01*
X324511125Y-135737731D01*
X324490834Y-135743060D01*
X324465668Y-135738340D01*
X324433146Y-135722077D01*
X324390783Y-135692777D01*
X324336098Y-135648946D01*
X324266609Y-135589091D01*
X324179831Y-135511718D01*
X324081531Y-135422814D01*
X323728336Y-135102435D01*
X323720821Y-135394177D01*
X323718103Y-135494747D01*
X323715479Y-135569604D01*
X323712367Y-135623084D01*
X323708184Y-135659526D01*
X323702349Y-135683268D01*
X323694280Y-135698646D01*
X323683395Y-135710000D01*
X323677825Y-135714626D01*
X323628590Y-135740042D01*
X323582069Y-135736209D01*
X323541557Y-135703733D01*
X323532290Y-135690667D01*
X323525067Y-135675409D01*
X323519634Y-135654296D01*
X323515738Y-135623669D01*
X323513125Y-135579866D01*
X323511539Y-135519227D01*
X323510728Y-135438091D01*
X323510438Y-135332797D01*
X323510407Y-135254872D01*
X323510505Y-135132988D01*
X323510967Y-135037503D01*
X323512049Y-134964755D01*
X323514003Y-134911083D01*
X323517084Y-134872827D01*
X323521546Y-134846327D01*
X323527643Y-134827920D01*
X323535629Y-134813948D01*
X323541557Y-134806011D01*
X323556584Y-134787212D01*
X323570628Y-134773017D01*
X323585816Y-134764846D01*
X323604273Y-134764116D01*
X323628126Y-134772244D01*
G37*
X322762784Y-134773776D02*
X322854005Y-134789082D01*
X322924064Y-134812875D01*
X322969642Y-134844204D01*
X322982062Y-134862078D01*
X322994692Y-134903649D01*
X322986193Y-134941256D01*
X322959361Y-134976919D01*
X322917670Y-134993603D01*
X322857176Y-134992248D01*
X322810387Y-134983209D01*
X322706418Y-134965987D01*
X322600166Y-134964351D01*
X322481237Y-134978329D01*
X322448386Y-134984252D01*
X322337801Y-135015431D01*
X322251287Y-135061810D01*
X322189793Y-135122599D01*
X322154268Y-135197008D01*
X322146921Y-135235478D01*
X322151730Y-135313527D01*
X322182780Y-135382581D01*
X322237240Y-135441293D01*
X322312282Y-135488317D01*
X322405076Y-135522307D01*
X322512794Y-135541918D01*
X322632605Y-135545805D01*
X322761681Y-135532620D01*
X322768969Y-135531376D01*
X322820308Y-135521814D01*
X322848774Y-135512578D01*
X322861112Y-135498873D01*
X322864068Y-135475906D01*
X322864135Y-135463743D01*
X322864135Y-135412683D01*
X322772969Y-135412683D01*
X322692464Y-135407168D01*
X322637525Y-135389594D01*
X322605560Y-135358417D01*
X322593974Y-135312094D01*
X322593833Y-135306048D01*
X322600611Y-135266453D01*
X322623855Y-135238181D01*
X322667116Y-135219471D01*
X322733945Y-135208564D01*
X322798676Y-135204554D01*
X322892759Y-135202253D01*
X322961002Y-135205764D01*
X323007545Y-135218719D01*
X323036528Y-135244750D01*
X323052091Y-135287491D01*
X323058375Y-135350574D01*
X323059520Y-135433428D01*
X323057644Y-135525910D01*
X323052000Y-135588818D01*
X323042564Y-135622403D01*
X323040733Y-135625033D01*
X322988921Y-135666998D01*
X322912956Y-135700232D01*
X322817654Y-135724023D01*
X322707830Y-135737663D01*
X322588300Y-135740442D01*
X322463880Y-135731649D01*
X322390703Y-135720849D01*
X322275926Y-135688362D01*
X322169250Y-135635250D01*
X322079935Y-135566319D01*
X322066360Y-135552542D01*
X322022254Y-135494622D01*
X321982457Y-135422840D01*
X321951619Y-135347583D01*
X321934389Y-135279241D01*
X321932312Y-135252993D01*
X321941153Y-135198241D01*
X321964651Y-135130119D01*
X321998297Y-135058414D01*
X322037582Y-134992913D01*
X322072291Y-134949162D01*
X322153443Y-134884083D01*
X322258348Y-134832285D01*
X322383246Y-134794938D01*
X322524379Y-134773217D01*
X322653721Y-134767909D01*
X322762784Y-134773776D01*
G36*
X322762784Y-134773776D02*
G01*
X322854005Y-134789082D01*
X322924064Y-134812875D01*
X322969642Y-134844204D01*
X322982062Y-134862078D01*
X322994692Y-134903649D01*
X322986193Y-134941256D01*
X322959361Y-134976919D01*
X322917670Y-134993603D01*
X322857176Y-134992248D01*
X322810387Y-134983209D01*
X322706418Y-134965987D01*
X322600166Y-134964351D01*
X322481237Y-134978329D01*
X322448386Y-134984252D01*
X322337801Y-135015431D01*
X322251287Y-135061810D01*
X322189793Y-135122599D01*
X322154268Y-135197008D01*
X322146921Y-135235478D01*
X322151730Y-135313527D01*
X322182780Y-135382581D01*
X322237240Y-135441293D01*
X322312282Y-135488317D01*
X322405076Y-135522307D01*
X322512794Y-135541918D01*
X322632605Y-135545805D01*
X322761681Y-135532620D01*
X322768969Y-135531376D01*
X322820308Y-135521814D01*
X322848774Y-135512578D01*
X322861112Y-135498873D01*
X322864068Y-135475906D01*
X322864135Y-135463743D01*
X322864135Y-135412683D01*
X322772969Y-135412683D01*
X322692464Y-135407168D01*
X322637525Y-135389594D01*
X322605560Y-135358417D01*
X322593974Y-135312094D01*
X322593833Y-135306048D01*
X322600611Y-135266453D01*
X322623855Y-135238181D01*
X322667116Y-135219471D01*
X322733945Y-135208564D01*
X322798676Y-135204554D01*
X322892759Y-135202253D01*
X322961002Y-135205764D01*
X323007545Y-135218719D01*
X323036528Y-135244750D01*
X323052091Y-135287491D01*
X323058375Y-135350574D01*
X323059520Y-135433428D01*
X323057644Y-135525910D01*
X323052000Y-135588818D01*
X323042564Y-135622403D01*
X323040733Y-135625033D01*
X322988921Y-135666998D01*
X322912956Y-135700232D01*
X322817654Y-135724023D01*
X322707830Y-135737663D01*
X322588300Y-135740442D01*
X322463880Y-135731649D01*
X322390703Y-135720849D01*
X322275926Y-135688362D01*
X322169250Y-135635250D01*
X322079935Y-135566319D01*
X322066360Y-135552542D01*
X322022254Y-135494622D01*
X321982457Y-135422840D01*
X321951619Y-135347583D01*
X321934389Y-135279241D01*
X321932312Y-135252993D01*
X321941153Y-135198241D01*
X321964651Y-135130119D01*
X321998297Y-135058414D01*
X322037582Y-134992913D01*
X322072291Y-134949162D01*
X322153443Y-134884083D01*
X322258348Y-134832285D01*
X322383246Y-134794938D01*
X322524379Y-134773217D01*
X322653721Y-134767909D01*
X322762784Y-134773776D01*
G37*
X325665716Y-134766667D02*
X325767377Y-134767884D01*
X325845282Y-134770730D01*
X325902581Y-134775874D01*
X325942427Y-134783984D01*
X325967968Y-134795731D01*
X325982357Y-134811782D01*
X325988745Y-134832808D01*
X325990281Y-134859476D01*
X325990289Y-134862626D01*
X325988955Y-134892790D01*
X325982651Y-134916103D01*
X325967922Y-134933506D01*
X325941315Y-134945940D01*
X325899374Y-134954345D01*
X325838646Y-134959665D01*
X325755676Y-134962839D01*
X325647011Y-134964809D01*
X325613705Y-134965245D01*
X325291413Y-134969310D01*
X325286906Y-135055730D01*
X325282398Y-135142150D01*
X325506263Y-135142150D01*
X325593721Y-135142473D01*
X325656169Y-135143837D01*
X325698654Y-135146839D01*
X325726223Y-135152073D01*
X325743922Y-135160135D01*
X325756797Y-135171620D01*
X325756880Y-135171711D01*
X325780230Y-135216471D01*
X325779386Y-135264847D01*
X325754879Y-135306086D01*
X325750029Y-135310325D01*
X325732815Y-135321249D01*
X325709226Y-135328849D01*
X325674007Y-135333697D01*
X325621900Y-135336366D01*
X325547650Y-135337428D01*
X325500162Y-135337535D01*
X325283898Y-135337535D01*
X325283898Y-135547949D01*
X325612220Y-135547949D01*
X325720618Y-135548139D01*
X325802935Y-135548914D01*
X325863149Y-135550584D01*
X325905235Y-135553458D01*
X325933171Y-135557847D01*
X325950934Y-135564059D01*
X325962500Y-135572404D01*
X325965415Y-135575434D01*
X325986936Y-135617434D01*
X325988510Y-135665214D01*
X325970855Y-135706642D01*
X325956885Y-135719937D01*
X325942354Y-135727256D01*
X325919838Y-135732919D01*
X325885776Y-135737123D01*
X325836607Y-135740068D01*
X325768768Y-135741951D01*
X325678698Y-135742970D01*
X325562837Y-135743325D01*
X325536643Y-135743334D01*
X325418839Y-135743256D01*
X325327396Y-135742831D01*
X325258614Y-135741766D01*
X325208796Y-135739769D01*
X325174240Y-135736550D01*
X325151250Y-135731816D01*
X325136126Y-135725277D01*
X325125169Y-135716641D01*
X325119158Y-135710440D01*
X325110110Y-135699457D01*
X325103042Y-135685852D01*
X325097709Y-135666056D01*
X325093868Y-135636502D01*
X325091275Y-135593621D01*
X325089687Y-135533845D01*
X325088861Y-135453607D01*
X325088552Y-135349339D01*
X325088514Y-135261580D01*
X325088608Y-135138608D01*
X325089057Y-135042069D01*
X325090108Y-134968339D01*
X325092010Y-134913790D01*
X325095009Y-134874799D01*
X325099355Y-134847739D01*
X325105294Y-134828984D01*
X325113075Y-134814910D01*
X325119664Y-134806011D01*
X325150814Y-134766410D01*
X325537148Y-134766410D01*
X325665716Y-134766667D01*
G36*
X325665716Y-134766667D02*
G01*
X325767377Y-134767884D01*
X325845282Y-134770730D01*
X325902581Y-134775874D01*
X325942427Y-134783984D01*
X325967968Y-134795731D01*
X325982357Y-134811782D01*
X325988745Y-134832808D01*
X325990281Y-134859476D01*
X325990289Y-134862626D01*
X325988955Y-134892790D01*
X325982651Y-134916103D01*
X325967922Y-134933506D01*
X325941315Y-134945940D01*
X325899374Y-134954345D01*
X325838646Y-134959665D01*
X325755676Y-134962839D01*
X325647011Y-134964809D01*
X325613705Y-134965245D01*
X325291413Y-134969310D01*
X325286906Y-135055730D01*
X325282398Y-135142150D01*
X325506263Y-135142150D01*
X325593721Y-135142473D01*
X325656169Y-135143837D01*
X325698654Y-135146839D01*
X325726223Y-135152073D01*
X325743922Y-135160135D01*
X325756797Y-135171620D01*
X325756880Y-135171711D01*
X325780230Y-135216471D01*
X325779386Y-135264847D01*
X325754879Y-135306086D01*
X325750029Y-135310325D01*
X325732815Y-135321249D01*
X325709226Y-135328849D01*
X325674007Y-135333697D01*
X325621900Y-135336366D01*
X325547650Y-135337428D01*
X325500162Y-135337535D01*
X325283898Y-135337535D01*
X325283898Y-135547949D01*
X325612220Y-135547949D01*
X325720618Y-135548139D01*
X325802935Y-135548914D01*
X325863149Y-135550584D01*
X325905235Y-135553458D01*
X325933171Y-135557847D01*
X325950934Y-135564059D01*
X325962500Y-135572404D01*
X325965415Y-135575434D01*
X325986936Y-135617434D01*
X325988510Y-135665214D01*
X325970855Y-135706642D01*
X325956885Y-135719937D01*
X325942354Y-135727256D01*
X325919838Y-135732919D01*
X325885776Y-135737123D01*
X325836607Y-135740068D01*
X325768768Y-135741951D01*
X325678698Y-135742970D01*
X325562837Y-135743325D01*
X325536643Y-135743334D01*
X325418839Y-135743256D01*
X325327396Y-135742831D01*
X325258614Y-135741766D01*
X325208796Y-135739769D01*
X325174240Y-135736550D01*
X325151250Y-135731816D01*
X325136126Y-135725277D01*
X325125169Y-135716641D01*
X325119158Y-135710440D01*
X325110110Y-135699457D01*
X325103042Y-135685852D01*
X325097709Y-135666056D01*
X325093868Y-135636502D01*
X325091275Y-135593621D01*
X325089687Y-135533845D01*
X325088861Y-135453607D01*
X325088552Y-135349339D01*
X325088514Y-135261580D01*
X325088608Y-135138608D01*
X325089057Y-135042069D01*
X325090108Y-134968339D01*
X325092010Y-134913790D01*
X325095009Y-134874799D01*
X325099355Y-134847739D01*
X325105294Y-134828984D01*
X325113075Y-134814910D01*
X325119664Y-134806011D01*
X325150814Y-134766410D01*
X325537148Y-134766410D01*
X325665716Y-134766667D01*
G37*
X319084616Y-134766516D02*
X319177024Y-134767012D01*
X319246773Y-134768165D01*
X319297563Y-134770244D01*
X319333095Y-134773515D01*
X319357068Y-134778247D01*
X319373182Y-134784707D01*
X319385137Y-134793163D01*
X319389467Y-134797055D01*
X319415795Y-134838404D01*
X319420535Y-134885916D01*
X319403216Y-134928095D01*
X319395207Y-134936620D01*
X319382254Y-134944885D01*
X319361398Y-134951261D01*
X319328770Y-134956059D01*
X319280504Y-134959588D01*
X319212732Y-134962158D01*
X319121586Y-134964081D01*
X319038255Y-134965251D01*
X318708454Y-134969310D01*
X318699440Y-135142150D01*
X318923304Y-135142150D01*
X319020492Y-135142989D01*
X319091643Y-135146496D01*
X319140755Y-135154159D01*
X319171829Y-135167467D01*
X319188862Y-135187905D01*
X319195854Y-135216963D01*
X319196916Y-135243931D01*
X319193616Y-135277021D01*
X319181163Y-135301404D01*
X319155726Y-135318353D01*
X319113475Y-135329143D01*
X319050580Y-135335048D01*
X318963211Y-135337341D01*
X318915525Y-135337535D01*
X318700940Y-135337535D01*
X318700940Y-135547949D01*
X319031591Y-135547949D01*
X319139976Y-135548100D01*
X319222349Y-135548778D01*
X319282757Y-135550320D01*
X319325247Y-135553063D01*
X319353865Y-135557345D01*
X319372658Y-135563503D01*
X319385672Y-135571873D01*
X319392301Y-135578008D01*
X319415039Y-135613813D01*
X319422360Y-135645641D01*
X319411907Y-135684518D01*
X319392301Y-135713274D01*
X319381841Y-135722327D01*
X319368338Y-135729357D01*
X319348160Y-135734618D01*
X319317675Y-135738365D01*
X319273251Y-135740854D01*
X319211255Y-135742339D01*
X319128055Y-135743075D01*
X319020019Y-135743318D01*
X318963957Y-135743334D01*
X318843902Y-135743227D01*
X318750272Y-135742739D01*
X318679437Y-135741613D01*
X318627765Y-135739595D01*
X318591623Y-135736430D01*
X318567378Y-135731863D01*
X318551399Y-135725640D01*
X318540053Y-135717504D01*
X318535614Y-135713274D01*
X318526829Y-135703160D01*
X318519942Y-135690112D01*
X318514725Y-135670634D01*
X318510947Y-135641228D01*
X318508376Y-135598398D01*
X318506782Y-135538648D01*
X318505935Y-135458481D01*
X318505604Y-135354401D01*
X318505555Y-135257492D01*
X318505600Y-135133387D01*
X318505912Y-135035830D01*
X318506758Y-134961310D01*
X318508404Y-134906315D01*
X318511117Y-134867334D01*
X318515163Y-134840857D01*
X318520809Y-134823370D01*
X318528320Y-134811364D01*
X318537964Y-134801327D01*
X318540340Y-134799090D01*
X318551871Y-134789183D01*
X318565268Y-134781512D01*
X318584250Y-134775790D01*
X318612531Y-134771732D01*
X318653828Y-134769052D01*
X318711858Y-134767466D01*
X318790337Y-134766688D01*
X318892980Y-134766432D01*
X318965850Y-134766410D01*
X319084616Y-134766516D01*
G36*
X319084616Y-134766516D02*
G01*
X319177024Y-134767012D01*
X319246773Y-134768165D01*
X319297563Y-134770244D01*
X319333095Y-134773515D01*
X319357068Y-134778247D01*
X319373182Y-134784707D01*
X319385137Y-134793163D01*
X319389467Y-134797055D01*
X319415795Y-134838404D01*
X319420535Y-134885916D01*
X319403216Y-134928095D01*
X319395207Y-134936620D01*
X319382254Y-134944885D01*
X319361398Y-134951261D01*
X319328770Y-134956059D01*
X319280504Y-134959588D01*
X319212732Y-134962158D01*
X319121586Y-134964081D01*
X319038255Y-134965251D01*
X318708454Y-134969310D01*
X318699440Y-135142150D01*
X318923304Y-135142150D01*
X319020492Y-135142989D01*
X319091643Y-135146496D01*
X319140755Y-135154159D01*
X319171829Y-135167467D01*
X319188862Y-135187905D01*
X319195854Y-135216963D01*
X319196916Y-135243931D01*
X319193616Y-135277021D01*
X319181163Y-135301404D01*
X319155726Y-135318353D01*
X319113475Y-135329143D01*
X319050580Y-135335048D01*
X318963211Y-135337341D01*
X318915525Y-135337535D01*
X318700940Y-135337535D01*
X318700940Y-135547949D01*
X319031591Y-135547949D01*
X319139976Y-135548100D01*
X319222349Y-135548778D01*
X319282757Y-135550320D01*
X319325247Y-135553063D01*
X319353865Y-135557345D01*
X319372658Y-135563503D01*
X319385672Y-135571873D01*
X319392301Y-135578008D01*
X319415039Y-135613813D01*
X319422360Y-135645641D01*
X319411907Y-135684518D01*
X319392301Y-135713274D01*
X319381841Y-135722327D01*
X319368338Y-135729357D01*
X319348160Y-135734618D01*
X319317675Y-135738365D01*
X319273251Y-135740854D01*
X319211255Y-135742339D01*
X319128055Y-135743075D01*
X319020019Y-135743318D01*
X318963957Y-135743334D01*
X318843902Y-135743227D01*
X318750272Y-135742739D01*
X318679437Y-135741613D01*
X318627765Y-135739595D01*
X318591623Y-135736430D01*
X318567378Y-135731863D01*
X318551399Y-135725640D01*
X318540053Y-135717504D01*
X318535614Y-135713274D01*
X318526829Y-135703160D01*
X318519942Y-135690112D01*
X318514725Y-135670634D01*
X318510947Y-135641228D01*
X318508376Y-135598398D01*
X318506782Y-135538648D01*
X318505935Y-135458481D01*
X318505604Y-135354401D01*
X318505555Y-135257492D01*
X318505600Y-135133387D01*
X318505912Y-135035830D01*
X318506758Y-134961310D01*
X318508404Y-134906315D01*
X318511117Y-134867334D01*
X318515163Y-134840857D01*
X318520809Y-134823370D01*
X318528320Y-134811364D01*
X318537964Y-134801327D01*
X318540340Y-134799090D01*
X318551871Y-134789183D01*
X318565268Y-134781512D01*
X318584250Y-134775790D01*
X318612531Y-134771732D01*
X318653828Y-134769052D01*
X318711858Y-134767466D01*
X318790337Y-134766688D01*
X318892980Y-134766432D01*
X318965850Y-134766410D01*
X319084616Y-134766516D01*
G37*
X330344547Y-134769030D02*
X330370628Y-134778350D01*
X330371634Y-134778806D01*
X330407052Y-134805834D01*
X330426566Y-134833636D01*
X330430384Y-134846672D01*
X330430195Y-134863992D01*
X330424822Y-134888667D01*
X330413088Y-134923764D01*
X330393813Y-134972353D01*
X330365822Y-135037502D01*
X330327936Y-135122281D01*
X330278978Y-135229759D01*
X330252031Y-135288503D01*
X330203370Y-135393373D01*
X330157690Y-135489814D01*
X330116734Y-135574298D01*
X330082246Y-135643300D01*
X330055969Y-135693294D01*
X330039646Y-135720754D01*
X330036416Y-135724547D01*
X329995089Y-135741280D01*
X329948409Y-135739039D01*
X329910970Y-135718687D01*
X329909444Y-135717032D01*
X329894551Y-135694486D01*
X329869569Y-135650571D01*
X329837579Y-135590940D01*
X329801660Y-135521246D01*
X329788752Y-135495563D01*
X329691314Y-135300397D01*
X329585106Y-135512407D01*
X329547197Y-135585661D01*
X329512027Y-135649190D01*
X329482468Y-135698131D01*
X329461394Y-135727622D01*
X329454252Y-135733876D01*
X329398738Y-135742345D01*
X329352929Y-135724547D01*
X329339454Y-135705525D01*
X329316136Y-135663249D01*
X329284877Y-135601880D01*
X329247580Y-135525576D01*
X329206146Y-135438499D01*
X329162478Y-135344807D01*
X329118478Y-135248661D01*
X329076048Y-135154221D01*
X329037090Y-135065645D01*
X329003507Y-134987096D01*
X328977201Y-134922731D01*
X328960074Y-134876711D01*
X328954029Y-134853197D01*
X328954091Y-134852345D01*
X328968800Y-134822756D01*
X328998202Y-134792620D01*
X328999933Y-134791308D01*
X329036070Y-134770882D01*
X329069494Y-134771080D01*
X329082022Y-134774931D01*
X329097287Y-134783253D01*
X329113498Y-134799625D01*
X329132599Y-134827442D01*
X329156535Y-134870100D01*
X329187251Y-134930995D01*
X329226691Y-135013525D01*
X329262258Y-135089707D01*
X329303177Y-135178014D01*
X329339844Y-135257426D01*
X329370354Y-135323796D01*
X329392802Y-135372975D01*
X329405283Y-135400813D01*
X329407103Y-135405168D01*
X329415290Y-135398049D01*
X329434105Y-135368241D01*
X329461046Y-135320096D01*
X329493608Y-135257963D01*
X329506566Y-135232328D01*
X329550460Y-135145765D01*
X329584311Y-135082725D01*
X329610897Y-135039542D01*
X329632995Y-135012552D01*
X329653384Y-134998088D01*
X329674840Y-134992487D01*
X329688823Y-134991854D01*
X329713488Y-134994040D01*
X329735102Y-135003079D01*
X329756578Y-135022697D01*
X329780830Y-135056617D01*
X329810770Y-135108562D01*
X329849313Y-135182258D01*
X329870578Y-135224180D01*
X329905072Y-135290994D01*
X329935156Y-135346401D01*
X329958177Y-135385727D01*
X329971480Y-135404296D01*
X329973289Y-135405069D01*
X329981880Y-135390455D01*
X330001114Y-135352507D01*
X330029065Y-135295196D01*
X330063807Y-135222496D01*
X330103413Y-135138376D01*
X330122896Y-135096594D01*
X330173580Y-134988763D01*
X330214393Y-134905790D01*
X330247454Y-134844966D01*
X330274881Y-134803585D01*
X330298792Y-134778940D01*
X330321308Y-134768324D01*
X330344547Y-134769030D01*
G36*
X330344547Y-134769030D02*
G01*
X330370628Y-134778350D01*
X330371634Y-134778806D01*
X330407052Y-134805834D01*
X330426566Y-134833636D01*
X330430384Y-134846672D01*
X330430195Y-134863992D01*
X330424822Y-134888667D01*
X330413088Y-134923764D01*
X330393813Y-134972353D01*
X330365822Y-135037502D01*
X330327936Y-135122281D01*
X330278978Y-135229759D01*
X330252031Y-135288503D01*
X330203370Y-135393373D01*
X330157690Y-135489814D01*
X330116734Y-135574298D01*
X330082246Y-135643300D01*
X330055969Y-135693294D01*
X330039646Y-135720754D01*
X330036416Y-135724547D01*
X329995089Y-135741280D01*
X329948409Y-135739039D01*
X329910970Y-135718687D01*
X329909444Y-135717032D01*
X329894551Y-135694486D01*
X329869569Y-135650571D01*
X329837579Y-135590940D01*
X329801660Y-135521246D01*
X329788752Y-135495563D01*
X329691314Y-135300397D01*
X329585106Y-135512407D01*
X329547197Y-135585661D01*
X329512027Y-135649190D01*
X329482468Y-135698131D01*
X329461394Y-135727622D01*
X329454252Y-135733876D01*
X329398738Y-135742345D01*
X329352929Y-135724547D01*
X329339454Y-135705525D01*
X329316136Y-135663249D01*
X329284877Y-135601880D01*
X329247580Y-135525576D01*
X329206146Y-135438499D01*
X329162478Y-135344807D01*
X329118478Y-135248661D01*
X329076048Y-135154221D01*
X329037090Y-135065645D01*
X329003507Y-134987096D01*
X328977201Y-134922731D01*
X328960074Y-134876711D01*
X328954029Y-134853197D01*
X328954091Y-134852345D01*
X328968800Y-134822756D01*
X328998202Y-134792620D01*
X328999933Y-134791308D01*
X329036070Y-134770882D01*
X329069494Y-134771080D01*
X329082022Y-134774931D01*
X329097287Y-134783253D01*
X329113498Y-134799625D01*
X329132599Y-134827442D01*
X329156535Y-134870100D01*
X329187251Y-134930995D01*
X329226691Y-135013525D01*
X329262258Y-135089707D01*
X329303177Y-135178014D01*
X329339844Y-135257426D01*
X329370354Y-135323796D01*
X329392802Y-135372975D01*
X329405283Y-135400813D01*
X329407103Y-135405168D01*
X329415290Y-135398049D01*
X329434105Y-135368241D01*
X329461046Y-135320096D01*
X329493608Y-135257963D01*
X329506566Y-135232328D01*
X329550460Y-135145765D01*
X329584311Y-135082725D01*
X329610897Y-135039542D01*
X329632995Y-135012552D01*
X329653384Y-134998088D01*
X329674840Y-134992487D01*
X329688823Y-134991854D01*
X329713488Y-134994040D01*
X329735102Y-135003079D01*
X329756578Y-135022697D01*
X329780830Y-135056617D01*
X329810770Y-135108562D01*
X329849313Y-135182258D01*
X329870578Y-135224180D01*
X329905072Y-135290994D01*
X329935156Y-135346401D01*
X329958177Y-135385727D01*
X329971480Y-135404296D01*
X329973289Y-135405069D01*
X329981880Y-135390455D01*
X330001114Y-135352507D01*
X330029065Y-135295196D01*
X330063807Y-135222496D01*
X330103413Y-135138376D01*
X330122896Y-135096594D01*
X330173580Y-134988763D01*
X330214393Y-134905790D01*
X330247454Y-134844966D01*
X330274881Y-134803585D01*
X330298792Y-134778940D01*
X330321308Y-134768324D01*
X330344547Y-134769030D01*
G37*
X320444058Y-134768121D02*
X320543663Y-134775084D01*
X320636302Y-134785959D01*
X320716588Y-134800338D01*
X320779138Y-134817810D01*
X320818565Y-134837966D01*
X320824617Y-134843899D01*
X320845662Y-134889939D01*
X320839280Y-134937204D01*
X320806639Y-134977642D01*
X320805082Y-134978801D01*
X320785883Y-134991261D01*
X320765841Y-134997813D01*
X320737886Y-134998608D01*
X320694947Y-134993800D01*
X320629955Y-134983539D01*
X320624727Y-134982675D01*
X320527885Y-134970778D01*
X320423402Y-134964909D01*
X320318611Y-134964852D01*
X320220844Y-134970391D01*
X320137434Y-134981309D01*
X320075713Y-134997389D01*
X320071658Y-134999005D01*
X320026882Y-135024093D01*
X320011150Y-135049482D01*
X320023466Y-135074451D01*
X320062831Y-135098280D01*
X320128248Y-135120246D01*
X320218720Y-135139630D01*
X320279046Y-135148962D01*
X320404446Y-135166913D01*
X320504181Y-135183323D01*
X320582500Y-135199612D01*
X320643653Y-135217202D01*
X320691887Y-135237513D01*
X320731451Y-135261967D01*
X320766594Y-135291984D01*
X320794835Y-135321460D01*
X320828338Y-135362531D01*
X320844827Y-135397846D01*
X320849983Y-135441357D01*
X320850170Y-135457292D01*
X320846298Y-135510169D01*
X320830819Y-135549507D01*
X320804031Y-135584424D01*
X320749587Y-135637798D01*
X320688876Y-135678502D01*
X320617388Y-135707864D01*
X320530610Y-135727211D01*
X320424032Y-135737870D01*
X320293143Y-135741169D01*
X320271531Y-135741113D01*
X320184248Y-135739304D01*
X320097687Y-135735193D01*
X320021284Y-135729370D01*
X319964476Y-135722425D01*
X319959882Y-135721628D01*
X319903401Y-135708248D01*
X319855494Y-135691346D01*
X319828373Y-135675895D01*
X319803135Y-135635130D01*
X319801377Y-135587662D01*
X319823134Y-135545359D01*
X319828002Y-135540576D01*
X319848124Y-135526363D01*
X319873288Y-135520240D01*
X319912233Y-135521282D01*
X319959511Y-135526698D01*
X320012341Y-135531537D01*
X320086398Y-135535619D01*
X320172855Y-135538582D01*
X320262883Y-135540061D01*
X320286561Y-135540158D01*
X320376924Y-135539794D01*
X320443057Y-135538040D01*
X320490779Y-135534287D01*
X320525908Y-135527927D01*
X320554264Y-135518351D01*
X320571305Y-135510375D01*
X320608750Y-135488229D01*
X320632625Y-135468172D01*
X320636114Y-135462487D01*
X320628753Y-135439009D01*
X320593759Y-135416281D01*
X320533558Y-135395334D01*
X320450575Y-135377200D01*
X320426126Y-135373161D01*
X320298424Y-135353103D01*
X320196506Y-135336338D01*
X320116440Y-135321647D01*
X320054292Y-135307812D01*
X320006128Y-135293615D01*
X319968014Y-135277837D01*
X319936016Y-135259260D01*
X319906202Y-135236666D01*
X319874636Y-135208837D01*
X319864014Y-135199080D01*
X319826773Y-135162666D01*
X319807059Y-135133816D01*
X319799347Y-135100802D01*
X319798099Y-135059199D01*
X319811831Y-134977615D01*
X319852868Y-134908298D01*
X319920976Y-134851472D01*
X320015919Y-134807361D01*
X320083662Y-134787576D01*
X320157287Y-134774797D01*
X320245485Y-134767568D01*
X320342870Y-134765479D01*
X320444058Y-134768121D01*
G36*
X320444058Y-134768121D02*
G01*
X320543663Y-134775084D01*
X320636302Y-134785959D01*
X320716588Y-134800338D01*
X320779138Y-134817810D01*
X320818565Y-134837966D01*
X320824617Y-134843899D01*
X320845662Y-134889939D01*
X320839280Y-134937204D01*
X320806639Y-134977642D01*
X320805082Y-134978801D01*
X320785883Y-134991261D01*
X320765841Y-134997813D01*
X320737886Y-134998608D01*
X320694947Y-134993800D01*
X320629955Y-134983539D01*
X320624727Y-134982675D01*
X320527885Y-134970778D01*
X320423402Y-134964909D01*
X320318611Y-134964852D01*
X320220844Y-134970391D01*
X320137434Y-134981309D01*
X320075713Y-134997389D01*
X320071658Y-134999005D01*
X320026882Y-135024093D01*
X320011150Y-135049482D01*
X320023466Y-135074451D01*
X320062831Y-135098280D01*
X320128248Y-135120246D01*
X320218720Y-135139630D01*
X320279046Y-135148962D01*
X320404446Y-135166913D01*
X320504181Y-135183323D01*
X320582500Y-135199612D01*
X320643653Y-135217202D01*
X320691887Y-135237513D01*
X320731451Y-135261967D01*
X320766594Y-135291984D01*
X320794835Y-135321460D01*
X320828338Y-135362531D01*
X320844827Y-135397846D01*
X320849983Y-135441357D01*
X320850170Y-135457292D01*
X320846298Y-135510169D01*
X320830819Y-135549507D01*
X320804031Y-135584424D01*
X320749587Y-135637798D01*
X320688876Y-135678502D01*
X320617388Y-135707864D01*
X320530610Y-135727211D01*
X320424032Y-135737870D01*
X320293143Y-135741169D01*
X320271531Y-135741113D01*
X320184248Y-135739304D01*
X320097687Y-135735193D01*
X320021284Y-135729370D01*
X319964476Y-135722425D01*
X319959882Y-135721628D01*
X319903401Y-135708248D01*
X319855494Y-135691346D01*
X319828373Y-135675895D01*
X319803135Y-135635130D01*
X319801377Y-135587662D01*
X319823134Y-135545359D01*
X319828002Y-135540576D01*
X319848124Y-135526363D01*
X319873288Y-135520240D01*
X319912233Y-135521282D01*
X319959511Y-135526698D01*
X320012341Y-135531537D01*
X320086398Y-135535619D01*
X320172855Y-135538582D01*
X320262883Y-135540061D01*
X320286561Y-135540158D01*
X320376924Y-135539794D01*
X320443057Y-135538040D01*
X320490779Y-135534287D01*
X320525908Y-135527927D01*
X320554264Y-135518351D01*
X320571305Y-135510375D01*
X320608750Y-135488229D01*
X320632625Y-135468172D01*
X320636114Y-135462487D01*
X320628753Y-135439009D01*
X320593759Y-135416281D01*
X320533558Y-135395334D01*
X320450575Y-135377200D01*
X320426126Y-135373161D01*
X320298424Y-135353103D01*
X320196506Y-135336338D01*
X320116440Y-135321647D01*
X320054292Y-135307812D01*
X320006128Y-135293615D01*
X319968014Y-135277837D01*
X319936016Y-135259260D01*
X319906202Y-135236666D01*
X319874636Y-135208837D01*
X319864014Y-135199080D01*
X319826773Y-135162666D01*
X319807059Y-135133816D01*
X319799347Y-135100802D01*
X319798099Y-135059199D01*
X319811831Y-134977615D01*
X319852868Y-134908298D01*
X319920976Y-134851472D01*
X320015919Y-134807361D01*
X320083662Y-134787576D01*
X320157287Y-134774797D01*
X320245485Y-134767568D01*
X320342870Y-134765479D01*
X320444058Y-134768121D01*
G37*
X325765378Y-127729231D02*
X325961019Y-127750649D01*
X326150562Y-127788985D01*
X326341717Y-127846238D01*
X326542196Y-127924409D01*
X326759708Y-128025496D01*
X326798880Y-128045076D01*
X326888772Y-128089362D01*
X326973553Y-128129239D01*
X327044855Y-128160898D01*
X327094310Y-128180532D01*
X327101908Y-128183004D01*
X327174714Y-128204817D01*
X326848803Y-128678944D01*
X326769123Y-128794823D01*
X326696272Y-128900694D01*
X326632730Y-128992962D01*
X326580972Y-129068033D01*
X326543477Y-129122313D01*
X326522723Y-129152207D01*
X326519351Y-129156941D01*
X326505655Y-129147042D01*
X326471943Y-129117285D01*
X326424244Y-129073073D01*
X326397920Y-129048084D01*
X326248772Y-128929456D01*
X326081268Y-128839313D01*
X325936928Y-128789936D01*
X325850283Y-128774429D01*
X325741796Y-128764979D01*
X325624227Y-128761761D01*
X325510334Y-128764951D01*
X325412879Y-128774724D01*
X325373990Y-128782209D01*
X325198712Y-128842512D01*
X325040765Y-128934590D01*
X324900268Y-129058273D01*
X324777335Y-129213393D01*
X324672085Y-129399781D01*
X324584635Y-129617270D01*
X324515100Y-129865692D01*
X324473775Y-130078357D01*
X324462994Y-130172241D01*
X324455648Y-130293524D01*
X324451667Y-130433493D01*
X324450979Y-130583431D01*
X324453514Y-130734622D01*
X324459200Y-130878351D01*
X324467967Y-131005903D01*
X324479744Y-131108562D01*
X324482293Y-131124401D01*
X324538481Y-131379536D01*
X324615036Y-131605342D01*
X324712426Y-131802831D01*
X324831114Y-131973014D01*
X324915363Y-132065022D01*
X325066770Y-132189943D01*
X325232817Y-132282540D01*
X325410701Y-132342309D01*
X325597622Y-132368746D01*
X325790778Y-132361348D01*
X325987369Y-132319611D01*
X326103597Y-132278771D01*
X326264438Y-132196990D01*
X326430213Y-132079678D01*
X326523073Y-132000345D01*
X326575214Y-131954429D01*
X326616180Y-131920742D01*
X326639498Y-131904510D01*
X326642393Y-131904015D01*
X326652800Y-131920601D01*
X326679767Y-131964432D01*
X326720996Y-132031748D01*
X326774189Y-132118794D01*
X326837050Y-132221810D01*
X326907281Y-132337041D01*
X326946372Y-132401231D01*
X327244964Y-132891677D01*
X326872161Y-133075915D01*
X326737369Y-133142093D01*
X326628175Y-133194278D01*
X326537907Y-133235060D01*
X326459888Y-133267033D01*
X326387444Y-133292787D01*
X326313901Y-133314914D01*
X326232584Y-133336007D01*
X326154643Y-133354530D01*
X326085366Y-133368863D01*
X326012917Y-133379694D01*
X325930042Y-133387626D01*
X325829488Y-133393258D01*
X325704003Y-133397192D01*
X325619428Y-133398891D01*
X325498754Y-133400050D01*
X325383042Y-133399465D01*
X325279951Y-133397304D01*
X325197138Y-133393732D01*
X325142260Y-133388917D01*
X325139008Y-133388437D01*
X324854043Y-133326786D01*
X324586442Y-133233285D01*
X324336297Y-133107993D01*
X324103704Y-132950974D01*
X323888757Y-132762289D01*
X323691550Y-132542000D01*
X323548727Y-132346214D01*
X323396680Y-132089949D01*
X323273773Y-131819317D01*
X323179410Y-131532149D01*
X323112999Y-131226276D01*
X323073944Y-130899528D01*
X323061640Y-130567739D01*
X323071759Y-130246779D01*
X323103561Y-129950646D01*
X323158054Y-129674345D01*
X323236250Y-129412881D01*
X323339159Y-129161258D01*
X323351447Y-129135190D01*
X323486820Y-128891507D01*
X323653089Y-128659618D01*
X323845541Y-128444323D01*
X324059466Y-128250422D01*
X324290155Y-128082715D01*
X324505109Y-127959696D01*
X324722258Y-127863345D01*
X324939868Y-127793551D01*
X325166362Y-127748413D01*
X325410166Y-127726031D01*
X325555928Y-127722731D01*
X325765378Y-127729231D01*
G36*
X325765378Y-127729231D02*
G01*
X325961019Y-127750649D01*
X326150562Y-127788985D01*
X326341717Y-127846238D01*
X326542196Y-127924409D01*
X326759708Y-128025496D01*
X326798880Y-128045076D01*
X326888772Y-128089362D01*
X326973553Y-128129239D01*
X327044855Y-128160898D01*
X327094310Y-128180532D01*
X327101908Y-128183004D01*
X327174714Y-128204817D01*
X326848803Y-128678944D01*
X326769123Y-128794823D01*
X326696272Y-128900694D01*
X326632730Y-128992962D01*
X326580972Y-129068033D01*
X326543477Y-129122313D01*
X326522723Y-129152207D01*
X326519351Y-129156941D01*
X326505655Y-129147042D01*
X326471943Y-129117285D01*
X326424244Y-129073073D01*
X326397920Y-129048084D01*
X326248772Y-128929456D01*
X326081268Y-128839313D01*
X325936928Y-128789936D01*
X325850283Y-128774429D01*
X325741796Y-128764979D01*
X325624227Y-128761761D01*
X325510334Y-128764951D01*
X325412879Y-128774724D01*
X325373990Y-128782209D01*
X325198712Y-128842512D01*
X325040765Y-128934590D01*
X324900268Y-129058273D01*
X324777335Y-129213393D01*
X324672085Y-129399781D01*
X324584635Y-129617270D01*
X324515100Y-129865692D01*
X324473775Y-130078357D01*
X324462994Y-130172241D01*
X324455648Y-130293524D01*
X324451667Y-130433493D01*
X324450979Y-130583431D01*
X324453514Y-130734622D01*
X324459200Y-130878351D01*
X324467967Y-131005903D01*
X324479744Y-131108562D01*
X324482293Y-131124401D01*
X324538481Y-131379536D01*
X324615036Y-131605342D01*
X324712426Y-131802831D01*
X324831114Y-131973014D01*
X324915363Y-132065022D01*
X325066770Y-132189943D01*
X325232817Y-132282540D01*
X325410701Y-132342309D01*
X325597622Y-132368746D01*
X325790778Y-132361348D01*
X325987369Y-132319611D01*
X326103597Y-132278771D01*
X326264438Y-132196990D01*
X326430213Y-132079678D01*
X326523073Y-132000345D01*
X326575214Y-131954429D01*
X326616180Y-131920742D01*
X326639498Y-131904510D01*
X326642393Y-131904015D01*
X326652800Y-131920601D01*
X326679767Y-131964432D01*
X326720996Y-132031748D01*
X326774189Y-132118794D01*
X326837050Y-132221810D01*
X326907281Y-132337041D01*
X326946372Y-132401231D01*
X327244964Y-132891677D01*
X326872161Y-133075915D01*
X326737369Y-133142093D01*
X326628175Y-133194278D01*
X326537907Y-133235060D01*
X326459888Y-133267033D01*
X326387444Y-133292787D01*
X326313901Y-133314914D01*
X326232584Y-133336007D01*
X326154643Y-133354530D01*
X326085366Y-133368863D01*
X326012917Y-133379694D01*
X325930042Y-133387626D01*
X325829488Y-133393258D01*
X325704003Y-133397192D01*
X325619428Y-133398891D01*
X325498754Y-133400050D01*
X325383042Y-133399465D01*
X325279951Y-133397304D01*
X325197138Y-133393732D01*
X325142260Y-133388917D01*
X325139008Y-133388437D01*
X324854043Y-133326786D01*
X324586442Y-133233285D01*
X324336297Y-133107993D01*
X324103704Y-132950974D01*
X323888757Y-132762289D01*
X323691550Y-132542000D01*
X323548727Y-132346214D01*
X323396680Y-132089949D01*
X323273773Y-131819317D01*
X323179410Y-131532149D01*
X323112999Y-131226276D01*
X323073944Y-130899528D01*
X323061640Y-130567739D01*
X323071759Y-130246779D01*
X323103561Y-129950646D01*
X323158054Y-129674345D01*
X323236250Y-129412881D01*
X323339159Y-129161258D01*
X323351447Y-129135190D01*
X323486820Y-128891507D01*
X323653089Y-128659618D01*
X323845541Y-128444323D01*
X324059466Y-128250422D01*
X324290155Y-128082715D01*
X324505109Y-127959696D01*
X324722258Y-127863345D01*
X324939868Y-127793551D01*
X325166362Y-127748413D01*
X325410166Y-127726031D01*
X325555928Y-127722731D01*
X325765378Y-127729231D01*
G37*
X334225571Y-127460089D02*
X334379876Y-127460723D01*
X334432321Y-127461042D01*
X335153500Y-127465786D01*
X335162571Y-130232572D01*
X335163769Y-130607756D01*
X335164832Y-130948417D01*
X335165827Y-131256318D01*
X335166823Y-131533221D01*
X335167888Y-131780888D01*
X335169091Y-132001081D01*
X335170499Y-132195562D01*
X335172182Y-132366094D01*
X335174206Y-132514440D01*
X335176641Y-132642361D01*
X335179554Y-132751620D01*
X335183015Y-132843979D01*
X335187090Y-132921200D01*
X335191849Y-132985046D01*
X335197360Y-133037278D01*
X335203691Y-133079660D01*
X335210910Y-133113953D01*
X335219085Y-133141920D01*
X335228285Y-133165324D01*
X335238577Y-133185925D01*
X335250031Y-133205487D01*
X335262715Y-133225772D01*
X335276695Y-133248543D01*
X335279561Y-133253393D01*
X335327640Y-133335433D01*
X333937928Y-133325929D01*
X333928857Y-133173295D01*
X333923918Y-133100045D01*
X333918771Y-133057696D01*
X333911786Y-133040892D01*
X333901337Y-133044277D01*
X333892571Y-133053960D01*
X333854388Y-133089229D01*
X333792155Y-133134563D01*
X333714641Y-133184546D01*
X333630613Y-133233761D01*
X333548839Y-133276791D01*
X333486052Y-133305101D01*
X333338954Y-133351624D01*
X333170180Y-133384579D01*
X332992191Y-133402707D01*
X332817447Y-133404750D01*
X332658407Y-133389447D01*
X332655788Y-133389009D01*
X332438168Y-133334402D01*
X332234455Y-133247401D01*
X332046613Y-133129876D01*
X331876607Y-132983697D01*
X331726402Y-132810734D01*
X331597964Y-132612857D01*
X331493257Y-132391936D01*
X331436246Y-132228286D01*
X331398651Y-132091375D01*
X331370771Y-131958798D01*
X331351753Y-131822502D01*
X331340745Y-131674433D01*
X331336895Y-131506537D01*
X331338600Y-131369440D01*
X332677359Y-131369440D01*
X332683694Y-131599329D01*
X332703679Y-131797111D01*
X332737927Y-131964539D01*
X332787055Y-132103369D01*
X332851676Y-132215358D01*
X332932405Y-132302259D01*
X333025591Y-132363692D01*
X333074080Y-132386626D01*
X333116134Y-132400375D01*
X333163020Y-132406666D01*
X333226004Y-132407222D01*
X333293857Y-132404773D01*
X333427295Y-132393004D01*
X333532832Y-132369955D01*
X333566000Y-132358410D01*
X333641735Y-132324311D01*
X333721614Y-132281491D01*
X333756500Y-132260057D01*
X333847214Y-132200556D01*
X333847214Y-130314584D01*
X333747428Y-130254771D01*
X333608267Y-130187185D01*
X333466087Y-130147214D01*
X333326090Y-130134622D01*
X333193474Y-130149173D01*
X333073440Y-130190632D01*
X332971188Y-130258763D01*
X332938195Y-130291466D01*
X332858667Y-130398619D01*
X332794299Y-130528327D01*
X332744553Y-130682814D01*
X332708891Y-130864302D01*
X332686775Y-131075015D01*
X332677667Y-131317175D01*
X332677359Y-131369440D01*
X331338600Y-131369440D01*
X331339310Y-131312374D01*
X331354605Y-131013713D01*
X331385358Y-130744325D01*
X331432381Y-130500285D01*
X331496482Y-130277670D01*
X331578472Y-130072556D01*
X331607730Y-130011746D01*
X331725581Y-129813440D01*
X331867996Y-129637212D01*
X332031629Y-129485908D01*
X332213131Y-129362371D01*
X332409153Y-129269447D01*
X332526655Y-129231115D01*
X332642054Y-129208359D01*
X332780907Y-129194820D01*
X332931574Y-129190492D01*
X333082413Y-129195368D01*
X333221785Y-129209444D01*
X333333691Y-129231525D01*
X333466884Y-129274828D01*
X333595979Y-129330511D01*
X333708928Y-129392936D01*
X333769043Y-129435303D01*
X333810510Y-129466807D01*
X333839545Y-129485990D01*
X333846150Y-129488714D01*
X333848198Y-129471163D01*
X333850107Y-129420875D01*
X333851836Y-129341400D01*
X333853341Y-129236286D01*
X333854581Y-129109083D01*
X333855513Y-128963339D01*
X333856095Y-128802603D01*
X333856286Y-128638884D01*
X333856179Y-128429188D01*
X333855658Y-128252396D01*
X333854416Y-128105126D01*
X333852148Y-127983997D01*
X333848550Y-127885627D01*
X333843317Y-127806634D01*
X333836144Y-127743638D01*
X333826726Y-127693255D01*
X333814758Y-127652105D01*
X333799935Y-127616806D01*
X333781952Y-127583977D01*
X333760505Y-127550235D01*
X333757745Y-127546057D01*
X333730083Y-127502356D01*
X333713382Y-127472305D01*
X333711143Y-127465967D01*
X333728643Y-127463967D01*
X333778574Y-127462340D01*
X333857085Y-127461112D01*
X333960323Y-127460311D01*
X334084436Y-127459961D01*
X334225571Y-127460089D01*
G36*
X334225571Y-127460089D02*
G01*
X334379876Y-127460723D01*
X334432321Y-127461042D01*
X335153500Y-127465786D01*
X335162571Y-130232572D01*
X335163769Y-130607756D01*
X335164832Y-130948417D01*
X335165827Y-131256318D01*
X335166823Y-131533221D01*
X335167888Y-131780888D01*
X335169091Y-132001081D01*
X335170499Y-132195562D01*
X335172182Y-132366094D01*
X335174206Y-132514440D01*
X335176641Y-132642361D01*
X335179554Y-132751620D01*
X335183015Y-132843979D01*
X335187090Y-132921200D01*
X335191849Y-132985046D01*
X335197360Y-133037278D01*
X335203691Y-133079660D01*
X335210910Y-133113953D01*
X335219085Y-133141920D01*
X335228285Y-133165324D01*
X335238577Y-133185925D01*
X335250031Y-133205487D01*
X335262715Y-133225772D01*
X335276695Y-133248543D01*
X335279561Y-133253393D01*
X335327640Y-133335433D01*
X333937928Y-133325929D01*
X333928857Y-133173295D01*
X333923918Y-133100045D01*
X333918771Y-133057696D01*
X333911786Y-133040892D01*
X333901337Y-133044277D01*
X333892571Y-133053960D01*
X333854388Y-133089229D01*
X333792155Y-133134563D01*
X333714641Y-133184546D01*
X333630613Y-133233761D01*
X333548839Y-133276791D01*
X333486052Y-133305101D01*
X333338954Y-133351624D01*
X333170180Y-133384579D01*
X332992191Y-133402707D01*
X332817447Y-133404750D01*
X332658407Y-133389447D01*
X332655788Y-133389009D01*
X332438168Y-133334402D01*
X332234455Y-133247401D01*
X332046613Y-133129876D01*
X331876607Y-132983697D01*
X331726402Y-132810734D01*
X331597964Y-132612857D01*
X331493257Y-132391936D01*
X331436246Y-132228286D01*
X331398651Y-132091375D01*
X331370771Y-131958798D01*
X331351753Y-131822502D01*
X331340745Y-131674433D01*
X331336895Y-131506537D01*
X331338600Y-131369440D01*
X332677359Y-131369440D01*
X332683694Y-131599329D01*
X332703679Y-131797111D01*
X332737927Y-131964539D01*
X332787055Y-132103369D01*
X332851676Y-132215358D01*
X332932405Y-132302259D01*
X333025591Y-132363692D01*
X333074080Y-132386626D01*
X333116134Y-132400375D01*
X333163020Y-132406666D01*
X333226004Y-132407222D01*
X333293857Y-132404773D01*
X333427295Y-132393004D01*
X333532832Y-132369955D01*
X333566000Y-132358410D01*
X333641735Y-132324311D01*
X333721614Y-132281491D01*
X333756500Y-132260057D01*
X333847214Y-132200556D01*
X333847214Y-130314584D01*
X333747428Y-130254771D01*
X333608267Y-130187185D01*
X333466087Y-130147214D01*
X333326090Y-130134622D01*
X333193474Y-130149173D01*
X333073440Y-130190632D01*
X332971188Y-130258763D01*
X332938195Y-130291466D01*
X332858667Y-130398619D01*
X332794299Y-130528327D01*
X332744553Y-130682814D01*
X332708891Y-130864302D01*
X332686775Y-131075015D01*
X332677667Y-131317175D01*
X332677359Y-131369440D01*
X331338600Y-131369440D01*
X331339310Y-131312374D01*
X331354605Y-131013713D01*
X331385358Y-130744325D01*
X331432381Y-130500285D01*
X331496482Y-130277670D01*
X331578472Y-130072556D01*
X331607730Y-130011746D01*
X331725581Y-129813440D01*
X331867996Y-129637212D01*
X332031629Y-129485908D01*
X332213131Y-129362371D01*
X332409153Y-129269447D01*
X332526655Y-129231115D01*
X332642054Y-129208359D01*
X332780907Y-129194820D01*
X332931574Y-129190492D01*
X333082413Y-129195368D01*
X333221785Y-129209444D01*
X333333691Y-129231525D01*
X333466884Y-129274828D01*
X333595979Y-129330511D01*
X333708928Y-129392936D01*
X333769043Y-129435303D01*
X333810510Y-129466807D01*
X333839545Y-129485990D01*
X333846150Y-129488714D01*
X333848198Y-129471163D01*
X333850107Y-129420875D01*
X333851836Y-129341400D01*
X333853341Y-129236286D01*
X333854581Y-129109083D01*
X333855513Y-128963339D01*
X333856095Y-128802603D01*
X333856286Y-128638884D01*
X333856179Y-128429188D01*
X333855658Y-128252396D01*
X333854416Y-128105126D01*
X333852148Y-127983997D01*
X333848550Y-127885627D01*
X333843317Y-127806634D01*
X333836144Y-127743638D01*
X333826726Y-127693255D01*
X333814758Y-127652105D01*
X333799935Y-127616806D01*
X333781952Y-127583977D01*
X333760505Y-127550235D01*
X333757745Y-127546057D01*
X333730083Y-127502356D01*
X333713382Y-127472305D01*
X333711143Y-127465967D01*
X333728643Y-127463967D01*
X333778574Y-127462340D01*
X333857085Y-127461112D01*
X333960323Y-127460311D01*
X334084436Y-127459961D01*
X334225571Y-127460089D01*
G37*
X329369632Y-129187730D02*
X329459523Y-129194535D01*
X329716715Y-129228753D01*
X329944485Y-129283331D01*
X330143943Y-129359020D01*
X330316197Y-129456570D01*
X330462359Y-129576732D01*
X330583536Y-129720258D01*
X330680839Y-129887898D01*
X330751891Y-130069286D01*
X330769927Y-130127146D01*
X330785632Y-130181329D01*
X330799192Y-130234752D01*
X330810792Y-130290333D01*
X330820617Y-130350988D01*
X330828853Y-130419635D01*
X330835684Y-130499190D01*
X330841295Y-130592572D01*
X330845872Y-130702696D01*
X330849600Y-130832481D01*
X330852665Y-130984842D01*
X330855250Y-131162698D01*
X330857542Y-131368965D01*
X330859725Y-131606561D01*
X330861286Y-131792857D01*
X330871785Y-133071929D01*
X330939821Y-133195018D01*
X330972038Y-133254317D01*
X330996012Y-133300377D01*
X331007450Y-133324893D01*
X331007857Y-133326553D01*
X330990375Y-133328454D01*
X330940574Y-133330205D01*
X330862421Y-133331758D01*
X330759882Y-133333062D01*
X330636922Y-133334070D01*
X330497510Y-133334731D01*
X330345611Y-133334997D01*
X330327500Y-133335000D01*
X329647143Y-133335000D01*
X329647143Y-133180786D01*
X329645982Y-133111094D01*
X329642887Y-133057794D01*
X329638432Y-133029217D01*
X329636463Y-133026572D01*
X329618455Y-133037653D01*
X329581393Y-133066736D01*
X329533222Y-133107579D01*
X329532141Y-133108524D01*
X329444235Y-133173971D01*
X329333217Y-133239688D01*
X329211631Y-133299219D01*
X329092021Y-133346109D01*
X329039357Y-133362133D01*
X328934551Y-133382485D01*
X328805950Y-133395472D01*
X328665325Y-133400909D01*
X328524448Y-133398611D01*
X328395093Y-133388392D01*
X328304571Y-133373689D01*
X328082580Y-133308499D01*
X327882729Y-133215594D01*
X327706319Y-133096126D01*
X327554650Y-132951247D01*
X327429024Y-132782110D01*
X327330741Y-132589867D01*
X327288341Y-132473214D01*
X327261768Y-132359833D01*
X327244158Y-132223722D01*
X327236010Y-132077437D01*
X327236278Y-132056151D01*
X328463321Y-132056151D01*
X328473496Y-132164850D01*
X328507378Y-132255185D01*
X328570000Y-132338995D01*
X328594052Y-132363571D01*
X328679551Y-132430011D01*
X328778373Y-132472574D01*
X328896768Y-132493177D01*
X329021445Y-132494694D01*
X329139698Y-132484677D01*
X329230239Y-132465085D01*
X329269560Y-132450370D01*
X329340432Y-132410265D01*
X329415525Y-132353863D01*
X329484038Y-132290561D01*
X329535172Y-132229755D01*
X329548750Y-132207449D01*
X329559305Y-132176212D01*
X329566810Y-132126507D01*
X329571613Y-132053587D01*
X329574065Y-131952703D01*
X329574571Y-131856689D01*
X329574228Y-131744750D01*
X329572843Y-131663809D01*
X329569881Y-131608585D01*
X329564808Y-131573794D01*
X329557090Y-131554154D01*
X329546192Y-131544380D01*
X329542821Y-131542824D01*
X329513529Y-131538029D01*
X329455756Y-131534108D01*
X329377304Y-131531414D01*
X329285974Y-131530299D01*
X329266143Y-131530298D01*
X329144063Y-131532246D01*
X329049749Y-131538041D01*
X328974807Y-131548475D01*
X328912903Y-131563714D01*
X328759349Y-131621784D01*
X328638932Y-131693179D01*
X328550610Y-131779039D01*
X328493339Y-131880507D01*
X328466078Y-131998725D01*
X328463321Y-132056151D01*
X327236278Y-132056151D01*
X327237823Y-131933533D01*
X327250096Y-131804565D01*
X327259670Y-131752460D01*
X327320801Y-131558997D01*
X327413757Y-131380993D01*
X327536783Y-131220155D01*
X327688124Y-131078190D01*
X327866025Y-130956806D01*
X328068732Y-130857709D01*
X328241071Y-130797533D01*
X328356253Y-130765919D01*
X328466423Y-130741354D01*
X328578719Y-130723039D01*
X328700275Y-130710178D01*
X328838229Y-130701972D01*
X328999715Y-130697624D01*
X329145715Y-130696400D01*
X329578645Y-130695215D01*
X329570351Y-130565080D01*
X329546801Y-130423883D01*
X329496703Y-130302518D01*
X329422191Y-130204017D01*
X329325399Y-130131409D01*
X329240171Y-130095979D01*
X329118056Y-130073650D01*
X328972683Y-130070443D01*
X328810867Y-130085177D01*
X328639422Y-130116670D01*
X328465163Y-130163740D01*
X328294904Y-130225203D01*
X328171176Y-130281417D01*
X328111647Y-130310283D01*
X328066242Y-130330443D01*
X328043150Y-130338310D01*
X328041897Y-130338058D01*
X328033929Y-130320437D01*
X328014031Y-130273733D01*
X327984077Y-130202418D01*
X327945939Y-130110969D01*
X327901488Y-130003859D01*
X327856305Y-129894549D01*
X327675667Y-129456740D01*
X327804155Y-129435636D01*
X327859846Y-129425047D01*
X327943564Y-129407263D01*
X328048139Y-129383898D01*
X328166399Y-129356565D01*
X328291172Y-129326881D01*
X328340857Y-129314818D01*
X328555807Y-129264962D01*
X328743995Y-129227584D01*
X328912446Y-129201927D01*
X329068186Y-129187235D01*
X329218240Y-129182755D01*
X329369632Y-129187730D01*
G36*
X329369632Y-129187730D02*
G01*
X329459523Y-129194535D01*
X329716715Y-129228753D01*
X329944485Y-129283331D01*
X330143943Y-129359020D01*
X330316197Y-129456570D01*
X330462359Y-129576732D01*
X330583536Y-129720258D01*
X330680839Y-129887898D01*
X330751891Y-130069286D01*
X330769927Y-130127146D01*
X330785632Y-130181329D01*
X330799192Y-130234752D01*
X330810792Y-130290333D01*
X330820617Y-130350988D01*
X330828853Y-130419635D01*
X330835684Y-130499190D01*
X330841295Y-130592572D01*
X330845872Y-130702696D01*
X330849600Y-130832481D01*
X330852665Y-130984842D01*
X330855250Y-131162698D01*
X330857542Y-131368965D01*
X330859725Y-131606561D01*
X330861286Y-131792857D01*
X330871785Y-133071929D01*
X330939821Y-133195018D01*
X330972038Y-133254317D01*
X330996012Y-133300377D01*
X331007450Y-133324893D01*
X331007857Y-133326553D01*
X330990375Y-133328454D01*
X330940574Y-133330205D01*
X330862421Y-133331758D01*
X330759882Y-133333062D01*
X330636922Y-133334070D01*
X330497510Y-133334731D01*
X330345611Y-133334997D01*
X330327500Y-133335000D01*
X329647143Y-133335000D01*
X329647143Y-133180786D01*
X329645982Y-133111094D01*
X329642887Y-133057794D01*
X329638432Y-133029217D01*
X329636463Y-133026572D01*
X329618455Y-133037653D01*
X329581393Y-133066736D01*
X329533222Y-133107579D01*
X329532141Y-133108524D01*
X329444235Y-133173971D01*
X329333217Y-133239688D01*
X329211631Y-133299219D01*
X329092021Y-133346109D01*
X329039357Y-133362133D01*
X328934551Y-133382485D01*
X328805950Y-133395472D01*
X328665325Y-133400909D01*
X328524448Y-133398611D01*
X328395093Y-133388392D01*
X328304571Y-133373689D01*
X328082580Y-133308499D01*
X327882729Y-133215594D01*
X327706319Y-133096126D01*
X327554650Y-132951247D01*
X327429024Y-132782110D01*
X327330741Y-132589867D01*
X327288341Y-132473214D01*
X327261768Y-132359833D01*
X327244158Y-132223722D01*
X327236010Y-132077437D01*
X327236278Y-132056151D01*
X328463321Y-132056151D01*
X328473496Y-132164850D01*
X328507378Y-132255185D01*
X328570000Y-132338995D01*
X328594052Y-132363571D01*
X328679551Y-132430011D01*
X328778373Y-132472574D01*
X328896768Y-132493177D01*
X329021445Y-132494694D01*
X329139698Y-132484677D01*
X329230239Y-132465085D01*
X329269560Y-132450370D01*
X329340432Y-132410265D01*
X329415525Y-132353863D01*
X329484038Y-132290561D01*
X329535172Y-132229755D01*
X329548750Y-132207449D01*
X329559305Y-132176212D01*
X329566810Y-132126507D01*
X329571613Y-132053587D01*
X329574065Y-131952703D01*
X329574571Y-131856689D01*
X329574228Y-131744750D01*
X329572843Y-131663809D01*
X329569881Y-131608585D01*
X329564808Y-131573794D01*
X329557090Y-131554154D01*
X329546192Y-131544380D01*
X329542821Y-131542824D01*
X329513529Y-131538029D01*
X329455756Y-131534108D01*
X329377304Y-131531414D01*
X329285974Y-131530299D01*
X329266143Y-131530298D01*
X329144063Y-131532246D01*
X329049749Y-131538041D01*
X328974807Y-131548475D01*
X328912903Y-131563714D01*
X328759349Y-131621784D01*
X328638932Y-131693179D01*
X328550610Y-131779039D01*
X328493339Y-131880507D01*
X328466078Y-131998725D01*
X328463321Y-132056151D01*
X327236278Y-132056151D01*
X327237823Y-131933533D01*
X327250096Y-131804565D01*
X327259670Y-131752460D01*
X327320801Y-131558997D01*
X327413757Y-131380993D01*
X327536783Y-131220155D01*
X327688124Y-131078190D01*
X327866025Y-130956806D01*
X328068732Y-130857709D01*
X328241071Y-130797533D01*
X328356253Y-130765919D01*
X328466423Y-130741354D01*
X328578719Y-130723039D01*
X328700275Y-130710178D01*
X328838229Y-130701972D01*
X328999715Y-130697624D01*
X329145715Y-130696400D01*
X329578645Y-130695215D01*
X329570351Y-130565080D01*
X329546801Y-130423883D01*
X329496703Y-130302518D01*
X329422191Y-130204017D01*
X329325399Y-130131409D01*
X329240171Y-130095979D01*
X329118056Y-130073650D01*
X328972683Y-130070443D01*
X328810867Y-130085177D01*
X328639422Y-130116670D01*
X328465163Y-130163740D01*
X328294904Y-130225203D01*
X328171176Y-130281417D01*
X328111647Y-130310283D01*
X328066242Y-130330443D01*
X328043150Y-130338310D01*
X328041897Y-130338058D01*
X328033929Y-130320437D01*
X328014031Y-130273733D01*
X327984077Y-130202418D01*
X327945939Y-130110969D01*
X327901488Y-130003859D01*
X327856305Y-129894549D01*
X327675667Y-129456740D01*
X327804155Y-129435636D01*
X327859846Y-129425047D01*
X327943564Y-129407263D01*
X328048139Y-129383898D01*
X328166399Y-129356565D01*
X328291172Y-129326881D01*
X328340857Y-129314818D01*
X328555807Y-129264962D01*
X328743995Y-129227584D01*
X328912446Y-129201927D01*
X329068186Y-129187235D01*
X329218240Y-129182755D01*
X329369632Y-129187730D01*
G37*
X317313911Y-126821660D02*
X317663460Y-126821707D01*
X317826170Y-126821714D01*
X320430571Y-126821715D01*
X320430571Y-126975238D01*
X320446957Y-127162063D01*
X320496412Y-127334367D01*
X320579380Y-127493175D01*
X320696305Y-127639510D01*
X320735864Y-127679032D01*
X320878170Y-127791138D01*
X321035078Y-127872899D01*
X321201928Y-127924353D01*
X321374061Y-127945537D01*
X321546815Y-127936487D01*
X321715530Y-127897242D01*
X321875546Y-127827838D01*
X322022202Y-127728311D01*
X322088068Y-127668265D01*
X322210808Y-127521043D01*
X322300812Y-127359147D01*
X322357294Y-127184427D01*
X322379471Y-126998735D01*
X322379766Y-126980467D01*
X322380928Y-126821720D01*
X322450700Y-126821717D01*
X322512595Y-126830118D01*
X322569135Y-126850556D01*
X322572872Y-126852667D01*
X322585642Y-126859293D01*
X322597368Y-126864454D01*
X322608094Y-126869651D01*
X322617861Y-126876390D01*
X322626712Y-126886171D01*
X322634689Y-126900500D01*
X322641835Y-126920878D01*
X322648192Y-126948808D01*
X322653802Y-126985795D01*
X322658707Y-127033340D01*
X322662951Y-127092947D01*
X322666576Y-127166119D01*
X322669623Y-127254359D01*
X322672136Y-127359170D01*
X322674156Y-127482055D01*
X322675726Y-127624517D01*
X322676888Y-127788060D01*
X322677686Y-127974186D01*
X322678160Y-128184398D01*
X322678354Y-128420200D01*
X322678310Y-128683094D01*
X322678070Y-128974584D01*
X322677677Y-129296172D01*
X322677173Y-129649362D01*
X322676600Y-130035657D01*
X322676001Y-130456560D01*
X322675932Y-130507840D01*
X322675395Y-130931426D01*
X322674939Y-131320230D01*
X322674516Y-131675753D01*
X322674079Y-131999498D01*
X322673578Y-132292966D01*
X322672965Y-132557661D01*
X322672192Y-132795085D01*
X322671211Y-133006740D01*
X322669974Y-133194129D01*
X322668432Y-133358754D01*
X322666537Y-133502117D01*
X322664241Y-133625720D01*
X322661496Y-133731067D01*
X322658253Y-133819659D01*
X322654464Y-133893000D01*
X322650081Y-133952590D01*
X322645055Y-133999933D01*
X322639339Y-134036531D01*
X322632884Y-134063886D01*
X322625641Y-134083502D01*
X322617563Y-134096879D01*
X322608602Y-134105521D01*
X322598708Y-134110930D01*
X322587835Y-134114608D01*
X322575933Y-134118058D01*
X322562954Y-134122782D01*
X322559783Y-134124220D01*
X322549819Y-134127451D01*
X322533141Y-134130420D01*
X322508293Y-134133137D01*
X322473820Y-134135613D01*
X322428264Y-134137858D01*
X322370170Y-134139883D01*
X322298081Y-134141698D01*
X322210542Y-134143315D01*
X322106095Y-134144743D01*
X321983285Y-134145993D01*
X321840655Y-134147076D01*
X321676749Y-134148002D01*
X321490110Y-134148782D01*
X321279284Y-134149426D01*
X321042812Y-134149946D01*
X320779239Y-134150351D01*
X320487110Y-134150652D01*
X320164966Y-134150860D01*
X319811353Y-134150985D01*
X319424814Y-134151038D01*
X319003892Y-134151029D01*
X318867544Y-134151016D01*
X318437284Y-134150947D01*
X318041836Y-134150834D01*
X317679727Y-134150665D01*
X317349483Y-134150430D01*
X317049629Y-134150116D01*
X316778692Y-134149713D01*
X316535200Y-134149207D01*
X316317677Y-134148589D01*
X316124650Y-134147846D01*
X315954646Y-134146968D01*
X315806190Y-134145941D01*
X315677810Y-134144756D01*
X315568031Y-134143400D01*
X315475380Y-134141862D01*
X315398383Y-134140130D01*
X315335566Y-134138194D01*
X315285456Y-134136040D01*
X315246579Y-134133659D01*
X315217462Y-134131037D01*
X315196629Y-134128165D01*
X315182609Y-134125030D01*
X315174966Y-134122159D01*
X315161382Y-134116430D01*
X315148910Y-134112206D01*
X315137502Y-134107985D01*
X315127111Y-134102268D01*
X315117691Y-134093555D01*
X315109192Y-134080345D01*
X315101570Y-134061137D01*
X315094775Y-134034433D01*
X315088762Y-133998730D01*
X315083483Y-133952530D01*
X315078890Y-133894332D01*
X315074936Y-133822635D01*
X315071575Y-133735940D01*
X315068759Y-133632746D01*
X315066440Y-133511553D01*
X315064572Y-133370860D01*
X315064084Y-133316857D01*
X315548296Y-133316857D01*
X317259744Y-133316857D01*
X317226813Y-133266964D01*
X317194053Y-133215693D01*
X317166311Y-133166869D01*
X317143193Y-133117076D01*
X317124303Y-133062898D01*
X317109249Y-133000916D01*
X317097633Y-132927715D01*
X317089064Y-132839878D01*
X317083144Y-132733988D01*
X317079481Y-132606628D01*
X317077679Y-132454381D01*
X317077344Y-132273832D01*
X317078081Y-132061562D01*
X317078499Y-131982755D01*
X317083214Y-131137911D01*
X317618428Y-131866557D01*
X317770054Y-132073265D01*
X317901419Y-132253260D01*
X318013943Y-132408925D01*
X318109043Y-132542647D01*
X318188138Y-132656809D01*
X318252647Y-132753797D01*
X318303988Y-132835994D01*
X318343580Y-132905786D01*
X318372840Y-132965558D01*
X318393188Y-133017693D01*
X318406042Y-133064576D01*
X318412819Y-133108593D01*
X318414940Y-133152127D01*
X318413821Y-133197564D01*
X318413536Y-133203275D01*
X318407643Y-133316933D01*
X320283229Y-133316857D01*
X320612686Y-133316857D01*
X321413441Y-133316857D01*
X321604602Y-133316802D01*
X321762499Y-133316551D01*
X321890152Y-133315979D01*
X321990581Y-133314959D01*
X322066807Y-133313365D01*
X322121852Y-133311070D01*
X322158736Y-133307950D01*
X322180479Y-133303877D01*
X322190102Y-133298725D01*
X322190627Y-133292367D01*
X322185074Y-133284679D01*
X322185016Y-133284615D01*
X322162140Y-133251524D01*
X322131849Y-133197719D01*
X322105097Y-133144008D01*
X322054357Y-133035643D01*
X322049182Y-131153322D01*
X322044007Y-129271000D01*
X320612686Y-129271000D01*
X320680379Y-129393465D01*
X320748071Y-129515929D01*
X320748071Y-133071929D01*
X320680379Y-133194393D01*
X320612686Y-133316857D01*
X320283229Y-133316857D01*
X320143722Y-133176189D01*
X320105865Y-133137715D01*
X320069953Y-133100279D01*
X320034407Y-133061814D01*
X319997653Y-133020258D01*
X319958114Y-132973545D01*
X319914214Y-132919610D01*
X319864377Y-132856390D01*
X319807028Y-132781818D01*
X319740589Y-132693832D01*
X319663485Y-132590365D01*
X319574139Y-132469354D01*
X319470976Y-132328734D01*
X319352420Y-132166440D01*
X319216895Y-131980407D01*
X319062823Y-131768571D01*
X318936538Y-131594804D01*
X318778046Y-131376501D01*
X318639784Y-131185629D01*
X318520501Y-131020374D01*
X318418943Y-130878926D01*
X318333859Y-130759471D01*
X318263995Y-130660198D01*
X318208100Y-130579295D01*
X318164920Y-130514949D01*
X318133203Y-130465347D01*
X318111698Y-130428679D01*
X318099150Y-130403132D01*
X318094308Y-130386893D01*
X318095763Y-130378355D01*
X318113401Y-130355635D01*
X318151534Y-130307543D01*
X318207862Y-130236938D01*
X318280084Y-130146678D01*
X318365899Y-130039621D01*
X318463006Y-129918627D01*
X318569104Y-129786554D01*
X318681891Y-129646260D01*
X318799068Y-129500603D01*
X318918333Y-129352444D01*
X318983933Y-129271000D01*
X319037385Y-129204639D01*
X319153923Y-129060047D01*
X319265646Y-128921528D01*
X319370254Y-128791939D01*
X319465444Y-128674140D01*
X319548917Y-128570988D01*
X319618371Y-128485343D01*
X319671506Y-128420062D01*
X319702715Y-128382000D01*
X319823903Y-128239670D01*
X319940493Y-128111230D01*
X320048397Y-128000886D01*
X320143530Y-127912841D01*
X320211043Y-127858862D01*
X320290873Y-127801429D01*
X318454892Y-127801429D01*
X318455408Y-127909165D01*
X318450276Y-127988372D01*
X318430985Y-128061805D01*
X318401123Y-128131415D01*
X318381712Y-128170741D01*
X318360841Y-128209707D01*
X318336604Y-128250901D01*
X318307094Y-128296908D01*
X318270406Y-128350317D01*
X318224632Y-128413714D01*
X318167865Y-128489685D01*
X318098200Y-128580817D01*
X318013730Y-128689698D01*
X317912547Y-128818914D01*
X317792747Y-128971052D01*
X317652421Y-129148698D01*
X317636571Y-129168742D01*
X317083214Y-129868508D01*
X317077857Y-129093504D01*
X317076779Y-128861368D01*
X317077008Y-128664846D01*
X317078557Y-128503292D01*
X317081437Y-128376056D01*
X317085659Y-128282492D01*
X317091234Y-128221952D01*
X317093107Y-128210468D01*
X317122505Y-128089499D01*
X317161022Y-127980446D01*
X317204974Y-127892763D01*
X317231379Y-127855574D01*
X317276940Y-127801429D01*
X316412470Y-127801429D01*
X316206255Y-127801605D01*
X316033812Y-127802179D01*
X315892627Y-127803217D01*
X315780188Y-127804787D01*
X315693983Y-127806954D01*
X315631498Y-127809788D01*
X315590221Y-127813353D01*
X315567640Y-127817718D01*
X315561241Y-127822949D01*
X315561683Y-127824107D01*
X315580009Y-127851769D01*
X315610604Y-127895615D01*
X315626433Y-127917791D01*
X315642798Y-127939920D01*
X315657508Y-127959709D01*
X315670656Y-127979106D01*
X315682333Y-128000058D01*
X315692632Y-128024512D01*
X315701646Y-128054416D01*
X315709468Y-128091717D01*
X315716191Y-128138363D01*
X315721906Y-128196301D01*
X315726707Y-128267479D01*
X315730685Y-128353844D01*
X315733935Y-128457344D01*
X315736548Y-128579925D01*
X315738617Y-128723537D01*
X315740234Y-128890125D01*
X315741493Y-129081637D01*
X315742485Y-129300022D01*
X315743304Y-129547226D01*
X315744042Y-129825196D01*
X315744791Y-130135881D01*
X315745492Y-130421300D01*
X315746153Y-130739492D01*
X315746497Y-131043077D01*
X315746532Y-131330115D01*
X315746268Y-131598669D01*
X315745715Y-131846798D01*
X315744880Y-132072563D01*
X315743773Y-132274026D01*
X315742404Y-132449246D01*
X315740781Y-132596286D01*
X315738913Y-132713206D01*
X315736811Y-132798067D01*
X315734482Y-132848929D01*
X315734041Y-132854304D01*
X315717992Y-132977613D01*
X315692936Y-133076644D01*
X315654779Y-133163070D01*
X315599428Y-133248565D01*
X315592504Y-133257893D01*
X315548296Y-133316857D01*
X315064084Y-133316857D01*
X315063108Y-133209168D01*
X315061999Y-133024976D01*
X315061199Y-132816784D01*
X315060661Y-132583091D01*
X315060338Y-132322398D01*
X315060183Y-132033204D01*
X315060146Y-131714009D01*
X315060183Y-131363313D01*
X315060245Y-130979614D01*
X315060285Y-130561414D01*
X315060286Y-130478393D01*
X315060309Y-130055789D01*
X315060388Y-129667981D01*
X315060533Y-129313480D01*
X315060756Y-128990797D01*
X315061069Y-128698442D01*
X315061483Y-128434927D01*
X315062009Y-128198762D01*
X315062660Y-127988458D01*
X315063447Y-127802526D01*
X315064381Y-127639475D01*
X315065474Y-127497818D01*
X315066737Y-127376064D01*
X315068183Y-127272725D01*
X315069821Y-127186311D01*
X315071666Y-127115333D01*
X315073726Y-127058301D01*
X315076015Y-127013727D01*
X315078544Y-126980121D01*
X315081324Y-126955993D01*
X315084367Y-126939856D01*
X315087684Y-126930218D01*
X315087807Y-126929978D01*
X315094640Y-126915255D01*
X315100330Y-126901926D01*
X315106626Y-126889922D01*
X315115272Y-126879173D01*
X315128014Y-126869611D01*
X315146600Y-126861167D01*
X315172774Y-126853771D01*
X315208284Y-126847354D01*
X315254875Y-126841848D01*
X315314293Y-126837183D01*
X315388285Y-126833291D01*
X315478597Y-126830102D01*
X315586975Y-126827547D01*
X315715165Y-126825558D01*
X315864913Y-126824065D01*
X316037966Y-126822998D01*
X316236069Y-126822291D01*
X316460969Y-126821872D01*
X316714412Y-126821673D01*
X316998144Y-126821626D01*
X317313911Y-126821660D01*
G36*
X317313911Y-126821660D02*
G01*
X317663460Y-126821707D01*
X317826170Y-126821714D01*
X320430571Y-126821715D01*
X320430571Y-126975238D01*
X320446957Y-127162063D01*
X320496412Y-127334367D01*
X320579380Y-127493175D01*
X320696305Y-127639510D01*
X320735864Y-127679032D01*
X320878170Y-127791138D01*
X321035078Y-127872899D01*
X321201928Y-127924353D01*
X321374061Y-127945537D01*
X321546815Y-127936487D01*
X321715530Y-127897242D01*
X321875546Y-127827838D01*
X322022202Y-127728311D01*
X322088068Y-127668265D01*
X322210808Y-127521043D01*
X322300812Y-127359147D01*
X322357294Y-127184427D01*
X322379471Y-126998735D01*
X322379766Y-126980467D01*
X322380928Y-126821720D01*
X322450700Y-126821717D01*
X322512595Y-126830118D01*
X322569135Y-126850556D01*
X322572872Y-126852667D01*
X322585642Y-126859293D01*
X322597368Y-126864454D01*
X322608094Y-126869651D01*
X322617861Y-126876390D01*
X322626712Y-126886171D01*
X322634689Y-126900500D01*
X322641835Y-126920878D01*
X322648192Y-126948808D01*
X322653802Y-126985795D01*
X322658707Y-127033340D01*
X322662951Y-127092947D01*
X322666576Y-127166119D01*
X322669623Y-127254359D01*
X322672136Y-127359170D01*
X322674156Y-127482055D01*
X322675726Y-127624517D01*
X322676888Y-127788060D01*
X322677686Y-127974186D01*
X322678160Y-128184398D01*
X322678354Y-128420200D01*
X322678310Y-128683094D01*
X322678070Y-128974584D01*
X322677677Y-129296172D01*
X322677173Y-129649362D01*
X322676600Y-130035657D01*
X322676001Y-130456560D01*
X322675932Y-130507840D01*
X322675395Y-130931426D01*
X322674939Y-131320230D01*
X322674516Y-131675753D01*
X322674079Y-131999498D01*
X322673578Y-132292966D01*
X322672965Y-132557661D01*
X322672192Y-132795085D01*
X322671211Y-133006740D01*
X322669974Y-133194129D01*
X322668432Y-133358754D01*
X322666537Y-133502117D01*
X322664241Y-133625720D01*
X322661496Y-133731067D01*
X322658253Y-133819659D01*
X322654464Y-133893000D01*
X322650081Y-133952590D01*
X322645055Y-133999933D01*
X322639339Y-134036531D01*
X322632884Y-134063886D01*
X322625641Y-134083502D01*
X322617563Y-134096879D01*
X322608602Y-134105521D01*
X322598708Y-134110930D01*
X322587835Y-134114608D01*
X322575933Y-134118058D01*
X322562954Y-134122782D01*
X322559783Y-134124220D01*
X322549819Y-134127451D01*
X322533141Y-134130420D01*
X322508293Y-134133137D01*
X322473820Y-134135613D01*
X322428264Y-134137858D01*
X322370170Y-134139883D01*
X322298081Y-134141698D01*
X322210542Y-134143315D01*
X322106095Y-134144743D01*
X321983285Y-134145993D01*
X321840655Y-134147076D01*
X321676749Y-134148002D01*
X321490110Y-134148782D01*
X321279284Y-134149426D01*
X321042812Y-134149946D01*
X320779239Y-134150351D01*
X320487110Y-134150652D01*
X320164966Y-134150860D01*
X319811353Y-134150985D01*
X319424814Y-134151038D01*
X319003892Y-134151029D01*
X318867544Y-134151016D01*
X318437284Y-134150947D01*
X318041836Y-134150834D01*
X317679727Y-134150665D01*
X317349483Y-134150430D01*
X317049629Y-134150116D01*
X316778692Y-134149713D01*
X316535200Y-134149207D01*
X316317677Y-134148589D01*
X316124650Y-134147846D01*
X315954646Y-134146968D01*
X315806190Y-134145941D01*
X315677810Y-134144756D01*
X315568031Y-134143400D01*
X315475380Y-134141862D01*
X315398383Y-134140130D01*
X315335566Y-134138194D01*
X315285456Y-134136040D01*
X315246579Y-134133659D01*
X315217462Y-134131037D01*
X315196629Y-134128165D01*
X315182609Y-134125030D01*
X315174966Y-134122159D01*
X315161382Y-134116430D01*
X315148910Y-134112206D01*
X315137502Y-134107985D01*
X315127111Y-134102268D01*
X315117691Y-134093555D01*
X315109192Y-134080345D01*
X315101570Y-134061137D01*
X315094775Y-134034433D01*
X315088762Y-133998730D01*
X315083483Y-133952530D01*
X315078890Y-133894332D01*
X315074936Y-133822635D01*
X315071575Y-133735940D01*
X315068759Y-133632746D01*
X315066440Y-133511553D01*
X315064572Y-133370860D01*
X315064084Y-133316857D01*
X315548296Y-133316857D01*
X317259744Y-133316857D01*
X317226813Y-133266964D01*
X317194053Y-133215693D01*
X317166311Y-133166869D01*
X317143193Y-133117076D01*
X317124303Y-133062898D01*
X317109249Y-133000916D01*
X317097633Y-132927715D01*
X317089064Y-132839878D01*
X317083144Y-132733988D01*
X317079481Y-132606628D01*
X317077679Y-132454381D01*
X317077344Y-132273832D01*
X317078081Y-132061562D01*
X317078499Y-131982755D01*
X317083214Y-131137911D01*
X317618428Y-131866557D01*
X317770054Y-132073265D01*
X317901419Y-132253260D01*
X318013943Y-132408925D01*
X318109043Y-132542647D01*
X318188138Y-132656809D01*
X318252647Y-132753797D01*
X318303988Y-132835994D01*
X318343580Y-132905786D01*
X318372840Y-132965558D01*
X318393188Y-133017693D01*
X318406042Y-133064576D01*
X318412819Y-133108593D01*
X318414940Y-133152127D01*
X318413821Y-133197564D01*
X318413536Y-133203275D01*
X318407643Y-133316933D01*
X320283229Y-133316857D01*
X320612686Y-133316857D01*
X321413441Y-133316857D01*
X321604602Y-133316802D01*
X321762499Y-133316551D01*
X321890152Y-133315979D01*
X321990581Y-133314959D01*
X322066807Y-133313365D01*
X322121852Y-133311070D01*
X322158736Y-133307950D01*
X322180479Y-133303877D01*
X322190102Y-133298725D01*
X322190627Y-133292367D01*
X322185074Y-133284679D01*
X322185016Y-133284615D01*
X322162140Y-133251524D01*
X322131849Y-133197719D01*
X322105097Y-133144008D01*
X322054357Y-133035643D01*
X322049182Y-131153322D01*
X322044007Y-129271000D01*
X320612686Y-129271000D01*
X320680379Y-129393465D01*
X320748071Y-129515929D01*
X320748071Y-133071929D01*
X320680379Y-133194393D01*
X320612686Y-133316857D01*
X320283229Y-133316857D01*
X320143722Y-133176189D01*
X320105865Y-133137715D01*
X320069953Y-133100279D01*
X320034407Y-133061814D01*
X319997653Y-133020258D01*
X319958114Y-132973545D01*
X319914214Y-132919610D01*
X319864377Y-132856390D01*
X319807028Y-132781818D01*
X319740589Y-132693832D01*
X319663485Y-132590365D01*
X319574139Y-132469354D01*
X319470976Y-132328734D01*
X319352420Y-132166440D01*
X319216895Y-131980407D01*
X319062823Y-131768571D01*
X318936538Y-131594804D01*
X318778046Y-131376501D01*
X318639784Y-131185629D01*
X318520501Y-131020374D01*
X318418943Y-130878926D01*
X318333859Y-130759471D01*
X318263995Y-130660198D01*
X318208100Y-130579295D01*
X318164920Y-130514949D01*
X318133203Y-130465347D01*
X318111698Y-130428679D01*
X318099150Y-130403132D01*
X318094308Y-130386893D01*
X318095763Y-130378355D01*
X318113401Y-130355635D01*
X318151534Y-130307543D01*
X318207862Y-130236938D01*
X318280084Y-130146678D01*
X318365899Y-130039621D01*
X318463006Y-129918627D01*
X318569104Y-129786554D01*
X318681891Y-129646260D01*
X318799068Y-129500603D01*
X318918333Y-129352444D01*
X318983933Y-129271000D01*
X319037385Y-129204639D01*
X319153923Y-129060047D01*
X319265646Y-128921528D01*
X319370254Y-128791939D01*
X319465444Y-128674140D01*
X319548917Y-128570988D01*
X319618371Y-128485343D01*
X319671506Y-128420062D01*
X319702715Y-128382000D01*
X319823903Y-128239670D01*
X319940493Y-128111230D01*
X320048397Y-128000886D01*
X320143530Y-127912841D01*
X320211043Y-127858862D01*
X320290873Y-127801429D01*
X318454892Y-127801429D01*
X318455408Y-127909165D01*
X318450276Y-127988372D01*
X318430985Y-128061805D01*
X318401123Y-128131415D01*
X318381712Y-128170741D01*
X318360841Y-128209707D01*
X318336604Y-128250901D01*
X318307094Y-128296908D01*
X318270406Y-128350317D01*
X318224632Y-128413714D01*
X318167865Y-128489685D01*
X318098200Y-128580817D01*
X318013730Y-128689698D01*
X317912547Y-128818914D01*
X317792747Y-128971052D01*
X317652421Y-129148698D01*
X317636571Y-129168742D01*
X317083214Y-129868508D01*
X317077857Y-129093504D01*
X317076779Y-128861368D01*
X317077008Y-128664846D01*
X317078557Y-128503292D01*
X317081437Y-128376056D01*
X317085659Y-128282492D01*
X317091234Y-128221952D01*
X317093107Y-128210468D01*
X317122505Y-128089499D01*
X317161022Y-127980446D01*
X317204974Y-127892763D01*
X317231379Y-127855574D01*
X317276940Y-127801429D01*
X316412470Y-127801429D01*
X316206255Y-127801605D01*
X316033812Y-127802179D01*
X315892627Y-127803217D01*
X315780188Y-127804787D01*
X315693983Y-127806954D01*
X315631498Y-127809788D01*
X315590221Y-127813353D01*
X315567640Y-127817718D01*
X315561241Y-127822949D01*
X315561683Y-127824107D01*
X315580009Y-127851769D01*
X315610604Y-127895615D01*
X315626433Y-127917791D01*
X315642798Y-127939920D01*
X315657508Y-127959709D01*
X315670656Y-127979106D01*
X315682333Y-128000058D01*
X315692632Y-128024512D01*
X315701646Y-128054416D01*
X315709468Y-128091717D01*
X315716191Y-128138363D01*
X315721906Y-128196301D01*
X315726707Y-128267479D01*
X315730685Y-128353844D01*
X315733935Y-128457344D01*
X315736548Y-128579925D01*
X315738617Y-128723537D01*
X315740234Y-128890125D01*
X315741493Y-129081637D01*
X315742485Y-129300022D01*
X315743304Y-129547226D01*
X315744042Y-129825196D01*
X315744791Y-130135881D01*
X315745492Y-130421300D01*
X315746153Y-130739492D01*
X315746497Y-131043077D01*
X315746532Y-131330115D01*
X315746268Y-131598669D01*
X315745715Y-131846798D01*
X315744880Y-132072563D01*
X315743773Y-132274026D01*
X315742404Y-132449246D01*
X315740781Y-132596286D01*
X315738913Y-132713206D01*
X315736811Y-132798067D01*
X315734482Y-132848929D01*
X315734041Y-132854304D01*
X315717992Y-132977613D01*
X315692936Y-133076644D01*
X315654779Y-133163070D01*
X315599428Y-133248565D01*
X315592504Y-133257893D01*
X315548296Y-133316857D01*
X315064084Y-133316857D01*
X315063108Y-133209168D01*
X315061999Y-133024976D01*
X315061199Y-132816784D01*
X315060661Y-132583091D01*
X315060338Y-132322398D01*
X315060183Y-132033204D01*
X315060146Y-131714009D01*
X315060183Y-131363313D01*
X315060245Y-130979614D01*
X315060285Y-130561414D01*
X315060286Y-130478393D01*
X315060309Y-130055789D01*
X315060388Y-129667981D01*
X315060533Y-129313480D01*
X315060756Y-128990797D01*
X315061069Y-128698442D01*
X315061483Y-128434927D01*
X315062009Y-128198762D01*
X315062660Y-127988458D01*
X315063447Y-127802526D01*
X315064381Y-127639475D01*
X315065474Y-127497818D01*
X315066737Y-127376064D01*
X315068183Y-127272725D01*
X315069821Y-127186311D01*
X315071666Y-127115333D01*
X315073726Y-127058301D01*
X315076015Y-127013727D01*
X315078544Y-126980121D01*
X315081324Y-126955993D01*
X315084367Y-126939856D01*
X315087684Y-126930218D01*
X315087807Y-126929978D01*
X315094640Y-126915255D01*
X315100330Y-126901926D01*
X315106626Y-126889922D01*
X315115272Y-126879173D01*
X315128014Y-126869611D01*
X315146600Y-126861167D01*
X315172774Y-126853771D01*
X315208284Y-126847354D01*
X315254875Y-126841848D01*
X315314293Y-126837183D01*
X315388285Y-126833291D01*
X315478597Y-126830102D01*
X315586975Y-126827547D01*
X315715165Y-126825558D01*
X315864913Y-126824065D01*
X316037966Y-126822998D01*
X316236069Y-126822291D01*
X316460969Y-126821872D01*
X316714412Y-126821673D01*
X316998144Y-126821626D01*
X317313911Y-126821660D01*
G37*
D13*
%TO.C,J4*%
X134840000Y-155260000D02*
X134840000Y-154100000D01*
X135650000Y-155260000D02*
X134840000Y-155260000D01*
X136460000Y-152940000D02*
X142745000Y-152940000D01*
X136460000Y-153433292D02*
X136460000Y-152940000D01*
X136460000Y-155260000D02*
X136460000Y-154766708D01*
X136460000Y-155260000D02*
X142745000Y-155260000D01*
X142745000Y-153782077D02*
X142745000Y-152940000D01*
X142745000Y-155260000D02*
X142745000Y-154417923D01*
%TO.C,J7*%
X336133500Y-35970000D02*
X337463500Y-35970000D01*
X336133500Y-37300000D02*
X336133500Y-35970000D01*
X338733500Y-35970000D02*
X348953500Y-35970000D01*
X338733500Y-38630000D02*
X338733500Y-35970000D01*
X338733500Y-38630000D02*
X348953500Y-38630000D01*
X348953500Y-38630000D02*
X348953500Y-35970000D01*
%TD*%
%LPC*%
D14*
%TO.C,S6*%
X287000000Y-54400000D03*
%TD*%
D15*
%TO.C,J4*%
X135650000Y-154100000D03*
D16*
X136920000Y-154100000D03*
X138190000Y-154100000D03*
X139460000Y-154100000D03*
X140730000Y-154100000D03*
X142000000Y-154100000D03*
%TD*%
D14*
%TO.C,S7*%
X104030000Y-115500000D03*
%TD*%
D17*
%TO.C,S1*%
X103993750Y-150998050D03*
X204006250Y-150998050D03*
%TD*%
D18*
%TO.C,J7*%
X337463500Y-37300000D03*
D19*
X340003500Y-37300000D03*
X342543500Y-37300000D03*
X345083500Y-37300000D03*
X347623500Y-37300000D03*
%TD*%
D14*
%TO.C,S8*%
X256470000Y-115500000D03*
%TD*%
D20*
%TO.C,S4*%
X32593750Y-116663050D03*
D17*
X32593750Y-131903050D03*
D20*
X56406250Y-116663050D03*
D17*
X56406250Y-131903050D03*
%TD*%
D20*
%TO.C,S3*%
X277843750Y-59538050D03*
D17*
X277843750Y-74778050D03*
D20*
X301656250Y-59538050D03*
D17*
X301656250Y-74778050D03*
%TD*%
D14*
%TO.C,S5*%
X80200000Y-54700000D03*
%TD*%
D20*
%TO.C,S2*%
X275468750Y-97640000D03*
D17*
X275468750Y-112880000D03*
D20*
X299281250Y-97640000D03*
D17*
X299281250Y-112880000D03*
%TD*%
D21*
%TO.C,MX37*%
X94200000Y-85575000D03*
D17*
X99280000Y-85575000D03*
D21*
X104360000Y-85575000D03*
D22*
X103090000Y-88115000D03*
X96740000Y-90655000D03*
%TD*%
D21*
%TO.C,MX32*%
X34650000Y-104625000D03*
D17*
X39730000Y-104625000D03*
D21*
X44810000Y-104625000D03*
D22*
X43540000Y-107165000D03*
X37190000Y-109705000D03*
%TD*%
D21*
%TO.C,MX72*%
X268020000Y-123700000D03*
D17*
X273100000Y-123700000D03*
D21*
X278180000Y-123700000D03*
D22*
X276910000Y-126240000D03*
X270560000Y-128780000D03*
%TD*%
D21*
%TO.C,MX80*%
X279909824Y-147475000D03*
D17*
X284989824Y-147475000D03*
D21*
X290069824Y-147475000D03*
D22*
X288799824Y-150015000D03*
X282449824Y-152555000D03*
%TD*%
D21*
%TO.C,MX33*%
X56110000Y-85570000D03*
D17*
X61190000Y-85570000D03*
D21*
X66270000Y-85570000D03*
D22*
X65000000Y-88110000D03*
X58650000Y-90650000D03*
%TD*%
D21*
%TO.C,MX79*%
X256140000Y-142700000D03*
D17*
X261220000Y-142700000D03*
D21*
X266300000Y-142700000D03*
D22*
X265030000Y-145240000D03*
X258680000Y-147780000D03*
%TD*%
D21*
%TO.C,MX75*%
X77525000Y-142700000D03*
D17*
X82605000Y-142700000D03*
D21*
X87685000Y-142700000D03*
D22*
X86415000Y-145240000D03*
X80065000Y-147780000D03*
%TD*%
D21*
%TO.C,MX76*%
X148965000Y-142725000D03*
D17*
X154045000Y-142725000D03*
D21*
X159125000Y-142725000D03*
D22*
X157855000Y-145265000D03*
X151505000Y-147805000D03*
%TD*%
D21*
%TO.C,MX29*%
X284700000Y-66500000D03*
D17*
X289780000Y-66500000D03*
D21*
X294860000Y-66500000D03*
D22*
X293590000Y-69040000D03*
X287240000Y-71580000D03*
%TD*%
D21*
%TO.C,MX2*%
X51335000Y-42700000D03*
D17*
X56415000Y-42700000D03*
D21*
X61495000Y-42700000D03*
D22*
X60225000Y-45240000D03*
X53875000Y-47780000D03*
%TD*%
D21*
%TO.C,MX31*%
X32295000Y-85575000D03*
D17*
X37375000Y-85575000D03*
D21*
X42455000Y-85575000D03*
D22*
X41185000Y-88115000D03*
X34835000Y-90655000D03*
%TD*%
D23*
%TO.C,SW1*%
X24750000Y-134750000D03*
X24750000Y-131750000D03*
%TD*%
D21*
%TO.C,MX64*%
X127545000Y-123675000D03*
D17*
X132625000Y-123675000D03*
D21*
X137705000Y-123675000D03*
D22*
X136435000Y-126215000D03*
X130085000Y-128755000D03*
%TD*%
D21*
%TO.C,MX42*%
X137070000Y-104625000D03*
D17*
X142150000Y-104625000D03*
D21*
X147230000Y-104625000D03*
D22*
X145960000Y-107165000D03*
X139610000Y-109705000D03*
%TD*%
D21*
%TO.C,MX66*%
X165625000Y-123675000D03*
D17*
X170705000Y-123675000D03*
D21*
X175785000Y-123675000D03*
D22*
X174515000Y-126215000D03*
X168165000Y-128755000D03*
%TD*%
D21*
%TO.C,MX57*%
X289460000Y-85560000D03*
D17*
X294540000Y-85560000D03*
D21*
X299620000Y-85560000D03*
D22*
X298350000Y-88100000D03*
X292000000Y-90640000D03*
%TD*%
D21*
%TO.C,MX22*%
X141795000Y-66525000D03*
D17*
X146875000Y-66525000D03*
D21*
X151955000Y-66525000D03*
D22*
X150685000Y-69065000D03*
X144335000Y-71605000D03*
%TD*%
D24*
%TO.C,J2*%
X175900000Y-148750000D03*
D25*
X177900000Y-148750000D03*
%TD*%
D21*
%TO.C,MX17*%
X46595000Y-66550000D03*
D17*
X51675000Y-66550000D03*
D21*
X56755000Y-66550000D03*
D22*
X55485000Y-69090000D03*
X49135000Y-71630000D03*
%TD*%
D21*
%TO.C,MX53*%
X246600000Y-85575000D03*
D17*
X251680000Y-85575000D03*
D21*
X256760000Y-85575000D03*
D22*
X255490000Y-88115000D03*
X249140000Y-90655000D03*
%TD*%
D21*
%TO.C,MX52*%
X232300000Y-104625000D03*
D17*
X237380000Y-104625000D03*
D21*
X242460000Y-104625000D03*
D22*
X241190000Y-107165000D03*
X234840000Y-109705000D03*
%TD*%
D21*
%TO.C,MX41*%
X132300000Y-85575000D03*
D17*
X137380000Y-85575000D03*
D21*
X142460000Y-85575000D03*
D22*
X141190000Y-88115000D03*
X134840000Y-90655000D03*
%TD*%
D21*
%TO.C,MX21*%
X122785000Y-66545000D03*
D17*
X127865000Y-66545000D03*
D21*
X132945000Y-66545000D03*
D22*
X131675000Y-69085000D03*
X125325000Y-71625000D03*
%TD*%
D21*
%TO.C,MX54*%
X251345000Y-104600000D03*
D17*
X256425000Y-104600000D03*
D21*
X261505000Y-104600000D03*
D22*
X260235000Y-107140000D03*
X253885000Y-109680000D03*
%TD*%
D21*
%TO.C,MX51*%
X227545000Y-85550000D03*
D17*
X232625000Y-85550000D03*
D21*
X237705000Y-85550000D03*
D22*
X236435000Y-88090000D03*
X230085000Y-90630000D03*
%TD*%
D21*
%TO.C,MX62*%
X89425000Y-123675000D03*
D17*
X94505000Y-123675000D03*
D21*
X99585000Y-123675000D03*
D22*
X98315000Y-126215000D03*
X91965000Y-128755000D03*
%TD*%
D21*
%TO.C,MX59*%
X318035000Y-85620000D03*
D17*
X323115000Y-85620000D03*
D21*
X328195000Y-85620000D03*
D22*
X326925000Y-88160000D03*
X320575000Y-90700000D03*
%TD*%
D21*
%TO.C,MX55*%
X265635000Y-85595000D03*
D17*
X270715000Y-85595000D03*
D21*
X275795000Y-85595000D03*
D22*
X274525000Y-88135000D03*
X268175000Y-90675000D03*
%TD*%
D21*
%TO.C,MX46*%
X175160000Y-104645000D03*
D17*
X180240000Y-104645000D03*
D21*
X185320000Y-104645000D03*
D22*
X184050000Y-107185000D03*
X177700000Y-109725000D03*
%TD*%
D21*
%TO.C,MX45*%
X170384824Y-85575000D03*
D17*
X175464824Y-85575000D03*
D21*
X180544824Y-85575000D03*
D22*
X179274824Y-88115000D03*
X172924824Y-90655000D03*
%TD*%
D21*
%TO.C,MX43*%
X151345000Y-85570000D03*
D17*
X156425000Y-85570000D03*
D21*
X161505000Y-85570000D03*
D22*
X160235000Y-88110000D03*
X153885000Y-90650000D03*
%TD*%
D21*
%TO.C,MX49*%
X208500000Y-85575000D03*
D17*
X213580000Y-85575000D03*
D21*
X218660000Y-85575000D03*
D22*
X217390000Y-88115000D03*
X211040000Y-90655000D03*
%TD*%
D21*
%TO.C,MX6*%
X132275000Y-42725000D03*
D17*
X137355000Y-42725000D03*
D21*
X142435000Y-42725000D03*
D22*
X141165000Y-45265000D03*
X134815000Y-47805000D03*
%TD*%
D21*
%TO.C,MX20*%
X103709824Y-66525000D03*
D17*
X108789824Y-66525000D03*
D21*
X113869824Y-66525000D03*
D22*
X112599824Y-69065000D03*
X106249824Y-71605000D03*
%TD*%
D21*
%TO.C,MX13*%
X270400000Y-42725000D03*
D17*
X275480000Y-42725000D03*
D21*
X280560000Y-42725000D03*
D22*
X279290000Y-45265000D03*
X272940000Y-47805000D03*
%TD*%
D21*
%TO.C,MX69*%
X222775000Y-123675000D03*
D17*
X227855000Y-123675000D03*
D21*
X232935000Y-123675000D03*
D22*
X231665000Y-126215000D03*
X225315000Y-128755000D03*
%TD*%
D21*
%TO.C,MX39*%
X113245000Y-85575000D03*
D17*
X118325000Y-85575000D03*
D21*
X123405000Y-85575000D03*
D22*
X122135000Y-88115000D03*
X115785000Y-90655000D03*
%TD*%
D21*
%TO.C,MX27*%
X237085000Y-66545000D03*
D17*
X242165000Y-66545000D03*
D21*
X247245000Y-66545000D03*
D22*
X245975000Y-69085000D03*
X239625000Y-71625000D03*
%TD*%
D26*
%TO.C,J1*%
X41610000Y-38050000D03*
X47390000Y-38050000D03*
D27*
X40180000Y-34400000D03*
D28*
X40180000Y-38580000D03*
D27*
X48820000Y-34400000D03*
D28*
X48820000Y-38580000D03*
%TD*%
D21*
%TO.C,MX73*%
X29900000Y-142725000D03*
D17*
X34980000Y-142725000D03*
D21*
X40060000Y-142725000D03*
D22*
X38790000Y-145265000D03*
X32440000Y-147805000D03*
%TD*%
D21*
%TO.C,MX28*%
X256145000Y-66550000D03*
D17*
X261225000Y-66550000D03*
D21*
X266305000Y-66550000D03*
D22*
X265035000Y-69090000D03*
X258685000Y-71630000D03*
%TD*%
D21*
%TO.C,MX5*%
X108475000Y-42700000D03*
D17*
X113555000Y-42700000D03*
D21*
X118635000Y-42700000D03*
D22*
X117365000Y-45240000D03*
X111015000Y-47780000D03*
%TD*%
D21*
%TO.C,MX8*%
X170409824Y-42700000D03*
D17*
X175489824Y-42700000D03*
D21*
X180569824Y-42700000D03*
D22*
X179299824Y-45240000D03*
X172949824Y-47780000D03*
%TD*%
D21*
%TO.C,MX4*%
X89450000Y-42700000D03*
D17*
X94530000Y-42700000D03*
D21*
X99610000Y-42700000D03*
D22*
X98340000Y-45240000D03*
X91990000Y-47780000D03*
%TD*%
D21*
%TO.C,MX25*%
X198984824Y-66525000D03*
D17*
X204064824Y-66525000D03*
D21*
X209144824Y-66525000D03*
D22*
X207874824Y-69065000D03*
X201524824Y-71605000D03*
%TD*%
D21*
%TO.C,MX16*%
X27525000Y-66525000D03*
D17*
X32605000Y-66525000D03*
D21*
X37685000Y-66525000D03*
D22*
X36415000Y-69065000D03*
X30065000Y-71605000D03*
%TD*%
D21*
%TO.C,MX63*%
X108485000Y-123670000D03*
D17*
X113565000Y-123670000D03*
D21*
X118645000Y-123670000D03*
D22*
X117375000Y-126210000D03*
X111025000Y-128750000D03*
%TD*%
D21*
%TO.C,MX19*%
X84684824Y-66525000D03*
D17*
X89764824Y-66525000D03*
D21*
X94844824Y-66525000D03*
D22*
X93574824Y-69065000D03*
X87224824Y-71605000D03*
%TD*%
D21*
%TO.C,MX9*%
X189465000Y-42700000D03*
D17*
X194545000Y-42700000D03*
D21*
X199625000Y-42700000D03*
D22*
X198355000Y-45240000D03*
X192005000Y-47780000D03*
%TD*%
D21*
%TO.C,MX81*%
X298975000Y-147500000D03*
D17*
X304055000Y-147500000D03*
D21*
X309135000Y-147500000D03*
D22*
X307865000Y-150040000D03*
X301515000Y-152580000D03*
%TD*%
D21*
%TO.C,MX40*%
X118009824Y-104625000D03*
D17*
X123089824Y-104625000D03*
D21*
X128169824Y-104625000D03*
D22*
X126899824Y-107165000D03*
X120549824Y-109705000D03*
%TD*%
D21*
%TO.C,MX74*%
X53700000Y-142725000D03*
D17*
X58780000Y-142725000D03*
D21*
X63860000Y-142725000D03*
D22*
X62590000Y-145265000D03*
X56240000Y-147805000D03*
%TD*%
D21*
%TO.C,MX67*%
X184670000Y-123675000D03*
D17*
X189750000Y-123675000D03*
D21*
X194830000Y-123675000D03*
D22*
X193560000Y-126215000D03*
X187210000Y-128755000D03*
%TD*%
D21*
%TO.C,MX68*%
X203750000Y-123700000D03*
D17*
X208830000Y-123700000D03*
D21*
X213910000Y-123700000D03*
D22*
X212640000Y-126240000D03*
X206290000Y-128780000D03*
%TD*%
D21*
%TO.C,MX30*%
X318035000Y-66520000D03*
D17*
X323115000Y-66520000D03*
D21*
X328195000Y-66520000D03*
D22*
X326925000Y-69060000D03*
X320575000Y-71600000D03*
%TD*%
D21*
%TO.C,MX58*%
X318009824Y-104625000D03*
D17*
X323089824Y-104625000D03*
D21*
X328169824Y-104625000D03*
D22*
X326899824Y-107165000D03*
X320549824Y-109705000D03*
%TD*%
D21*
%TO.C,MX65*%
X146575000Y-123675000D03*
D17*
X151655000Y-123675000D03*
D21*
X156735000Y-123675000D03*
D22*
X155465000Y-126215000D03*
X149115000Y-128755000D03*
%TD*%
D21*
%TO.C,MX24*%
X179909824Y-66525000D03*
D17*
X184989824Y-66525000D03*
D21*
X190069824Y-66525000D03*
D22*
X188799824Y-69065000D03*
X182449824Y-71605000D03*
%TD*%
D21*
%TO.C,MX35*%
X75160000Y-85560000D03*
D17*
X80240000Y-85560000D03*
D21*
X85320000Y-85560000D03*
D22*
X84050000Y-88100000D03*
X77700000Y-90640000D03*
%TD*%
D21*
%TO.C,MX34*%
X60860000Y-104620000D03*
D17*
X65940000Y-104620000D03*
D21*
X71020000Y-104620000D03*
D22*
X69750000Y-107160000D03*
X63400000Y-109700000D03*
%TD*%
D21*
%TO.C,MX1*%
X27510000Y-42710000D03*
D17*
X32590000Y-42710000D03*
D21*
X37670000Y-42710000D03*
D22*
X36400000Y-45250000D03*
X30050000Y-47790000D03*
%TD*%
D21*
%TO.C,MX14*%
X294225000Y-42725000D03*
D17*
X299305000Y-42725000D03*
D21*
X304385000Y-42725000D03*
D22*
X303115000Y-45265000D03*
X296765000Y-47805000D03*
%TD*%
D21*
%TO.C,MX47*%
X189460000Y-85595000D03*
D17*
X194540000Y-85595000D03*
D21*
X199620000Y-85595000D03*
D22*
X198350000Y-88135000D03*
X192000000Y-90675000D03*
%TD*%
D21*
%TO.C,MX77*%
X218025000Y-142725000D03*
D17*
X223105000Y-142725000D03*
D21*
X228185000Y-142725000D03*
D22*
X226915000Y-145265000D03*
X220565000Y-147805000D03*
%TD*%
D21*
%TO.C,MX23*%
X160870000Y-66525000D03*
D17*
X165950000Y-66525000D03*
D21*
X171030000Y-66525000D03*
D22*
X169760000Y-69065000D03*
X163410000Y-71605000D03*
%TD*%
D21*
%TO.C,MX48*%
X194210000Y-104620000D03*
D17*
X199290000Y-104620000D03*
D21*
X204370000Y-104620000D03*
D22*
X203100000Y-107160000D03*
X196750000Y-109700000D03*
%TD*%
D21*
%TO.C,MX38*%
X98984824Y-104625000D03*
D17*
X104064824Y-104625000D03*
D21*
X109144824Y-104625000D03*
D22*
X107874824Y-107165000D03*
X101524824Y-109705000D03*
%TD*%
D21*
%TO.C,MX82*%
X318025000Y-147525000D03*
D17*
X323105000Y-147525000D03*
D21*
X328185000Y-147525000D03*
D22*
X326915000Y-150065000D03*
X320565000Y-152605000D03*
%TD*%
D21*
%TO.C,MX12*%
X251375000Y-42725000D03*
D17*
X256455000Y-42725000D03*
D21*
X261535000Y-42725000D03*
D22*
X260265000Y-45265000D03*
X253915000Y-47805000D03*
%TD*%
D21*
%TO.C,MX70*%
X241865000Y-123675000D03*
D17*
X246945000Y-123675000D03*
D21*
X252025000Y-123675000D03*
D22*
X250755000Y-126215000D03*
X244405000Y-128755000D03*
%TD*%
D21*
%TO.C,MX11*%
X232310000Y-42720000D03*
D17*
X237390000Y-42720000D03*
D21*
X242470000Y-42720000D03*
D22*
X241200000Y-45260000D03*
X234850000Y-47800000D03*
%TD*%
D21*
%TO.C,MX78*%
X237075000Y-142700000D03*
D17*
X242155000Y-142700000D03*
D21*
X247235000Y-142700000D03*
D22*
X245965000Y-145240000D03*
X239615000Y-147780000D03*
%TD*%
D21*
%TO.C,MX3*%
X70385000Y-42695000D03*
D17*
X75465000Y-42695000D03*
D21*
X80545000Y-42695000D03*
D22*
X79275000Y-45235000D03*
X72925000Y-47775000D03*
%TD*%
D21*
%TO.C,MX26*%
X218025000Y-66550000D03*
D17*
X223105000Y-66550000D03*
D21*
X228185000Y-66550000D03*
D22*
X226915000Y-69090000D03*
X220565000Y-71630000D03*
%TD*%
D21*
%TO.C,MX7*%
X151345000Y-42725000D03*
D17*
X156425000Y-42725000D03*
D21*
X161505000Y-42725000D03*
D22*
X160235000Y-45265000D03*
X153885000Y-47805000D03*
%TD*%
D21*
%TO.C,MX56*%
X282300000Y-104625000D03*
D17*
X287380000Y-104625000D03*
D21*
X292460000Y-104625000D03*
D22*
X291190000Y-107165000D03*
X284840000Y-109705000D03*
%TD*%
D21*
%TO.C,MX71*%
X298960000Y-128435000D03*
D17*
X304040000Y-128435000D03*
D21*
X309120000Y-128435000D03*
D22*
X307850000Y-130975000D03*
X301500000Y-133515000D03*
%TD*%
D21*
%TO.C,MX18*%
X65625000Y-66545000D03*
D17*
X70705000Y-66545000D03*
D21*
X75785000Y-66545000D03*
D22*
X74515000Y-69085000D03*
X68165000Y-71625000D03*
%TD*%
D21*
%TO.C,MX61*%
X70385000Y-123670000D03*
D17*
X75465000Y-123670000D03*
D21*
X80545000Y-123670000D03*
D22*
X79275000Y-126210000D03*
X72925000Y-128750000D03*
%TD*%
D21*
%TO.C,MX50*%
X213275000Y-104625000D03*
D17*
X218355000Y-104625000D03*
D21*
X223435000Y-104625000D03*
D22*
X222165000Y-107165000D03*
X215815000Y-109705000D03*
%TD*%
D21*
%TO.C,MX60*%
X39400000Y-123700000D03*
D17*
X44480000Y-123700000D03*
D21*
X49560000Y-123700000D03*
D22*
X48290000Y-126240000D03*
X41940000Y-128780000D03*
%TD*%
D21*
%TO.C,MX36*%
X79910000Y-104635000D03*
D17*
X84990000Y-104635000D03*
D21*
X90070000Y-104635000D03*
D22*
X88800000Y-107175000D03*
X82450000Y-109715000D03*
%TD*%
D21*
%TO.C,MX15*%
X318025000Y-42725000D03*
D17*
X323105000Y-42725000D03*
D21*
X328185000Y-42725000D03*
D22*
X326915000Y-45265000D03*
X320565000Y-47805000D03*
%TD*%
D21*
%TO.C,MX10*%
X213275000Y-42700000D03*
D17*
X218355000Y-42700000D03*
D21*
X223435000Y-42700000D03*
D22*
X222165000Y-45240000D03*
X215815000Y-47780000D03*
%TD*%
D21*
%TO.C,MX44*%
X156100000Y-104625000D03*
D17*
X161180000Y-104625000D03*
D21*
X166260000Y-104625000D03*
D22*
X164990000Y-107165000D03*
X158640000Y-109705000D03*
%TD*%
%LPD*%
M02*
