%TF.GenerationSoftware,KiCad,Pcbnew,9.0.6*%
%TF.CreationDate,2026-02-23T12:32:57-05:00*%
%TF.ProjectId,Freedom,46726565-646f-46d2-9e6b-696361645f70,rev?*%
%TF.SameCoordinates,Original*%
%TF.FileFunction,Soldermask,Top*%
%TF.FilePolarity,Negative*%
%FSLAX46Y46*%
G04 Gerber Fmt 4.6, Leading zero omitted, Abs format (unit mm)*
G04 Created by KiCad (PCBNEW 9.0.6) date 2026-02-23 12:32:57*
%MOMM*%
%LPD*%
G01*
G04 APERTURE LIST*
G04 Aperture macros list*
%AMRoundRect*
0 Rectangle with rounded corners*
0 $1 Rounding radius*
0 $2 $3 $4 $5 $6 $7 $8 $9 X,Y pos of 4 corners*
0 Add a 4 corners polygon primitive as box body*
4,1,4,$2,$3,$4,$5,$6,$7,$8,$9,$2,$3,0*
0 Add four circle primitives for the rounded corners*
1,1,$1+$1,$2,$3*
1,1,$1+$1,$4,$5*
1,1,$1+$1,$6,$7*
1,1,$1+$1,$8,$9*
0 Add four rect primitives between the rounded corners*
20,1,$1+$1,$2,$3,$4,$5,0*
20,1,$1+$1,$4,$5,$6,$7,0*
20,1,$1+$1,$6,$7,$8,$9,0*
20,1,$1+$1,$8,$9,$2,$3,0*%
G04 Aperture macros list end*
%ADD10R,1.000000X1.000000*%
%ADD11C,1.000000*%
%ADD12R,1.700000X1.700000*%
%ADD13C,1.700000*%
%ADD14C,3.300000*%
%ADD15RoundRect,0.250000X-0.350000X-0.625000X0.350000X-0.625000X0.350000X0.625000X-0.350000X0.625000X0*%
%ADD16O,1.200000X1.750000*%
%ADD17O,1.000000X1.600000*%
%ADD18O,1.000000X2.100000*%
G04 APERTURE END LIST*
D10*
%TO.C,J4*%
X135650000Y-154100000D03*
D11*
X136920000Y-154100000D03*
X138190000Y-154100000D03*
X139460000Y-154100000D03*
X140730000Y-154100000D03*
X142000000Y-154100000D03*
%TD*%
D12*
%TO.C,J7*%
X337463500Y-37300000D03*
D13*
X340003500Y-37300000D03*
X342543500Y-37300000D03*
X345083500Y-37300000D03*
X347623500Y-37300000D03*
%TD*%
D14*
%TO.C,MX37*%
X103090000Y-88115000D03*
X96740000Y-90655000D03*
%TD*%
%TO.C,MX32*%
X43540000Y-107165000D03*
X37190000Y-109705000D03*
%TD*%
%TO.C,MX72*%
X276910000Y-126240000D03*
X270560000Y-128780000D03*
%TD*%
%TO.C,MX80*%
X288799824Y-150015000D03*
X282449824Y-152555000D03*
%TD*%
%TO.C,MX33*%
X65000000Y-88110000D03*
X58650000Y-90650000D03*
%TD*%
%TO.C,MX79*%
X265030000Y-145240000D03*
X258680000Y-147780000D03*
%TD*%
%TO.C,MX75*%
X86415000Y-145240000D03*
X80065000Y-147780000D03*
%TD*%
%TO.C,MX76*%
X157855000Y-145265000D03*
X151505000Y-147805000D03*
%TD*%
%TO.C,MX29*%
X293590000Y-69040000D03*
X287240000Y-71580000D03*
%TD*%
%TO.C,MX2*%
X60225000Y-45240000D03*
X53875000Y-47780000D03*
%TD*%
%TO.C,MX31*%
X41185000Y-88115000D03*
X34835000Y-90655000D03*
%TD*%
%TO.C,MX64*%
X136435000Y-126215000D03*
X130085000Y-128755000D03*
%TD*%
%TO.C,MX42*%
X145960000Y-107165000D03*
X139610000Y-109705000D03*
%TD*%
%TO.C,MX66*%
X174515000Y-126215000D03*
X168165000Y-128755000D03*
%TD*%
%TO.C,MX57*%
X298350000Y-88100000D03*
X292000000Y-90640000D03*
%TD*%
%TO.C,MX22*%
X150685000Y-69065000D03*
X144335000Y-71605000D03*
%TD*%
D15*
%TO.C,J2*%
X175900000Y-148750000D03*
D16*
X177900000Y-148750000D03*
%TD*%
D14*
%TO.C,MX17*%
X55485000Y-69090000D03*
X49135000Y-71630000D03*
%TD*%
%TO.C,MX53*%
X255490000Y-88115000D03*
X249140000Y-90655000D03*
%TD*%
%TO.C,MX52*%
X241190000Y-107165000D03*
X234840000Y-109705000D03*
%TD*%
%TO.C,MX41*%
X141190000Y-88115000D03*
X134840000Y-90655000D03*
%TD*%
%TO.C,MX21*%
X131675000Y-69085000D03*
X125325000Y-71625000D03*
%TD*%
%TO.C,MX54*%
X260235000Y-107140000D03*
X253885000Y-109680000D03*
%TD*%
%TO.C,MX51*%
X236435000Y-88090000D03*
X230085000Y-90630000D03*
%TD*%
%TO.C,MX62*%
X98315000Y-126215000D03*
X91965000Y-128755000D03*
%TD*%
%TO.C,MX59*%
X326925000Y-88160000D03*
X320575000Y-90700000D03*
%TD*%
%TO.C,MX55*%
X274525000Y-88135000D03*
X268175000Y-90675000D03*
%TD*%
%TO.C,MX46*%
X184050000Y-107185000D03*
X177700000Y-109725000D03*
%TD*%
%TO.C,MX45*%
X179274824Y-88115000D03*
X172924824Y-90655000D03*
%TD*%
%TO.C,MX43*%
X160235000Y-88110000D03*
X153885000Y-90650000D03*
%TD*%
%TO.C,MX49*%
X217390000Y-88115000D03*
X211040000Y-90655000D03*
%TD*%
%TO.C,MX6*%
X141165000Y-45265000D03*
X134815000Y-47805000D03*
%TD*%
%TO.C,MX20*%
X112599824Y-69065000D03*
X106249824Y-71605000D03*
%TD*%
%TO.C,MX13*%
X279290000Y-45265000D03*
X272940000Y-47805000D03*
%TD*%
%TO.C,MX69*%
X231665000Y-126215000D03*
X225315000Y-128755000D03*
%TD*%
%TO.C,MX39*%
X122135000Y-88115000D03*
X115785000Y-90655000D03*
%TD*%
%TO.C,MX27*%
X245975000Y-69085000D03*
X239625000Y-71625000D03*
%TD*%
D17*
%TO.C,J1*%
X40180000Y-34400000D03*
D18*
X40180000Y-38580000D03*
D17*
X48820000Y-34400000D03*
D18*
X48820000Y-38580000D03*
%TD*%
D14*
%TO.C,MX73*%
X38790000Y-145265000D03*
X32440000Y-147805000D03*
%TD*%
%TO.C,MX28*%
X265035000Y-69090000D03*
X258685000Y-71630000D03*
%TD*%
%TO.C,MX5*%
X117365000Y-45240000D03*
X111015000Y-47780000D03*
%TD*%
%TO.C,MX8*%
X179299824Y-45240000D03*
X172949824Y-47780000D03*
%TD*%
%TO.C,MX4*%
X98340000Y-45240000D03*
X91990000Y-47780000D03*
%TD*%
%TO.C,MX25*%
X207874824Y-69065000D03*
X201524824Y-71605000D03*
%TD*%
%TO.C,MX16*%
X36415000Y-69065000D03*
X30065000Y-71605000D03*
%TD*%
%TO.C,MX63*%
X117375000Y-126210000D03*
X111025000Y-128750000D03*
%TD*%
%TO.C,MX19*%
X93574824Y-69065000D03*
X87224824Y-71605000D03*
%TD*%
%TO.C,MX9*%
X198355000Y-45240000D03*
X192005000Y-47780000D03*
%TD*%
%TO.C,MX81*%
X307865000Y-150040000D03*
X301515000Y-152580000D03*
%TD*%
%TO.C,MX40*%
X126899824Y-107165000D03*
X120549824Y-109705000D03*
%TD*%
%TO.C,MX74*%
X62590000Y-145265000D03*
X56240000Y-147805000D03*
%TD*%
%TO.C,MX67*%
X193560000Y-126215000D03*
X187210000Y-128755000D03*
%TD*%
%TO.C,MX68*%
X212640000Y-126240000D03*
X206290000Y-128780000D03*
%TD*%
%TO.C,MX30*%
X326925000Y-69060000D03*
X320575000Y-71600000D03*
%TD*%
%TO.C,MX58*%
X326899824Y-107165000D03*
X320549824Y-109705000D03*
%TD*%
%TO.C,MX65*%
X155465000Y-126215000D03*
X149115000Y-128755000D03*
%TD*%
%TO.C,MX24*%
X188799824Y-69065000D03*
X182449824Y-71605000D03*
%TD*%
%TO.C,MX35*%
X84050000Y-88100000D03*
X77700000Y-90640000D03*
%TD*%
%TO.C,MX34*%
X69750000Y-107160000D03*
X63400000Y-109700000D03*
%TD*%
%TO.C,MX1*%
X36400000Y-45250000D03*
X30050000Y-47790000D03*
%TD*%
%TO.C,MX14*%
X303115000Y-45265000D03*
X296765000Y-47805000D03*
%TD*%
%TO.C,MX47*%
X198350000Y-88135000D03*
X192000000Y-90675000D03*
%TD*%
%TO.C,MX77*%
X226915000Y-145265000D03*
X220565000Y-147805000D03*
%TD*%
%TO.C,MX23*%
X169760000Y-69065000D03*
X163410000Y-71605000D03*
%TD*%
%TO.C,MX48*%
X203100000Y-107160000D03*
X196750000Y-109700000D03*
%TD*%
%TO.C,MX38*%
X107874824Y-107165000D03*
X101524824Y-109705000D03*
%TD*%
%TO.C,MX82*%
X326915000Y-150065000D03*
X320565000Y-152605000D03*
%TD*%
%TO.C,MX12*%
X260265000Y-45265000D03*
X253915000Y-47805000D03*
%TD*%
%TO.C,MX70*%
X250755000Y-126215000D03*
X244405000Y-128755000D03*
%TD*%
%TO.C,MX11*%
X241200000Y-45260000D03*
X234850000Y-47800000D03*
%TD*%
%TO.C,MX78*%
X245965000Y-145240000D03*
X239615000Y-147780000D03*
%TD*%
%TO.C,MX3*%
X79275000Y-45235000D03*
X72925000Y-47775000D03*
%TD*%
%TO.C,MX26*%
X226915000Y-69090000D03*
X220565000Y-71630000D03*
%TD*%
%TO.C,MX7*%
X160235000Y-45265000D03*
X153885000Y-47805000D03*
%TD*%
%TO.C,MX56*%
X291190000Y-107165000D03*
X284840000Y-109705000D03*
%TD*%
%TO.C,MX71*%
X307850000Y-130975000D03*
X301500000Y-133515000D03*
%TD*%
%TO.C,MX18*%
X74515000Y-69085000D03*
X68165000Y-71625000D03*
%TD*%
%TO.C,MX61*%
X79275000Y-126210000D03*
X72925000Y-128750000D03*
%TD*%
%TO.C,MX50*%
X222165000Y-107165000D03*
X215815000Y-109705000D03*
%TD*%
%TO.C,MX60*%
X48290000Y-126240000D03*
X41940000Y-128780000D03*
%TD*%
%TO.C,MX36*%
X88800000Y-107175000D03*
X82450000Y-109715000D03*
%TD*%
%TO.C,MX15*%
X326915000Y-45265000D03*
X320565000Y-47805000D03*
%TD*%
%TO.C,MX10*%
X222165000Y-45240000D03*
X215815000Y-47780000D03*
%TD*%
%TO.C,MX44*%
X164990000Y-107165000D03*
X158640000Y-109705000D03*
%TD*%
M02*
