%TF.GenerationSoftware,KiCad,Pcbnew,9.0.6*%
%TF.CreationDate,2026-02-23T12:32:57-05:00*%
%TF.ProjectId,Freedom,46726565-646f-46d2-9e6b-696361645f70,rev?*%
%TF.SameCoordinates,Original*%
%TF.FileFunction,Profile,NP*%
%FSLAX46Y46*%
G04 Gerber Fmt 4.6, Leading zero omitted, Abs format (unit mm)*
G04 Created by KiCad (PCBNEW 9.0.6) date 2026-02-23 12:32:57*
%MOMM*%
%LPD*%
G01*
G04 APERTURE LIST*
%TA.AperFunction,Profile*%
%ADD10C,0.050000*%
%TD*%
%TA.AperFunction,Profile*%
%ADD11C,0.100000*%
%TD*%
G04 APERTURE END LIST*
D10*
X349650000Y-155025000D02*
G75*
G02*
X347650000Y-157025000I-2000000J0D01*
G01*
X347650000Y-33200000D02*
G75*
G02*
X349650000Y-35200000I0J-2000000D01*
G01*
X25075000Y-157025000D02*
G75*
G02*
X23075000Y-155025000I0J2000000D01*
G01*
X25075000Y-33200000D02*
X347650000Y-33200000D01*
X349650000Y-35200000D02*
X349650000Y-155025000D01*
X23075000Y-155025000D02*
X23075000Y-35200000D01*
X347650000Y-157025000D02*
X25075000Y-157025000D01*
X23075000Y-35200000D02*
G75*
G02*
X25075000Y-33200000I2000000J0D01*
G01*
D11*
%TO.C,LED1*%
X30900001Y-38352843D02*
X30900001Y-36947159D01*
X31805548Y-36150001D02*
X33394452Y-36150001D01*
X33394452Y-39150000D02*
X31805547Y-39150000D01*
X34299999Y-36947159D02*
X34299999Y-38352843D01*
X30850516Y-36730281D02*
G75*
G02*
X30900001Y-36947159I-450505J-216876D01*
G01*
X30850516Y-36730282D02*
G75*
G02*
X31553289Y-36081702I450514J216880D01*
G01*
X30900001Y-38352844D02*
G75*
G02*
X30850516Y-38569721I-499990J-1D01*
G01*
X31553289Y-39218299D02*
G75*
G02*
X30850516Y-38569721I-252258J431701D01*
G01*
X31553289Y-39218299D02*
G75*
G02*
X31805547Y-39150000I252261J-431710D01*
G01*
X31805548Y-36150001D02*
G75*
G02*
X31553289Y-36081702I2J500009D01*
G01*
X33394453Y-39150001D02*
G75*
G02*
X33646711Y-39218300I-3J-500009D01*
G01*
X33646710Y-36081702D02*
G75*
G02*
X33394452Y-36150000I-252260J431712D01*
G01*
X33646711Y-36081704D02*
G75*
G02*
X34349480Y-36730279I252259J-431696D01*
G01*
X34299999Y-36947158D02*
G75*
G02*
X34349483Y-36730281I500361J-82D01*
G01*
X34349484Y-38569721D02*
G75*
G02*
X33646711Y-39218300I-450514J-216879D01*
G01*
X34349484Y-38569721D02*
G75*
G02*
X34300024Y-38352843I450516J216821D01*
G01*
%TO.C,LED60*%
X245275001Y-119352843D02*
X245275001Y-117947159D01*
X246180548Y-117150001D02*
X247769452Y-117150001D01*
X247769452Y-120150000D02*
X246180547Y-120150000D01*
X248674999Y-117947159D02*
X248674999Y-119352843D01*
X245225516Y-117730281D02*
G75*
G02*
X245275001Y-117947159I-450505J-216876D01*
G01*
X245225516Y-117730282D02*
G75*
G02*
X245928289Y-117081702I450514J216880D01*
G01*
X245275001Y-119352844D02*
G75*
G02*
X245225516Y-119569721I-499990J-1D01*
G01*
X245928289Y-120218299D02*
G75*
G02*
X245225516Y-119569721I-252258J431701D01*
G01*
X245928289Y-120218299D02*
G75*
G02*
X246180547Y-120150000I252261J-431710D01*
G01*
X246180548Y-117150001D02*
G75*
G02*
X245928289Y-117081702I2J500009D01*
G01*
X247769453Y-120150001D02*
G75*
G02*
X248021711Y-120218300I-3J-500009D01*
G01*
X248021710Y-117081702D02*
G75*
G02*
X247769452Y-117150000I-252260J431712D01*
G01*
X248021711Y-117081704D02*
G75*
G02*
X248724480Y-117730279I252259J-431696D01*
G01*
X248674999Y-117947158D02*
G75*
G02*
X248724483Y-117730281I500361J-82D01*
G01*
X248724484Y-119569721D02*
G75*
G02*
X248021711Y-120218300I-450514J-216879D01*
G01*
X248724484Y-119569721D02*
G75*
G02*
X248675024Y-119352843I450516J216821D01*
G01*
%TO.C,LED57*%
X269050001Y-81202843D02*
X269050001Y-79797159D01*
X269955548Y-79000001D02*
X271544452Y-79000001D01*
X271544452Y-82000000D02*
X269955547Y-82000000D01*
X272449999Y-79797159D02*
X272449999Y-81202843D01*
X269000516Y-79580281D02*
G75*
G02*
X269050001Y-79797159I-450505J-216876D01*
G01*
X269000516Y-79580282D02*
G75*
G02*
X269703289Y-78931702I450514J216880D01*
G01*
X269050001Y-81202844D02*
G75*
G02*
X269000516Y-81419721I-499990J-1D01*
G01*
X269703289Y-82068299D02*
G75*
G02*
X269000516Y-81419721I-252258J431701D01*
G01*
X269703289Y-82068299D02*
G75*
G02*
X269955547Y-82000000I252261J-431710D01*
G01*
X269955548Y-79000001D02*
G75*
G02*
X269703289Y-78931702I2J500009D01*
G01*
X271544453Y-82000001D02*
G75*
G02*
X271796711Y-82068300I-3J-500009D01*
G01*
X271796710Y-78931702D02*
G75*
G02*
X271544452Y-79000000I-252260J431712D01*
G01*
X271796711Y-78931704D02*
G75*
G02*
X272499480Y-79580279I252259J-431696D01*
G01*
X272449999Y-79797158D02*
G75*
G02*
X272499483Y-79580281I500361J-82D01*
G01*
X272499484Y-81419721D02*
G75*
G02*
X271796711Y-82068300I-450514J-216879D01*
G01*
X272499484Y-81419721D02*
G75*
G02*
X272450024Y-81202843I450516J216821D01*
G01*
%TO.C,LED42*%
X83320001Y-100252843D02*
X83320001Y-98847159D01*
X84225548Y-98050001D02*
X85814452Y-98050001D01*
X85814452Y-101050000D02*
X84225547Y-101050000D01*
X86719999Y-98847159D02*
X86719999Y-100252843D01*
X83270516Y-98630281D02*
G75*
G02*
X83320001Y-98847159I-450505J-216876D01*
G01*
X83270516Y-98630282D02*
G75*
G02*
X83973289Y-97981702I450514J216880D01*
G01*
X83320001Y-100252844D02*
G75*
G02*
X83270516Y-100469721I-499990J-1D01*
G01*
X83973289Y-101118299D02*
G75*
G02*
X83270516Y-100469721I-252258J431701D01*
G01*
X83973289Y-101118299D02*
G75*
G02*
X84225547Y-101050000I252261J-431710D01*
G01*
X84225548Y-98050001D02*
G75*
G02*
X83973289Y-97981702I2J500009D01*
G01*
X85814453Y-101050001D02*
G75*
G02*
X86066711Y-101118300I-3J-500009D01*
G01*
X86066710Y-97981702D02*
G75*
G02*
X85814452Y-98050000I-252260J431712D01*
G01*
X86066711Y-97981704D02*
G75*
G02*
X86769480Y-98630279I252259J-431696D01*
G01*
X86719999Y-98847158D02*
G75*
G02*
X86769483Y-98630281I500361J-82D01*
G01*
X86769484Y-100469721D02*
G75*
G02*
X86066711Y-101118300I-450514J-216879D01*
G01*
X86769484Y-100469721D02*
G75*
G02*
X86720024Y-100252843I450516J216821D01*
G01*
%TO.C,LED80*%
X259525001Y-138352843D02*
X259525001Y-136947159D01*
X260430548Y-136150001D02*
X262019452Y-136150001D01*
X262019452Y-139150000D02*
X260430547Y-139150000D01*
X262924999Y-136947159D02*
X262924999Y-138352843D01*
X259475516Y-136730281D02*
G75*
G02*
X259525001Y-136947159I-450505J-216876D01*
G01*
X259475516Y-136730282D02*
G75*
G02*
X260178289Y-136081702I450514J216880D01*
G01*
X259525001Y-138352844D02*
G75*
G02*
X259475516Y-138569721I-499990J-1D01*
G01*
X260178289Y-139218299D02*
G75*
G02*
X259475516Y-138569721I-252258J431701D01*
G01*
X260178289Y-139218299D02*
G75*
G02*
X260430547Y-139150000I252261J-431710D01*
G01*
X260430548Y-136150001D02*
G75*
G02*
X260178289Y-136081702I2J500009D01*
G01*
X262019453Y-139150001D02*
G75*
G02*
X262271711Y-139218300I-3J-500009D01*
G01*
X262271710Y-136081702D02*
G75*
G02*
X262019452Y-136150000I-252260J431712D01*
G01*
X262271711Y-136081704D02*
G75*
G02*
X262974480Y-136730279I252259J-431696D01*
G01*
X262924999Y-136947158D02*
G75*
G02*
X262974483Y-136730281I500361J-82D01*
G01*
X262974484Y-138569721D02*
G75*
G02*
X262271711Y-139218300I-450514J-216879D01*
G01*
X262974484Y-138569721D02*
G75*
G02*
X262925024Y-138352843I450516J216821D01*
G01*
%TO.C,LED41*%
X192861112Y-81252843D02*
X192861112Y-79847159D01*
X193766659Y-79050001D02*
X195355563Y-79050001D01*
X195355563Y-82050000D02*
X193766658Y-82050000D01*
X196261110Y-79847159D02*
X196261110Y-81252843D01*
X192811627Y-79630281D02*
G75*
G02*
X192861112Y-79847159I-450505J-216876D01*
G01*
X192811627Y-79630282D02*
G75*
G02*
X193514400Y-78981702I450514J216880D01*
G01*
X192861112Y-81252844D02*
G75*
G02*
X192811627Y-81469721I-499990J-1D01*
G01*
X193514400Y-82118299D02*
G75*
G02*
X192811627Y-81469721I-252258J431701D01*
G01*
X193514400Y-82118299D02*
G75*
G02*
X193766658Y-82050000I252261J-431710D01*
G01*
X193766659Y-79050001D02*
G75*
G02*
X193514400Y-78981702I2J500009D01*
G01*
X195355564Y-82050001D02*
G75*
G02*
X195607822Y-82118300I-3J-500009D01*
G01*
X195607821Y-78981702D02*
G75*
G02*
X195355563Y-79050000I-252260J431712D01*
G01*
X195607822Y-78981704D02*
G75*
G02*
X196310591Y-79630279I252259J-431696D01*
G01*
X196261110Y-79847158D02*
G75*
G02*
X196310594Y-79630281I500361J-82D01*
G01*
X196310595Y-81469721D02*
G75*
G02*
X195607822Y-82118300I-450514J-216879D01*
G01*
X196310595Y-81469721D02*
G75*
G02*
X196261135Y-81252843I450516J216821D01*
G01*
%TO.C,LED35*%
X259500001Y-62202843D02*
X259500001Y-60797159D01*
X260405548Y-60000001D02*
X261994452Y-60000001D01*
X261994452Y-63000000D02*
X260405547Y-63000000D01*
X262899999Y-60797159D02*
X262899999Y-62202843D01*
X259450516Y-60580281D02*
G75*
G02*
X259500001Y-60797159I-450505J-216876D01*
G01*
X259450516Y-60580282D02*
G75*
G02*
X260153289Y-59931702I450514J216880D01*
G01*
X259500001Y-62202844D02*
G75*
G02*
X259450516Y-62419721I-499990J-1D01*
G01*
X260153289Y-63068299D02*
G75*
G02*
X259450516Y-62419721I-252258J431701D01*
G01*
X260153289Y-63068299D02*
G75*
G02*
X260405547Y-63000000I252261J-431710D01*
G01*
X260405548Y-60000001D02*
G75*
G02*
X260153289Y-59931702I2J500009D01*
G01*
X261994453Y-63000001D02*
G75*
G02*
X262246711Y-63068300I-3J-500009D01*
G01*
X262246710Y-59931702D02*
G75*
G02*
X261994452Y-60000000I-252260J431712D01*
G01*
X262246711Y-59931704D02*
G75*
G02*
X262949480Y-60580279I252259J-431696D01*
G01*
X262899999Y-60797158D02*
G75*
G02*
X262949483Y-60580281I500361J-82D01*
G01*
X262949484Y-62419721D02*
G75*
G02*
X262246711Y-63068300I-450514J-216879D01*
G01*
X262949484Y-62419721D02*
G75*
G02*
X262900024Y-62202843I450516J216821D01*
G01*
%TO.C,LED79*%
X240425001Y-138352843D02*
X240425001Y-136947159D01*
X241330548Y-136150001D02*
X242919452Y-136150001D01*
X242919452Y-139150000D02*
X241330547Y-139150000D01*
X243824999Y-136947159D02*
X243824999Y-138352843D01*
X240375516Y-136730281D02*
G75*
G02*
X240425001Y-136947159I-450505J-216876D01*
G01*
X240375516Y-136730282D02*
G75*
G02*
X241078289Y-136081702I450514J216880D01*
G01*
X240425001Y-138352844D02*
G75*
G02*
X240375516Y-138569721I-499990J-1D01*
G01*
X241078289Y-139218299D02*
G75*
G02*
X240375516Y-138569721I-252258J431701D01*
G01*
X241078289Y-139218299D02*
G75*
G02*
X241330547Y-139150000I252261J-431710D01*
G01*
X241330548Y-136150001D02*
G75*
G02*
X241078289Y-136081702I2J500009D01*
G01*
X242919453Y-139150001D02*
G75*
G02*
X243171711Y-139218300I-3J-500009D01*
G01*
X243171710Y-136081702D02*
G75*
G02*
X242919452Y-136150000I-252260J431712D01*
G01*
X243171711Y-136081704D02*
G75*
G02*
X243874480Y-136730279I252259J-431696D01*
G01*
X243824999Y-136947158D02*
G75*
G02*
X243874483Y-136730281I500361J-82D01*
G01*
X243874484Y-138569721D02*
G75*
G02*
X243171711Y-139218300I-450514J-216879D01*
G01*
X243874484Y-138569721D02*
G75*
G02*
X243825024Y-138352843I450516J216821D01*
G01*
%TO.C,LED81*%
X283325001Y-143052843D02*
X283325001Y-141647159D01*
X284230548Y-140850001D02*
X285819452Y-140850001D01*
X285819452Y-143850000D02*
X284230547Y-143850000D01*
X286724999Y-141647159D02*
X286724999Y-143052843D01*
X283275516Y-141430281D02*
G75*
G02*
X283325001Y-141647159I-450505J-216876D01*
G01*
X283275516Y-141430282D02*
G75*
G02*
X283978289Y-140781702I450514J216880D01*
G01*
X283325001Y-143052844D02*
G75*
G02*
X283275516Y-143269721I-499990J-1D01*
G01*
X283978289Y-143918299D02*
G75*
G02*
X283275516Y-143269721I-252258J431701D01*
G01*
X283978289Y-143918299D02*
G75*
G02*
X284230547Y-143850000I252261J-431710D01*
G01*
X284230548Y-140850001D02*
G75*
G02*
X283978289Y-140781702I2J500009D01*
G01*
X285819453Y-143850001D02*
G75*
G02*
X286071711Y-143918300I-3J-500009D01*
G01*
X286071710Y-140781702D02*
G75*
G02*
X285819452Y-140850000I-252260J431712D01*
G01*
X286071711Y-140781704D02*
G75*
G02*
X286774480Y-141430279I252259J-431696D01*
G01*
X286724999Y-141647158D02*
G75*
G02*
X286774483Y-141430281I500361J-82D01*
G01*
X286774484Y-143269721D02*
G75*
G02*
X286071711Y-143918300I-450514J-216879D01*
G01*
X286774484Y-143269721D02*
G75*
G02*
X286725024Y-143052843I450516J216821D01*
G01*
%TO.C,LED76*%
X152375001Y-138352843D02*
X152375001Y-136947159D01*
X153280548Y-136150001D02*
X154869452Y-136150001D01*
X154869452Y-139150000D02*
X153280547Y-139150000D01*
X155774999Y-136947159D02*
X155774999Y-138352843D01*
X152325516Y-136730281D02*
G75*
G02*
X152375001Y-136947159I-450505J-216876D01*
G01*
X152325516Y-136730282D02*
G75*
G02*
X153028289Y-136081702I450514J216880D01*
G01*
X152375001Y-138352844D02*
G75*
G02*
X152325516Y-138569721I-499990J-1D01*
G01*
X153028289Y-139218299D02*
G75*
G02*
X152325516Y-138569721I-252258J431701D01*
G01*
X153028289Y-139218299D02*
G75*
G02*
X153280547Y-139150000I252261J-431710D01*
G01*
X153280548Y-136150001D02*
G75*
G02*
X153028289Y-136081702I2J500009D01*
G01*
X154869453Y-139150001D02*
G75*
G02*
X155121711Y-139218300I-3J-500009D01*
G01*
X155121710Y-136081702D02*
G75*
G02*
X154869452Y-136150000I-252260J431712D01*
G01*
X155121711Y-136081704D02*
G75*
G02*
X155824480Y-136730279I252259J-431696D01*
G01*
X155774999Y-136947158D02*
G75*
G02*
X155824483Y-136730281I500361J-82D01*
G01*
X155824484Y-138569721D02*
G75*
G02*
X155121711Y-139218300I-450514J-216879D01*
G01*
X155824484Y-138569721D02*
G75*
G02*
X155775024Y-138352843I450516J216821D01*
G01*
%TO.C,LED73*%
X57125001Y-138352843D02*
X57125001Y-136947159D01*
X58030548Y-136150001D02*
X59619452Y-136150001D01*
X59619452Y-139150000D02*
X58030547Y-139150000D01*
X60524999Y-136947159D02*
X60524999Y-138352843D01*
X57075516Y-136730281D02*
G75*
G02*
X57125001Y-136947159I-450505J-216876D01*
G01*
X57075516Y-136730282D02*
G75*
G02*
X57778289Y-136081702I450514J216880D01*
G01*
X57125001Y-138352844D02*
G75*
G02*
X57075516Y-138569721I-499990J-1D01*
G01*
X57778289Y-139218299D02*
G75*
G02*
X57075516Y-138569721I-252258J431701D01*
G01*
X57778289Y-139218299D02*
G75*
G02*
X58030547Y-139150000I252261J-431710D01*
G01*
X58030548Y-136150001D02*
G75*
G02*
X57778289Y-136081702I2J500009D01*
G01*
X59619453Y-139150001D02*
G75*
G02*
X59871711Y-139218300I-3J-500009D01*
G01*
X59871710Y-136081702D02*
G75*
G02*
X59619452Y-136150000I-252260J431712D01*
G01*
X59871711Y-136081704D02*
G75*
G02*
X60574480Y-136730279I252259J-431696D01*
G01*
X60524999Y-136947158D02*
G75*
G02*
X60574483Y-136730281I500361J-82D01*
G01*
X60574484Y-138569721D02*
G75*
G02*
X59871711Y-139218300I-450514J-216879D01*
G01*
X60574484Y-138569721D02*
G75*
G02*
X60525024Y-138352843I450516J216821D01*
G01*
%TO.C,LED51*%
X321425001Y-100252843D02*
X321425001Y-98847159D01*
X322330548Y-98050001D02*
X323919452Y-98050001D01*
X323919452Y-101050000D02*
X322330547Y-101050000D01*
X324824999Y-98847159D02*
X324824999Y-100252843D01*
X321375516Y-98630281D02*
G75*
G02*
X321425001Y-98847159I-450505J-216876D01*
G01*
X321375516Y-98630282D02*
G75*
G02*
X322078289Y-97981702I450514J216880D01*
G01*
X321425001Y-100252844D02*
G75*
G02*
X321375516Y-100469721I-499990J-1D01*
G01*
X322078289Y-101118299D02*
G75*
G02*
X321375516Y-100469721I-252258J431701D01*
G01*
X322078289Y-101118299D02*
G75*
G02*
X322330547Y-101050000I252261J-431710D01*
G01*
X322330548Y-98050001D02*
G75*
G02*
X322078289Y-97981702I2J500009D01*
G01*
X323919453Y-101050001D02*
G75*
G02*
X324171711Y-101118300I-3J-500009D01*
G01*
X324171710Y-97981702D02*
G75*
G02*
X323919452Y-98050000I-252260J431712D01*
G01*
X324171711Y-97981704D02*
G75*
G02*
X324874480Y-98630279I252259J-431696D01*
G01*
X324824999Y-98847158D02*
G75*
G02*
X324874483Y-98630281I500361J-82D01*
G01*
X324874484Y-100469721D02*
G75*
G02*
X324171711Y-101118300I-450514J-216879D01*
G01*
X324874484Y-100469721D02*
G75*
G02*
X324825024Y-100252843I450516J216821D01*
G01*
%TO.C,LED18*%
X88050001Y-62177843D02*
X88050001Y-60772159D01*
X88955548Y-59975001D02*
X90544452Y-59975001D01*
X90544452Y-62975000D02*
X88955547Y-62975000D01*
X91449999Y-60772159D02*
X91449999Y-62177843D01*
X88000516Y-60555281D02*
G75*
G02*
X88050001Y-60772159I-450505J-216876D01*
G01*
X88000516Y-60555282D02*
G75*
G02*
X88703289Y-59906702I450514J216880D01*
G01*
X88050001Y-62177844D02*
G75*
G02*
X88000516Y-62394721I-499990J-1D01*
G01*
X88703289Y-63043299D02*
G75*
G02*
X88000516Y-62394721I-252258J431701D01*
G01*
X88703289Y-63043299D02*
G75*
G02*
X88955547Y-62975000I252261J-431710D01*
G01*
X88955548Y-59975001D02*
G75*
G02*
X88703289Y-59906702I2J500009D01*
G01*
X90544453Y-62975001D02*
G75*
G02*
X90796711Y-63043300I-3J-500009D01*
G01*
X90796710Y-59906702D02*
G75*
G02*
X90544452Y-59975000I-252260J431712D01*
G01*
X90796711Y-59906704D02*
G75*
G02*
X91499480Y-60555279I252259J-431696D01*
G01*
X91449999Y-60772158D02*
G75*
G02*
X91499483Y-60555281I500361J-82D01*
G01*
X91499484Y-62394721D02*
G75*
G02*
X90796711Y-63043300I-450514J-216879D01*
G01*
X91499484Y-62394721D02*
G75*
G02*
X91450024Y-62177843I450516J216821D01*
G01*
%TO.C,LED27*%
X183300001Y-62177843D02*
X183300001Y-60772159D01*
X184205548Y-59975001D02*
X185794452Y-59975001D01*
X185794452Y-62975000D02*
X184205547Y-62975000D01*
X186699999Y-60772159D02*
X186699999Y-62177843D01*
X183250516Y-60555281D02*
G75*
G02*
X183300001Y-60772159I-450505J-216876D01*
G01*
X183250516Y-60555282D02*
G75*
G02*
X183953289Y-59906702I450514J216880D01*
G01*
X183300001Y-62177844D02*
G75*
G02*
X183250516Y-62394721I-499990J-1D01*
G01*
X183953289Y-63043299D02*
G75*
G02*
X183250516Y-62394721I-252258J431701D01*
G01*
X183953289Y-63043299D02*
G75*
G02*
X184205547Y-62975000I252261J-431710D01*
G01*
X184205548Y-59975001D02*
G75*
G02*
X183953289Y-59906702I2J500009D01*
G01*
X185794453Y-62975001D02*
G75*
G02*
X186046711Y-63043300I-3J-500009D01*
G01*
X186046710Y-59906702D02*
G75*
G02*
X185794452Y-59975000I-252260J431712D01*
G01*
X186046711Y-59906704D02*
G75*
G02*
X186749480Y-60555279I252259J-431696D01*
G01*
X186699999Y-60772158D02*
G75*
G02*
X186749483Y-60555281I500361J-82D01*
G01*
X186749484Y-62394721D02*
G75*
G02*
X186046711Y-63043300I-450514J-216879D01*
G01*
X186749484Y-62394721D02*
G75*
G02*
X186700024Y-62177843I450516J216821D01*
G01*
%TO.C,LED67*%
X111847223Y-119352843D02*
X111847223Y-117947159D01*
X112752770Y-117150001D02*
X114341674Y-117150001D01*
X114341674Y-120150000D02*
X112752769Y-120150000D01*
X115247221Y-117947159D02*
X115247221Y-119352843D01*
X111797738Y-117730281D02*
G75*
G02*
X111847223Y-117947159I-450505J-216876D01*
G01*
X111797738Y-117730282D02*
G75*
G02*
X112500511Y-117081702I450514J216880D01*
G01*
X111847223Y-119352844D02*
G75*
G02*
X111797738Y-119569721I-499990J-1D01*
G01*
X112500511Y-120218299D02*
G75*
G02*
X111797738Y-119569721I-252258J431701D01*
G01*
X112500511Y-120218299D02*
G75*
G02*
X112752769Y-120150000I252261J-431710D01*
G01*
X112752770Y-117150001D02*
G75*
G02*
X112500511Y-117081702I2J500009D01*
G01*
X114341675Y-120150001D02*
G75*
G02*
X114593933Y-120218300I-3J-500009D01*
G01*
X114593932Y-117081702D02*
G75*
G02*
X114341674Y-117150000I-252260J431712D01*
G01*
X114593933Y-117081704D02*
G75*
G02*
X115296702Y-117730279I252259J-431696D01*
G01*
X115247221Y-117947158D02*
G75*
G02*
X115296705Y-117730281I500361J-82D01*
G01*
X115296706Y-119569721D02*
G75*
G02*
X114593933Y-120218300I-450514J-216879D01*
G01*
X115296706Y-119569721D02*
G75*
G02*
X115247246Y-119352843I450516J216821D01*
G01*
%TO.C,LED26*%
X59525001Y-81227843D02*
X59525001Y-79822159D01*
X60430548Y-79025001D02*
X62019452Y-79025001D01*
X62019452Y-82025000D02*
X60430547Y-82025000D01*
X62924999Y-79822159D02*
X62924999Y-81227843D01*
X59475516Y-79605281D02*
G75*
G02*
X59525001Y-79822159I-450505J-216876D01*
G01*
X59475516Y-79605282D02*
G75*
G02*
X60178289Y-78956702I450514J216880D01*
G01*
X59525001Y-81227844D02*
G75*
G02*
X59475516Y-81444721I-499990J-1D01*
G01*
X60178289Y-82093299D02*
G75*
G02*
X59475516Y-81444721I-252258J431701D01*
G01*
X60178289Y-82093299D02*
G75*
G02*
X60430547Y-82025000I252261J-431710D01*
G01*
X60430548Y-79025001D02*
G75*
G02*
X60178289Y-78956702I2J500009D01*
G01*
X62019453Y-82025001D02*
G75*
G02*
X62271711Y-82093300I-3J-500009D01*
G01*
X62271710Y-78956702D02*
G75*
G02*
X62019452Y-79025000I-252260J431712D01*
G01*
X62271711Y-78956704D02*
G75*
G02*
X62974480Y-79605279I252259J-431696D01*
G01*
X62924999Y-79822158D02*
G75*
G02*
X62974483Y-79605281I500361J-82D01*
G01*
X62974484Y-81444721D02*
G75*
G02*
X62271711Y-82093300I-450514J-216879D01*
G01*
X62974484Y-81444721D02*
G75*
G02*
X62925024Y-81227843I450516J216821D01*
G01*
%TO.C,LED59*%
X73725001Y-119352843D02*
X73725001Y-117947159D01*
X74630548Y-117150001D02*
X76219452Y-117150001D01*
X76219452Y-120150000D02*
X74630547Y-120150000D01*
X77124999Y-117947159D02*
X77124999Y-119352843D01*
X73675516Y-117730281D02*
G75*
G02*
X73725001Y-117947159I-450505J-216876D01*
G01*
X73675516Y-117730282D02*
G75*
G02*
X74378289Y-117081702I450514J216880D01*
G01*
X73725001Y-119352844D02*
G75*
G02*
X73675516Y-119569721I-499990J-1D01*
G01*
X74378289Y-120218299D02*
G75*
G02*
X73675516Y-119569721I-252258J431701D01*
G01*
X74378289Y-120218299D02*
G75*
G02*
X74630547Y-120150000I252261J-431710D01*
G01*
X74630548Y-117150001D02*
G75*
G02*
X74378289Y-117081702I2J500009D01*
G01*
X76219453Y-120150001D02*
G75*
G02*
X76471711Y-120218300I-3J-500009D01*
G01*
X76471710Y-117081702D02*
G75*
G02*
X76219452Y-117150000I-252260J431712D01*
G01*
X76471711Y-117081704D02*
G75*
G02*
X77174480Y-117730279I252259J-431696D01*
G01*
X77124999Y-117947158D02*
G75*
G02*
X77174483Y-117730281I500361J-82D01*
G01*
X77174484Y-119569721D02*
G75*
G02*
X76471711Y-120218300I-450514J-216879D01*
G01*
X77174484Y-119569721D02*
G75*
G02*
X77125024Y-119352843I450516J216821D01*
G01*
%TO.C,LED45*%
X211908334Y-81252843D02*
X211908334Y-79847159D01*
X212813881Y-79050001D02*
X214402785Y-79050001D01*
X214402785Y-82050000D02*
X212813880Y-82050000D01*
X215308332Y-79847159D02*
X215308332Y-81252843D01*
X211858849Y-79630281D02*
G75*
G02*
X211908334Y-79847159I-450505J-216876D01*
G01*
X211858849Y-79630282D02*
G75*
G02*
X212561622Y-78981702I450514J216880D01*
G01*
X211908334Y-81252844D02*
G75*
G02*
X211858849Y-81469721I-499990J-1D01*
G01*
X212561622Y-82118299D02*
G75*
G02*
X211858849Y-81469721I-252258J431701D01*
G01*
X212561622Y-82118299D02*
G75*
G02*
X212813880Y-82050000I252261J-431710D01*
G01*
X212813881Y-79050001D02*
G75*
G02*
X212561622Y-78981702I2J500009D01*
G01*
X214402786Y-82050001D02*
G75*
G02*
X214655044Y-82118300I-3J-500009D01*
G01*
X214655043Y-78981702D02*
G75*
G02*
X214402785Y-79050000I-252260J431712D01*
G01*
X214655044Y-78981704D02*
G75*
G02*
X215357813Y-79630279I252259J-431696D01*
G01*
X215308332Y-79847158D02*
G75*
G02*
X215357816Y-79630281I500361J-82D01*
G01*
X215357817Y-81469721D02*
G75*
G02*
X214655044Y-82118300I-450514J-216879D01*
G01*
X215357817Y-81469721D02*
G75*
G02*
X215308357Y-81252843I450516J216821D01*
G01*
%TO.C,LED53*%
X250002779Y-81252843D02*
X250002779Y-79847159D01*
X250908326Y-79050001D02*
X252497230Y-79050001D01*
X252497230Y-82050000D02*
X250908325Y-82050000D01*
X253402777Y-79847159D02*
X253402777Y-81252843D01*
X249953294Y-79630281D02*
G75*
G02*
X250002779Y-79847159I-450505J-216876D01*
G01*
X249953294Y-79630282D02*
G75*
G02*
X250656067Y-78981702I450514J216880D01*
G01*
X250002779Y-81252844D02*
G75*
G02*
X249953294Y-81469721I-499990J-1D01*
G01*
X250656067Y-82118299D02*
G75*
G02*
X249953294Y-81469721I-252258J431701D01*
G01*
X250656067Y-82118299D02*
G75*
G02*
X250908325Y-82050000I252261J-431710D01*
G01*
X250908326Y-79050001D02*
G75*
G02*
X250656067Y-78981702I2J500009D01*
G01*
X252497231Y-82050001D02*
G75*
G02*
X252749489Y-82118300I-3J-500009D01*
G01*
X252749488Y-78981702D02*
G75*
G02*
X252497230Y-79050000I-252260J431712D01*
G01*
X252749489Y-78981704D02*
G75*
G02*
X253452258Y-79630279I252259J-431696D01*
G01*
X253402777Y-79847158D02*
G75*
G02*
X253452261Y-79630281I500361J-82D01*
G01*
X253452262Y-81469721D02*
G75*
G02*
X252749489Y-82118300I-450514J-216879D01*
G01*
X253452262Y-81469721D02*
G75*
G02*
X253402802Y-81252843I450516J216821D01*
G01*
%TO.C,LED84*%
X321425001Y-143152843D02*
X321425001Y-141747159D01*
X322330548Y-140950001D02*
X323919452Y-140950001D01*
X323919452Y-143950000D02*
X322330547Y-143950000D01*
X324824999Y-141747159D02*
X324824999Y-143152843D01*
X321375516Y-141530281D02*
G75*
G02*
X321425001Y-141747159I-450505J-216876D01*
G01*
X321375516Y-141530282D02*
G75*
G02*
X322078289Y-140881702I450514J216880D01*
G01*
X321425001Y-143152844D02*
G75*
G02*
X321375516Y-143369721I-499990J-1D01*
G01*
X322078289Y-144018299D02*
G75*
G02*
X321375516Y-143369721I-252258J431701D01*
G01*
X322078289Y-144018299D02*
G75*
G02*
X322330547Y-143950000I252261J-431710D01*
G01*
X322330548Y-140950001D02*
G75*
G02*
X322078289Y-140881702I2J500009D01*
G01*
X323919453Y-143950001D02*
G75*
G02*
X324171711Y-144018300I-3J-500009D01*
G01*
X324171710Y-140881702D02*
G75*
G02*
X323919452Y-140950000I-252260J431712D01*
G01*
X324171711Y-140881704D02*
G75*
G02*
X324874480Y-141530279I252259J-431696D01*
G01*
X324824999Y-141747158D02*
G75*
G02*
X324874483Y-141530281I500361J-82D01*
G01*
X324874484Y-143369721D02*
G75*
G02*
X324171711Y-144018300I-450514J-216879D01*
G01*
X324874484Y-143369721D02*
G75*
G02*
X324825024Y-143152843I450516J216821D01*
G01*
%TO.C,LED70*%
X216635001Y-100252843D02*
X216635001Y-98847159D01*
X217540548Y-98050001D02*
X219129452Y-98050001D01*
X219129452Y-101050000D02*
X217540547Y-101050000D01*
X220034999Y-98847159D02*
X220034999Y-100252843D01*
X216585516Y-98630281D02*
G75*
G02*
X216635001Y-98847159I-450505J-216876D01*
G01*
X216585516Y-98630282D02*
G75*
G02*
X217288289Y-97981702I450514J216880D01*
G01*
X216635001Y-100252844D02*
G75*
G02*
X216585516Y-100469721I-499990J-1D01*
G01*
X217288289Y-101118299D02*
G75*
G02*
X216585516Y-100469721I-252258J431701D01*
G01*
X217288289Y-101118299D02*
G75*
G02*
X217540547Y-101050000I252261J-431710D01*
G01*
X217540548Y-98050001D02*
G75*
G02*
X217288289Y-97981702I2J500009D01*
G01*
X219129453Y-101050001D02*
G75*
G02*
X219381711Y-101118300I-3J-500009D01*
G01*
X219381710Y-97981702D02*
G75*
G02*
X219129452Y-98050000I-252260J431712D01*
G01*
X219381711Y-97981704D02*
G75*
G02*
X220084480Y-98630279I252259J-431696D01*
G01*
X220034999Y-98847158D02*
G75*
G02*
X220084483Y-98630281I500361J-82D01*
G01*
X220084484Y-100469721D02*
G75*
G02*
X219381711Y-101118300I-450514J-216879D01*
G01*
X220084484Y-100469721D02*
G75*
G02*
X220035024Y-100252843I450516J216821D01*
G01*
%TO.C,LED23*%
X145200001Y-62177843D02*
X145200001Y-60772159D01*
X146105548Y-59975001D02*
X147694452Y-59975001D01*
X147694452Y-62975000D02*
X146105547Y-62975000D01*
X148599999Y-60772159D02*
X148599999Y-62177843D01*
X145150516Y-60555281D02*
G75*
G02*
X145200001Y-60772159I-450505J-216876D01*
G01*
X145150516Y-60555282D02*
G75*
G02*
X145853289Y-59906702I450514J216880D01*
G01*
X145200001Y-62177844D02*
G75*
G02*
X145150516Y-62394721I-499990J-1D01*
G01*
X145853289Y-63043299D02*
G75*
G02*
X145150516Y-62394721I-252258J431701D01*
G01*
X145853289Y-63043299D02*
G75*
G02*
X146105547Y-62975000I252261J-431710D01*
G01*
X146105548Y-59975001D02*
G75*
G02*
X145853289Y-59906702I2J500009D01*
G01*
X147694453Y-62975001D02*
G75*
G02*
X147946711Y-63043300I-3J-500009D01*
G01*
X147946710Y-59906702D02*
G75*
G02*
X147694452Y-59975000I-252260J431712D01*
G01*
X147946711Y-59906704D02*
G75*
G02*
X148649480Y-60555279I252259J-431696D01*
G01*
X148599999Y-60772158D02*
G75*
G02*
X148649483Y-60555281I500361J-82D01*
G01*
X148649484Y-62394721D02*
G75*
G02*
X147946711Y-63043300I-450514J-216879D01*
G01*
X148649484Y-62394721D02*
G75*
G02*
X148600024Y-62177843I450516J216821D01*
G01*
%TO.C,LED58*%
X159500001Y-100252843D02*
X159500001Y-98847159D01*
X160405548Y-98050001D02*
X161994452Y-98050001D01*
X161994452Y-101050000D02*
X160405547Y-101050000D01*
X162899999Y-98847159D02*
X162899999Y-100252843D01*
X159450516Y-98630281D02*
G75*
G02*
X159500001Y-98847159I-450505J-216876D01*
G01*
X159450516Y-98630282D02*
G75*
G02*
X160153289Y-97981702I450514J216880D01*
G01*
X159500001Y-100252844D02*
G75*
G02*
X159450516Y-100469721I-499990J-1D01*
G01*
X160153289Y-101118299D02*
G75*
G02*
X159450516Y-100469721I-252258J431701D01*
G01*
X160153289Y-101118299D02*
G75*
G02*
X160405547Y-101050000I252261J-431710D01*
G01*
X160405548Y-98050001D02*
G75*
G02*
X160153289Y-97981702I2J500009D01*
G01*
X161994453Y-101050001D02*
G75*
G02*
X162246711Y-101118300I-3J-500009D01*
G01*
X162246710Y-97981702D02*
G75*
G02*
X161994452Y-98050000I-252260J431712D01*
G01*
X162246711Y-97981704D02*
G75*
G02*
X162949480Y-98630279I252259J-431696D01*
G01*
X162899999Y-98847158D02*
G75*
G02*
X162949483Y-98630281I500361J-82D01*
G01*
X162949484Y-100469721D02*
G75*
G02*
X162246711Y-101118300I-450514J-216879D01*
G01*
X162949484Y-100469721D02*
G75*
G02*
X162900024Y-100252843I450516J216821D01*
G01*
%TO.C,LED54*%
X140455001Y-100252843D02*
X140455001Y-98847159D01*
X141360548Y-98050001D02*
X142949452Y-98050001D01*
X142949452Y-101050000D02*
X141360547Y-101050000D01*
X143854999Y-98847159D02*
X143854999Y-100252843D01*
X140405516Y-98630281D02*
G75*
G02*
X140455001Y-98847159I-450505J-216876D01*
G01*
X140405516Y-98630282D02*
G75*
G02*
X141108289Y-97981702I450514J216880D01*
G01*
X140455001Y-100252844D02*
G75*
G02*
X140405516Y-100469721I-499990J-1D01*
G01*
X141108289Y-101118299D02*
G75*
G02*
X140405516Y-100469721I-252258J431701D01*
G01*
X141108289Y-101118299D02*
G75*
G02*
X141360547Y-101050000I252261J-431710D01*
G01*
X141360548Y-98050001D02*
G75*
G02*
X141108289Y-97981702I2J500009D01*
G01*
X142949453Y-101050001D02*
G75*
G02*
X143201711Y-101118300I-3J-500009D01*
G01*
X143201710Y-97981702D02*
G75*
G02*
X142949452Y-98050000I-252260J431712D01*
G01*
X143201711Y-97981704D02*
G75*
G02*
X143904480Y-98630279I252259J-431696D01*
G01*
X143854999Y-98847158D02*
G75*
G02*
X143904483Y-98630281I500361J-82D01*
G01*
X143904484Y-100469721D02*
G75*
G02*
X143201711Y-101118300I-450514J-216879D01*
G01*
X143904484Y-100469721D02*
G75*
G02*
X143855024Y-100252843I450516J216821D01*
G01*
%TO.C,LED36*%
X154766668Y-81252843D02*
X154766668Y-79847159D01*
X155672215Y-79050001D02*
X157261119Y-79050001D01*
X157261119Y-82050000D02*
X155672214Y-82050000D01*
X158166666Y-79847159D02*
X158166666Y-81252843D01*
X154717183Y-79630281D02*
G75*
G02*
X154766668Y-79847159I-450505J-216876D01*
G01*
X154717183Y-79630282D02*
G75*
G02*
X155419956Y-78981702I450514J216880D01*
G01*
X154766668Y-81252844D02*
G75*
G02*
X154717183Y-81469721I-499990J-1D01*
G01*
X155419956Y-82118299D02*
G75*
G02*
X154717183Y-81469721I-252258J431701D01*
G01*
X155419956Y-82118299D02*
G75*
G02*
X155672214Y-82050000I252261J-431710D01*
G01*
X155672215Y-79050001D02*
G75*
G02*
X155419956Y-78981702I2J500009D01*
G01*
X157261120Y-82050001D02*
G75*
G02*
X157513378Y-82118300I-3J-500009D01*
G01*
X157513377Y-78981702D02*
G75*
G02*
X157261119Y-79050000I-252260J431712D01*
G01*
X157513378Y-78981704D02*
G75*
G02*
X158216147Y-79630279I252259J-431696D01*
G01*
X158166666Y-79847158D02*
G75*
G02*
X158216150Y-79630281I500361J-82D01*
G01*
X158216151Y-81469721D02*
G75*
G02*
X157513378Y-82118300I-450514J-216879D01*
G01*
X158216151Y-81469721D02*
G75*
G02*
X158166691Y-81252843I450516J216821D01*
G01*
%TO.C,LED40*%
X149969445Y-119352843D02*
X149969445Y-117947159D01*
X150874992Y-117150001D02*
X152463896Y-117150001D01*
X152463896Y-120150000D02*
X150874991Y-120150000D01*
X153369443Y-117947159D02*
X153369443Y-119352843D01*
X149919960Y-117730281D02*
G75*
G02*
X149969445Y-117947159I-450505J-216876D01*
G01*
X149919960Y-117730282D02*
G75*
G02*
X150622733Y-117081702I450514J216880D01*
G01*
X149969445Y-119352844D02*
G75*
G02*
X149919960Y-119569721I-499990J-1D01*
G01*
X150622733Y-120218299D02*
G75*
G02*
X149919960Y-119569721I-252258J431701D01*
G01*
X150622733Y-120218299D02*
G75*
G02*
X150874991Y-120150000I252261J-431710D01*
G01*
X150874992Y-117150001D02*
G75*
G02*
X150622733Y-117081702I2J500009D01*
G01*
X152463897Y-120150001D02*
G75*
G02*
X152716155Y-120218300I-3J-500009D01*
G01*
X152716154Y-117081702D02*
G75*
G02*
X152463896Y-117150000I-252260J431712D01*
G01*
X152716155Y-117081704D02*
G75*
G02*
X153418924Y-117730279I252259J-431696D01*
G01*
X153369443Y-117947158D02*
G75*
G02*
X153418927Y-117730281I500361J-82D01*
G01*
X153418928Y-119569721D02*
G75*
G02*
X152716155Y-120218300I-450514J-216879D01*
G01*
X153418928Y-119569721D02*
G75*
G02*
X153369468Y-119352843I450516J216821D01*
G01*
%TO.C,LED24*%
X35700001Y-81227843D02*
X35700001Y-79822159D01*
X36605548Y-79025001D02*
X38194452Y-79025001D01*
X38194452Y-82025000D02*
X36605547Y-82025000D01*
X39099999Y-79822159D02*
X39099999Y-81227843D01*
X35650516Y-79605281D02*
G75*
G02*
X35700001Y-79822159I-450505J-216876D01*
G01*
X35650516Y-79605282D02*
G75*
G02*
X36353289Y-78956702I450514J216880D01*
G01*
X35700001Y-81227844D02*
G75*
G02*
X35650516Y-81444721I-499990J-1D01*
G01*
X36353289Y-82093299D02*
G75*
G02*
X35650516Y-81444721I-252258J431701D01*
G01*
X36353289Y-82093299D02*
G75*
G02*
X36605547Y-82025000I252261J-431710D01*
G01*
X36605548Y-79025001D02*
G75*
G02*
X36353289Y-78956702I2J500009D01*
G01*
X38194453Y-82025001D02*
G75*
G02*
X38446711Y-82093300I-3J-500009D01*
G01*
X38446710Y-78956702D02*
G75*
G02*
X38194452Y-79025000I-252260J431712D01*
G01*
X38446711Y-78956704D02*
G75*
G02*
X39149480Y-79605279I252259J-431696D01*
G01*
X39099999Y-79822158D02*
G75*
G02*
X39149483Y-79605281I500361J-82D01*
G01*
X39149484Y-81444721D02*
G75*
G02*
X38446711Y-82093300I-450514J-216879D01*
G01*
X39149484Y-81444721D02*
G75*
G02*
X39100024Y-81227843I450516J216821D01*
G01*
%TO.C,LED71*%
X130908334Y-119352843D02*
X130908334Y-117947159D01*
X131813881Y-117150001D02*
X133402785Y-117150001D01*
X133402785Y-120150000D02*
X131813880Y-120150000D01*
X134308332Y-117947159D02*
X134308332Y-119352843D01*
X130858849Y-117730281D02*
G75*
G02*
X130908334Y-117947159I-450505J-216876D01*
G01*
X130858849Y-117730282D02*
G75*
G02*
X131561622Y-117081702I450514J216880D01*
G01*
X130908334Y-119352844D02*
G75*
G02*
X130858849Y-119569721I-499990J-1D01*
G01*
X131561622Y-120218299D02*
G75*
G02*
X130858849Y-119569721I-252258J431701D01*
G01*
X131561622Y-120218299D02*
G75*
G02*
X131813880Y-120150000I252261J-431710D01*
G01*
X131813881Y-117150001D02*
G75*
G02*
X131561622Y-117081702I2J500009D01*
G01*
X133402786Y-120150001D02*
G75*
G02*
X133655044Y-120218300I-3J-500009D01*
G01*
X133655043Y-117081702D02*
G75*
G02*
X133402785Y-117150000I-252260J431712D01*
G01*
X133655044Y-117081704D02*
G75*
G02*
X134357813Y-117730279I252259J-431696D01*
G01*
X134308332Y-117947158D02*
G75*
G02*
X134357816Y-117730281I500361J-82D01*
G01*
X134357817Y-119569721D02*
G75*
G02*
X133655044Y-120218300I-450514J-216879D01*
G01*
X134357817Y-119569721D02*
G75*
G02*
X134308357Y-119352843I450516J216821D01*
G01*
%TO.C,LED52*%
X207152779Y-119352843D02*
X207152779Y-117947159D01*
X208058326Y-117150001D02*
X209647230Y-117150001D01*
X209647230Y-120150000D02*
X208058325Y-120150000D01*
X210552777Y-117947159D02*
X210552777Y-119352843D01*
X207103294Y-117730281D02*
G75*
G02*
X207152779Y-117947159I-450505J-216876D01*
G01*
X207103294Y-117730282D02*
G75*
G02*
X207806067Y-117081702I450514J216880D01*
G01*
X207152779Y-119352844D02*
G75*
G02*
X207103294Y-119569721I-499990J-1D01*
G01*
X207806067Y-120218299D02*
G75*
G02*
X207103294Y-119569721I-252258J431701D01*
G01*
X207806067Y-120218299D02*
G75*
G02*
X208058325Y-120150000I252261J-431710D01*
G01*
X208058326Y-117150001D02*
G75*
G02*
X207806067Y-117081702I2J500009D01*
G01*
X209647231Y-120150001D02*
G75*
G02*
X209899489Y-120218300I-3J-500009D01*
G01*
X209899488Y-117081702D02*
G75*
G02*
X209647230Y-117150000I-252260J431712D01*
G01*
X209899489Y-117081704D02*
G75*
G02*
X210602258Y-117730279I252259J-431696D01*
G01*
X210552777Y-117947158D02*
G75*
G02*
X210602261Y-117730281I500361J-82D01*
G01*
X210602262Y-119569721D02*
G75*
G02*
X209899489Y-120218300I-450514J-216879D01*
G01*
X210602262Y-119569721D02*
G75*
G02*
X210552802Y-119352843I450516J216821D01*
G01*
%TO.C,LED34*%
X135719445Y-81252843D02*
X135719445Y-79847159D01*
X136624992Y-79050001D02*
X138213896Y-79050001D01*
X138213896Y-82050000D02*
X136624991Y-82050000D01*
X139119443Y-79847159D02*
X139119443Y-81252843D01*
X135669960Y-79630281D02*
G75*
G02*
X135719445Y-79847159I-450505J-216876D01*
G01*
X135669960Y-79630282D02*
G75*
G02*
X136372733Y-78981702I450514J216880D01*
G01*
X135719445Y-81252844D02*
G75*
G02*
X135669960Y-81469721I-499990J-1D01*
G01*
X136372733Y-82118299D02*
G75*
G02*
X135669960Y-81469721I-252258J431701D01*
G01*
X136372733Y-82118299D02*
G75*
G02*
X136624991Y-82050000I252261J-431710D01*
G01*
X136624992Y-79050001D02*
G75*
G02*
X136372733Y-78981702I2J500009D01*
G01*
X138213897Y-82050001D02*
G75*
G02*
X138466155Y-82118300I-3J-500009D01*
G01*
X138466154Y-78981702D02*
G75*
G02*
X138213896Y-79050000I-252260J431712D01*
G01*
X138466155Y-78981704D02*
G75*
G02*
X139168924Y-79630279I252259J-431696D01*
G01*
X139119443Y-79847158D02*
G75*
G02*
X139168927Y-79630281I500361J-82D01*
G01*
X139168928Y-81469721D02*
G75*
G02*
X138466155Y-82118300I-450514J-216879D01*
G01*
X139168928Y-81469721D02*
G75*
G02*
X139119468Y-81252843I450516J216821D01*
G01*
%TO.C,LED78*%
X221325001Y-138352843D02*
X221325001Y-136947159D01*
X222230548Y-136150001D02*
X223819452Y-136150001D01*
X223819452Y-139150000D02*
X222230547Y-139150000D01*
X224724999Y-136947159D02*
X224724999Y-138352843D01*
X221275516Y-136730281D02*
G75*
G02*
X221325001Y-136947159I-450505J-216876D01*
G01*
X221275516Y-136730282D02*
G75*
G02*
X221978289Y-136081702I450514J216880D01*
G01*
X221325001Y-138352844D02*
G75*
G02*
X221275516Y-138569721I-499990J-1D01*
G01*
X221978289Y-139218299D02*
G75*
G02*
X221275516Y-138569721I-252258J431701D01*
G01*
X221978289Y-139218299D02*
G75*
G02*
X222230547Y-139150000I252261J-431710D01*
G01*
X222230548Y-136150001D02*
G75*
G02*
X221978289Y-136081702I2J500009D01*
G01*
X223819453Y-139150001D02*
G75*
G02*
X224071711Y-139218300I-3J-500009D01*
G01*
X224071710Y-136081702D02*
G75*
G02*
X223819452Y-136150000I-252260J431712D01*
G01*
X224071711Y-136081704D02*
G75*
G02*
X224774480Y-136730279I252259J-431696D01*
G01*
X224724999Y-136947158D02*
G75*
G02*
X224774483Y-136730281I500361J-82D01*
G01*
X224774484Y-138569721D02*
G75*
G02*
X224071711Y-139218300I-450514J-216879D01*
G01*
X224774484Y-138569721D02*
G75*
G02*
X224725024Y-138352843I450516J216821D01*
G01*
%TO.C,LED3*%
X73775001Y-38377843D02*
X73775001Y-36972159D01*
X74680548Y-36175001D02*
X76269452Y-36175001D01*
X76269452Y-39175000D02*
X74680547Y-39175000D01*
X77174999Y-36972159D02*
X77174999Y-38377843D01*
X73725516Y-36755281D02*
G75*
G02*
X73775001Y-36972159I-450505J-216876D01*
G01*
X73725516Y-36755282D02*
G75*
G02*
X74428289Y-36106702I450514J216880D01*
G01*
X73775001Y-38377844D02*
G75*
G02*
X73725516Y-38594721I-499990J-1D01*
G01*
X74428289Y-39243299D02*
G75*
G02*
X73725516Y-38594721I-252258J431701D01*
G01*
X74428289Y-39243299D02*
G75*
G02*
X74680547Y-39175000I252261J-431710D01*
G01*
X74680548Y-36175001D02*
G75*
G02*
X74428289Y-36106702I2J500009D01*
G01*
X76269453Y-39175001D02*
G75*
G02*
X76521711Y-39243300I-3J-500009D01*
G01*
X76521710Y-36106702D02*
G75*
G02*
X76269452Y-36175000I-252260J431712D01*
G01*
X76521711Y-36106704D02*
G75*
G02*
X77224480Y-36755279I252259J-431696D01*
G01*
X77174999Y-36972158D02*
G75*
G02*
X77224483Y-36755281I500361J-82D01*
G01*
X77224484Y-38594721D02*
G75*
G02*
X76521711Y-39243300I-450514J-216879D01*
G01*
X77224484Y-38594721D02*
G75*
G02*
X77175024Y-38377843I450516J216821D01*
G01*
%TO.C,LED32*%
X116672223Y-81252843D02*
X116672223Y-79847159D01*
X117577770Y-79050001D02*
X119166674Y-79050001D01*
X119166674Y-82050000D02*
X117577769Y-82050000D01*
X120072221Y-79847159D02*
X120072221Y-81252843D01*
X116622738Y-79630281D02*
G75*
G02*
X116672223Y-79847159I-450505J-216876D01*
G01*
X116622738Y-79630282D02*
G75*
G02*
X117325511Y-78981702I450514J216880D01*
G01*
X116672223Y-81252844D02*
G75*
G02*
X116622738Y-81469721I-499990J-1D01*
G01*
X117325511Y-82118299D02*
G75*
G02*
X116622738Y-81469721I-252258J431701D01*
G01*
X117325511Y-82118299D02*
G75*
G02*
X117577769Y-82050000I252261J-431710D01*
G01*
X117577770Y-79050001D02*
G75*
G02*
X117325511Y-78981702I2J500009D01*
G01*
X119166675Y-82050001D02*
G75*
G02*
X119418933Y-82118300I-3J-500009D01*
G01*
X119418932Y-78981702D02*
G75*
G02*
X119166674Y-79050000I-252260J431712D01*
G01*
X119418933Y-78981704D02*
G75*
G02*
X120121702Y-79630279I252259J-431696D01*
G01*
X120072221Y-79847158D02*
G75*
G02*
X120121705Y-79630281I500361J-82D01*
G01*
X120121706Y-81469721D02*
G75*
G02*
X119418933Y-82118300I-450514J-216879D01*
G01*
X120121706Y-81469721D02*
G75*
G02*
X120072246Y-81252843I450516J216821D01*
G01*
%TO.C,LED65*%
X321450001Y-81202843D02*
X321450001Y-79797159D01*
X322355548Y-79000001D02*
X323944452Y-79000001D01*
X323944452Y-82000000D02*
X322355547Y-82000000D01*
X324849999Y-79797159D02*
X324849999Y-81202843D01*
X321400516Y-79580281D02*
G75*
G02*
X321450001Y-79797159I-450505J-216876D01*
G01*
X321400516Y-79580282D02*
G75*
G02*
X322103289Y-78931702I450514J216880D01*
G01*
X321450001Y-81202844D02*
G75*
G02*
X321400516Y-81419721I-499990J-1D01*
G01*
X322103289Y-82068299D02*
G75*
G02*
X321400516Y-81419721I-252258J431701D01*
G01*
X322103289Y-82068299D02*
G75*
G02*
X322355547Y-82000000I252261J-431710D01*
G01*
X322355548Y-79000001D02*
G75*
G02*
X322103289Y-78931702I2J500009D01*
G01*
X323944453Y-82000001D02*
G75*
G02*
X324196711Y-82068300I-3J-500009D01*
G01*
X324196710Y-78931702D02*
G75*
G02*
X323944452Y-79000000I-252260J431712D01*
G01*
X324196711Y-78931704D02*
G75*
G02*
X324899480Y-79580279I252259J-431696D01*
G01*
X324849999Y-79797158D02*
G75*
G02*
X324899483Y-79580281I500361J-82D01*
G01*
X324899484Y-81419721D02*
G75*
G02*
X324196711Y-82068300I-450514J-216879D01*
G01*
X324899484Y-81419721D02*
G75*
G02*
X324850024Y-81202843I450516J216821D01*
G01*
%TO.C,LED50*%
X121410001Y-100252843D02*
X121410001Y-98847159D01*
X122315548Y-98050001D02*
X123904452Y-98050001D01*
X123904452Y-101050000D02*
X122315547Y-101050000D01*
X124809999Y-98847159D02*
X124809999Y-100252843D01*
X121360516Y-98630281D02*
G75*
G02*
X121410001Y-98847159I-450505J-216876D01*
G01*
X121360516Y-98630282D02*
G75*
G02*
X122063289Y-97981702I450514J216880D01*
G01*
X121410001Y-100252844D02*
G75*
G02*
X121360516Y-100469721I-499990J-1D01*
G01*
X122063289Y-101118299D02*
G75*
G02*
X121360516Y-100469721I-252258J431701D01*
G01*
X122063289Y-101118299D02*
G75*
G02*
X122315547Y-101050000I252261J-431710D01*
G01*
X122315548Y-98050001D02*
G75*
G02*
X122063289Y-97981702I2J500009D01*
G01*
X123904453Y-101050001D02*
G75*
G02*
X124156711Y-101118300I-3J-500009D01*
G01*
X124156710Y-97981702D02*
G75*
G02*
X123904452Y-98050000I-252260J431712D01*
G01*
X124156711Y-97981704D02*
G75*
G02*
X124859480Y-98630279I252259J-431696D01*
G01*
X124809999Y-98847158D02*
G75*
G02*
X124859483Y-98630281I500361J-82D01*
G01*
X124859484Y-100469721D02*
G75*
G02*
X124156711Y-101118300I-450514J-216879D01*
G01*
X124859484Y-100469721D02*
G75*
G02*
X124810024Y-100252843I450516J216821D01*
G01*
%TO.C,LED4*%
X92800001Y-38352843D02*
X92800001Y-36947159D01*
X93705548Y-36150001D02*
X95294452Y-36150001D01*
X95294452Y-39150000D02*
X93705547Y-39150000D01*
X96199999Y-36947159D02*
X96199999Y-38352843D01*
X92750516Y-36730281D02*
G75*
G02*
X92800001Y-36947159I-450505J-216876D01*
G01*
X92750516Y-36730282D02*
G75*
G02*
X93453289Y-36081702I450514J216880D01*
G01*
X92800001Y-38352844D02*
G75*
G02*
X92750516Y-38569721I-499990J-1D01*
G01*
X93453289Y-39218299D02*
G75*
G02*
X92750516Y-38569721I-252258J431701D01*
G01*
X93453289Y-39218299D02*
G75*
G02*
X93705547Y-39150000I252261J-431710D01*
G01*
X93705548Y-36150001D02*
G75*
G02*
X93453289Y-36081702I2J500009D01*
G01*
X95294453Y-39150001D02*
G75*
G02*
X95546711Y-39218300I-3J-500009D01*
G01*
X95546710Y-36081702D02*
G75*
G02*
X95294452Y-36150000I-252260J431712D01*
G01*
X95546711Y-36081704D02*
G75*
G02*
X96249480Y-36730279I252259J-431696D01*
G01*
X96199999Y-36947158D02*
G75*
G02*
X96249483Y-36730281I500361J-82D01*
G01*
X96249484Y-38569721D02*
G75*
G02*
X95546711Y-39218300I-450514J-216879D01*
G01*
X96249484Y-38569721D02*
G75*
G02*
X96200024Y-38352843I450516J216821D01*
G01*
%TO.C,LED83*%
X302300001Y-143202843D02*
X302300001Y-141797159D01*
X303205548Y-141000001D02*
X304794452Y-141000001D01*
X304794452Y-144000000D02*
X303205547Y-144000000D01*
X305699999Y-141797159D02*
X305699999Y-143202843D01*
X302250516Y-141580281D02*
G75*
G02*
X302300001Y-141797159I-450505J-216876D01*
G01*
X302250516Y-141580282D02*
G75*
G02*
X302953289Y-140931702I450514J216880D01*
G01*
X302300001Y-143202844D02*
G75*
G02*
X302250516Y-143419721I-499990J-1D01*
G01*
X302953289Y-144068299D02*
G75*
G02*
X302250516Y-143419721I-252258J431701D01*
G01*
X302953289Y-144068299D02*
G75*
G02*
X303205547Y-144000000I252261J-431710D01*
G01*
X303205548Y-141000001D02*
G75*
G02*
X302953289Y-140931702I2J500009D01*
G01*
X304794453Y-144000001D02*
G75*
G02*
X305046711Y-144068300I-3J-500009D01*
G01*
X305046710Y-140931702D02*
G75*
G02*
X304794452Y-141000000I-252260J431712D01*
G01*
X305046711Y-140931704D02*
G75*
G02*
X305749480Y-141580279I252259J-431696D01*
G01*
X305699999Y-141797158D02*
G75*
G02*
X305749483Y-141580281I500361J-82D01*
G01*
X305749484Y-143419721D02*
G75*
G02*
X305046711Y-144068300I-450514J-216879D01*
G01*
X305749484Y-143419721D02*
G75*
G02*
X305700024Y-143202843I450516J216821D01*
G01*
%TO.C,LED8*%
X173825001Y-38352843D02*
X173825001Y-36947159D01*
X174730548Y-36150001D02*
X176319452Y-36150001D01*
X176319452Y-39150000D02*
X174730547Y-39150000D01*
X177224999Y-36947159D02*
X177224999Y-38352843D01*
X173775516Y-36730281D02*
G75*
G02*
X173825001Y-36947159I-450505J-216876D01*
G01*
X173775516Y-36730282D02*
G75*
G02*
X174478289Y-36081702I450514J216880D01*
G01*
X173825001Y-38352844D02*
G75*
G02*
X173775516Y-38569721I-499990J-1D01*
G01*
X174478289Y-39218299D02*
G75*
G02*
X173775516Y-38569721I-252258J431701D01*
G01*
X174478289Y-39218299D02*
G75*
G02*
X174730547Y-39150000I252261J-431710D01*
G01*
X174730548Y-36150001D02*
G75*
G02*
X174478289Y-36081702I2J500009D01*
G01*
X176319453Y-39150001D02*
G75*
G02*
X176571711Y-39218300I-3J-500009D01*
G01*
X176571710Y-36081702D02*
G75*
G02*
X176319452Y-36150000I-252260J431712D01*
G01*
X176571711Y-36081704D02*
G75*
G02*
X177274480Y-36730279I252259J-431696D01*
G01*
X177224999Y-36947158D02*
G75*
G02*
X177274483Y-36730281I500361J-82D01*
G01*
X177274484Y-38569721D02*
G75*
G02*
X176571711Y-39218300I-450514J-216879D01*
G01*
X177274484Y-38569721D02*
G75*
G02*
X177225024Y-38352843I450516J216821D01*
G01*
%TO.C,LED49*%
X230955557Y-81252843D02*
X230955557Y-79847159D01*
X231861104Y-79050001D02*
X233450008Y-79050001D01*
X233450008Y-82050000D02*
X231861103Y-82050000D01*
X234355555Y-79847159D02*
X234355555Y-81252843D01*
X230906072Y-79630281D02*
G75*
G02*
X230955557Y-79847159I-450505J-216876D01*
G01*
X230906072Y-79630282D02*
G75*
G02*
X231608845Y-78981702I450514J216880D01*
G01*
X230955557Y-81252844D02*
G75*
G02*
X230906072Y-81469721I-499990J-1D01*
G01*
X231608845Y-82118299D02*
G75*
G02*
X230906072Y-81469721I-252258J431701D01*
G01*
X231608845Y-82118299D02*
G75*
G02*
X231861103Y-82050000I252261J-431710D01*
G01*
X231861104Y-79050001D02*
G75*
G02*
X231608845Y-78981702I2J500009D01*
G01*
X233450009Y-82050001D02*
G75*
G02*
X233702267Y-82118300I-3J-500009D01*
G01*
X233702266Y-78981702D02*
G75*
G02*
X233450008Y-79050000I-252260J431712D01*
G01*
X233702267Y-78981704D02*
G75*
G02*
X234405036Y-79630279I252259J-431696D01*
G01*
X234355555Y-79847158D02*
G75*
G02*
X234405039Y-79630281I500361J-82D01*
G01*
X234405040Y-81469721D02*
G75*
G02*
X233702267Y-82118300I-450514J-216879D01*
G01*
X234405040Y-81469721D02*
G75*
G02*
X234355580Y-81252843I450516J216821D01*
G01*
%TO.C,LED39*%
X235680001Y-100252843D02*
X235680001Y-98847159D01*
X236585548Y-98050001D02*
X238174452Y-98050001D01*
X238174452Y-101050000D02*
X236585547Y-101050000D01*
X239079999Y-98847159D02*
X239079999Y-100252843D01*
X235630516Y-98630281D02*
G75*
G02*
X235680001Y-98847159I-450505J-216876D01*
G01*
X235630516Y-98630282D02*
G75*
G02*
X236333289Y-97981702I450514J216880D01*
G01*
X235680001Y-100252844D02*
G75*
G02*
X235630516Y-100469721I-499990J-1D01*
G01*
X236333289Y-101118299D02*
G75*
G02*
X235630516Y-100469721I-252258J431701D01*
G01*
X236333289Y-101118299D02*
G75*
G02*
X236585547Y-101050000I252261J-431710D01*
G01*
X236585548Y-98050001D02*
G75*
G02*
X236333289Y-97981702I2J500009D01*
G01*
X238174453Y-101050001D02*
G75*
G02*
X238426711Y-101118300I-3J-500009D01*
G01*
X238426710Y-97981702D02*
G75*
G02*
X238174452Y-98050000I-252260J431712D01*
G01*
X238426711Y-97981704D02*
G75*
G02*
X239129480Y-98630279I252259J-431696D01*
G01*
X239079999Y-98847158D02*
G75*
G02*
X239129483Y-98630281I500361J-82D01*
G01*
X239129484Y-100469721D02*
G75*
G02*
X238426711Y-101118300I-450514J-216879D01*
G01*
X239129484Y-100469721D02*
G75*
G02*
X239080024Y-100252843I450516J216821D01*
G01*
%TO.C,LED2*%
X54750001Y-38352843D02*
X54750001Y-36947159D01*
X55655548Y-36150001D02*
X57244452Y-36150001D01*
X57244452Y-39150000D02*
X55655547Y-39150000D01*
X58149999Y-36947159D02*
X58149999Y-38352843D01*
X54700516Y-36730281D02*
G75*
G02*
X54750001Y-36947159I-450505J-216876D01*
G01*
X54700516Y-36730282D02*
G75*
G02*
X55403289Y-36081702I450514J216880D01*
G01*
X54750001Y-38352844D02*
G75*
G02*
X54700516Y-38569721I-499990J-1D01*
G01*
X55403289Y-39218299D02*
G75*
G02*
X54700516Y-38569721I-252258J431701D01*
G01*
X55403289Y-39218299D02*
G75*
G02*
X55655547Y-39150000I252261J-431710D01*
G01*
X55655548Y-36150001D02*
G75*
G02*
X55403289Y-36081702I2J500009D01*
G01*
X57244453Y-39150001D02*
G75*
G02*
X57496711Y-39218300I-3J-500009D01*
G01*
X57496710Y-36081702D02*
G75*
G02*
X57244452Y-36150000I-252260J431712D01*
G01*
X57496711Y-36081704D02*
G75*
G02*
X58199480Y-36730279I252259J-431696D01*
G01*
X58149999Y-36947158D02*
G75*
G02*
X58199483Y-36730281I500361J-82D01*
G01*
X58199484Y-38569721D02*
G75*
G02*
X57496711Y-39218300I-450514J-216879D01*
G01*
X58199484Y-38569721D02*
G75*
G02*
X58150024Y-38352843I450516J216821D01*
G01*
%TO.C,LED56*%
X226213890Y-119352843D02*
X226213890Y-117947159D01*
X227119437Y-117150001D02*
X228708341Y-117150001D01*
X228708341Y-120150000D02*
X227119436Y-120150000D01*
X229613888Y-117947159D02*
X229613888Y-119352843D01*
X226164405Y-117730281D02*
G75*
G02*
X226213890Y-117947159I-450505J-216876D01*
G01*
X226164405Y-117730282D02*
G75*
G02*
X226867178Y-117081702I450514J216880D01*
G01*
X226213890Y-119352844D02*
G75*
G02*
X226164405Y-119569721I-499990J-1D01*
G01*
X226867178Y-120218299D02*
G75*
G02*
X226164405Y-119569721I-252258J431701D01*
G01*
X226867178Y-120218299D02*
G75*
G02*
X227119436Y-120150000I252261J-431710D01*
G01*
X227119437Y-117150001D02*
G75*
G02*
X226867178Y-117081702I2J500009D01*
G01*
X228708342Y-120150001D02*
G75*
G02*
X228960600Y-120218300I-3J-500009D01*
G01*
X228960599Y-117081702D02*
G75*
G02*
X228708341Y-117150000I-252260J431712D01*
G01*
X228960600Y-117081704D02*
G75*
G02*
X229663369Y-117730279I252259J-431696D01*
G01*
X229613888Y-117947158D02*
G75*
G02*
X229663372Y-117730281I500361J-82D01*
G01*
X229663373Y-119569721D02*
G75*
G02*
X228960600Y-120218300I-450514J-216879D01*
G01*
X229663373Y-119569721D02*
G75*
G02*
X229613913Y-119352843I450516J216821D01*
G01*
%TO.C,LED6*%
X135675001Y-38377843D02*
X135675001Y-36972159D01*
X136580548Y-36175001D02*
X138169452Y-36175001D01*
X138169452Y-39175000D02*
X136580547Y-39175000D01*
X139074999Y-36972159D02*
X139074999Y-38377843D01*
X135625516Y-36755281D02*
G75*
G02*
X135675001Y-36972159I-450505J-216876D01*
G01*
X135625516Y-36755282D02*
G75*
G02*
X136328289Y-36106702I450514J216880D01*
G01*
X135675001Y-38377844D02*
G75*
G02*
X135625516Y-38594721I-499990J-1D01*
G01*
X136328289Y-39243299D02*
G75*
G02*
X135625516Y-38594721I-252258J431701D01*
G01*
X136328289Y-39243299D02*
G75*
G02*
X136580547Y-39175000I252261J-431710D01*
G01*
X136580548Y-36175001D02*
G75*
G02*
X136328289Y-36106702I2J500009D01*
G01*
X138169453Y-39175001D02*
G75*
G02*
X138421711Y-39243300I-3J-500009D01*
G01*
X138421710Y-36106702D02*
G75*
G02*
X138169452Y-36175000I-252260J431712D01*
G01*
X138421711Y-36106704D02*
G75*
G02*
X139124480Y-36755279I252259J-431696D01*
G01*
X139074999Y-36972158D02*
G75*
G02*
X139124483Y-36755281I500361J-82D01*
G01*
X139124484Y-38594721D02*
G75*
G02*
X138421711Y-39243300I-450514J-216879D01*
G01*
X139124484Y-38594721D02*
G75*
G02*
X139075024Y-38377843I450516J216821D01*
G01*
%TO.C,LED9*%
X192900001Y-38302843D02*
X192900001Y-36897159D01*
X193805548Y-36100001D02*
X195394452Y-36100001D01*
X195394452Y-39100000D02*
X193805547Y-39100000D01*
X196299999Y-36897159D02*
X196299999Y-38302843D01*
X192850516Y-36680281D02*
G75*
G02*
X192900001Y-36897159I-450505J-216876D01*
G01*
X192850516Y-36680282D02*
G75*
G02*
X193553289Y-36031702I450514J216880D01*
G01*
X192900001Y-38302844D02*
G75*
G02*
X192850516Y-38519721I-499990J-1D01*
G01*
X193553289Y-39168299D02*
G75*
G02*
X192850516Y-38519721I-252258J431701D01*
G01*
X193553289Y-39168299D02*
G75*
G02*
X193805547Y-39100000I252261J-431710D01*
G01*
X193805548Y-36100001D02*
G75*
G02*
X193553289Y-36031702I2J500009D01*
G01*
X195394453Y-39100001D02*
G75*
G02*
X195646711Y-39168300I-3J-500009D01*
G01*
X195646710Y-36031702D02*
G75*
G02*
X195394452Y-36100000I-252260J431712D01*
G01*
X195646711Y-36031704D02*
G75*
G02*
X196349480Y-36680279I252259J-431696D01*
G01*
X196299999Y-36897158D02*
G75*
G02*
X196349483Y-36680281I500361J-82D01*
G01*
X196349484Y-38519721D02*
G75*
G02*
X195646711Y-39168300I-450514J-216879D01*
G01*
X196349484Y-38519721D02*
G75*
G02*
X196300024Y-38302843I450516J216821D01*
G01*
%TO.C,LED62*%
X178545001Y-100252843D02*
X178545001Y-98847159D01*
X179450548Y-98050001D02*
X181039452Y-98050001D01*
X181039452Y-101050000D02*
X179450547Y-101050000D01*
X181944999Y-98847159D02*
X181944999Y-100252843D01*
X178495516Y-98630281D02*
G75*
G02*
X178545001Y-98847159I-450505J-216876D01*
G01*
X178495516Y-98630282D02*
G75*
G02*
X179198289Y-97981702I450514J216880D01*
G01*
X178545001Y-100252844D02*
G75*
G02*
X178495516Y-100469721I-499990J-1D01*
G01*
X179198289Y-101118299D02*
G75*
G02*
X178495516Y-100469721I-252258J431701D01*
G01*
X179198289Y-101118299D02*
G75*
G02*
X179450547Y-101050000I252261J-431710D01*
G01*
X179450548Y-98050001D02*
G75*
G02*
X179198289Y-97981702I2J500009D01*
G01*
X181039453Y-101050001D02*
G75*
G02*
X181291711Y-101118300I-3J-500009D01*
G01*
X181291710Y-97981702D02*
G75*
G02*
X181039452Y-98050000I-252260J431712D01*
G01*
X181291711Y-97981704D02*
G75*
G02*
X181994480Y-98630279I252259J-431696D01*
G01*
X181944999Y-98847158D02*
G75*
G02*
X181994483Y-98630281I500361J-82D01*
G01*
X181994484Y-100469721D02*
G75*
G02*
X181291711Y-101118300I-450514J-216879D01*
G01*
X181994484Y-100469721D02*
G75*
G02*
X181945024Y-100252843I450516J216821D01*
G01*
%TO.C,LED74*%
X80925001Y-138352843D02*
X80925001Y-136947159D01*
X81830548Y-136150001D02*
X83419452Y-136150001D01*
X83419452Y-139150000D02*
X81830547Y-139150000D01*
X84324999Y-136947159D02*
X84324999Y-138352843D01*
X80875516Y-136730281D02*
G75*
G02*
X80925001Y-136947159I-450505J-216876D01*
G01*
X80875516Y-136730282D02*
G75*
G02*
X81578289Y-136081702I450514J216880D01*
G01*
X80925001Y-138352844D02*
G75*
G02*
X80875516Y-138569721I-499990J-1D01*
G01*
X81578289Y-139218299D02*
G75*
G02*
X80875516Y-138569721I-252258J431701D01*
G01*
X81578289Y-139218299D02*
G75*
G02*
X81830547Y-139150000I252261J-431710D01*
G01*
X81830548Y-136150001D02*
G75*
G02*
X81578289Y-136081702I2J500009D01*
G01*
X83419453Y-139150001D02*
G75*
G02*
X83671711Y-139218300I-3J-500009D01*
G01*
X83671710Y-136081702D02*
G75*
G02*
X83419452Y-136150000I-252260J431712D01*
G01*
X83671711Y-136081704D02*
G75*
G02*
X84374480Y-136730279I252259J-431696D01*
G01*
X84324999Y-136947158D02*
G75*
G02*
X84374483Y-136730281I500361J-82D01*
G01*
X84374484Y-138569721D02*
G75*
G02*
X83671711Y-139218300I-450514J-216879D01*
G01*
X84374484Y-138569721D02*
G75*
G02*
X84325024Y-138352843I450516J216821D01*
G01*
%TO.C,LED14*%
X321450001Y-38352843D02*
X321450001Y-36947159D01*
X322355548Y-36150001D02*
X323944452Y-36150001D01*
X323944452Y-39150000D02*
X322355547Y-39150000D01*
X324849999Y-36947159D02*
X324849999Y-38352843D01*
X321400516Y-36730281D02*
G75*
G02*
X321450001Y-36947159I-450505J-216876D01*
G01*
X321400516Y-36730282D02*
G75*
G02*
X322103289Y-36081702I450514J216880D01*
G01*
X321450001Y-38352844D02*
G75*
G02*
X321400516Y-38569721I-499990J-1D01*
G01*
X322103289Y-39218299D02*
G75*
G02*
X321400516Y-38569721I-252258J431701D01*
G01*
X322103289Y-39218299D02*
G75*
G02*
X322355547Y-39150000I252261J-431710D01*
G01*
X322355548Y-36150001D02*
G75*
G02*
X322103289Y-36081702I2J500009D01*
G01*
X323944453Y-39150001D02*
G75*
G02*
X324196711Y-39218300I-3J-500009D01*
G01*
X324196710Y-36081702D02*
G75*
G02*
X323944452Y-36150000I-252260J431712D01*
G01*
X324196711Y-36081704D02*
G75*
G02*
X324899480Y-36730279I252259J-431696D01*
G01*
X324849999Y-36947158D02*
G75*
G02*
X324899483Y-36730281I500361J-82D01*
G01*
X324899484Y-38569721D02*
G75*
G02*
X324196711Y-39218300I-450514J-216879D01*
G01*
X324899484Y-38569721D02*
G75*
G02*
X324850024Y-38352843I450516J216821D01*
G01*
%TO.C,LED33*%
X240450001Y-62202843D02*
X240450001Y-60797159D01*
X241355548Y-60000001D02*
X242944452Y-60000001D01*
X242944452Y-63000000D02*
X241355547Y-63000000D01*
X243849999Y-60797159D02*
X243849999Y-62202843D01*
X240400516Y-60580281D02*
G75*
G02*
X240450001Y-60797159I-450505J-216876D01*
G01*
X240400516Y-60580282D02*
G75*
G02*
X241103289Y-59931702I450514J216880D01*
G01*
X240450001Y-62202844D02*
G75*
G02*
X240400516Y-62419721I-499990J-1D01*
G01*
X241103289Y-63068299D02*
G75*
G02*
X240400516Y-62419721I-252258J431701D01*
G01*
X241103289Y-63068299D02*
G75*
G02*
X241355547Y-63000000I252261J-431710D01*
G01*
X241355548Y-60000001D02*
G75*
G02*
X241103289Y-59931702I2J500009D01*
G01*
X242944453Y-63000001D02*
G75*
G02*
X243196711Y-63068300I-3J-500009D01*
G01*
X243196710Y-59931702D02*
G75*
G02*
X242944452Y-60000000I-252260J431712D01*
G01*
X243196711Y-59931704D02*
G75*
G02*
X243899480Y-60580279I252259J-431696D01*
G01*
X243849999Y-60797158D02*
G75*
G02*
X243899483Y-60580281I500361J-82D01*
G01*
X243899484Y-62419721D02*
G75*
G02*
X243196711Y-63068300I-450514J-216879D01*
G01*
X243899484Y-62419721D02*
G75*
G02*
X243850024Y-62202843I450516J216821D01*
G01*
%TO.C,LED31*%
X221375001Y-62227843D02*
X221375001Y-60822159D01*
X222280548Y-60025001D02*
X223869452Y-60025001D01*
X223869452Y-63025000D02*
X222280547Y-63025000D01*
X224774999Y-60822159D02*
X224774999Y-62227843D01*
X221325516Y-60605281D02*
G75*
G02*
X221375001Y-60822159I-450505J-216876D01*
G01*
X221325516Y-60605282D02*
G75*
G02*
X222028289Y-59956702I450514J216880D01*
G01*
X221375001Y-62227844D02*
G75*
G02*
X221325516Y-62444721I-499990J-1D01*
G01*
X222028289Y-63093299D02*
G75*
G02*
X221325516Y-62444721I-252258J431701D01*
G01*
X222028289Y-63093299D02*
G75*
G02*
X222280547Y-63025000I252261J-431710D01*
G01*
X222280548Y-60025001D02*
G75*
G02*
X222028289Y-59956702I2J500009D01*
G01*
X223869453Y-63025001D02*
G75*
G02*
X224121711Y-63093300I-3J-500009D01*
G01*
X224121710Y-59956702D02*
G75*
G02*
X223869452Y-60025000I-252260J431712D01*
G01*
X224121711Y-59956704D02*
G75*
G02*
X224824480Y-60605279I252259J-431696D01*
G01*
X224774999Y-60822158D02*
G75*
G02*
X224824483Y-60605281I500361J-82D01*
G01*
X224824484Y-62444721D02*
G75*
G02*
X224121711Y-63093300I-450514J-216879D01*
G01*
X224824484Y-62444721D02*
G75*
G02*
X224775024Y-62227843I450516J216821D01*
G01*
%TO.C,LED82*%
X216625001Y-38327843D02*
X216625001Y-36922159D01*
X217530548Y-36125001D02*
X219119452Y-36125001D01*
X219119452Y-39125000D02*
X217530547Y-39125000D01*
X220024999Y-36922159D02*
X220024999Y-38327843D01*
X216575516Y-36705281D02*
G75*
G02*
X216625001Y-36922159I-450505J-216876D01*
G01*
X216575516Y-36705282D02*
G75*
G02*
X217278289Y-36056702I450514J216880D01*
G01*
X216625001Y-38327844D02*
G75*
G02*
X216575516Y-38544721I-499990J-1D01*
G01*
X217278289Y-39193299D02*
G75*
G02*
X216575516Y-38544721I-252258J431701D01*
G01*
X217278289Y-39193299D02*
G75*
G02*
X217530547Y-39125000I252261J-431710D01*
G01*
X217530548Y-36125001D02*
G75*
G02*
X217278289Y-36056702I2J500009D01*
G01*
X219119453Y-39125001D02*
G75*
G02*
X219371711Y-39193300I-3J-500009D01*
G01*
X219371710Y-36056702D02*
G75*
G02*
X219119452Y-36125000I-252260J431712D01*
G01*
X219371711Y-36056704D02*
G75*
G02*
X220074480Y-36705279I252259J-431696D01*
G01*
X220024999Y-36922158D02*
G75*
G02*
X220074483Y-36705281I500361J-82D01*
G01*
X220074484Y-38544721D02*
G75*
G02*
X219371711Y-39193300I-450514J-216879D01*
G01*
X220074484Y-38544721D02*
G75*
G02*
X220025024Y-38327843I450516J216821D01*
G01*
%TO.C,LED64*%
X272725001Y-119352843D02*
X272725001Y-117947159D01*
X273630548Y-117150001D02*
X275219452Y-117150001D01*
X275219452Y-120150000D02*
X273630547Y-120150000D01*
X276124999Y-117947159D02*
X276124999Y-119352843D01*
X272675516Y-117730281D02*
G75*
G02*
X272725001Y-117947159I-450505J-216876D01*
G01*
X272675516Y-117730282D02*
G75*
G02*
X273378289Y-117081702I450514J216880D01*
G01*
X272725001Y-119352844D02*
G75*
G02*
X272675516Y-119569721I-499990J-1D01*
G01*
X273378289Y-120218299D02*
G75*
G02*
X272675516Y-119569721I-252258J431701D01*
G01*
X273378289Y-120218299D02*
G75*
G02*
X273630547Y-120150000I252261J-431710D01*
G01*
X273630548Y-117150001D02*
G75*
G02*
X273378289Y-117081702I2J500009D01*
G01*
X275219453Y-120150001D02*
G75*
G02*
X275471711Y-120218300I-3J-500009D01*
G01*
X275471710Y-117081702D02*
G75*
G02*
X275219452Y-117150000I-252260J431712D01*
G01*
X275471711Y-117081704D02*
G75*
G02*
X276174480Y-117730279I252259J-431696D01*
G01*
X276124999Y-117947158D02*
G75*
G02*
X276174483Y-117730281I500361J-82D01*
G01*
X276174484Y-119569721D02*
G75*
G02*
X275471711Y-120218300I-450514J-216879D01*
G01*
X276174484Y-119569721D02*
G75*
G02*
X276125024Y-119352843I450516J216821D01*
G01*
%TO.C,LED68*%
X302275001Y-124052843D02*
X302275001Y-122647159D01*
X303180548Y-121850001D02*
X304769452Y-121850001D01*
X304769452Y-124850000D02*
X303180547Y-124850000D01*
X305674999Y-122647159D02*
X305674999Y-124052843D01*
X302225516Y-122430281D02*
G75*
G02*
X302275001Y-122647159I-450505J-216876D01*
G01*
X302225516Y-122430282D02*
G75*
G02*
X302928289Y-121781702I450514J216880D01*
G01*
X302275001Y-124052844D02*
G75*
G02*
X302225516Y-124269721I-499990J-1D01*
G01*
X302928289Y-124918299D02*
G75*
G02*
X302225516Y-124269721I-252258J431701D01*
G01*
X302928289Y-124918299D02*
G75*
G02*
X303180547Y-124850000I252261J-431710D01*
G01*
X303180548Y-121850001D02*
G75*
G02*
X302928289Y-121781702I2J500009D01*
G01*
X304769453Y-124850001D02*
G75*
G02*
X305021711Y-124918300I-3J-500009D01*
G01*
X305021710Y-121781702D02*
G75*
G02*
X304769452Y-121850000I-252260J431712D01*
G01*
X305021711Y-121781704D02*
G75*
G02*
X305724480Y-122430279I252259J-431696D01*
G01*
X305674999Y-122647158D02*
G75*
G02*
X305724483Y-122430281I500361J-82D01*
G01*
X305724484Y-124269721D02*
G75*
G02*
X305021711Y-124918300I-450514J-216879D01*
G01*
X305724484Y-124269721D02*
G75*
G02*
X305675024Y-124052843I450516J216821D01*
G01*
%TO.C,LED22*%
X321425001Y-62127843D02*
X321425001Y-60722159D01*
X322330548Y-59925001D02*
X323919452Y-59925001D01*
X323919452Y-62925000D02*
X322330547Y-62925000D01*
X324824999Y-60722159D02*
X324824999Y-62127843D01*
X321375516Y-60505281D02*
G75*
G02*
X321425001Y-60722159I-450505J-216876D01*
G01*
X321375516Y-60505282D02*
G75*
G02*
X322078289Y-59856702I450514J216880D01*
G01*
X321425001Y-62127844D02*
G75*
G02*
X321375516Y-62344721I-499990J-1D01*
G01*
X322078289Y-62993299D02*
G75*
G02*
X321375516Y-62344721I-252258J431701D01*
G01*
X322078289Y-62993299D02*
G75*
G02*
X322330547Y-62925000I252261J-431710D01*
G01*
X322330548Y-59925001D02*
G75*
G02*
X322078289Y-59856702I2J500009D01*
G01*
X323919453Y-62925001D02*
G75*
G02*
X324171711Y-62993300I-3J-500009D01*
G01*
X324171710Y-59856702D02*
G75*
G02*
X323919452Y-59925000I-252260J431712D01*
G01*
X324171711Y-59856704D02*
G75*
G02*
X324874480Y-60505279I252259J-431696D01*
G01*
X324824999Y-60722158D02*
G75*
G02*
X324874483Y-60505281I500361J-82D01*
G01*
X324874484Y-62344721D02*
G75*
G02*
X324171711Y-62993300I-450514J-216879D01*
G01*
X324874484Y-62344721D02*
G75*
G02*
X324825024Y-62127843I450516J216821D01*
G01*
%TO.C,LED77*%
X194375001Y-138352843D02*
X194375001Y-136947159D01*
X195280548Y-136150001D02*
X196869452Y-136150001D01*
X196869452Y-139150000D02*
X195280547Y-139150000D01*
X197774999Y-136947159D02*
X197774999Y-138352843D01*
X194325516Y-136730281D02*
G75*
G02*
X194375001Y-136947159I-450505J-216876D01*
G01*
X194325516Y-136730282D02*
G75*
G02*
X195028289Y-136081702I450514J216880D01*
G01*
X194375001Y-138352844D02*
G75*
G02*
X194325516Y-138569721I-499990J-1D01*
G01*
X195028289Y-139218299D02*
G75*
G02*
X194325516Y-138569721I-252258J431701D01*
G01*
X195028289Y-139218299D02*
G75*
G02*
X195280547Y-139150000I252261J-431710D01*
G01*
X195280548Y-136150001D02*
G75*
G02*
X195028289Y-136081702I2J500009D01*
G01*
X196869453Y-139150001D02*
G75*
G02*
X197121711Y-139218300I-3J-500009D01*
G01*
X197121710Y-136081702D02*
G75*
G02*
X196869452Y-136150000I-252260J431712D01*
G01*
X197121711Y-136081704D02*
G75*
G02*
X197824480Y-136730279I252259J-431696D01*
G01*
X197774999Y-136947158D02*
G75*
G02*
X197824483Y-136730281I500361J-82D01*
G01*
X197824484Y-138569721D02*
G75*
G02*
X197121711Y-139218300I-450514J-216879D01*
G01*
X197824484Y-138569721D02*
G75*
G02*
X197775024Y-138352843I450516J216821D01*
G01*
%TO.C,LED12*%
X273800001Y-38402843D02*
X273800001Y-36997159D01*
X274705548Y-36200001D02*
X276294452Y-36200001D01*
X276294452Y-39200000D02*
X274705547Y-39200000D01*
X277199999Y-36997159D02*
X277199999Y-38402843D01*
X273750516Y-36780281D02*
G75*
G02*
X273800001Y-36997159I-450505J-216876D01*
G01*
X273750516Y-36780282D02*
G75*
G02*
X274453289Y-36131702I450514J216880D01*
G01*
X273800001Y-38402844D02*
G75*
G02*
X273750516Y-38619721I-499990J-1D01*
G01*
X274453289Y-39268299D02*
G75*
G02*
X273750516Y-38619721I-252258J431701D01*
G01*
X274453289Y-39268299D02*
G75*
G02*
X274705547Y-39200000I252261J-431710D01*
G01*
X274705548Y-36200001D02*
G75*
G02*
X274453289Y-36131702I2J500009D01*
G01*
X276294453Y-39200001D02*
G75*
G02*
X276546711Y-39268300I-3J-500009D01*
G01*
X276546710Y-36131702D02*
G75*
G02*
X276294452Y-36200000I-252260J431712D01*
G01*
X276546711Y-36131704D02*
G75*
G02*
X277249480Y-36780279I252259J-431696D01*
G01*
X277199999Y-36997158D02*
G75*
G02*
X277249483Y-36780281I500361J-82D01*
G01*
X277249484Y-38619721D02*
G75*
G02*
X276546711Y-39268300I-450514J-216879D01*
G01*
X277249484Y-38619721D02*
G75*
G02*
X277200024Y-38402843I450516J216821D01*
G01*
%TO.C,LED43*%
X254725001Y-100252843D02*
X254725001Y-98847159D01*
X255630548Y-98050001D02*
X257219452Y-98050001D01*
X257219452Y-101050000D02*
X255630547Y-101050000D01*
X258124999Y-98847159D02*
X258124999Y-100252843D01*
X254675516Y-98630281D02*
G75*
G02*
X254725001Y-98847159I-450505J-216876D01*
G01*
X254675516Y-98630282D02*
G75*
G02*
X255378289Y-97981702I450514J216880D01*
G01*
X254725001Y-100252844D02*
G75*
G02*
X254675516Y-100469721I-499990J-1D01*
G01*
X255378289Y-101118299D02*
G75*
G02*
X254675516Y-100469721I-252258J431701D01*
G01*
X255378289Y-101118299D02*
G75*
G02*
X255630547Y-101050000I252261J-431710D01*
G01*
X255630548Y-98050001D02*
G75*
G02*
X255378289Y-97981702I2J500009D01*
G01*
X257219453Y-101050001D02*
G75*
G02*
X257471711Y-101118300I-3J-500009D01*
G01*
X257471710Y-97981702D02*
G75*
G02*
X257219452Y-98050000I-252260J431712D01*
G01*
X257471711Y-97981704D02*
G75*
G02*
X258174480Y-98630279I252259J-431696D01*
G01*
X258124999Y-98847158D02*
G75*
G02*
X258174483Y-98630281I500361J-82D01*
G01*
X258174484Y-100469721D02*
G75*
G02*
X257471711Y-101118300I-450514J-216879D01*
G01*
X258174484Y-100469721D02*
G75*
G02*
X258125024Y-100252843I450516J216821D01*
G01*
%TO.C,LED63*%
X92786112Y-119352843D02*
X92786112Y-117947159D01*
X93691659Y-117150001D02*
X95280563Y-117150001D01*
X95280563Y-120150000D02*
X93691658Y-120150000D01*
X96186110Y-117947159D02*
X96186110Y-119352843D01*
X92736627Y-117730281D02*
G75*
G02*
X92786112Y-117947159I-450505J-216876D01*
G01*
X92736627Y-117730282D02*
G75*
G02*
X93439400Y-117081702I450514J216880D01*
G01*
X92786112Y-119352844D02*
G75*
G02*
X92736627Y-119569721I-499990J-1D01*
G01*
X93439400Y-120218299D02*
G75*
G02*
X92736627Y-119569721I-252258J431701D01*
G01*
X93439400Y-120218299D02*
G75*
G02*
X93691658Y-120150000I252261J-431710D01*
G01*
X93691659Y-117150001D02*
G75*
G02*
X93439400Y-117081702I2J500009D01*
G01*
X95280564Y-120150001D02*
G75*
G02*
X95532822Y-120218300I-3J-500009D01*
G01*
X95532821Y-117081702D02*
G75*
G02*
X95280563Y-117150000I-252260J431712D01*
G01*
X95532822Y-117081704D02*
G75*
G02*
X96235591Y-117730279I252259J-431696D01*
G01*
X96186110Y-117947158D02*
G75*
G02*
X96235594Y-117730281I500361J-82D01*
G01*
X96235595Y-119569721D02*
G75*
G02*
X95532822Y-120218300I-450514J-216879D01*
G01*
X96235595Y-119569721D02*
G75*
G02*
X96186135Y-119352843I450516J216821D01*
G01*
%TO.C,LED55*%
X42825001Y-119252843D02*
X42825001Y-117847159D01*
X43730548Y-117050001D02*
X45319452Y-117050001D01*
X45319452Y-120050000D02*
X43730547Y-120050000D01*
X46224999Y-117847159D02*
X46224999Y-119252843D01*
X42775516Y-117630281D02*
G75*
G02*
X42825001Y-117847159I-450505J-216876D01*
G01*
X42775516Y-117630282D02*
G75*
G02*
X43478289Y-116981702I450514J216880D01*
G01*
X42825001Y-119252844D02*
G75*
G02*
X42775516Y-119469721I-499990J-1D01*
G01*
X43478289Y-120118299D02*
G75*
G02*
X42775516Y-119469721I-252258J431701D01*
G01*
X43478289Y-120118299D02*
G75*
G02*
X43730547Y-120050000I252261J-431710D01*
G01*
X43730548Y-117050001D02*
G75*
G02*
X43478289Y-116981702I2J500009D01*
G01*
X45319453Y-120050001D02*
G75*
G02*
X45571711Y-120118300I-3J-500009D01*
G01*
X45571710Y-116981702D02*
G75*
G02*
X45319452Y-117050000I-252260J431712D01*
G01*
X45571711Y-116981704D02*
G75*
G02*
X46274480Y-117630279I252259J-431696D01*
G01*
X46224999Y-117847158D02*
G75*
G02*
X46274483Y-117630281I500361J-82D01*
G01*
X46274484Y-119469721D02*
G75*
G02*
X45571711Y-120118300I-450514J-216879D01*
G01*
X46274484Y-119469721D02*
G75*
G02*
X46225024Y-119252843I450516J216821D01*
G01*
%TO.C,LED48*%
X188091668Y-119352843D02*
X188091668Y-117947159D01*
X188997215Y-117150001D02*
X190586119Y-117150001D01*
X190586119Y-120150000D02*
X188997214Y-120150000D01*
X191491666Y-117947159D02*
X191491666Y-119352843D01*
X188042183Y-117730281D02*
G75*
G02*
X188091668Y-117947159I-450505J-216876D01*
G01*
X188042183Y-117730282D02*
G75*
G02*
X188744956Y-117081702I450514J216880D01*
G01*
X188091668Y-119352844D02*
G75*
G02*
X188042183Y-119569721I-499990J-1D01*
G01*
X188744956Y-120218299D02*
G75*
G02*
X188042183Y-119569721I-252258J431701D01*
G01*
X188744956Y-120218299D02*
G75*
G02*
X188997214Y-120150000I252261J-431710D01*
G01*
X188997215Y-117150001D02*
G75*
G02*
X188744956Y-117081702I2J500009D01*
G01*
X190586120Y-120150001D02*
G75*
G02*
X190838378Y-120218300I-3J-500009D01*
G01*
X190838377Y-117081702D02*
G75*
G02*
X190586119Y-117150000I-252260J431712D01*
G01*
X190838378Y-117081704D02*
G75*
G02*
X191541147Y-117730279I252259J-431696D01*
G01*
X191491666Y-117947158D02*
G75*
G02*
X191541150Y-117730281I500361J-82D01*
G01*
X191541151Y-119569721D02*
G75*
G02*
X190838378Y-120218300I-450514J-216879D01*
G01*
X191541151Y-119569721D02*
G75*
G02*
X191491691Y-119352843I450516J216821D01*
G01*
%TO.C,LED28*%
X78550001Y-81227843D02*
X78550001Y-79822159D01*
X79455548Y-79025001D02*
X81044452Y-79025001D01*
X81044452Y-82025000D02*
X79455547Y-82025000D01*
X81949999Y-79822159D02*
X81949999Y-81227843D01*
X78500516Y-79605281D02*
G75*
G02*
X78550001Y-79822159I-450505J-216876D01*
G01*
X78500516Y-79605282D02*
G75*
G02*
X79203289Y-78956702I450514J216880D01*
G01*
X78550001Y-81227844D02*
G75*
G02*
X78500516Y-81444721I-499990J-1D01*
G01*
X79203289Y-82093299D02*
G75*
G02*
X78500516Y-81444721I-252258J431701D01*
G01*
X79203289Y-82093299D02*
G75*
G02*
X79455547Y-82025000I252261J-431710D01*
G01*
X79455548Y-79025001D02*
G75*
G02*
X79203289Y-78956702I2J500009D01*
G01*
X81044453Y-82025001D02*
G75*
G02*
X81296711Y-82093300I-3J-500009D01*
G01*
X81296710Y-78956702D02*
G75*
G02*
X81044452Y-79025000I-252260J431712D01*
G01*
X81296711Y-78956704D02*
G75*
G02*
X81999480Y-79605279I252259J-431696D01*
G01*
X81949999Y-79822158D02*
G75*
G02*
X81999483Y-79605281I500361J-82D01*
G01*
X81999484Y-81444721D02*
G75*
G02*
X81296711Y-82093300I-450514J-216879D01*
G01*
X81999484Y-81444721D02*
G75*
G02*
X81950024Y-81227843I450516J216821D01*
G01*
%TO.C,LED47*%
X285775001Y-100252843D02*
X285775001Y-98847159D01*
X286680548Y-98050001D02*
X288269452Y-98050001D01*
X288269452Y-101050000D02*
X286680547Y-101050000D01*
X289174999Y-98847159D02*
X289174999Y-100252843D01*
X285725516Y-98630281D02*
G75*
G02*
X285775001Y-98847159I-450505J-216876D01*
G01*
X285725516Y-98630282D02*
G75*
G02*
X286428289Y-97981702I450514J216880D01*
G01*
X285775001Y-100252844D02*
G75*
G02*
X285725516Y-100469721I-499990J-1D01*
G01*
X286428289Y-101118299D02*
G75*
G02*
X285725516Y-100469721I-252258J431701D01*
G01*
X286428289Y-101118299D02*
G75*
G02*
X286680547Y-101050000I252261J-431710D01*
G01*
X286680548Y-98050001D02*
G75*
G02*
X286428289Y-97981702I2J500009D01*
G01*
X288269453Y-101050001D02*
G75*
G02*
X288521711Y-101118300I-3J-500009D01*
G01*
X288521710Y-97981702D02*
G75*
G02*
X288269452Y-98050000I-252260J431712D01*
G01*
X288521711Y-97981704D02*
G75*
G02*
X289224480Y-98630279I252259J-431696D01*
G01*
X289174999Y-98847158D02*
G75*
G02*
X289224483Y-98630281I500361J-82D01*
G01*
X289224484Y-100469721D02*
G75*
G02*
X288521711Y-101118300I-450514J-216879D01*
G01*
X289224484Y-100469721D02*
G75*
G02*
X289175024Y-100252843I450516J216821D01*
G01*
%TO.C,LED20*%
X288157501Y-62177843D02*
X288157501Y-60772159D01*
X289063048Y-59975001D02*
X290651952Y-59975001D01*
X290651952Y-62975000D02*
X289063047Y-62975000D01*
X291557499Y-60772159D02*
X291557499Y-62177843D01*
X288108016Y-60555281D02*
G75*
G02*
X288157501Y-60772159I-450505J-216876D01*
G01*
X288108016Y-60555282D02*
G75*
G02*
X288810789Y-59906702I450514J216880D01*
G01*
X288157501Y-62177844D02*
G75*
G02*
X288108016Y-62394721I-499990J-1D01*
G01*
X288810789Y-63043299D02*
G75*
G02*
X288108016Y-62394721I-252258J431701D01*
G01*
X288810789Y-63043299D02*
G75*
G02*
X289063047Y-62975000I252261J-431710D01*
G01*
X289063048Y-59975001D02*
G75*
G02*
X288810789Y-59906702I2J500009D01*
G01*
X290651953Y-62975001D02*
G75*
G02*
X290904211Y-63043300I-3J-500009D01*
G01*
X290904210Y-59906702D02*
G75*
G02*
X290651952Y-59975000I-252260J431712D01*
G01*
X290904211Y-59906704D02*
G75*
G02*
X291606980Y-60555279I252259J-431696D01*
G01*
X291557499Y-60772158D02*
G75*
G02*
X291606983Y-60555281I500361J-82D01*
G01*
X291606984Y-62394721D02*
G75*
G02*
X290904211Y-63043300I-450514J-216879D01*
G01*
X291606984Y-62394721D02*
G75*
G02*
X291557524Y-62177843I450516J216821D01*
G01*
%TO.C,LED37*%
X173813890Y-81252843D02*
X173813890Y-79847159D01*
X174719437Y-79050001D02*
X176308341Y-79050001D01*
X176308341Y-82050000D02*
X174719436Y-82050000D01*
X177213888Y-79847159D02*
X177213888Y-81252843D01*
X173764405Y-79630281D02*
G75*
G02*
X173813890Y-79847159I-450505J-216876D01*
G01*
X173764405Y-79630282D02*
G75*
G02*
X174467178Y-78981702I450514J216880D01*
G01*
X173813890Y-81252844D02*
G75*
G02*
X173764405Y-81469721I-499990J-1D01*
G01*
X174467178Y-82118299D02*
G75*
G02*
X173764405Y-81469721I-252258J431701D01*
G01*
X174467178Y-82118299D02*
G75*
G02*
X174719436Y-82050000I252261J-431710D01*
G01*
X174719437Y-79050001D02*
G75*
G02*
X174467178Y-78981702I2J500009D01*
G01*
X176308342Y-82050001D02*
G75*
G02*
X176560600Y-82118300I-3J-500009D01*
G01*
X176560599Y-78981702D02*
G75*
G02*
X176308341Y-79050000I-252260J431712D01*
G01*
X176560600Y-78981704D02*
G75*
G02*
X177263369Y-79630279I252259J-431696D01*
G01*
X177213888Y-79847158D02*
G75*
G02*
X177263372Y-79630281I500361J-82D01*
G01*
X177263373Y-81469721D02*
G75*
G02*
X176560600Y-82118300I-450514J-216879D01*
G01*
X177263373Y-81469721D02*
G75*
G02*
X177213913Y-81252843I450516J216821D01*
G01*
%TO.C,LED38*%
X64275001Y-100252843D02*
X64275001Y-98847159D01*
X65180548Y-98050001D02*
X66769452Y-98050001D01*
X66769452Y-101050000D02*
X65180547Y-101050000D01*
X67674999Y-98847159D02*
X67674999Y-100252843D01*
X64225516Y-98630281D02*
G75*
G02*
X64275001Y-98847159I-450505J-216876D01*
G01*
X64225516Y-98630282D02*
G75*
G02*
X64928289Y-97981702I450514J216880D01*
G01*
X64275001Y-100252844D02*
G75*
G02*
X64225516Y-100469721I-499990J-1D01*
G01*
X64928289Y-101118299D02*
G75*
G02*
X64225516Y-100469721I-252258J431701D01*
G01*
X64928289Y-101118299D02*
G75*
G02*
X65180547Y-101050000I252261J-431710D01*
G01*
X65180548Y-98050001D02*
G75*
G02*
X64928289Y-97981702I2J500009D01*
G01*
X66769453Y-101050001D02*
G75*
G02*
X67021711Y-101118300I-3J-500009D01*
G01*
X67021710Y-97981702D02*
G75*
G02*
X66769452Y-98050000I-252260J431712D01*
G01*
X67021711Y-97981704D02*
G75*
G02*
X67724480Y-98630279I252259J-431696D01*
G01*
X67674999Y-98847158D02*
G75*
G02*
X67724483Y-98630281I500361J-82D01*
G01*
X67724484Y-100469721D02*
G75*
G02*
X67021711Y-101118300I-450514J-216879D01*
G01*
X67724484Y-100469721D02*
G75*
G02*
X67675024Y-100252843I450516J216821D01*
G01*
%TO.C,LED44*%
X169030557Y-119352843D02*
X169030557Y-117947159D01*
X169936104Y-117150001D02*
X171525008Y-117150001D01*
X171525008Y-120150000D02*
X169936103Y-120150000D01*
X172430555Y-117947159D02*
X172430555Y-119352843D01*
X168981072Y-117730281D02*
G75*
G02*
X169030557Y-117947159I-450505J-216876D01*
G01*
X168981072Y-117730282D02*
G75*
G02*
X169683845Y-117081702I450514J216880D01*
G01*
X169030557Y-119352844D02*
G75*
G02*
X168981072Y-119569721I-499990J-1D01*
G01*
X169683845Y-120218299D02*
G75*
G02*
X168981072Y-119569721I-252258J431701D01*
G01*
X169683845Y-120218299D02*
G75*
G02*
X169936103Y-120150000I252261J-431710D01*
G01*
X169936104Y-117150001D02*
G75*
G02*
X169683845Y-117081702I2J500009D01*
G01*
X171525009Y-120150001D02*
G75*
G02*
X171777267Y-120218300I-3J-500009D01*
G01*
X171777266Y-117081702D02*
G75*
G02*
X171525008Y-117150000I-252260J431712D01*
G01*
X171777267Y-117081704D02*
G75*
G02*
X172480036Y-117730279I252259J-431696D01*
G01*
X172430555Y-117947158D02*
G75*
G02*
X172480039Y-117730281I500361J-82D01*
G01*
X172480040Y-119569721D02*
G75*
G02*
X171777267Y-120218300I-450514J-216879D01*
G01*
X172480040Y-119569721D02*
G75*
G02*
X172430580Y-119352843I450516J216821D01*
G01*
%TO.C,LED13*%
X297550001Y-38352843D02*
X297550001Y-36947159D01*
X298455548Y-36150001D02*
X300044452Y-36150001D01*
X300044452Y-39150000D02*
X298455547Y-39150000D01*
X300949999Y-36947159D02*
X300949999Y-38352843D01*
X297500516Y-36730281D02*
G75*
G02*
X297550001Y-36947159I-450505J-216876D01*
G01*
X297500516Y-36730282D02*
G75*
G02*
X298203289Y-36081702I450514J216880D01*
G01*
X297550001Y-38352844D02*
G75*
G02*
X297500516Y-38569721I-499990J-1D01*
G01*
X298203289Y-39218299D02*
G75*
G02*
X297500516Y-38569721I-252258J431701D01*
G01*
X298203289Y-39218299D02*
G75*
G02*
X298455547Y-39150000I252261J-431710D01*
G01*
X298455548Y-36150001D02*
G75*
G02*
X298203289Y-36081702I2J500009D01*
G01*
X300044453Y-39150001D02*
G75*
G02*
X300296711Y-39218300I-3J-500009D01*
G01*
X300296710Y-36081702D02*
G75*
G02*
X300044452Y-36150000I-252260J431712D01*
G01*
X300296711Y-36081704D02*
G75*
G02*
X300999480Y-36730279I252259J-431696D01*
G01*
X300949999Y-36947158D02*
G75*
G02*
X300999483Y-36730281I500361J-82D01*
G01*
X300999484Y-38569721D02*
G75*
G02*
X300296711Y-39218300I-450514J-216879D01*
G01*
X300999484Y-38569721D02*
G75*
G02*
X300950024Y-38352843I450516J216821D01*
G01*
%TO.C,LED46*%
X102365001Y-100252843D02*
X102365001Y-98847159D01*
X103270548Y-98050001D02*
X104859452Y-98050001D01*
X104859452Y-101050000D02*
X103270547Y-101050000D01*
X105764999Y-98847159D02*
X105764999Y-100252843D01*
X102315516Y-98630281D02*
G75*
G02*
X102365001Y-98847159I-450505J-216876D01*
G01*
X102315516Y-98630282D02*
G75*
G02*
X103018289Y-97981702I450514J216880D01*
G01*
X102365001Y-100252844D02*
G75*
G02*
X102315516Y-100469721I-499990J-1D01*
G01*
X103018289Y-101118299D02*
G75*
G02*
X102315516Y-100469721I-252258J431701D01*
G01*
X103018289Y-101118299D02*
G75*
G02*
X103270547Y-101050000I252261J-431710D01*
G01*
X103270548Y-98050001D02*
G75*
G02*
X103018289Y-97981702I2J500009D01*
G01*
X104859453Y-101050001D02*
G75*
G02*
X105111711Y-101118300I-3J-500009D01*
G01*
X105111710Y-97981702D02*
G75*
G02*
X104859452Y-98050000I-252260J431712D01*
G01*
X105111711Y-97981704D02*
G75*
G02*
X105814480Y-98630279I252259J-431696D01*
G01*
X105764999Y-98847158D02*
G75*
G02*
X105814483Y-98630281I500361J-82D01*
G01*
X105814484Y-100469721D02*
G75*
G02*
X105111711Y-101118300I-450514J-216879D01*
G01*
X105814484Y-100469721D02*
G75*
G02*
X105765024Y-100252843I450516J216821D01*
G01*
%TO.C,LED69*%
X38025001Y-100252843D02*
X38025001Y-98847159D01*
X38930548Y-98050001D02*
X40519452Y-98050001D01*
X40519452Y-101050000D02*
X38930547Y-101050000D01*
X41424999Y-98847159D02*
X41424999Y-100252843D01*
X37975516Y-98630281D02*
G75*
G02*
X38025001Y-98847159I-450505J-216876D01*
G01*
X37975516Y-98630282D02*
G75*
G02*
X38678289Y-97981702I450514J216880D01*
G01*
X38025001Y-100252844D02*
G75*
G02*
X37975516Y-100469721I-499990J-1D01*
G01*
X38678289Y-101118299D02*
G75*
G02*
X37975516Y-100469721I-252258J431701D01*
G01*
X38678289Y-101118299D02*
G75*
G02*
X38930547Y-101050000I252261J-431710D01*
G01*
X38930548Y-98050001D02*
G75*
G02*
X38678289Y-97981702I2J500009D01*
G01*
X40519453Y-101050001D02*
G75*
G02*
X40771711Y-101118300I-3J-500009D01*
G01*
X40771710Y-97981702D02*
G75*
G02*
X40519452Y-98050000I-252260J431712D01*
G01*
X40771711Y-97981704D02*
G75*
G02*
X41474480Y-98630279I252259J-431696D01*
G01*
X41424999Y-98847158D02*
G75*
G02*
X41474483Y-98630281I500361J-82D01*
G01*
X41474484Y-100469721D02*
G75*
G02*
X40771711Y-101118300I-450514J-216879D01*
G01*
X41474484Y-100469721D02*
G75*
G02*
X41425024Y-100252843I450516J216821D01*
G01*
%TO.C,LED15*%
X30900001Y-62177843D02*
X30900001Y-60772159D01*
X31805548Y-59975001D02*
X33394452Y-59975001D01*
X33394452Y-62975000D02*
X31805547Y-62975000D01*
X34299999Y-60772159D02*
X34299999Y-62177843D01*
X30850516Y-60555281D02*
G75*
G02*
X30900001Y-60772159I-450505J-216876D01*
G01*
X30850516Y-60555282D02*
G75*
G02*
X31553289Y-59906702I450514J216880D01*
G01*
X30900001Y-62177844D02*
G75*
G02*
X30850516Y-62394721I-499990J-1D01*
G01*
X31553289Y-63043299D02*
G75*
G02*
X30850516Y-62394721I-252258J431701D01*
G01*
X31553289Y-63043299D02*
G75*
G02*
X31805547Y-62975000I252261J-431710D01*
G01*
X31805548Y-59975001D02*
G75*
G02*
X31553289Y-59906702I2J500009D01*
G01*
X33394453Y-62975001D02*
G75*
G02*
X33646711Y-63043300I-3J-500009D01*
G01*
X33646710Y-59906702D02*
G75*
G02*
X33394452Y-59975000I-252260J431712D01*
G01*
X33646711Y-59906704D02*
G75*
G02*
X34349480Y-60555279I252259J-431696D01*
G01*
X34299999Y-60772158D02*
G75*
G02*
X34349483Y-60555281I500361J-82D01*
G01*
X34349484Y-62394721D02*
G75*
G02*
X33646711Y-63043300I-450514J-216879D01*
G01*
X34349484Y-62394721D02*
G75*
G02*
X34300024Y-62177843I450516J216821D01*
G01*
%TO.C,LED61*%
X292850001Y-81152843D02*
X292850001Y-79747159D01*
X293755548Y-78950001D02*
X295344452Y-78950001D01*
X295344452Y-81950000D02*
X293755547Y-81950000D01*
X296249999Y-79747159D02*
X296249999Y-81152843D01*
X292800516Y-79530281D02*
G75*
G02*
X292850001Y-79747159I-450505J-216876D01*
G01*
X292800516Y-79530282D02*
G75*
G02*
X293503289Y-78881702I450514J216880D01*
G01*
X292850001Y-81152844D02*
G75*
G02*
X292800516Y-81369721I-499990J-1D01*
G01*
X293503289Y-82018299D02*
G75*
G02*
X292800516Y-81369721I-252258J431701D01*
G01*
X293503289Y-82018299D02*
G75*
G02*
X293755547Y-81950000I252261J-431710D01*
G01*
X293755548Y-78950001D02*
G75*
G02*
X293503289Y-78881702I2J500009D01*
G01*
X295344453Y-81950001D02*
G75*
G02*
X295596711Y-82018300I-3J-500009D01*
G01*
X295596710Y-78881702D02*
G75*
G02*
X295344452Y-78950000I-252260J431712D01*
G01*
X295596711Y-78881704D02*
G75*
G02*
X296299480Y-79530279I252259J-431696D01*
G01*
X296249999Y-79747158D02*
G75*
G02*
X296299483Y-79530281I500361J-82D01*
G01*
X296299484Y-81369721D02*
G75*
G02*
X295596711Y-82018300I-450514J-216879D01*
G01*
X296299484Y-81369721D02*
G75*
G02*
X296250024Y-81152843I450516J216821D01*
G01*
%TO.C,LED29*%
X202350001Y-62202843D02*
X202350001Y-60797159D01*
X203255548Y-60000001D02*
X204844452Y-60000001D01*
X204844452Y-63000000D02*
X203255547Y-63000000D01*
X205749999Y-60797159D02*
X205749999Y-62202843D01*
X202300516Y-60580281D02*
G75*
G02*
X202350001Y-60797159I-450505J-216876D01*
G01*
X202300516Y-60580282D02*
G75*
G02*
X203003289Y-59931702I450514J216880D01*
G01*
X202350001Y-62202844D02*
G75*
G02*
X202300516Y-62419721I-499990J-1D01*
G01*
X203003289Y-63068299D02*
G75*
G02*
X202300516Y-62419721I-252258J431701D01*
G01*
X203003289Y-63068299D02*
G75*
G02*
X203255547Y-63000000I252261J-431710D01*
G01*
X203255548Y-60000001D02*
G75*
G02*
X203003289Y-59931702I2J500009D01*
G01*
X204844453Y-63000001D02*
G75*
G02*
X205096711Y-63068300I-3J-500009D01*
G01*
X205096710Y-59931702D02*
G75*
G02*
X204844452Y-60000000I-252260J431712D01*
G01*
X205096711Y-59931704D02*
G75*
G02*
X205799480Y-60580279I252259J-431696D01*
G01*
X205749999Y-60797158D02*
G75*
G02*
X205799483Y-60580281I500361J-82D01*
G01*
X205799484Y-62419721D02*
G75*
G02*
X205096711Y-63068300I-450514J-216879D01*
G01*
X205799484Y-62419721D02*
G75*
G02*
X205750024Y-62202843I450516J216821D01*
G01*
%TO.C,LED11*%
X254725001Y-38377843D02*
X254725001Y-36972159D01*
X255630548Y-36175001D02*
X257219452Y-36175001D01*
X257219452Y-39175000D02*
X255630547Y-39175000D01*
X258124999Y-36972159D02*
X258124999Y-38377843D01*
X254675516Y-36755281D02*
G75*
G02*
X254725001Y-36972159I-450505J-216876D01*
G01*
X254675516Y-36755282D02*
G75*
G02*
X255378289Y-36106702I450514J216880D01*
G01*
X254725001Y-38377844D02*
G75*
G02*
X254675516Y-38594721I-499990J-1D01*
G01*
X255378289Y-39243299D02*
G75*
G02*
X254675516Y-38594721I-252258J431701D01*
G01*
X255378289Y-39243299D02*
G75*
G02*
X255630547Y-39175000I252261J-431710D01*
G01*
X255630548Y-36175001D02*
G75*
G02*
X255378289Y-36106702I2J500009D01*
G01*
X257219453Y-39175001D02*
G75*
G02*
X257471711Y-39243300I-3J-500009D01*
G01*
X257471710Y-36106702D02*
G75*
G02*
X257219452Y-36175000I-252260J431712D01*
G01*
X257471711Y-36106704D02*
G75*
G02*
X258174480Y-36755279I252259J-431696D01*
G01*
X258124999Y-36972158D02*
G75*
G02*
X258174483Y-36755281I500361J-82D01*
G01*
X258174484Y-38594721D02*
G75*
G02*
X257471711Y-39243300I-450514J-216879D01*
G01*
X258174484Y-38594721D02*
G75*
G02*
X258125024Y-38377843I450516J216821D01*
G01*
%TO.C,LED25*%
X164225001Y-62177843D02*
X164225001Y-60772159D01*
X165130548Y-59975001D02*
X166719452Y-59975001D01*
X166719452Y-62975000D02*
X165130547Y-62975000D01*
X167624999Y-60772159D02*
X167624999Y-62177843D01*
X164175516Y-60555281D02*
G75*
G02*
X164225001Y-60772159I-450505J-216876D01*
G01*
X164175516Y-60555282D02*
G75*
G02*
X164878289Y-59906702I450514J216880D01*
G01*
X164225001Y-62177844D02*
G75*
G02*
X164175516Y-62394721I-499990J-1D01*
G01*
X164878289Y-63043299D02*
G75*
G02*
X164175516Y-62394721I-252258J431701D01*
G01*
X164878289Y-63043299D02*
G75*
G02*
X165130547Y-62975000I252261J-431710D01*
G01*
X165130548Y-59975001D02*
G75*
G02*
X164878289Y-59906702I2J500009D01*
G01*
X166719453Y-62975001D02*
G75*
G02*
X166971711Y-63043300I-3J-500009D01*
G01*
X166971710Y-59906702D02*
G75*
G02*
X166719452Y-59975000I-252260J431712D01*
G01*
X166971711Y-59906704D02*
G75*
G02*
X167674480Y-60555279I252259J-431696D01*
G01*
X167624999Y-60772158D02*
G75*
G02*
X167674483Y-60555281I500361J-82D01*
G01*
X167674484Y-62394721D02*
G75*
G02*
X166971711Y-63043300I-450514J-216879D01*
G01*
X167674484Y-62394721D02*
G75*
G02*
X167625024Y-62177843I450516J216821D01*
G01*
%TO.C,LED19*%
X107125001Y-62227843D02*
X107125001Y-60822159D01*
X108030548Y-60025001D02*
X109619452Y-60025001D01*
X109619452Y-63025000D02*
X108030547Y-63025000D01*
X110524999Y-60822159D02*
X110524999Y-62227843D01*
X107075516Y-60605281D02*
G75*
G02*
X107125001Y-60822159I-450505J-216876D01*
G01*
X107075516Y-60605282D02*
G75*
G02*
X107778289Y-59956702I450514J216880D01*
G01*
X107125001Y-62227844D02*
G75*
G02*
X107075516Y-62444721I-499990J-1D01*
G01*
X107778289Y-63093299D02*
G75*
G02*
X107075516Y-62444721I-252258J431701D01*
G01*
X107778289Y-63093299D02*
G75*
G02*
X108030547Y-63025000I252261J-431710D01*
G01*
X108030548Y-60025001D02*
G75*
G02*
X107778289Y-59956702I2J500009D01*
G01*
X109619453Y-63025001D02*
G75*
G02*
X109871711Y-63093300I-3J-500009D01*
G01*
X109871710Y-59956702D02*
G75*
G02*
X109619452Y-60025000I-252260J431712D01*
G01*
X109871711Y-59956704D02*
G75*
G02*
X110574480Y-60605279I252259J-431696D01*
G01*
X110524999Y-60822158D02*
G75*
G02*
X110574483Y-60605281I500361J-82D01*
G01*
X110574484Y-62444721D02*
G75*
G02*
X109871711Y-63093300I-450514J-216879D01*
G01*
X110574484Y-62444721D02*
G75*
G02*
X110525024Y-62227843I450516J216821D01*
G01*
%TO.C,LED21*%
X126175001Y-62202843D02*
X126175001Y-60797159D01*
X127080548Y-60000001D02*
X128669452Y-60000001D01*
X128669452Y-63000000D02*
X127080547Y-63000000D01*
X129574999Y-60797159D02*
X129574999Y-62202843D01*
X126125516Y-60580281D02*
G75*
G02*
X126175001Y-60797159I-450505J-216876D01*
G01*
X126125516Y-60580282D02*
G75*
G02*
X126828289Y-59931702I450514J216880D01*
G01*
X126175001Y-62202844D02*
G75*
G02*
X126125516Y-62419721I-499990J-1D01*
G01*
X126828289Y-63068299D02*
G75*
G02*
X126125516Y-62419721I-252258J431701D01*
G01*
X126828289Y-63068299D02*
G75*
G02*
X127080547Y-63000000I252261J-431710D01*
G01*
X127080548Y-60000001D02*
G75*
G02*
X126828289Y-59931702I2J500009D01*
G01*
X128669453Y-63000001D02*
G75*
G02*
X128921711Y-63068300I-3J-500009D01*
G01*
X128921710Y-59931702D02*
G75*
G02*
X128669452Y-60000000I-252260J431712D01*
G01*
X128921711Y-59931704D02*
G75*
G02*
X129624480Y-60580279I252259J-431696D01*
G01*
X129574999Y-60797158D02*
G75*
G02*
X129624483Y-60580281I500361J-82D01*
G01*
X129624484Y-62419721D02*
G75*
G02*
X128921711Y-63068300I-450514J-216879D01*
G01*
X129624484Y-62419721D02*
G75*
G02*
X129575024Y-62202843I450516J216821D01*
G01*
%TO.C,LED30*%
X97625001Y-81252843D02*
X97625001Y-79847159D01*
X98530548Y-79050001D02*
X100119452Y-79050001D01*
X100119452Y-82050000D02*
X98530547Y-82050000D01*
X101024999Y-79847159D02*
X101024999Y-81252843D01*
X97575516Y-79630281D02*
G75*
G02*
X97625001Y-79847159I-450505J-216876D01*
G01*
X97575516Y-79630282D02*
G75*
G02*
X98278289Y-78981702I450514J216880D01*
G01*
X97625001Y-81252844D02*
G75*
G02*
X97575516Y-81469721I-499990J-1D01*
G01*
X98278289Y-82118299D02*
G75*
G02*
X97575516Y-81469721I-252258J431701D01*
G01*
X98278289Y-82118299D02*
G75*
G02*
X98530547Y-82050000I252261J-431710D01*
G01*
X98530548Y-79050001D02*
G75*
G02*
X98278289Y-78981702I2J500009D01*
G01*
X100119453Y-82050001D02*
G75*
G02*
X100371711Y-82118300I-3J-500009D01*
G01*
X100371710Y-78981702D02*
G75*
G02*
X100119452Y-79050000I-252260J431712D01*
G01*
X100371711Y-78981704D02*
G75*
G02*
X101074480Y-79630279I252259J-431696D01*
G01*
X101024999Y-79847158D02*
G75*
G02*
X101074483Y-79630281I500361J-82D01*
G01*
X101074484Y-81469721D02*
G75*
G02*
X100371711Y-82118300I-450514J-216879D01*
G01*
X101074484Y-81469721D02*
G75*
G02*
X101025024Y-81252843I450516J216821D01*
G01*
%TO.C,LED10*%
X235700001Y-38327843D02*
X235700001Y-36922159D01*
X236605548Y-36125001D02*
X238194452Y-36125001D01*
X238194452Y-39125000D02*
X236605547Y-39125000D01*
X239099999Y-36922159D02*
X239099999Y-38327843D01*
X235650516Y-36705281D02*
G75*
G02*
X235700001Y-36922159I-450505J-216876D01*
G01*
X235650516Y-36705282D02*
G75*
G02*
X236353289Y-36056702I450514J216880D01*
G01*
X235700001Y-38327844D02*
G75*
G02*
X235650516Y-38544721I-499990J-1D01*
G01*
X236353289Y-39193299D02*
G75*
G02*
X235650516Y-38544721I-252258J431701D01*
G01*
X236353289Y-39193299D02*
G75*
G02*
X236605547Y-39125000I252261J-431710D01*
G01*
X236605548Y-36125001D02*
G75*
G02*
X236353289Y-36056702I2J500009D01*
G01*
X238194453Y-39125001D02*
G75*
G02*
X238446711Y-39193300I-3J-500009D01*
G01*
X238446710Y-36056702D02*
G75*
G02*
X238194452Y-36125000I-252260J431712D01*
G01*
X238446711Y-36056704D02*
G75*
G02*
X239149480Y-36705279I252259J-431696D01*
G01*
X239099999Y-36922158D02*
G75*
G02*
X239149483Y-36705281I500361J-82D01*
G01*
X239149484Y-38544721D02*
G75*
G02*
X238446711Y-39193300I-450514J-216879D01*
G01*
X239149484Y-38544721D02*
G75*
G02*
X239100024Y-38327843I450516J216821D01*
G01*
%TO.C,LED72*%
X33275001Y-138352843D02*
X33275001Y-136947159D01*
X34180548Y-136150001D02*
X35769452Y-136150001D01*
X35769452Y-139150000D02*
X34180547Y-139150000D01*
X36674999Y-136947159D02*
X36674999Y-138352843D01*
X33225516Y-136730281D02*
G75*
G02*
X33275001Y-136947159I-450505J-216876D01*
G01*
X33225516Y-136730282D02*
G75*
G02*
X33928289Y-136081702I450514J216880D01*
G01*
X33275001Y-138352844D02*
G75*
G02*
X33225516Y-138569721I-499990J-1D01*
G01*
X33928289Y-139218299D02*
G75*
G02*
X33225516Y-138569721I-252258J431701D01*
G01*
X33928289Y-139218299D02*
G75*
G02*
X34180547Y-139150000I252261J-431710D01*
G01*
X34180548Y-136150001D02*
G75*
G02*
X33928289Y-136081702I2J500009D01*
G01*
X35769453Y-139150001D02*
G75*
G02*
X36021711Y-139218300I-3J-500009D01*
G01*
X36021710Y-136081702D02*
G75*
G02*
X35769452Y-136150000I-252260J431712D01*
G01*
X36021711Y-136081704D02*
G75*
G02*
X36724480Y-136730279I252259J-431696D01*
G01*
X36674999Y-136947158D02*
G75*
G02*
X36724483Y-136730281I500361J-82D01*
G01*
X36724484Y-138569721D02*
G75*
G02*
X36021711Y-139218300I-450514J-216879D01*
G01*
X36724484Y-138569721D02*
G75*
G02*
X36675024Y-138352843I450516J216821D01*
G01*
%TO.C,LED5*%
X111850001Y-38352843D02*
X111850001Y-36947159D01*
X112755548Y-36150001D02*
X114344452Y-36150001D01*
X114344452Y-39150000D02*
X112755547Y-39150000D01*
X115249999Y-36947159D02*
X115249999Y-38352843D01*
X111800516Y-36730281D02*
G75*
G02*
X111850001Y-36947159I-450505J-216876D01*
G01*
X111800516Y-36730282D02*
G75*
G02*
X112503289Y-36081702I450514J216880D01*
G01*
X111850001Y-38352844D02*
G75*
G02*
X111800516Y-38569721I-499990J-1D01*
G01*
X112503289Y-39218299D02*
G75*
G02*
X111800516Y-38569721I-252258J431701D01*
G01*
X112503289Y-39218299D02*
G75*
G02*
X112755547Y-39150000I252261J-431710D01*
G01*
X112755548Y-36150001D02*
G75*
G02*
X112503289Y-36081702I2J500009D01*
G01*
X114344453Y-39150001D02*
G75*
G02*
X114596711Y-39218300I-3J-500009D01*
G01*
X114596710Y-36081702D02*
G75*
G02*
X114344452Y-36150000I-252260J431712D01*
G01*
X114596711Y-36081704D02*
G75*
G02*
X115299480Y-36730279I252259J-431696D01*
G01*
X115249999Y-36947158D02*
G75*
G02*
X115299483Y-36730281I500361J-82D01*
G01*
X115299484Y-38569721D02*
G75*
G02*
X114596711Y-39218300I-450514J-216879D01*
G01*
X115299484Y-38569721D02*
G75*
G02*
X115250024Y-38352843I450516J216821D01*
G01*
%TO.C,LED16*%
X50000001Y-62202843D02*
X50000001Y-60797159D01*
X50905548Y-60000001D02*
X52494452Y-60000001D01*
X52494452Y-63000000D02*
X50905547Y-63000000D01*
X53399999Y-60797159D02*
X53399999Y-62202843D01*
X49950516Y-60580281D02*
G75*
G02*
X50000001Y-60797159I-450505J-216876D01*
G01*
X49950516Y-60580282D02*
G75*
G02*
X50653289Y-59931702I450514J216880D01*
G01*
X50000001Y-62202844D02*
G75*
G02*
X49950516Y-62419721I-499990J-1D01*
G01*
X50653289Y-63068299D02*
G75*
G02*
X49950516Y-62419721I-252258J431701D01*
G01*
X50653289Y-63068299D02*
G75*
G02*
X50905547Y-63000000I252261J-431710D01*
G01*
X50905548Y-60000001D02*
G75*
G02*
X50653289Y-59931702I2J500009D01*
G01*
X52494453Y-63000001D02*
G75*
G02*
X52746711Y-63068300I-3J-500009D01*
G01*
X52746710Y-59931702D02*
G75*
G02*
X52494452Y-60000000I-252260J431712D01*
G01*
X52746711Y-59931704D02*
G75*
G02*
X53449480Y-60580279I252259J-431696D01*
G01*
X53399999Y-60797158D02*
G75*
G02*
X53449483Y-60580281I500361J-82D01*
G01*
X53449484Y-62419721D02*
G75*
G02*
X52746711Y-63068300I-450514J-216879D01*
G01*
X53449484Y-62419721D02*
G75*
G02*
X53400024Y-62202843I450516J216821D01*
G01*
%TO.C,LED75*%
X110375001Y-138352843D02*
X110375001Y-136947159D01*
X111280548Y-136150001D02*
X112869452Y-136150001D01*
X112869452Y-139150000D02*
X111280547Y-139150000D01*
X113774999Y-136947159D02*
X113774999Y-138352843D01*
X110325516Y-136730281D02*
G75*
G02*
X110375001Y-136947159I-450505J-216876D01*
G01*
X110325516Y-136730282D02*
G75*
G02*
X111028289Y-136081702I450514J216880D01*
G01*
X110375001Y-138352844D02*
G75*
G02*
X110325516Y-138569721I-499990J-1D01*
G01*
X111028289Y-139218299D02*
G75*
G02*
X110325516Y-138569721I-252258J431701D01*
G01*
X111028289Y-139218299D02*
G75*
G02*
X111280547Y-139150000I252261J-431710D01*
G01*
X111280548Y-136150001D02*
G75*
G02*
X111028289Y-136081702I2J500009D01*
G01*
X112869453Y-139150001D02*
G75*
G02*
X113121711Y-139218300I-3J-500009D01*
G01*
X113121710Y-136081702D02*
G75*
G02*
X112869452Y-136150000I-252260J431712D01*
G01*
X113121711Y-136081704D02*
G75*
G02*
X113824480Y-136730279I252259J-431696D01*
G01*
X113774999Y-136947158D02*
G75*
G02*
X113824483Y-136730281I500361J-82D01*
G01*
X113824484Y-138569721D02*
G75*
G02*
X113121711Y-139218300I-450514J-216879D01*
G01*
X113824484Y-138569721D02*
G75*
G02*
X113775024Y-138352843I450516J216821D01*
G01*
%TO.C,LED17*%
X69000001Y-62202843D02*
X69000001Y-60797159D01*
X69905548Y-60000001D02*
X71494452Y-60000001D01*
X71494452Y-63000000D02*
X69905547Y-63000000D01*
X72399999Y-60797159D02*
X72399999Y-62202843D01*
X68950516Y-60580281D02*
G75*
G02*
X69000001Y-60797159I-450505J-216876D01*
G01*
X68950516Y-60580282D02*
G75*
G02*
X69653289Y-59931702I450514J216880D01*
G01*
X69000001Y-62202844D02*
G75*
G02*
X68950516Y-62419721I-499990J-1D01*
G01*
X69653289Y-63068299D02*
G75*
G02*
X68950516Y-62419721I-252258J431701D01*
G01*
X69653289Y-63068299D02*
G75*
G02*
X69905547Y-63000000I252261J-431710D01*
G01*
X69905548Y-60000001D02*
G75*
G02*
X69653289Y-59931702I2J500009D01*
G01*
X71494453Y-63000001D02*
G75*
G02*
X71746711Y-63068300I-3J-500009D01*
G01*
X71746710Y-59931702D02*
G75*
G02*
X71494452Y-60000000I-252260J431712D01*
G01*
X71746711Y-59931704D02*
G75*
G02*
X72449480Y-60580279I252259J-431696D01*
G01*
X72399999Y-60797158D02*
G75*
G02*
X72449483Y-60580281I500361J-82D01*
G01*
X72449484Y-62419721D02*
G75*
G02*
X71746711Y-63068300I-450514J-216879D01*
G01*
X72449484Y-62419721D02*
G75*
G02*
X72400024Y-62202843I450516J216821D01*
G01*
%TO.C,LED7*%
X154725001Y-38327843D02*
X154725001Y-36922159D01*
X155630548Y-36125001D02*
X157219452Y-36125001D01*
X157219452Y-39125000D02*
X155630547Y-39125000D01*
X158124999Y-36922159D02*
X158124999Y-38327843D01*
X154675516Y-36705281D02*
G75*
G02*
X154725001Y-36922159I-450505J-216876D01*
G01*
X154675516Y-36705282D02*
G75*
G02*
X155378289Y-36056702I450514J216880D01*
G01*
X154725001Y-38327844D02*
G75*
G02*
X154675516Y-38544721I-499990J-1D01*
G01*
X155378289Y-39193299D02*
G75*
G02*
X154675516Y-38544721I-252258J431701D01*
G01*
X155378289Y-39193299D02*
G75*
G02*
X155630547Y-39125000I252261J-431710D01*
G01*
X155630548Y-36125001D02*
G75*
G02*
X155378289Y-36056702I2J500009D01*
G01*
X157219453Y-39125001D02*
G75*
G02*
X157471711Y-39193300I-3J-500009D01*
G01*
X157471710Y-36056702D02*
G75*
G02*
X157219452Y-36125000I-252260J431712D01*
G01*
X157471711Y-36056704D02*
G75*
G02*
X158174480Y-36705279I252259J-431696D01*
G01*
X158124999Y-36922158D02*
G75*
G02*
X158174483Y-36705281I500361J-82D01*
G01*
X158174484Y-38544721D02*
G75*
G02*
X157471711Y-39193300I-450514J-216879D01*
G01*
X158174484Y-38544721D02*
G75*
G02*
X158125024Y-38327843I450516J216821D01*
G01*
%TO.C,LED66*%
X197590001Y-100252843D02*
X197590001Y-98847159D01*
X198495548Y-98050001D02*
X200084452Y-98050001D01*
X200084452Y-101050000D02*
X198495547Y-101050000D01*
X200989999Y-98847159D02*
X200989999Y-100252843D01*
X197540516Y-98630281D02*
G75*
G02*
X197590001Y-98847159I-450505J-216876D01*
G01*
X197540516Y-98630282D02*
G75*
G02*
X198243289Y-97981702I450514J216880D01*
G01*
X197590001Y-100252844D02*
G75*
G02*
X197540516Y-100469721I-499990J-1D01*
G01*
X198243289Y-101118299D02*
G75*
G02*
X197540516Y-100469721I-252258J431701D01*
G01*
X198243289Y-101118299D02*
G75*
G02*
X198495547Y-101050000I252261J-431710D01*
G01*
X198495548Y-98050001D02*
G75*
G02*
X198243289Y-97981702I2J500009D01*
G01*
X200084453Y-101050001D02*
G75*
G02*
X200336711Y-101118300I-3J-500009D01*
G01*
X200336710Y-97981702D02*
G75*
G02*
X200084452Y-98050000I-252260J431712D01*
G01*
X200336711Y-97981704D02*
G75*
G02*
X201039480Y-98630279I252259J-431696D01*
G01*
X200989999Y-98847158D02*
G75*
G02*
X201039483Y-98630281I500361J-82D01*
G01*
X201039484Y-100469721D02*
G75*
G02*
X200336711Y-101118300I-450514J-216879D01*
G01*
X201039484Y-100469721D02*
G75*
G02*
X200990024Y-100252843I450516J216821D01*
G01*
%TD*%
M02*
