%TF.GenerationSoftware,KiCad,Pcbnew,9.0.6*%
%TF.CreationDate,2026-02-23T12:32:57-05:00*%
%TF.ProjectId,Freedom,46726565-646f-46d2-9e6b-696361645f70,rev?*%
%TF.SameCoordinates,Original*%
%TF.FileFunction,Soldermask,Bot*%
%TF.FilePolarity,Negative*%
%FSLAX46Y46*%
G04 Gerber Fmt 4.6, Leading zero omitted, Abs format (unit mm)*
G04 Created by KiCad (PCBNEW 9.0.6) date 2026-02-23 12:32:57*
%MOMM*%
%LPD*%
G01*
G04 APERTURE LIST*
G04 Aperture macros list*
%AMRoundRect*
0 Rectangle with rounded corners*
0 $1 Rounding radius*
0 $2 $3 $4 $5 $6 $7 $8 $9 X,Y pos of 4 corners*
0 Add a 4 corners polygon primitive as box body*
4,1,4,$2,$3,$4,$5,$6,$7,$8,$9,$2,$3,0*
0 Add four circle primitives for the rounded corners*
1,1,$1+$1,$2,$3*
1,1,$1+$1,$4,$5*
1,1,$1+$1,$6,$7*
1,1,$1+$1,$8,$9*
0 Add four rect primitives between the rounded corners*
20,1,$1+$1,$2,$3,$4,$5,0*
20,1,$1+$1,$4,$5,$6,$7,0*
20,1,$1+$1,$6,$7,$8,$9,0*
20,1,$1+$1,$8,$9,$2,$3,0*%
%AMFreePoly0*
4,1,18,-0.410000,0.593000,-0.403758,0.624380,-0.385983,0.650983,-0.359380,0.668758,-0.328000,0.675000,0.328000,0.675000,0.359380,0.668758,0.385983,0.650983,0.403758,0.624380,0.410000,0.593000,0.410000,-0.593000,0.403758,-0.624380,0.385983,-0.650983,0.359380,-0.668758,0.328000,-0.675000,0.000000,-0.675000,-0.410000,-0.265000,-0.410000,0.593000,-0.410000,0.593000,$1*%
G04 Aperture macros list end*
%ADD10C,2.200000*%
%ADD11R,1.000000X1.000000*%
%ADD12C,1.000000*%
%ADD13C,4.000000*%
%ADD14C,3.987800*%
%ADD15R,1.700000X1.700000*%
%ADD16C,1.700000*%
%ADD17C,3.048000*%
%ADD18RoundRect,0.225000X0.225000X0.250000X-0.225000X0.250000X-0.225000X-0.250000X0.225000X-0.250000X0*%
%ADD19RoundRect,0.225000X0.375000X-0.225000X0.375000X0.225000X-0.375000X0.225000X-0.375000X-0.225000X0*%
%ADD20RoundRect,0.082000X-0.593000X0.328000X-0.593000X-0.328000X0.593000X-0.328000X0.593000X0.328000X0*%
%ADD21FreePoly0,270.000000*%
%ADD22RoundRect,0.200000X-0.275000X0.200000X-0.275000X-0.200000X0.275000X-0.200000X0.275000X0.200000X0*%
%ADD23RoundRect,0.225000X0.225000X0.375000X-0.225000X0.375000X-0.225000X-0.375000X0.225000X-0.375000X0*%
%ADD24RoundRect,0.225000X-0.225000X-0.250000X0.225000X-0.250000X0.225000X0.250000X-0.225000X0.250000X0*%
%ADD25C,1.750000*%
%ADD26C,3.300000*%
%ADD27RoundRect,0.250000X-1.025000X-1.000000X1.025000X-1.000000X1.025000X1.000000X-1.025000X1.000000X0*%
%ADD28RoundRect,0.225000X0.250000X-0.225000X0.250000X0.225000X-0.250000X0.225000X-0.250000X-0.225000X0*%
%ADD29R,1.600000X0.850000*%
%ADD30RoundRect,0.140000X-0.140000X-0.170000X0.140000X-0.170000X0.140000X0.170000X-0.140000X0.170000X0*%
%ADD31RoundRect,0.150000X-0.587500X-0.150000X0.587500X-0.150000X0.587500X0.150000X-0.587500X0.150000X0*%
%ADD32R,1.524000X0.700000*%
%ADD33R,0.700000X1.524000*%
%ADD34RoundRect,0.200000X0.200000X0.275000X-0.200000X0.275000X-0.200000X-0.275000X0.200000X-0.275000X0*%
%ADD35RoundRect,0.200000X-0.200000X-0.275000X0.200000X-0.275000X0.200000X0.275000X-0.200000X0.275000X0*%
%ADD36C,0.900000*%
%ADD37RoundRect,0.102000X0.750000X-0.350000X0.750000X0.350000X-0.750000X0.350000X-0.750000X-0.350000X0*%
%ADD38RoundRect,0.102000X0.400000X-0.500000X0.400000X0.500000X-0.400000X0.500000X-0.400000X-0.500000X0*%
%ADD39RoundRect,0.250000X-0.350000X-0.625000X0.350000X-0.625000X0.350000X0.625000X-0.350000X0.625000X0*%
%ADD40O,1.200000X1.750000*%
%ADD41RoundRect,0.218750X-0.218750X-0.256250X0.218750X-0.256250X0.218750X0.256250X-0.218750X0.256250X0*%
%ADD42RoundRect,0.062500X0.375000X0.062500X-0.375000X0.062500X-0.375000X-0.062500X0.375000X-0.062500X0*%
%ADD43RoundRect,0.062500X0.062500X0.375000X-0.062500X0.375000X-0.062500X-0.375000X0.062500X-0.375000X0*%
%ADD44R,1.600000X1.600000*%
%ADD45RoundRect,0.150000X0.587500X0.150000X-0.587500X0.150000X-0.587500X-0.150000X0.587500X-0.150000X0*%
%ADD46C,0.650000*%
%ADD47R,0.600000X1.450000*%
%ADD48R,0.300000X1.450000*%
%ADD49O,1.000000X1.600000*%
%ADD50O,1.000000X2.100000*%
%ADD51RoundRect,0.200000X0.275000X-0.200000X0.275000X0.200000X-0.275000X0.200000X-0.275000X-0.200000X0*%
%ADD52RoundRect,0.093750X-0.093750X0.156250X-0.093750X-0.156250X0.093750X-0.156250X0.093750X0.156250X0*%
%ADD53RoundRect,0.075000X-0.075000X0.250000X-0.075000X-0.250000X0.075000X-0.250000X0.075000X0.250000X0*%
%ADD54RoundRect,0.112500X0.187500X0.112500X-0.187500X0.112500X-0.187500X-0.112500X0.187500X-0.112500X0*%
%ADD55RoundRect,0.225000X-0.250000X0.225000X-0.250000X-0.225000X0.250000X-0.225000X0.250000X0.225000X0*%
%ADD56RoundRect,0.150000X-0.512500X-0.150000X0.512500X-0.150000X0.512500X0.150000X-0.512500X0.150000X0*%
%ADD57RoundRect,0.062500X0.287500X0.062500X-0.287500X0.062500X-0.287500X-0.062500X0.287500X-0.062500X0*%
%ADD58R,0.800000X1.600000*%
%ADD59RoundRect,0.140000X0.140000X0.170000X-0.140000X0.170000X-0.140000X-0.170000X0.140000X-0.170000X0*%
%ADD60RoundRect,0.218750X0.218750X0.256250X-0.218750X0.256250X-0.218750X-0.256250X0.218750X-0.256250X0*%
%ADD61RoundRect,0.102000X0.675000X0.900000X-0.675000X0.900000X-0.675000X-0.900000X0.675000X-0.900000X0*%
G04 APERTURE END LIST*
D10*
%TO.C,S6*%
X287000000Y-54400000D03*
%TD*%
D11*
%TO.C,J4*%
X135650000Y-154100000D03*
D12*
X136920000Y-154100000D03*
X138190000Y-154100000D03*
X139460000Y-154100000D03*
X140730000Y-154100000D03*
X142000000Y-154100000D03*
%TD*%
D10*
%TO.C,S7*%
X104030000Y-115500000D03*
%TD*%
D13*
%TO.C,S1*%
X103993750Y-135758050D03*
D14*
X103993750Y-150998050D03*
D13*
X204006250Y-135758050D03*
D14*
X204006250Y-150998050D03*
%TD*%
D15*
%TO.C,J7*%
X337463500Y-37300000D03*
D16*
X340003500Y-37300000D03*
X342543500Y-37300000D03*
X345083500Y-37300000D03*
X347623500Y-37300000D03*
%TD*%
D10*
%TO.C,S8*%
X256470000Y-115500000D03*
%TD*%
D17*
%TO.C,S4*%
X32593750Y-116663050D03*
D14*
X32593750Y-131903050D03*
D17*
X56406250Y-116663050D03*
D14*
X56406250Y-131903050D03*
%TD*%
D17*
%TO.C,S3*%
X277843750Y-59538050D03*
D14*
X277843750Y-74778050D03*
D17*
X301656250Y-59538050D03*
D14*
X301656250Y-74778050D03*
%TD*%
D10*
%TO.C,S5*%
X80200000Y-54700000D03*
%TD*%
D17*
%TO.C,S2*%
X275468750Y-97640000D03*
D14*
X275468750Y-112880000D03*
D17*
X299281250Y-97640000D03*
D14*
X299281250Y-112880000D03*
%TD*%
D18*
%TO.C,C44*%
X238067500Y-34700000D03*
X236517500Y-34700000D03*
%TD*%
%TO.C,C8*%
X110850000Y-141500000D03*
X109300000Y-141500000D03*
%TD*%
D19*
%TO.C,D79*%
X213525000Y-149100000D03*
X213525000Y-145800000D03*
%TD*%
%TO.C,D53*%
X223100000Y-94400000D03*
X223100000Y-91100000D03*
%TD*%
D20*
%TO.C,LED1*%
X35325000Y-38400000D03*
X35325000Y-36900000D03*
X29875000Y-38400000D03*
D21*
X29875000Y-36900000D03*
%TD*%
D22*
%TO.C,R10*%
X28400000Y-133600000D03*
X28400000Y-135250000D03*
%TD*%
D19*
%TO.C,D39*%
X89750000Y-94375000D03*
X89750000Y-91075000D03*
%TD*%
D23*
%TO.C,D18*%
X35925000Y-74875000D03*
X32625000Y-74875000D03*
%TD*%
D18*
%TO.C,C35*%
X300050000Y-34800000D03*
X298500000Y-34800000D03*
%TD*%
D19*
%TO.C,D29*%
X232625000Y-75375000D03*
X232625000Y-72075000D03*
%TD*%
D20*
%TO.C,LED60*%
X249700000Y-119400000D03*
X249700000Y-117900000D03*
X244250000Y-119400000D03*
D21*
X244250000Y-117900000D03*
%TD*%
D24*
%TO.C,C94*%
X25825000Y-117700000D03*
X27375000Y-117700000D03*
%TD*%
D18*
%TO.C,C22*%
X81000000Y-77700000D03*
X79450000Y-77700000D03*
%TD*%
D25*
%TO.C,MX37*%
X94200000Y-85575000D03*
D14*
X99280000Y-85575000D03*
D25*
X104360000Y-85575000D03*
D26*
X103090000Y-88115000D03*
D27*
X106640000Y-88115000D03*
X93190000Y-90655000D03*
D26*
X96740000Y-90655000D03*
%TD*%
D18*
%TO.C,C40*%
X223975000Y-58600000D03*
X222425000Y-58600000D03*
%TD*%
D28*
%TO.C,C92*%
X342516000Y-121322167D03*
X342516000Y-119772167D03*
%TD*%
D18*
%TO.C,C96*%
X112250000Y-150700000D03*
X110700000Y-150700000D03*
%TD*%
%TO.C,C67*%
X262075000Y-134800000D03*
X260525000Y-134800000D03*
%TD*%
D25*
%TO.C,MX32*%
X34650000Y-104625000D03*
D14*
X39730000Y-104625000D03*
D25*
X44810000Y-104625000D03*
D26*
X43540000Y-107165000D03*
D27*
X47090000Y-107165000D03*
X33640000Y-109705000D03*
D26*
X37190000Y-109705000D03*
%TD*%
D19*
%TO.C,D16*%
X289775000Y-51550000D03*
X289775000Y-48250000D03*
%TD*%
%TO.C,D58*%
X265975000Y-113425000D03*
X265975000Y-110125000D03*
%TD*%
D29*
%TO.C,D99*%
X347899605Y-86707333D03*
X347899605Y-88457333D03*
X344399605Y-88457333D03*
X344399605Y-86707333D03*
%TD*%
D18*
%TO.C,C32*%
X109575000Y-58600000D03*
X108025000Y-58600000D03*
%TD*%
%TO.C,C70*%
X285875000Y-139500000D03*
X284325000Y-139500000D03*
%TD*%
D20*
%TO.C,LED57*%
X273475000Y-81250000D03*
X273475000Y-79750000D03*
X268025000Y-81250000D03*
D21*
X268025000Y-79750000D03*
%TD*%
D25*
%TO.C,MX72*%
X268020000Y-123700000D03*
D14*
X273100000Y-123700000D03*
D25*
X278180000Y-123700000D03*
D26*
X276910000Y-126240000D03*
D27*
X280460000Y-126240000D03*
X267010000Y-128780000D03*
D26*
X270560000Y-128780000D03*
%TD*%
D18*
%TO.C,C64*%
X257250000Y-34800000D03*
X255700000Y-34800000D03*
%TD*%
D20*
%TO.C,LED42*%
X87745000Y-100300000D03*
X87745000Y-98800000D03*
X82295000Y-100300000D03*
D21*
X82295000Y-98800000D03*
%TD*%
D25*
%TO.C,MX80*%
X279909824Y-147475000D03*
D14*
X284989824Y-147475000D03*
D25*
X290069824Y-147475000D03*
D26*
X288799824Y-150015000D03*
D27*
X292349824Y-150015000D03*
X278899824Y-152555000D03*
D26*
X282449824Y-152555000D03*
%TD*%
D20*
%TO.C,LED80*%
X263950000Y-138400000D03*
X263950000Y-136900000D03*
X258500000Y-138400000D03*
D21*
X258500000Y-136900000D03*
%TD*%
D19*
%TO.C,D26*%
X175475000Y-75325000D03*
X175475000Y-72025000D03*
%TD*%
D20*
%TO.C,LED41*%
X197286111Y-81300000D03*
X197286111Y-79800000D03*
X191836111Y-81300000D03*
D21*
X191836111Y-79800000D03*
%TD*%
D18*
%TO.C,C54*%
X242950000Y-58600000D03*
X241400000Y-58600000D03*
%TD*%
D20*
%TO.C,LED35*%
X263925000Y-62250000D03*
X263925000Y-60750000D03*
X258475000Y-62250000D03*
D21*
X258475000Y-60750000D03*
%TD*%
D20*
%TO.C,LED79*%
X244850000Y-138400000D03*
X244850000Y-136900000D03*
X239400000Y-138400000D03*
D21*
X239400000Y-136900000D03*
%TD*%
D18*
%TO.C,C27*%
X214500000Y-77700000D03*
X212950000Y-77700000D03*
%TD*%
D30*
%TO.C,L1*%
X46209999Y-42350000D03*
X47169999Y-42350000D03*
%TD*%
D18*
%TO.C,C50*%
X38175000Y-77600000D03*
X36625000Y-77600000D03*
%TD*%
D20*
%TO.C,LED81*%
X287750000Y-143100000D03*
X287750000Y-141600000D03*
X282300000Y-143100000D03*
D21*
X282300000Y-141600000D03*
%TD*%
D19*
%TO.C,D22*%
X99275000Y-75375000D03*
X99275000Y-72075000D03*
%TD*%
D31*
%TO.C,Q3*%
X93262500Y-135850000D03*
X93262500Y-133950000D03*
X95137500Y-134900000D03*
%TD*%
D24*
%TO.C,C108*%
X210825000Y-150700000D03*
X212375000Y-150700000D03*
%TD*%
D19*
%TO.C,D63*%
X65950000Y-132475000D03*
X65950000Y-129175000D03*
%TD*%
D25*
%TO.C,MX33*%
X56110000Y-85570000D03*
D14*
X61190000Y-85570000D03*
D25*
X66270000Y-85570000D03*
D26*
X65000000Y-88110000D03*
D27*
X68550000Y-88110000D03*
X55100000Y-90650000D03*
D26*
X58650000Y-90650000D03*
%TD*%
D20*
%TO.C,LED76*%
X156800000Y-138400000D03*
X156800000Y-136900000D03*
X151350000Y-138400000D03*
D21*
X151350000Y-136900000D03*
%TD*%
D20*
%TO.C,LED73*%
X61550000Y-138400000D03*
X61550000Y-136900000D03*
X56100000Y-138400000D03*
D21*
X56100000Y-136900000D03*
%TD*%
D19*
%TO.C,D32*%
X313600000Y-75400000D03*
X313600000Y-72100000D03*
%TD*%
D25*
%TO.C,MX79*%
X256140000Y-142700000D03*
D14*
X261220000Y-142700000D03*
D25*
X266300000Y-142700000D03*
D26*
X265030000Y-145240000D03*
D27*
X268580000Y-145240000D03*
X255130000Y-147780000D03*
D26*
X258680000Y-147780000D03*
%TD*%
D20*
%TO.C,LED51*%
X325850000Y-100300000D03*
X325850000Y-98800000D03*
X320400000Y-100300000D03*
D21*
X320400000Y-98800000D03*
%TD*%
D32*
%TO.C,U1*%
X118050000Y-153550000D03*
X118050000Y-152450000D03*
X118050000Y-151350000D03*
X118050000Y-150250000D03*
X118050000Y-149150000D03*
X118050000Y-148050000D03*
X118050000Y-146950000D03*
X118050000Y-145850000D03*
X118050000Y-144750000D03*
X118050000Y-143650000D03*
X118050000Y-142550000D03*
X118050000Y-141450000D03*
X118050000Y-140350000D03*
D33*
X119300000Y-138850000D03*
X120400000Y-138850000D03*
X121500000Y-138850000D03*
X122600000Y-138850000D03*
X123700000Y-138850000D03*
X124800000Y-138850000D03*
X125900000Y-138850000D03*
X127000000Y-138850000D03*
X128100000Y-138850000D03*
X129200000Y-138850000D03*
X130300000Y-138850000D03*
D32*
X131550000Y-140350000D03*
X131550000Y-141450000D03*
X131550000Y-142550000D03*
X131550000Y-143650000D03*
X131550000Y-144750000D03*
X131550000Y-145850000D03*
X131550000Y-146950000D03*
X131550000Y-148050000D03*
X131550000Y-149150000D03*
X131550000Y-150250000D03*
X131550000Y-151350000D03*
X131550000Y-152450000D03*
X131550000Y-153550000D03*
X120550000Y-151350000D03*
X120550000Y-150250000D03*
X120550000Y-149150000D03*
X120550000Y-148050000D03*
X120550000Y-146950000D03*
X120550000Y-145850000D03*
X120550000Y-144750000D03*
X120550000Y-143650000D03*
X120550000Y-142550000D03*
X129050000Y-151350000D03*
X129050000Y-150250000D03*
X129050000Y-149150000D03*
X129050000Y-148050000D03*
X129050000Y-146950000D03*
X129050000Y-145850000D03*
X129050000Y-144750000D03*
X129050000Y-143650000D03*
X129050000Y-142550000D03*
%TD*%
D19*
%TO.C,D52*%
X208825000Y-113450000D03*
X208825000Y-110150000D03*
%TD*%
D18*
%TO.C,C34*%
X33400000Y-58600000D03*
X31850000Y-58600000D03*
%TD*%
D31*
%TO.C,J5*%
X97312499Y-135850000D03*
X97312499Y-133950000D03*
X99187499Y-134900000D03*
%TD*%
D25*
%TO.C,MX75*%
X77525000Y-142700000D03*
D14*
X82605000Y-142700000D03*
D25*
X87685000Y-142700000D03*
D26*
X86415000Y-145240000D03*
D27*
X89965000Y-145240000D03*
X76515000Y-147780000D03*
D26*
X80065000Y-147780000D03*
%TD*%
D20*
%TO.C,LED18*%
X92475000Y-62225000D03*
X92475000Y-60725000D03*
X87025000Y-62225000D03*
D21*
X87025000Y-60725000D03*
%TD*%
D20*
%TO.C,LED27*%
X187725000Y-62225000D03*
X187725000Y-60725000D03*
X182275000Y-62225000D03*
D21*
X182275000Y-60725000D03*
%TD*%
D20*
%TO.C,LED67*%
X116272222Y-119400000D03*
X116272222Y-117900000D03*
X110822222Y-119400000D03*
D21*
X110822222Y-117900000D03*
%TD*%
D20*
%TO.C,LED26*%
X63950000Y-81275000D03*
X63950000Y-79775000D03*
X58500000Y-81275000D03*
D21*
X58500000Y-79775000D03*
%TD*%
D34*
%TO.C,R4*%
X137842500Y-143700000D03*
X136192500Y-143700000D03*
%TD*%
D19*
%TO.C,D24*%
X137375000Y-75350000D03*
X137375000Y-72050000D03*
%TD*%
D35*
%TO.C,R16*%
X144050000Y-136800000D03*
X145700000Y-136800000D03*
%TD*%
D20*
%TO.C,LED59*%
X78150000Y-119400000D03*
X78150000Y-117900000D03*
X72700000Y-119400000D03*
D21*
X72700000Y-117900000D03*
%TD*%
D35*
%TO.C,R9*%
X25200000Y-146210000D03*
X26850000Y-146210000D03*
%TD*%
D19*
%TO.C,D15*%
X265975000Y-51550000D03*
X265975000Y-48250000D03*
%TD*%
D20*
%TO.C,LED45*%
X216333333Y-81300000D03*
X216333333Y-79800000D03*
X210883333Y-81300000D03*
D21*
X210883333Y-79800000D03*
%TD*%
D19*
%TO.C,D3*%
X40975000Y-51600000D03*
X40975000Y-48300000D03*
%TD*%
D29*
%TO.C,D98*%
X347899605Y-119672167D03*
X347899605Y-121422167D03*
X344399605Y-121422167D03*
X344399605Y-119672167D03*
%TD*%
D25*
%TO.C,MX76*%
X148965000Y-142725000D03*
D14*
X154045000Y-142725000D03*
D25*
X159125000Y-142725000D03*
D26*
X157855000Y-145265000D03*
D27*
X161405000Y-145265000D03*
X147955000Y-147805000D03*
D26*
X151505000Y-147805000D03*
%TD*%
D25*
%TO.C,MX29*%
X284700000Y-66500000D03*
D14*
X289780000Y-66500000D03*
D25*
X294860000Y-66500000D03*
D26*
X293590000Y-69040000D03*
D27*
X297140000Y-69040000D03*
X283690000Y-71580000D03*
D26*
X287240000Y-71580000D03*
%TD*%
D29*
%TO.C,D90*%
X85118750Y-154387000D03*
X85118750Y-152637000D03*
X88618750Y-152637000D03*
X88618750Y-154387000D03*
%TD*%
D20*
%TO.C,LED53*%
X254427778Y-81300000D03*
X254427778Y-79800000D03*
X248977778Y-81300000D03*
D21*
X248977778Y-79800000D03*
%TD*%
D20*
%TO.C,LED84*%
X325850000Y-143200000D03*
X325850000Y-141700000D03*
X320400000Y-143200000D03*
D21*
X320400000Y-141700000D03*
%TD*%
D20*
%TO.C,LED70*%
X221060000Y-100300000D03*
X221060000Y-98800000D03*
X215610000Y-100300000D03*
D21*
X215610000Y-98800000D03*
%TD*%
D25*
%TO.C,MX2*%
X51335000Y-42700000D03*
D14*
X56415000Y-42700000D03*
D25*
X61495000Y-42700000D03*
D26*
X60225000Y-45240000D03*
D27*
X63775000Y-45240000D03*
X50325000Y-47780000D03*
D26*
X53875000Y-47780000D03*
%TD*%
D28*
%TO.C,C91*%
X342516000Y-154287000D03*
X342516000Y-152737000D03*
%TD*%
D19*
%TO.C,D14*%
X246925000Y-51550000D03*
X246925000Y-48250000D03*
%TD*%
D25*
%TO.C,MX31*%
X32295000Y-85575000D03*
D14*
X37375000Y-85575000D03*
D25*
X42455000Y-85575000D03*
D26*
X41185000Y-88115000D03*
D27*
X44735000Y-88115000D03*
X31285000Y-90655000D03*
D26*
X34835000Y-90655000D03*
%TD*%
D19*
%TO.C,D41*%
X106700000Y-94350000D03*
X106700000Y-91050000D03*
%TD*%
D18*
%TO.C,C69*%
X323950000Y-77600000D03*
X322400000Y-77600000D03*
%TD*%
%TO.C,C30*%
X262000000Y-58600000D03*
X260450000Y-58600000D03*
%TD*%
%TO.C,C112*%
X304800000Y-139600000D03*
X303250000Y-139600000D03*
%TD*%
D36*
%TO.C,SW1*%
X24750000Y-134750000D03*
X24750000Y-131750000D03*
D37*
X26500000Y-135500000D03*
X26500000Y-132500000D03*
X26500000Y-131000000D03*
D38*
X25850000Y-136900000D03*
X25850000Y-129600000D03*
X23650000Y-136900000D03*
X23650000Y-129600000D03*
%TD*%
D18*
%TO.C,C39*%
X66800000Y-96700000D03*
X65250000Y-96700000D03*
%TD*%
D20*
%TO.C,LED23*%
X149625000Y-62225000D03*
X149625000Y-60725000D03*
X144175000Y-62225000D03*
D21*
X144175000Y-60725000D03*
%TD*%
D20*
%TO.C,LED58*%
X163925000Y-100300000D03*
X163925000Y-98800000D03*
X158475000Y-100300000D03*
D21*
X158475000Y-98800000D03*
%TD*%
D25*
%TO.C,MX64*%
X127545000Y-123675000D03*
D14*
X132625000Y-123675000D03*
D25*
X137705000Y-123675000D03*
D26*
X136435000Y-126215000D03*
D27*
X139985000Y-126215000D03*
X126535000Y-128755000D03*
D26*
X130085000Y-128755000D03*
%TD*%
D25*
%TO.C,MX42*%
X137070000Y-104625000D03*
D14*
X142150000Y-104625000D03*
D25*
X147230000Y-104625000D03*
D26*
X145960000Y-107165000D03*
D27*
X149510000Y-107165000D03*
X136060000Y-109705000D03*
D26*
X139610000Y-109705000D03*
%TD*%
D18*
%TO.C,C88*%
X223875000Y-134800000D03*
X222325000Y-134800000D03*
%TD*%
%TO.C,C85*%
X196875000Y-134800000D03*
X195325000Y-134800000D03*
%TD*%
D25*
%TO.C,MX66*%
X165625000Y-123675000D03*
D14*
X170705000Y-123675000D03*
D25*
X175785000Y-123675000D03*
D26*
X174515000Y-126215000D03*
D27*
X178065000Y-126215000D03*
X164615000Y-128755000D03*
D26*
X168165000Y-128755000D03*
%TD*%
D25*
%TO.C,MX57*%
X289460000Y-85560000D03*
D14*
X294540000Y-85560000D03*
D25*
X299620000Y-85560000D03*
D26*
X298350000Y-88100000D03*
D27*
X301900000Y-88100000D03*
X288450000Y-90640000D03*
D26*
X292000000Y-90640000D03*
%TD*%
D19*
%TO.C,D66*%
X121100000Y-132500000D03*
X121100000Y-129200000D03*
%TD*%
D25*
%TO.C,MX22*%
X141795000Y-66525000D03*
D14*
X146875000Y-66525000D03*
D25*
X151955000Y-66525000D03*
D26*
X150685000Y-69065000D03*
D27*
X154235000Y-69065000D03*
X140785000Y-71605000D03*
D26*
X144335000Y-71605000D03*
%TD*%
D39*
%TO.C,J2*%
X175900000Y-148750000D03*
D40*
X177900000Y-148750000D03*
%TD*%
D20*
%TO.C,LED54*%
X144880000Y-100300000D03*
X144880000Y-98800000D03*
X139430000Y-100300000D03*
D21*
X139430000Y-98800000D03*
%TD*%
D34*
%TO.C,R20*%
X98600000Y-137900000D03*
X96950000Y-137900000D03*
%TD*%
D25*
%TO.C,MX17*%
X46595000Y-66550000D03*
D14*
X51675000Y-66550000D03*
D25*
X56755000Y-66550000D03*
D26*
X55485000Y-69090000D03*
D27*
X59035000Y-69090000D03*
X45585000Y-71630000D03*
D26*
X49135000Y-71630000D03*
%TD*%
D18*
%TO.C,C84*%
X242875000Y-134800000D03*
X241325000Y-134800000D03*
%TD*%
D19*
%TO.C,D38*%
X75475000Y-113375000D03*
X75475000Y-110075000D03*
%TD*%
%TO.C,D28*%
X213575000Y-75350000D03*
X213575000Y-72050000D03*
%TD*%
%TO.C,D76*%
X46875000Y-151550000D03*
X46875000Y-148250000D03*
%TD*%
D25*
%TO.C,MX53*%
X246600000Y-85575000D03*
D14*
X251680000Y-85575000D03*
D25*
X256760000Y-85575000D03*
D26*
X255490000Y-88115000D03*
D27*
X259040000Y-88115000D03*
X245590000Y-90655000D03*
D26*
X249140000Y-90655000D03*
%TD*%
D28*
%TO.C,C107*%
X150500000Y-154275000D03*
X150500000Y-152725000D03*
%TD*%
D20*
%TO.C,LED36*%
X159191667Y-81300000D03*
X159191667Y-79800000D03*
X153741667Y-81300000D03*
D21*
X153741667Y-79800000D03*
%TD*%
D24*
%TO.C,C104*%
X266050000Y-150700000D03*
X267600000Y-150700000D03*
%TD*%
D25*
%TO.C,MX52*%
X232300000Y-104625000D03*
D14*
X237380000Y-104625000D03*
D25*
X242460000Y-104625000D03*
D26*
X241190000Y-107165000D03*
D27*
X244740000Y-107165000D03*
X231290000Y-109705000D03*
D26*
X234840000Y-109705000D03*
%TD*%
D18*
%TO.C,C14*%
X157275000Y-34700000D03*
X155725000Y-34700000D03*
%TD*%
D20*
%TO.C,LED40*%
X154394444Y-119400000D03*
X154394444Y-117900000D03*
X148944444Y-119400000D03*
D21*
X148944444Y-117900000D03*
%TD*%
D25*
%TO.C,MX41*%
X132300000Y-85575000D03*
D14*
X137380000Y-85575000D03*
D25*
X142460000Y-85575000D03*
D26*
X141190000Y-88115000D03*
D27*
X144740000Y-88115000D03*
X131290000Y-90655000D03*
D26*
X134840000Y-90655000D03*
%TD*%
D18*
%TO.C,C111*%
X323900000Y-139600000D03*
X322350000Y-139600000D03*
%TD*%
D29*
%TO.C,D85*%
X24825000Y-55492500D03*
X24825000Y-53742500D03*
X28325000Y-53742500D03*
X28325000Y-55492500D03*
%TD*%
D19*
%TO.C,D45*%
X146900000Y-94425000D03*
X146900000Y-91125000D03*
%TD*%
D20*
%TO.C,LED24*%
X40125000Y-81275000D03*
X40125000Y-79775000D03*
X34675000Y-81275000D03*
D21*
X34675000Y-79775000D03*
%TD*%
D25*
%TO.C,MX21*%
X122785000Y-66545000D03*
D14*
X127865000Y-66545000D03*
D25*
X132945000Y-66545000D03*
D26*
X131675000Y-69085000D03*
D27*
X135225000Y-69085000D03*
X121775000Y-71625000D03*
D26*
X125325000Y-71625000D03*
%TD*%
D25*
%TO.C,MX54*%
X251345000Y-104600000D03*
D14*
X256425000Y-104600000D03*
D25*
X261505000Y-104600000D03*
D26*
X260235000Y-107140000D03*
D27*
X263785000Y-107140000D03*
X250335000Y-109680000D03*
D26*
X253885000Y-109680000D03*
%TD*%
D18*
%TO.C,C10*%
X57300000Y-34900000D03*
X55750000Y-34900000D03*
%TD*%
%TO.C,C19*%
X119175000Y-77600000D03*
X117625000Y-77600000D03*
%TD*%
D19*
%TO.C,D80*%
X233100000Y-149100000D03*
X233100000Y-145800000D03*
%TD*%
%TO.C,D57*%
X261175000Y-94375000D03*
X261175000Y-91075000D03*
%TD*%
D24*
%TO.C,C4*%
X144150000Y-148600000D03*
X145700000Y-148600000D03*
%TD*%
D20*
%TO.C,LED71*%
X135333333Y-119400000D03*
X135333333Y-117900000D03*
X129883333Y-119400000D03*
D21*
X129883333Y-117900000D03*
%TD*%
D20*
%TO.C,LED52*%
X211577778Y-119400000D03*
X211577778Y-117900000D03*
X206127778Y-119400000D03*
D21*
X206127778Y-117900000D03*
%TD*%
D19*
%TO.C,D54*%
X227875000Y-113425000D03*
X227875000Y-110125000D03*
%TD*%
%TO.C,D84*%
X313575000Y-156275000D03*
X313575000Y-152975000D03*
%TD*%
%TO.C,D59*%
X280250000Y-94400000D03*
X280250000Y-91100000D03*
%TD*%
D34*
%TO.C,R13*%
X110905000Y-147300000D03*
X109255000Y-147300000D03*
%TD*%
D28*
%TO.C,C98*%
X342516000Y-55392500D03*
X342516000Y-53842500D03*
%TD*%
D25*
%TO.C,MX51*%
X227545000Y-85550000D03*
D14*
X232625000Y-85550000D03*
D25*
X237705000Y-85550000D03*
D26*
X236435000Y-88090000D03*
D27*
X239985000Y-88090000D03*
X226535000Y-90630000D03*
D26*
X230085000Y-90630000D03*
%TD*%
D20*
%TO.C,LED34*%
X140144444Y-81300000D03*
X140144444Y-79800000D03*
X134694444Y-81300000D03*
D21*
X134694444Y-79800000D03*
%TD*%
D22*
%TO.C,R1*%
X38375000Y-33975000D03*
X38375000Y-35625000D03*
%TD*%
D19*
%TO.C,D50*%
X189775000Y-113425000D03*
X189775000Y-110125000D03*
%TD*%
D20*
%TO.C,LED78*%
X225750000Y-138400000D03*
X225750000Y-136900000D03*
X220300000Y-138400000D03*
D21*
X220300000Y-136900000D03*
%TD*%
D19*
%TO.C,D10*%
X165950000Y-51525000D03*
X165950000Y-48225000D03*
%TD*%
D25*
%TO.C,MX62*%
X89425000Y-123675000D03*
D14*
X94505000Y-123675000D03*
D25*
X99585000Y-123675000D03*
D26*
X98315000Y-126215000D03*
D27*
X101865000Y-126215000D03*
X88415000Y-128755000D03*
D26*
X91965000Y-128755000D03*
%TD*%
D20*
%TO.C,LED3*%
X78200000Y-38425000D03*
X78200000Y-36925000D03*
X72750000Y-38425000D03*
D21*
X72750000Y-36925000D03*
%TD*%
D41*
%TO.C,D2*%
X52200001Y-34200000D03*
X53775001Y-34200000D03*
%TD*%
D42*
%TO.C,U3*%
X142400000Y-143312500D03*
X142400000Y-143812500D03*
X142400000Y-144312500D03*
X142400000Y-144812500D03*
D43*
X141712500Y-145500000D03*
X141212500Y-145500000D03*
X140712500Y-145500000D03*
X140212500Y-145500000D03*
D42*
X139525000Y-144812500D03*
X139525000Y-144312500D03*
X139525000Y-143812500D03*
X139525000Y-143312500D03*
D43*
X140212500Y-142625000D03*
X140712500Y-142625000D03*
X141212500Y-142625000D03*
X141712500Y-142625000D03*
D44*
X140962500Y-144062500D03*
%TD*%
D19*
%TO.C,D20*%
X61175000Y-75350000D03*
X61175000Y-72050000D03*
%TD*%
D20*
%TO.C,LED32*%
X121097222Y-81300000D03*
X121097222Y-79800000D03*
X115647222Y-81300000D03*
D21*
X115647222Y-79800000D03*
%TD*%
D19*
%TO.C,D51*%
X204050000Y-94400000D03*
X204050000Y-91100000D03*
%TD*%
D18*
%TO.C,C20*%
X90575000Y-58600000D03*
X89025000Y-58600000D03*
%TD*%
%TO.C,C62*%
X290650000Y-58600000D03*
X289100000Y-58600000D03*
%TD*%
%TO.C,C11*%
X76250000Y-34800000D03*
X74700000Y-34800000D03*
%TD*%
D19*
%TO.C,D56*%
X246925000Y-113450000D03*
X246925000Y-110150000D03*
%TD*%
%TO.C,D8*%
X127825000Y-51550000D03*
X127825000Y-48250000D03*
%TD*%
D18*
%TO.C,C26*%
X157400000Y-77700000D03*
X155850000Y-77700000D03*
%TD*%
D25*
%TO.C,MX59*%
X318035000Y-85620000D03*
D14*
X323115000Y-85620000D03*
D25*
X328195000Y-85620000D03*
D26*
X326925000Y-88160000D03*
D27*
X330475000Y-88160000D03*
X317025000Y-90700000D03*
D26*
X320575000Y-90700000D03*
%TD*%
D19*
%TO.C,D82*%
X275450000Y-156250000D03*
X275450000Y-152950000D03*
%TD*%
%TO.C,D23*%
X118325000Y-75350000D03*
X118325000Y-72050000D03*
%TD*%
D20*
%TO.C,LED65*%
X325875000Y-81250000D03*
X325875000Y-79750000D03*
X320425000Y-81250000D03*
D21*
X320425000Y-79750000D03*
%TD*%
D25*
%TO.C,MX55*%
X265635000Y-85595000D03*
D14*
X270715000Y-85595000D03*
D25*
X275795000Y-85595000D03*
D26*
X274525000Y-88135000D03*
D27*
X278075000Y-88135000D03*
X264625000Y-90675000D03*
D26*
X268175000Y-90675000D03*
%TD*%
D18*
%TO.C,C77*%
X219175000Y-96700000D03*
X217625000Y-96700000D03*
%TD*%
D19*
%TO.C,D78*%
X164700000Y-149100000D03*
X164700000Y-145800000D03*
%TD*%
%TO.C,D30*%
X251700000Y-75350000D03*
X251700000Y-72050000D03*
%TD*%
D18*
%TO.C,C68*%
X238175000Y-96700000D03*
X236625000Y-96700000D03*
%TD*%
D20*
%TO.C,LED50*%
X125835000Y-100300000D03*
X125835000Y-98800000D03*
X120385000Y-100300000D03*
D21*
X120385000Y-98800000D03*
%TD*%
D20*
%TO.C,LED4*%
X97225000Y-38400000D03*
X97225000Y-36900000D03*
X91775000Y-38400000D03*
D21*
X91775000Y-36900000D03*
%TD*%
D28*
%TO.C,C105*%
X342516000Y-88357333D03*
X342516000Y-86807333D03*
%TD*%
D19*
%TO.C,D21*%
X78100000Y-75325000D03*
X78100000Y-72025000D03*
%TD*%
D25*
%TO.C,MX46*%
X175160000Y-104645000D03*
D14*
X180240000Y-104645000D03*
D25*
X185320000Y-104645000D03*
D26*
X184050000Y-107185000D03*
D27*
X187600000Y-107185000D03*
X174150000Y-109725000D03*
D26*
X177700000Y-109725000D03*
%TD*%
D20*
%TO.C,LED83*%
X306725000Y-143250000D03*
X306725000Y-141750000D03*
X301275000Y-143250000D03*
D21*
X301275000Y-141750000D03*
%TD*%
D20*
%TO.C,LED8*%
X178250000Y-38400000D03*
X178250000Y-36900000D03*
X172800000Y-38400000D03*
D21*
X172800000Y-36900000D03*
%TD*%
D25*
%TO.C,MX45*%
X170384824Y-85575000D03*
D14*
X175464824Y-85575000D03*
D25*
X180544824Y-85575000D03*
D26*
X179274824Y-88115000D03*
D27*
X182824824Y-88115000D03*
X169374824Y-90655000D03*
D26*
X172924824Y-90655000D03*
%TD*%
D25*
%TO.C,MX43*%
X151345000Y-85570000D03*
D14*
X156425000Y-85570000D03*
D25*
X161505000Y-85570000D03*
D26*
X160235000Y-88110000D03*
D27*
X163785000Y-88110000D03*
X150335000Y-90650000D03*
D26*
X153885000Y-90650000D03*
%TD*%
D25*
%TO.C,MX49*%
X208500000Y-85575000D03*
D14*
X213580000Y-85575000D03*
D25*
X218660000Y-85575000D03*
D26*
X217390000Y-88115000D03*
D27*
X220940000Y-88115000D03*
X207490000Y-90655000D03*
D26*
X211040000Y-90655000D03*
%TD*%
D20*
%TO.C,LED49*%
X235380556Y-81300000D03*
X235380556Y-79800000D03*
X229930556Y-81300000D03*
D21*
X229930556Y-79800000D03*
%TD*%
D20*
%TO.C,LED39*%
X240105000Y-100300000D03*
X240105000Y-98800000D03*
X234655000Y-100300000D03*
D21*
X234655000Y-98800000D03*
%TD*%
D18*
%TO.C,C78*%
X257275000Y-96700000D03*
X255725000Y-96700000D03*
%TD*%
%TO.C,C63*%
X252500000Y-77700000D03*
X250950000Y-77700000D03*
%TD*%
D20*
%TO.C,LED2*%
X59175000Y-38400000D03*
X59175000Y-36900000D03*
X53725000Y-38400000D03*
D21*
X53725000Y-36900000D03*
%TD*%
D25*
%TO.C,MX6*%
X132275000Y-42725000D03*
D14*
X137355000Y-42725000D03*
D25*
X142435000Y-42725000D03*
D26*
X141165000Y-45265000D03*
D27*
X144715000Y-45265000D03*
X131265000Y-47805000D03*
D26*
X134815000Y-47805000D03*
%TD*%
D19*
%TO.C,D27*%
X194550000Y-75375000D03*
X194550000Y-72075000D03*
%TD*%
D18*
%TO.C,C52*%
X123900000Y-96700000D03*
X122350000Y-96700000D03*
%TD*%
D19*
%TO.C,D70*%
X199300000Y-132500000D03*
X199300000Y-129200000D03*
%TD*%
D20*
%TO.C,LED56*%
X230638889Y-119400000D03*
X230638889Y-117900000D03*
X225188889Y-119400000D03*
D21*
X225188889Y-117900000D03*
%TD*%
D20*
%TO.C,LED6*%
X140100000Y-38425000D03*
X140100000Y-36925000D03*
X134650000Y-38425000D03*
D21*
X134650000Y-36925000D03*
%TD*%
D20*
%TO.C,LED9*%
X197325000Y-38350000D03*
X197325000Y-36850000D03*
X191875000Y-38350000D03*
D21*
X191875000Y-36850000D03*
%TD*%
D34*
%TO.C,R14*%
X110905000Y-145700000D03*
X109255000Y-145700000D03*
%TD*%
D19*
%TO.C,D61*%
X313600000Y-94450000D03*
X313600000Y-91150000D03*
%TD*%
D29*
%TO.C,D93*%
X175109375Y-154387000D03*
X175109375Y-152637000D03*
X178609375Y-152637000D03*
X178609375Y-154387000D03*
%TD*%
%TO.C,D94*%
X209725000Y-154387000D03*
X209725000Y-152637000D03*
X213225000Y-152637000D03*
X213225000Y-154387000D03*
%TD*%
D20*
%TO.C,LED62*%
X182970000Y-100300000D03*
X182970000Y-98800000D03*
X177520000Y-100300000D03*
D21*
X177520000Y-98800000D03*
%TD*%
D25*
%TO.C,MX20*%
X103709824Y-66525000D03*
D14*
X108789824Y-66525000D03*
D25*
X113869824Y-66525000D03*
D26*
X112599824Y-69065000D03*
D27*
X116149824Y-69065000D03*
X102699824Y-71605000D03*
D26*
X106249824Y-71605000D03*
%TD*%
D19*
%TO.C,D46*%
X151675000Y-113425000D03*
X151675000Y-110125000D03*
%TD*%
D25*
%TO.C,MX13*%
X270400000Y-42725000D03*
D14*
X275480000Y-42725000D03*
D25*
X280560000Y-42725000D03*
D26*
X279290000Y-45265000D03*
D27*
X282840000Y-45265000D03*
X269390000Y-47805000D03*
D26*
X272940000Y-47805000D03*
%TD*%
D25*
%TO.C,MX69*%
X222775000Y-123675000D03*
D14*
X227855000Y-123675000D03*
D25*
X232935000Y-123675000D03*
D26*
X231665000Y-126215000D03*
D27*
X235215000Y-126215000D03*
X221765000Y-128755000D03*
D26*
X225315000Y-128755000D03*
%TD*%
D25*
%TO.C,MX39*%
X113245000Y-85575000D03*
D14*
X118325000Y-85575000D03*
D25*
X123405000Y-85575000D03*
D26*
X122135000Y-88115000D03*
D27*
X125685000Y-88115000D03*
X112235000Y-90655000D03*
D26*
X115785000Y-90655000D03*
%TD*%
D29*
%TO.C,D86*%
X24825000Y-88457333D03*
X24825000Y-86707333D03*
X28325000Y-86707333D03*
X28325000Y-88457333D03*
%TD*%
D19*
%TO.C,D35*%
X51675000Y-94400000D03*
X51675000Y-91100000D03*
%TD*%
D18*
%TO.C,C81*%
X288275000Y-96700000D03*
X286725000Y-96700000D03*
%TD*%
D20*
%TO.C,LED74*%
X85350000Y-138400000D03*
X85350000Y-136900000D03*
X79900000Y-138400000D03*
D21*
X79900000Y-136900000D03*
%TD*%
D18*
%TO.C,C13*%
X114450000Y-34800000D03*
X112900000Y-34800000D03*
%TD*%
D19*
%TO.C,D31*%
X270700000Y-75350000D03*
X270700000Y-72050000D03*
%TD*%
D25*
%TO.C,MX27*%
X237085000Y-66545000D03*
D14*
X242165000Y-66545000D03*
D25*
X247245000Y-66545000D03*
D26*
X245975000Y-69085000D03*
D27*
X249525000Y-69085000D03*
X236075000Y-71625000D03*
D26*
X239625000Y-71625000D03*
%TD*%
D18*
%TO.C,C9*%
X33425000Y-34825000D03*
X31875000Y-34825000D03*
%TD*%
D45*
%TO.C,J3*%
X138300000Y-134665000D03*
X138300000Y-136565000D03*
X136425000Y-135615000D03*
%TD*%
D46*
%TO.C,J1*%
X41610000Y-38050000D03*
X47390000Y-38050000D03*
D47*
X41250000Y-39495000D03*
X42050000Y-39495000D03*
D48*
X43250000Y-39495000D03*
X44250000Y-39495000D03*
X44750000Y-39495000D03*
X45750000Y-39495000D03*
D47*
X46950000Y-39495000D03*
X47750000Y-39495000D03*
X47750000Y-39495000D03*
X46950000Y-39495000D03*
D48*
X46250000Y-39495000D03*
X45250000Y-39495000D03*
X43750000Y-39495000D03*
X42750000Y-39495000D03*
D47*
X42050000Y-39495000D03*
X41250000Y-39495000D03*
D49*
X40180000Y-34400000D03*
D50*
X40180000Y-38580000D03*
D49*
X48820000Y-34400000D03*
D50*
X48820000Y-38580000D03*
%TD*%
D25*
%TO.C,MX73*%
X29900000Y-142725000D03*
D14*
X34980000Y-142725000D03*
D25*
X40060000Y-142725000D03*
D26*
X38790000Y-145265000D03*
D27*
X42340000Y-145265000D03*
X28890000Y-147805000D03*
D26*
X32440000Y-147805000D03*
%TD*%
D18*
%TO.C,C58*%
X219200000Y-34800000D03*
X217650000Y-34800000D03*
%TD*%
%TO.C,C16*%
X276275000Y-34800000D03*
X274725000Y-34800000D03*
%TD*%
D51*
%TO.C,R2*%
X50625000Y-35825000D03*
X50625000Y-34175000D03*
%TD*%
D25*
%TO.C,MX28*%
X256145000Y-66550000D03*
D14*
X261225000Y-66550000D03*
D25*
X266305000Y-66550000D03*
D26*
X265035000Y-69090000D03*
D27*
X268585000Y-69090000D03*
X255135000Y-71630000D03*
D26*
X258685000Y-71630000D03*
%TD*%
D29*
%TO.C,D100*%
X347899605Y-53742500D03*
X347899605Y-55492500D03*
X344399605Y-55492500D03*
X344399605Y-53742500D03*
%TD*%
D25*
%TO.C,MX5*%
X108475000Y-42700000D03*
D14*
X113555000Y-42700000D03*
D25*
X118635000Y-42700000D03*
D26*
X117365000Y-45240000D03*
D27*
X120915000Y-45240000D03*
X107465000Y-47780000D03*
D26*
X111015000Y-47780000D03*
%TD*%
D19*
%TO.C,D69*%
X180225000Y-132475000D03*
X180225000Y-129175000D03*
%TD*%
D18*
%TO.C,C56*%
X323975000Y-96700000D03*
X322425000Y-96700000D03*
%TD*%
%TO.C,C23*%
X166700000Y-58600000D03*
X165150000Y-58600000D03*
%TD*%
D25*
%TO.C,MX8*%
X170409824Y-42700000D03*
D14*
X175489824Y-42700000D03*
D25*
X180569824Y-42700000D03*
D26*
X179299824Y-45240000D03*
D27*
X182849824Y-45240000D03*
X169399824Y-47780000D03*
D26*
X172949824Y-47780000D03*
%TD*%
D19*
%TO.C,D6*%
X85000000Y-51525000D03*
X85000000Y-48225000D03*
%TD*%
D18*
%TO.C,C65*%
X233400000Y-77700000D03*
X231850000Y-77700000D03*
%TD*%
D35*
%TO.C,R6*%
X144650000Y-145400000D03*
X146300000Y-145400000D03*
%TD*%
D20*
%TO.C,LED14*%
X325875000Y-38400000D03*
X325875000Y-36900000D03*
X320425000Y-38400000D03*
D21*
X320425000Y-36900000D03*
%TD*%
D25*
%TO.C,MX4*%
X89450000Y-42700000D03*
D14*
X94530000Y-42700000D03*
D25*
X99610000Y-42700000D03*
D26*
X98340000Y-45240000D03*
D27*
X101890000Y-45240000D03*
X88440000Y-47780000D03*
D26*
X91990000Y-47780000D03*
%TD*%
D25*
%TO.C,MX25*%
X198984824Y-66525000D03*
D14*
X204064824Y-66525000D03*
D25*
X209144824Y-66525000D03*
D26*
X207874824Y-69065000D03*
D27*
X211424824Y-69065000D03*
X197974824Y-71605000D03*
D26*
X201524824Y-71605000D03*
%TD*%
D20*
%TO.C,LED33*%
X244875000Y-62250000D03*
X244875000Y-60750000D03*
X239425000Y-62250000D03*
D21*
X239425000Y-60750000D03*
%TD*%
D18*
%TO.C,C61*%
X323950000Y-58600000D03*
X322400000Y-58600000D03*
%TD*%
D20*
%TO.C,LED31*%
X225800000Y-62275000D03*
X225800000Y-60775000D03*
X220350000Y-62275000D03*
D21*
X220350000Y-60775000D03*
%TD*%
D20*
%TO.C,LED82*%
X221050000Y-38375000D03*
X221050000Y-36875000D03*
X215600000Y-38375000D03*
D21*
X215600000Y-36875000D03*
%TD*%
D20*
%TO.C,LED64*%
X277150000Y-119400000D03*
X277150000Y-117900000D03*
X271700000Y-119400000D03*
D21*
X271700000Y-117900000D03*
%TD*%
D19*
%TO.C,D47*%
X165950000Y-94375000D03*
X165950000Y-91075000D03*
%TD*%
D25*
%TO.C,MX16*%
X27525000Y-66525000D03*
D14*
X32605000Y-66525000D03*
D25*
X37685000Y-66525000D03*
D26*
X36415000Y-69065000D03*
D27*
X39965000Y-69065000D03*
X26515000Y-71605000D03*
D26*
X30065000Y-71605000D03*
%TD*%
D25*
%TO.C,MX63*%
X108485000Y-123670000D03*
D14*
X113565000Y-123670000D03*
D25*
X118645000Y-123670000D03*
D26*
X117375000Y-126210000D03*
D27*
X120925000Y-126210000D03*
X107475000Y-128750000D03*
D26*
X111025000Y-128750000D03*
%TD*%
D18*
%TO.C,C37*%
X295400000Y-77600000D03*
X293850000Y-77600000D03*
%TD*%
D20*
%TO.C,LED68*%
X306700000Y-124100000D03*
X306700000Y-122600000D03*
X301250000Y-124100000D03*
D21*
X301250000Y-122600000D03*
%TD*%
D19*
%TO.C,D43*%
X127875000Y-94400000D03*
X127875000Y-91100000D03*
%TD*%
D20*
%TO.C,LED22*%
X325850000Y-62175000D03*
X325850000Y-60675000D03*
X320400000Y-62175000D03*
D21*
X320400000Y-60675000D03*
%TD*%
D34*
%TO.C,R18*%
X94525000Y-137900000D03*
X92875000Y-137900000D03*
%TD*%
D18*
%TO.C,C59*%
X204875000Y-58600000D03*
X203325000Y-58600000D03*
%TD*%
D20*
%TO.C,LED77*%
X198800000Y-138400000D03*
X198800000Y-136900000D03*
X193350000Y-138400000D03*
D21*
X193350000Y-136900000D03*
%TD*%
D20*
%TO.C,LED12*%
X278225000Y-38450000D03*
X278225000Y-36950000D03*
X272775000Y-38450000D03*
D21*
X272775000Y-36950000D03*
%TD*%
D19*
%TO.C,D67*%
X142125000Y-132525000D03*
X142125000Y-129225000D03*
%TD*%
D18*
%TO.C,C71*%
X45375000Y-115700000D03*
X43825000Y-115700000D03*
%TD*%
D52*
%TO.C,U6*%
X44062500Y-41975000D03*
D53*
X44600000Y-41900000D03*
D52*
X45137500Y-41975000D03*
X45137500Y-43675000D03*
D53*
X44600000Y-43750000D03*
D52*
X44062500Y-43675000D03*
%TD*%
D25*
%TO.C,MX19*%
X84684824Y-66525000D03*
D14*
X89764824Y-66525000D03*
D25*
X94844824Y-66525000D03*
D26*
X93574824Y-69065000D03*
D27*
X97124824Y-69065000D03*
X83674824Y-71605000D03*
D26*
X87224824Y-71605000D03*
%TD*%
D45*
%TO.C,Q2*%
X142247500Y-134700000D03*
X142247500Y-136600000D03*
X140372500Y-135650000D03*
%TD*%
D20*
%TO.C,LED43*%
X259150000Y-100300000D03*
X259150000Y-98800000D03*
X253700000Y-100300000D03*
D21*
X253700000Y-98800000D03*
%TD*%
D20*
%TO.C,LED63*%
X97211111Y-119400000D03*
X97211111Y-117900000D03*
X91761111Y-119400000D03*
D21*
X91761111Y-117900000D03*
%TD*%
D20*
%TO.C,LED55*%
X47250000Y-119300000D03*
X47250000Y-117800000D03*
X41800000Y-119300000D03*
D21*
X41800000Y-117800000D03*
%TD*%
D20*
%TO.C,LED48*%
X192516667Y-119400000D03*
X192516667Y-117900000D03*
X187066667Y-119400000D03*
D21*
X187066667Y-117900000D03*
%TD*%
D20*
%TO.C,LED28*%
X82975000Y-81275000D03*
X82975000Y-79775000D03*
X77525000Y-81275000D03*
D21*
X77525000Y-79775000D03*
%TD*%
D24*
%TO.C,C2*%
X144692500Y-143800000D03*
X146242500Y-143800000D03*
%TD*%
D20*
%TO.C,LED47*%
X290200000Y-100300000D03*
X290200000Y-98800000D03*
X284750000Y-100300000D03*
D21*
X284750000Y-98800000D03*
%TD*%
D25*
%TO.C,MX9*%
X189465000Y-42700000D03*
D14*
X194545000Y-42700000D03*
D25*
X199625000Y-42700000D03*
D26*
X198355000Y-45240000D03*
D27*
X201905000Y-45240000D03*
X188455000Y-47780000D03*
D26*
X192005000Y-47780000D03*
%TD*%
D25*
%TO.C,MX81*%
X298975000Y-147500000D03*
D14*
X304055000Y-147500000D03*
D25*
X309135000Y-147500000D03*
D26*
X307865000Y-150040000D03*
D27*
X311415000Y-150040000D03*
X297965000Y-152580000D03*
D26*
X301515000Y-152580000D03*
%TD*%
D25*
%TO.C,MX40*%
X118009824Y-104625000D03*
D14*
X123089824Y-104625000D03*
D25*
X128169824Y-104625000D03*
D26*
X126899824Y-107165000D03*
D27*
X130449824Y-107165000D03*
X116999824Y-109705000D03*
D26*
X120549824Y-109705000D03*
%TD*%
D25*
%TO.C,MX74*%
X53700000Y-142725000D03*
D14*
X58780000Y-142725000D03*
D25*
X63860000Y-142725000D03*
D26*
X62590000Y-145265000D03*
D27*
X66140000Y-145265000D03*
X52690000Y-147805000D03*
D26*
X56240000Y-147805000D03*
%TD*%
D19*
%TO.C,D9*%
X146900000Y-51550000D03*
X146900000Y-48250000D03*
%TD*%
%TO.C,D65*%
X104025000Y-132450000D03*
X104025000Y-129150000D03*
%TD*%
D54*
%TO.C,D1*%
X42485000Y-42730000D03*
X40385000Y-42730000D03*
%TD*%
D19*
%TO.C,D64*%
X85000000Y-132425000D03*
X85000000Y-129125000D03*
%TD*%
D18*
%TO.C,C76*%
X95375000Y-115800000D03*
X93825000Y-115800000D03*
%TD*%
D20*
%TO.C,LED20*%
X292582500Y-62225000D03*
X292582500Y-60725000D03*
X287132500Y-62225000D03*
D21*
X287132500Y-60725000D03*
%TD*%
D25*
%TO.C,MX67*%
X184670000Y-123675000D03*
D14*
X189750000Y-123675000D03*
D25*
X194830000Y-123675000D03*
D26*
X193560000Y-126215000D03*
D27*
X197110000Y-126215000D03*
X183660000Y-128755000D03*
D26*
X187210000Y-128755000D03*
%TD*%
D24*
%TO.C,C3*%
X144150000Y-147000000D03*
X145700000Y-147000000D03*
%TD*%
D20*
%TO.C,LED37*%
X178238889Y-81300000D03*
X178238889Y-79800000D03*
X172788889Y-81300000D03*
D21*
X172788889Y-79800000D03*
%TD*%
D20*
%TO.C,LED38*%
X68700000Y-100300000D03*
X68700000Y-98800000D03*
X63250000Y-100300000D03*
D21*
X63250000Y-98800000D03*
%TD*%
D18*
%TO.C,C28*%
X195375000Y-77700000D03*
X193825000Y-77700000D03*
%TD*%
%TO.C,C60*%
X114375000Y-115800000D03*
X112825000Y-115800000D03*
%TD*%
%TO.C,C86*%
X76275000Y-115800000D03*
X74725000Y-115800000D03*
%TD*%
D25*
%TO.C,MX68*%
X203750000Y-123700000D03*
D14*
X208830000Y-123700000D03*
D25*
X213910000Y-123700000D03*
D26*
X212640000Y-126240000D03*
D27*
X216190000Y-126240000D03*
X202740000Y-128780000D03*
D26*
X206290000Y-128780000D03*
%TD*%
D18*
%TO.C,C87*%
X133475000Y-115800000D03*
X131925000Y-115800000D03*
%TD*%
%TO.C,C33*%
X176350000Y-77700000D03*
X174800000Y-77700000D03*
%TD*%
D19*
%TO.C,D5*%
X65975000Y-51525000D03*
X65975000Y-48225000D03*
%TD*%
D25*
%TO.C,MX30*%
X318035000Y-66520000D03*
D14*
X323115000Y-66520000D03*
D25*
X328195000Y-66520000D03*
D26*
X326925000Y-69060000D03*
D27*
X330475000Y-69060000D03*
X317025000Y-71600000D03*
D26*
X320575000Y-71600000D03*
%TD*%
D20*
%TO.C,LED44*%
X173455556Y-119400000D03*
X173455556Y-117900000D03*
X168005556Y-119400000D03*
D21*
X168005556Y-117900000D03*
%TD*%
D19*
%TO.C,D7*%
X104050000Y-51500000D03*
X104050000Y-48200000D03*
%TD*%
D18*
%TO.C,C46*%
X181050000Y-96700000D03*
X179500000Y-96700000D03*
%TD*%
D24*
%TO.C,C101*%
X86125000Y-150700000D03*
X87675000Y-150700000D03*
%TD*%
D20*
%TO.C,LED13*%
X301975000Y-38400000D03*
X301975000Y-36900000D03*
X296525000Y-38400000D03*
D21*
X296525000Y-36900000D03*
%TD*%
D25*
%TO.C,MX58*%
X318009824Y-104625000D03*
D14*
X323089824Y-104625000D03*
D25*
X328169824Y-104625000D03*
D26*
X326899824Y-107165000D03*
D27*
X330449824Y-107165000D03*
X316999824Y-109705000D03*
D26*
X320549824Y-109705000D03*
%TD*%
D20*
%TO.C,LED46*%
X106790000Y-100300000D03*
X106790000Y-98800000D03*
X101340000Y-100300000D03*
D21*
X101340000Y-98800000D03*
%TD*%
D29*
%TO.C,D88*%
X24825000Y-154387000D03*
X24825000Y-152637000D03*
X28325000Y-152637000D03*
X28325000Y-154387000D03*
%TD*%
D19*
%TO.C,D71*%
X218325000Y-132475000D03*
X218325000Y-129175000D03*
%TD*%
D18*
%TO.C,C31*%
X71575000Y-58600000D03*
X70025000Y-58600000D03*
%TD*%
D55*
%TO.C,C6*%
X138000000Y-147358579D03*
X138000000Y-148908579D03*
%TD*%
D18*
%TO.C,C79*%
X171575000Y-115800000D03*
X170025000Y-115800000D03*
%TD*%
%TO.C,C57*%
X152575000Y-115800000D03*
X151025000Y-115800000D03*
%TD*%
D25*
%TO.C,MX65*%
X146575000Y-123675000D03*
D14*
X151655000Y-123675000D03*
D25*
X156735000Y-123675000D03*
D26*
X155465000Y-126215000D03*
D27*
X159015000Y-126215000D03*
X145565000Y-128755000D03*
D26*
X149115000Y-128755000D03*
%TD*%
D20*
%TO.C,LED69*%
X42450000Y-100300000D03*
X42450000Y-98800000D03*
X37000000Y-100300000D03*
D21*
X37000000Y-98800000D03*
%TD*%
D20*
%TO.C,LED15*%
X35325000Y-62225000D03*
X35325000Y-60725000D03*
X29875000Y-62225000D03*
D21*
X29875000Y-60725000D03*
%TD*%
D19*
%TO.C,D49*%
X184975000Y-94450000D03*
X184975000Y-91150000D03*
%TD*%
D18*
%TO.C,C42*%
X142975000Y-96700000D03*
X141425000Y-96700000D03*
%TD*%
D19*
%TO.C,D68*%
X161200000Y-132475000D03*
X161200000Y-129175000D03*
%TD*%
%TO.C,D17*%
X313575000Y-51550000D03*
X313575000Y-48250000D03*
%TD*%
D23*
%TO.C,D62*%
X41650000Y-132100000D03*
X38350000Y-132100000D03*
%TD*%
D18*
%TO.C,C73*%
X190675000Y-115800000D03*
X189125000Y-115800000D03*
%TD*%
D56*
%TO.C,U4*%
X139905000Y-149062500D03*
X139905000Y-147162500D03*
X142180000Y-148112500D03*
%TD*%
D25*
%TO.C,MX24*%
X179909824Y-66525000D03*
D14*
X184989824Y-66525000D03*
D25*
X190069824Y-66525000D03*
D26*
X188799824Y-69065000D03*
D27*
X192349824Y-69065000D03*
X178899824Y-71605000D03*
D26*
X182449824Y-71605000D03*
%TD*%
D29*
%TO.C,D97*%
X347899605Y-152637000D03*
X347899605Y-154387000D03*
X344399605Y-154387000D03*
X344399605Y-152637000D03*
%TD*%
D25*
%TO.C,MX35*%
X75160000Y-85560000D03*
D14*
X80240000Y-85560000D03*
D25*
X85320000Y-85560000D03*
D26*
X84050000Y-88100000D03*
D27*
X87600000Y-88100000D03*
X74150000Y-90640000D03*
D26*
X77700000Y-90640000D03*
%TD*%
D57*
%TO.C,U5*%
X111200000Y-142800000D03*
X111200000Y-143300000D03*
X111200000Y-143800000D03*
X111200000Y-144300000D03*
X109200000Y-144300000D03*
X109200000Y-143800000D03*
X109200000Y-143300000D03*
X109200000Y-142800000D03*
D58*
X110200000Y-143550000D03*
%TD*%
D18*
%TO.C,C48*%
X104850000Y-96700000D03*
X103300000Y-96700000D03*
%TD*%
D25*
%TO.C,MX34*%
X60860000Y-104620000D03*
D14*
X65940000Y-104620000D03*
D25*
X71020000Y-104620000D03*
D26*
X69750000Y-107160000D03*
D27*
X73300000Y-107160000D03*
X59850000Y-109700000D03*
D26*
X63400000Y-109700000D03*
%TD*%
D19*
%TO.C,D42*%
X111600000Y-113400000D03*
X111600000Y-110100000D03*
%TD*%
D25*
%TO.C,MX1*%
X27510000Y-42710000D03*
D14*
X32590000Y-42710000D03*
D25*
X37670000Y-42710000D03*
D26*
X36400000Y-45250000D03*
D27*
X39950000Y-45250000D03*
X26500000Y-47790000D03*
D26*
X30050000Y-47790000D03*
%TD*%
D20*
%TO.C,LED61*%
X297275000Y-81200000D03*
X297275000Y-79700000D03*
X291825000Y-81200000D03*
D21*
X291825000Y-79700000D03*
%TD*%
D25*
%TO.C,MX14*%
X294225000Y-42725000D03*
D14*
X299305000Y-42725000D03*
D25*
X304385000Y-42725000D03*
D26*
X303115000Y-45265000D03*
D27*
X306665000Y-45265000D03*
X293215000Y-47805000D03*
D26*
X296765000Y-47805000D03*
%TD*%
D25*
%TO.C,MX47*%
X189460000Y-85595000D03*
D14*
X194540000Y-85595000D03*
D25*
X199620000Y-85595000D03*
D26*
X198350000Y-88135000D03*
D27*
X201900000Y-88135000D03*
X188450000Y-90675000D03*
D26*
X192000000Y-90675000D03*
%TD*%
D20*
%TO.C,LED29*%
X206775000Y-62250000D03*
X206775000Y-60750000D03*
X201325000Y-62250000D03*
D21*
X201325000Y-60750000D03*
%TD*%
D19*
%TO.C,D11*%
X185025000Y-51525000D03*
X185025000Y-48225000D03*
%TD*%
D24*
%TO.C,C102*%
X25825000Y-51800000D03*
X27375000Y-51800000D03*
%TD*%
D35*
%TO.C,R19*%
X92875000Y-140400000D03*
X94525000Y-140400000D03*
%TD*%
D34*
%TO.C,R8*%
X26850000Y-143700000D03*
X25200000Y-143700000D03*
%TD*%
D20*
%TO.C,LED11*%
X259150000Y-38425000D03*
X259150000Y-36925000D03*
X253700000Y-38425000D03*
D21*
X253700000Y-36925000D03*
%TD*%
D18*
%TO.C,C29*%
X35775000Y-134800000D03*
X34225000Y-134800000D03*
%TD*%
D55*
%TO.C,C1*%
X42350000Y-44450000D03*
X42350000Y-46000000D03*
%TD*%
D18*
%TO.C,C12*%
X95300000Y-34800000D03*
X93750000Y-34800000D03*
%TD*%
D19*
%TO.C,D13*%
X227875000Y-51550000D03*
X227875000Y-48250000D03*
%TD*%
%TO.C,D19*%
X42150000Y-75325000D03*
X42150000Y-72025000D03*
%TD*%
D29*
%TO.C,D91*%
X109625000Y-154387000D03*
X109625000Y-152637000D03*
X113125000Y-152637000D03*
X113125000Y-154387000D03*
%TD*%
D19*
%TO.C,D44*%
X132600000Y-113475000D03*
X132600000Y-110175000D03*
%TD*%
D24*
%TO.C,C97*%
X236125000Y-150700000D03*
X237675000Y-150700000D03*
%TD*%
D25*
%TO.C,MX77*%
X218025000Y-142725000D03*
D14*
X223105000Y-142725000D03*
D25*
X228185000Y-142725000D03*
D26*
X226915000Y-145265000D03*
D27*
X230465000Y-145265000D03*
X217015000Y-147805000D03*
D26*
X220565000Y-147805000D03*
%TD*%
D55*
%TO.C,C7*%
X136400001Y-147358578D03*
X136400001Y-148908578D03*
%TD*%
D20*
%TO.C,LED25*%
X168650000Y-62225000D03*
X168650000Y-60725000D03*
X163200000Y-62225000D03*
D21*
X163200000Y-60725000D03*
%TD*%
D18*
%TO.C,C47*%
X100150000Y-77700000D03*
X98600000Y-77700000D03*
%TD*%
D25*
%TO.C,MX23*%
X160870000Y-66525000D03*
D14*
X165950000Y-66525000D03*
D25*
X171030000Y-66525000D03*
D26*
X169760000Y-69065000D03*
D27*
X173310000Y-69065000D03*
X159860000Y-71605000D03*
D26*
X163410000Y-71605000D03*
%TD*%
D23*
%TO.C,D33*%
X34575000Y-93925000D03*
X31275000Y-93925000D03*
%TD*%
D25*
%TO.C,MX48*%
X194210000Y-104620000D03*
D14*
X199290000Y-104620000D03*
D25*
X204370000Y-104620000D03*
D26*
X203100000Y-107160000D03*
D27*
X206650000Y-107160000D03*
X193200000Y-109700000D03*
D26*
X196750000Y-109700000D03*
%TD*%
D29*
%TO.C,D87*%
X24825000Y-121422167D03*
X24825000Y-119672167D03*
X28325000Y-119672167D03*
X28325000Y-121422167D03*
%TD*%
D18*
%TO.C,C5*%
X141400000Y-150700000D03*
X139850000Y-150700000D03*
%TD*%
D20*
%TO.C,LED19*%
X111550000Y-62275000D03*
X111550000Y-60775000D03*
X106100000Y-62275000D03*
D21*
X106100000Y-60775000D03*
%TD*%
D20*
%TO.C,LED21*%
X130600000Y-62250000D03*
X130600000Y-60750000D03*
X125150000Y-62250000D03*
D21*
X125150000Y-60750000D03*
%TD*%
D20*
%TO.C,LED30*%
X102050000Y-81300000D03*
X102050000Y-79800000D03*
X96600000Y-81300000D03*
D21*
X96600000Y-79800000D03*
%TD*%
D25*
%TO.C,MX38*%
X98984824Y-104625000D03*
D14*
X104064824Y-104625000D03*
D25*
X109144824Y-104625000D03*
D26*
X107874824Y-107165000D03*
D27*
X111424824Y-107165000D03*
X97974824Y-109705000D03*
D26*
X101524824Y-109705000D03*
%TD*%
D18*
%TO.C,C90*%
X59675000Y-134800000D03*
X58125000Y-134800000D03*
%TD*%
D20*
%TO.C,LED10*%
X240125000Y-38375000D03*
X240125000Y-36875000D03*
X234675000Y-38375000D03*
D21*
X234675000Y-36875000D03*
%TD*%
D20*
%TO.C,LED72*%
X37700000Y-138400000D03*
X37700000Y-136900000D03*
X32250000Y-138400000D03*
D21*
X32250000Y-136900000D03*
%TD*%
D18*
%TO.C,C25*%
X138200000Y-77700000D03*
X136650000Y-77700000D03*
%TD*%
%TO.C,C43*%
X83475000Y-134800000D03*
X81925000Y-134800000D03*
%TD*%
D25*
%TO.C,MX82*%
X318025000Y-147525000D03*
D14*
X323105000Y-147525000D03*
D25*
X328185000Y-147525000D03*
D26*
X326915000Y-150065000D03*
D27*
X330465000Y-150065000D03*
X317015000Y-152605000D03*
D26*
X320565000Y-152605000D03*
%TD*%
D23*
%TO.C,D75*%
X35150000Y-151075000D03*
X31850000Y-151075000D03*
%TD*%
D25*
%TO.C,MX12*%
X251375000Y-42725000D03*
D14*
X256455000Y-42725000D03*
D25*
X261535000Y-42725000D03*
D26*
X260265000Y-45265000D03*
D27*
X263815000Y-45265000D03*
X250365000Y-47805000D03*
D26*
X253915000Y-47805000D03*
%TD*%
D59*
%TO.C,L2*%
X42650000Y-41250000D03*
X41690000Y-41250000D03*
%TD*%
D25*
%TO.C,MX70*%
X241865000Y-123675000D03*
D14*
X246945000Y-123675000D03*
D25*
X252025000Y-123675000D03*
D26*
X250755000Y-126215000D03*
D27*
X254305000Y-126215000D03*
X240855000Y-128755000D03*
D26*
X244405000Y-128755000D03*
%TD*%
D25*
%TO.C,MX11*%
X232310000Y-42720000D03*
D14*
X237390000Y-42720000D03*
D25*
X242470000Y-42720000D03*
D26*
X241200000Y-45260000D03*
D27*
X244750000Y-45260000D03*
X231300000Y-47800000D03*
D26*
X234850000Y-47800000D03*
%TD*%
D25*
%TO.C,MX78*%
X237075000Y-142700000D03*
D14*
X242155000Y-142700000D03*
D25*
X247235000Y-142700000D03*
D26*
X245965000Y-145240000D03*
D27*
X249515000Y-145240000D03*
X236065000Y-147780000D03*
D26*
X239615000Y-147780000D03*
%TD*%
D20*
%TO.C,LED5*%
X116275000Y-38400000D03*
X116275000Y-36900000D03*
X110825000Y-38400000D03*
D21*
X110825000Y-36900000D03*
%TD*%
D24*
%TO.C,C103*%
X56125000Y-150700000D03*
X57675000Y-150700000D03*
%TD*%
D19*
%TO.C,D72*%
X237400000Y-132425000D03*
X237400000Y-129125000D03*
%TD*%
%TO.C,D37*%
X70700000Y-94425000D03*
X70700000Y-91125000D03*
%TD*%
D18*
%TO.C,C41*%
X85875000Y-96700000D03*
X84325000Y-96700000D03*
%TD*%
D19*
%TO.C,D48*%
X170725000Y-113450000D03*
X170725000Y-110150000D03*
%TD*%
D18*
%TO.C,C55*%
X200150000Y-96700000D03*
X198600000Y-96700000D03*
%TD*%
D19*
%TO.C,D81*%
X251675000Y-151500000D03*
X251675000Y-148200000D03*
%TD*%
D20*
%TO.C,LED16*%
X54425000Y-62250000D03*
X54425000Y-60750000D03*
X48975000Y-62250000D03*
D21*
X48975000Y-60750000D03*
%TD*%
D25*
%TO.C,MX3*%
X70385000Y-42695000D03*
D14*
X75465000Y-42695000D03*
D25*
X80545000Y-42695000D03*
D26*
X79275000Y-45235000D03*
D27*
X82825000Y-45235000D03*
X69375000Y-47775000D03*
D26*
X72925000Y-47775000D03*
%TD*%
D24*
%TO.C,C93*%
X25825000Y-84700000D03*
X27375000Y-84700000D03*
%TD*%
D18*
%TO.C,C66*%
X162050000Y-96700000D03*
X160500000Y-96700000D03*
%TD*%
%TO.C,C72*%
X112875000Y-134800000D03*
X111325000Y-134800000D03*
%TD*%
D25*
%TO.C,MX26*%
X218025000Y-66550000D03*
D14*
X223105000Y-66550000D03*
D25*
X228185000Y-66550000D03*
D26*
X226915000Y-69090000D03*
D27*
X230465000Y-69090000D03*
X217015000Y-71630000D03*
D26*
X220565000Y-71630000D03*
%TD*%
D19*
%TO.C,D12*%
X208825000Y-51525000D03*
X208825000Y-48225000D03*
%TD*%
D45*
%TO.C,Q1*%
X26500000Y-140000000D03*
X26500000Y-141900000D03*
X24625000Y-140950000D03*
%TD*%
D19*
%TO.C,D60*%
X313550000Y-113450000D03*
X313550000Y-110150000D03*
%TD*%
D25*
%TO.C,MX7*%
X151345000Y-42725000D03*
D14*
X156425000Y-42725000D03*
D25*
X161505000Y-42725000D03*
D26*
X160235000Y-45265000D03*
D27*
X163785000Y-45265000D03*
X150335000Y-47805000D03*
D26*
X153885000Y-47805000D03*
%TD*%
D19*
%TO.C,D55*%
X242175000Y-94350000D03*
X242175000Y-91050000D03*
%TD*%
D25*
%TO.C,MX56*%
X282300000Y-104625000D03*
D14*
X287380000Y-104625000D03*
D25*
X292460000Y-104625000D03*
D26*
X291190000Y-107165000D03*
D27*
X294740000Y-107165000D03*
X281290000Y-109705000D03*
D26*
X284840000Y-109705000D03*
%TD*%
D24*
%TO.C,C95*%
X25925000Y-150700000D03*
X27475000Y-150700000D03*
%TD*%
D18*
%TO.C,C80*%
X154875000Y-134800000D03*
X153325000Y-134800000D03*
%TD*%
%TO.C,C51*%
X324000000Y-34800000D03*
X322450000Y-34800000D03*
%TD*%
D25*
%TO.C,MX71*%
X298960000Y-128435000D03*
D14*
X304040000Y-128435000D03*
D25*
X309120000Y-128435000D03*
D26*
X307850000Y-130975000D03*
D27*
X311400000Y-130975000D03*
X297950000Y-133515000D03*
D26*
X301500000Y-133515000D03*
%TD*%
D18*
%TO.C,C21*%
X62075000Y-77700000D03*
X60525000Y-77700000D03*
%TD*%
D19*
%TO.C,D74*%
X294500000Y-137225000D03*
X294500000Y-133925000D03*
%TD*%
D28*
%TO.C,C106*%
X180500000Y-154275000D03*
X180500000Y-152725000D03*
%TD*%
D20*
%TO.C,LED75*%
X114800000Y-138400000D03*
X114800000Y-136900000D03*
X109350000Y-138400000D03*
D21*
X109350000Y-136900000D03*
%TD*%
D25*
%TO.C,MX18*%
X65625000Y-66545000D03*
D14*
X70705000Y-66545000D03*
D25*
X75785000Y-66545000D03*
D26*
X74515000Y-69085000D03*
D27*
X78065000Y-69085000D03*
X64615000Y-71625000D03*
D26*
X68165000Y-71625000D03*
%TD*%
D29*
%TO.C,D95*%
X235103125Y-154387000D03*
X235103125Y-152637000D03*
X238603125Y-152637000D03*
X238603125Y-154387000D03*
%TD*%
D23*
%TO.C,D4*%
X53600000Y-51100000D03*
X50300000Y-51100000D03*
%TD*%
D18*
%TO.C,C36*%
X185775000Y-58600000D03*
X184225000Y-58600000D03*
%TD*%
%TO.C,C18*%
X176400000Y-34800000D03*
X174850000Y-34800000D03*
%TD*%
%TO.C,C75*%
X209675000Y-115800000D03*
X208125000Y-115800000D03*
%TD*%
D19*
%TO.C,D73*%
X256475000Y-132500000D03*
X256475000Y-129200000D03*
%TD*%
D25*
%TO.C,MX61*%
X70385000Y-123670000D03*
D14*
X75465000Y-123670000D03*
D25*
X80545000Y-123670000D03*
D26*
X79275000Y-126210000D03*
D27*
X82825000Y-126210000D03*
X69375000Y-128750000D03*
D26*
X72925000Y-128750000D03*
%TD*%
D35*
%TO.C,R5*%
X144642500Y-142200000D03*
X146292500Y-142200000D03*
%TD*%
%TO.C,R17*%
X137100000Y-132800000D03*
X138750000Y-132800000D03*
%TD*%
D29*
%TO.C,D89*%
X55121875Y-154387000D03*
X55121875Y-152637000D03*
X58621875Y-152637000D03*
X58621875Y-154387000D03*
%TD*%
D23*
%TO.C,D34*%
X36950000Y-112875000D03*
X33650000Y-112875000D03*
%TD*%
D18*
%TO.C,C89*%
X228775000Y-115800000D03*
X227225000Y-115800000D03*
%TD*%
%TO.C,C83*%
X247775000Y-115800000D03*
X246225000Y-115800000D03*
%TD*%
D25*
%TO.C,MX50*%
X213275000Y-104625000D03*
D14*
X218355000Y-104625000D03*
D25*
X223435000Y-104625000D03*
D26*
X222165000Y-107165000D03*
D27*
X225715000Y-107165000D03*
X212265000Y-109705000D03*
D26*
X215815000Y-109705000D03*
%TD*%
D18*
%TO.C,C49*%
X195400000Y-34700000D03*
X193850000Y-34700000D03*
%TD*%
%TO.C,C24*%
X128700000Y-58600000D03*
X127150000Y-58600000D03*
%TD*%
D25*
%TO.C,MX60*%
X39400000Y-123700000D03*
D14*
X44480000Y-123700000D03*
D25*
X49560000Y-123700000D03*
D26*
X48290000Y-126240000D03*
D27*
X51840000Y-126240000D03*
X38390000Y-128780000D03*
D26*
X41940000Y-128780000D03*
%TD*%
D18*
%TO.C,C53*%
X271600000Y-77600000D03*
X270050000Y-77600000D03*
%TD*%
D35*
%TO.C,R15*%
X144050000Y-134290000D03*
X145700000Y-134290000D03*
%TD*%
D25*
%TO.C,MX36*%
X79910000Y-104635000D03*
D14*
X84990000Y-104635000D03*
D25*
X90070000Y-104635000D03*
D26*
X88800000Y-107175000D03*
D27*
X92350000Y-107175000D03*
X78900000Y-109715000D03*
D26*
X82450000Y-109715000D03*
%TD*%
D25*
%TO.C,MX15*%
X318025000Y-42725000D03*
D14*
X323105000Y-42725000D03*
D25*
X328185000Y-42725000D03*
D26*
X326915000Y-45265000D03*
D27*
X330465000Y-45265000D03*
X317015000Y-47805000D03*
D26*
X320565000Y-47805000D03*
%TD*%
D25*
%TO.C,MX10*%
X213275000Y-42700000D03*
D14*
X218355000Y-42700000D03*
D25*
X223435000Y-42700000D03*
D26*
X222165000Y-45240000D03*
D27*
X225715000Y-45240000D03*
X212265000Y-47780000D03*
D26*
X215815000Y-47780000D03*
%TD*%
D60*
%TO.C,F1*%
X48047499Y-43624999D03*
X46472499Y-43624999D03*
%TD*%
D18*
%TO.C,C15*%
X138250000Y-34800000D03*
X136700000Y-34800000D03*
%TD*%
D29*
%TO.C,D96*%
X265100000Y-154387000D03*
X265100000Y-152637000D03*
X268600000Y-152637000D03*
X268600000Y-154387000D03*
%TD*%
D18*
%TO.C,C38*%
X40475000Y-96700000D03*
X38925000Y-96700000D03*
%TD*%
D25*
%TO.C,MX44*%
X156100000Y-104625000D03*
D14*
X161180000Y-104625000D03*
D25*
X166260000Y-104625000D03*
D26*
X164990000Y-107165000D03*
D27*
X168540000Y-107165000D03*
X155090000Y-109705000D03*
D26*
X158640000Y-109705000D03*
%TD*%
D18*
%TO.C,C74*%
X275275000Y-115800000D03*
X273725000Y-115800000D03*
%TD*%
D19*
%TO.C,D83*%
X294525000Y-156275000D03*
X294525000Y-152975000D03*
%TD*%
D35*
%TO.C,R3*%
X144642500Y-140600000D03*
X146292500Y-140600000D03*
%TD*%
D20*
%TO.C,LED17*%
X73425000Y-62250000D03*
X73425000Y-60750000D03*
X67975000Y-62250000D03*
D21*
X67975000Y-60750000D03*
%TD*%
D19*
%TO.C,D40*%
X94525000Y-113425000D03*
X94525000Y-110125000D03*
%TD*%
D61*
%TO.C,SW2*%
X169975000Y-137300000D03*
X165825000Y-137300000D03*
%TD*%
D18*
%TO.C,C17*%
X147775000Y-58600000D03*
X146225000Y-58600000D03*
%TD*%
D19*
%TO.C,D36*%
X56400000Y-113500000D03*
X56400000Y-110200000D03*
%TD*%
D20*
%TO.C,LED7*%
X159150000Y-38375000D03*
X159150000Y-36875000D03*
X153700000Y-38375000D03*
D21*
X153700000Y-36875000D03*
%TD*%
D29*
%TO.C,D92*%
X145112500Y-154387000D03*
X145112500Y-152637000D03*
X148612500Y-152637000D03*
X148612500Y-154387000D03*
%TD*%
D19*
%TO.C,D77*%
X70700000Y-151525000D03*
X70700000Y-148225000D03*
%TD*%
D35*
%TO.C,R7*%
X136192500Y-145300000D03*
X137842500Y-145300000D03*
%TD*%
D18*
%TO.C,C45*%
X52550000Y-58600000D03*
X51000000Y-58600000D03*
%TD*%
%TO.C,C82*%
X304775000Y-120500000D03*
X303225000Y-120500000D03*
%TD*%
D20*
%TO.C,LED66*%
X202015000Y-100300000D03*
X202015000Y-98800000D03*
X196565000Y-100300000D03*
D21*
X196565000Y-98800000D03*
%TD*%
D19*
%TO.C,D25*%
X156400000Y-75350000D03*
X156400000Y-72050000D03*
%TD*%
M02*
